<svg xmlns="http://www.w3.org/2000/svg" viewBox="0 0 157.8 100.94"><defs><style>.cls-1{fill:#ebebeb;}.cls-2{fill:#ffc727;}.cls-3,.cls-5{fill:#fff;}.cls-3{opacity:0.5;}.cls-4{opacity:0.1;}.cls-16,.cls-6{fill:#263238;}.cls-7{fill:#eb9481;}.cls-8{fill:#a6a6a6;}.cls-9{fill:#c7c7c7;}.cls-10{fill:#455a64;}.cls-11{fill:#dbdbdb;}.cls-12{fill:#f7a9a0;}.cls-13{fill:#ff9cbd;}.cls-14{fill:#ad6359;}.cls-15{fill:#37474f;}.cls-16{opacity:0.2;}.cls-17{fill:#d3766a;}.cls-18{fill:none;}</style></defs><title>Asset 1connect-people</title><g id="Layer_2" data-name="Layer 2"><g id="Character_1" data-name="Character 1"><path class="cls-1" d="M4.27,56.44a.72.72,0,0,1,.77,0l.2.11.21.11a.73.73,0,0,1,.43.64l0,.95L9,58.17l0-1a.72.72,0,0,1,.39-.67l.39-.24a.73.73,0,0,1,.78,0l.84.45L12.87,54,12,53.5a.74.74,0,0,1-.39-.67,3.69,3.69,0,0,0,0-.47.71.71,0,0,1,.34-.69l.81-.51-1.64-2.65-.82.51a.72.72,0,0,1-.77,0l-.2-.11-.2-.1a.75.75,0,0,1-.44-.65l0-.95-3.11.09,0,1a.75.75,0,0,1-.39.67,3.26,3.26,0,0,0-.4.24.72.72,0,0,1-.77.05l-.84-.45L1.73,51.51l.84.45a.73.73,0,0,1,.38.67,3.7,3.7,0,0,0,0,.47.76.76,0,0,1-.35.7l-.81.5L3.45,57Zm.78-4.92a2.55,2.55,0,1,1,1,3.46A2.54,2.54,0,0,1,5.05,51.52Z"/><path class="cls-1" d="M123,12.75a.51.51,0,0,1,.48-.25h.32a.5.5,0,0,1,.48.25l.34.58,1.89-1.09-.34-.58a.55.55,0,0,1,0-.54l.17-.28a.51.51,0,0,1,.46-.29h.67V8.37h-.67a.52.52,0,0,1-.46-.29,2.61,2.61,0,0,0-.17-.28.57.57,0,0,1,0-.55l.34-.58-1.89-1.09-.34.58a.52.52,0,0,1-.48.26h-.32a.52.52,0,0,1-.48-.26l-.34-.58L120.8,6.67l.34.58a.52.52,0,0,1,0,.55,2.54,2.54,0,0,0-.16.28.54.54,0,0,1-.46.29h-.67v2.18h.67a.52.52,0,0,1,.46.29c.05.09.1.19.16.28a.5.5,0,0,1,0,.54l-.34.58,1.89,1.09Zm-1.15-3.29a1.79,1.79,0,1,1,1.79,1.78A1.79,1.79,0,0,1,121.88,9.46Z"/><path class="cls-1" d="M13,65.51a.52.52,0,0,1,.25.48v.33a.52.52,0,0,1-.25.48l-.58.33L13.54,69l.58-.33a.52.52,0,0,1,.55,0l.28.16a.53.53,0,0,1,.28.46V70h2.19v-.67a.53.53,0,0,1,.28-.46l.28-.16a.52.52,0,0,1,.55,0l.58.33,1.09-1.89-.58-.33a.53.53,0,0,1-.26-.48.92.92,0,0,0,0-.16,1,1,0,0,0,0-.17.53.53,0,0,1,.26-.48l.58-.33-1.09-1.89-.58.33a.5.5,0,0,1-.54,0,2.69,2.69,0,0,0-.29-.16.53.53,0,0,1-.28-.46v-.67H15.23V63a.53.53,0,0,1-.28.46,2.69,2.69,0,0,0-.29.16.5.5,0,0,1-.54,0l-.58-.33-1.09,1.89Zm3.29-1.14a1.79,1.79,0,1,1-1.78,1.79A1.79,1.79,0,0,1,16.32,64.37Z"/><circle class="cls-1" cx="99.99" cy="85.96" r="5.88"/><circle class="cls-1" cx="63.21" cy="13.86" r="5.88"/><circle class="cls-1" cx="39.98" cy="49.55" r="2.51" transform="translate(-15.18 81.33) rotate(-81.05)"/><circle class="cls-1" cx="138.92" cy="49.91" r="2.51"/><rect class="cls-1" x="54.99" y="36.37" width="0.48" height="27.73" transform="translate(3.74 104.28) rotate(-88.67)"/><rect class="cls-1" x="89.2" y="47.65" width="0.48" height="41.21" transform="translate(-22.33 55.38) rotate(-30.78)"/><rect class="cls-1" x="71.04" y="13.94" width="0.48" height="31.29" transform="translate(-5.8 33.44) rotate(-25.41)"/><rect class="cls-1" x="85.5" y="49.67" width="53.42" height="0.48"/><circle class="cls-1" cx="44.17" cy="3.78" r="1.67"/><path class="cls-1" d="M39.81,7.49a1.68,1.68,0,1,1-1.68-1.67A1.67,1.67,0,0,1,39.81,7.49Z"/><path class="cls-1" d="M45.85,11.2a1.68,1.68,0,1,1-1.68-1.67A1.67,1.67,0,0,1,45.85,11.2Z"/><polygon class="cls-1" points="44.05 11.59 37.68 7.49 44.05 3.58 44.3 3.99 38.59 7.5 44.3 11.19 44.05 11.59"/><rect class="cls-2" x="50.71" y="23.13" width="0.96" height="29.29" transform="matrix(0.36, -0.93, 0.93, 0.36, -2.42, 72.02)"/><rect class="cls-2" x="50.59" y="61" width="17.34" height="0.96" transform="matrix(0.86, -0.52, 0.52, 0.86, -23.2, 39.32)"/><rect class="cls-2" x="99.35" y="54.16" width="0.96" height="18.55" transform="translate(-0.47 126.12) rotate(-64.44)"/><rect class="cls-2" x="92.54" y="35.05" width="29.17" height="0.96" transform="translate(-5.66 39.7) rotate(-20.47)"/><rect class="cls-2" x="82.13" y="26.16" width="17.04" height="0.96" transform="translate(19.86 89.23) rotate(-57.86)"/><circle class="cls-2" cx="78.9" cy="49.22" r="18.25"/><circle class="cls-2" cx="19.6" cy="25.12" r="16.93" transform="translate(-9.51 38.08) rotate(-76.03)"/><path class="cls-2" d="M19.6,44.72a19.6,19.6,0,1,1,19.6-19.6A19.62,19.62,0,0,1,19.6,44.72Zm0-38.24A18.64,18.64,0,1,0,38.24,25.12,18.67,18.67,0,0,0,19.6,6.48Z"/><path class="cls-2" d="M138.21,42.42a19.6,19.6,0,1,1,19.59-19.6A19.63,19.63,0,0,1,138.21,42.42Zm0-38.24a18.64,18.64,0,1,0,18.63,18.64A18.66,18.66,0,0,0,138.21,4.18Z"/><path class="cls-2" d="M124.44,97A19.6,19.6,0,1,1,144,77.41,19.62,19.62,0,0,1,124.44,97Zm0-38.24a18.64,18.64,0,1,0,18.64,18.64A18.66,18.66,0,0,0,124.44,58.77Z"/><path class="cls-2" d="M35.44,95.4A19.6,19.6,0,1,1,55,75.8,19.63,19.63,0,0,1,35.44,95.4Zm0-38.24A18.64,18.64,0,1,0,54.08,75.8,18.67,18.67,0,0,0,35.44,57.16Z"/><circle class="cls-2" cx="124.44" cy="77.41" r="16.93" transform="translate(21.23 181.45) rotate(-77.11)"/><circle class="cls-2" cx="138.21" cy="22.82" r="16.93"/><circle class="cls-3" cx="138.21" cy="22.82" r="16.93"/><circle class="cls-2" cx="35.44" cy="75.8" r="16.93" transform="translate(-25.33 18.28) rotate(-21.51)"/><circle class="cls-3" cx="35.44" cy="75.8" r="16.93" transform="translate(-25.33 18.28) rotate(-21.51)"/><circle class="cls-2" cx="98.65" cy="14.18" r="8.14" transform="translate(62.5 107.06) rotate(-76.91)"/><circle class="cls-4" cx="98.65" cy="14.18" r="8.14" transform="translate(62.5 107.06) rotate(-76.91)"/><rect class="cls-2" x="78.42" y="64.93" width="0.96" height="19.26"/><circle class="cls-2" cx="78.9" cy="89.91" r="8.14"/><circle class="cls-4" cx="78.9" cy="89.91" r="8.14"/><g id="u5Zjqx"><path class="cls-5" d="M91.11,45.92,90,47l-.62.63a14.82,14.82,0,0,0-21,0c-.19-.21-.39-.41-.59-.62l-1.07-1.08,0,0v0a.27.27,0,0,1,.08-.07c.45-.41.9-.83,1.37-1.22a17,17,0,0,1,7.41-3.45c.7-.13,1.41-.19,2.11-.28.24,0,1.8,0,1.85,0,.48,0,1,.06,1.44.11a16.24,16.24,0,0,1,3.88.92,17.33,17.33,0,0,1,5.12,3c.39.34.77.69,1.15,1Z"/><path class="cls-5" d="M71.85,51.05l-1.72-1.71a12.39,12.39,0,0,1,17.54,0L85.94,51a10,10,0,0,0-14.09,0Z"/><path class="cls-5" d="M84.22,52.77l-1.71,1.71a5.08,5.08,0,0,0-7.22,0c-.58-.57-1.14-1.14-1.71-1.71A7.47,7.47,0,0,1,84.22,52.77Z"/><path class="cls-5" d="M80.45,56a1.55,1.55,0,1,1-1.55-1.55A1.55,1.55,0,0,1,80.45,56Z"/></g><path class="cls-5" d="M93.45,15.23a1.35,1.35,0,0,0,1.24,1.34h7.59A1.58,1.58,0,0,0,103.86,15a1.57,1.57,0,0,0-1.43-1.56,2.65,2.65,0,0,0-5.14-.83,1.55,1.55,0,0,0-.71-.17A1.57,1.57,0,0,0,95,13.91a.78.78,0,0,0-.22,0A1.34,1.34,0,0,0,93.45,15.23Z"/><path class="cls-5" d="M79,85.86c-2.89,0-5.23,1.73-5.23,3.87a3,3,0,0,0,.52,1.69L73.58,93l1.8-.46A6.32,6.32,0,0,0,79,93.6c2.9,0,5.24-1.73,5.24-3.87S81.89,85.86,79,85.86Zm-2.42,4.41a.54.54,0,1,1,0-1.08.54.54,0,0,1,0,1.08Zm2.42,0a.54.54,0,0,1,0-1.08.54.54,0,1,1,0,1.08Zm2.43,0a.54.54,0,1,1,.54-.54A.54.54,0,0,1,81.42,90.27Z"/><path class="cls-6" d="M128.78,73.62a.14.14,0,0,1-.12.16l-.62,0a7.65,7.65,0,0,0-1-2.14,7.55,7.55,0,0,1,.39,2.18l-1.22.06c-.49-2.54-1.1-4.42-1.06-3.84A12.66,12.66,0,0,1,125,74c-2.94.14-6.81.28-9.6.32a28.38,28.38,0,0,0-.66-2.81,7.28,7.28,0,0,0-.49,2.83c-.89,0-1.6,0-2,0,0,0-.21-1.18-.24-1.57a8.19,8.19,0,0,1,.31-2.95A15.32,15.32,0,0,1,113.59,67a0,0,0,0,0,0,0h0a8.78,8.78,0,0,0,.74-1.83v0a7.58,7.58,0,0,0,.23-1.4,4,4,0,0,1,2.74-3.7c3.07-2.89,6.15-1.68,7.09.54.09.22.17.47.26.74h0c.32,1,.6,2.3.86,3.3h0a9,9,0,0,0,.37,1.16C126.68,67.62,128.45,68.64,128.78,73.62Z"/><path class="cls-6" d="M116.61,60.52a3.28,3.28,0,0,0-1.89,2.64,8.64,8.64,0,0,1-.43,2.15,7.46,7.46,0,0,1-1.23,1.9,5.69,5.69,0,0,0-1.4,3.11,9.57,9.57,0,0,0,.37,3.92s0,0,0,0a10.22,10.22,0,0,1-.14-4.09,7.3,7.3,0,0,1,1.8-3.28,5.72,5.72,0,0,0,1.17-2.81,6.91,6.91,0,0,1,.32-1.86,3.77,3.77,0,0,1,1.49-1.55A.07.07,0,0,0,116.61,60.52Z"/><path class="cls-6" d="M127.69,67.75a11.3,11.3,0,0,1-2-3c-.4-1.11-.63-2.28-1-3.39,0,0,0,0,0,0,.63,2,.75,4,2,5.61a13,13,0,0,1,1.84,2.81,9.58,9.58,0,0,1,.71,3.56s.06,0,.06,0A7.91,7.91,0,0,0,127.69,67.75Z"/><path class="cls-2" d="M107.64,93.82a.68.68,0,0,1,0-.14l0,.18S107.63,93.83,107.64,93.82Z"/><path class="cls-2" d="M115.63,95.23l-.08,0,0,0h0l.09,0Z"/><path class="cls-7" d="M118.94,74c-5,5.07-11.3,15.73-10.12,17.9,1.3,2.4,8.27-4.7,8.24-5.12s2.43-6.79,4.29-11.5S120.17,72.71,118.94,74Z"/><path class="cls-8" d="M117.11,86.75c.21-.69,3.54-9.24,4.5-11.94s.07-3.53-2.66-1.06-8.68,10.74-10,15.13c-1.31,4.22.87,4.22,3.74,2.27A22.73,22.73,0,0,0,117.11,86.75Z"/><path class="cls-5" d="M122,73.35c0,.05,0,.11,0,.16a.21.21,0,0,1-.15.07.17.17,0,0,1-.17-.17.18.18,0,0,1,.17-.17A.17.17,0,0,1,122,73.35Zm-5.67,3.58a.18.18,0,0,0-.17.17.17.17,0,0,0,.34,0A.18.18,0,0,0,116.29,76.93Zm2.76,0a.17.17,0,0,0-.17.17.16.16,0,0,0,.17.17.17.17,0,0,0,.17-.17A.18.18,0,0,0,119.05,76.93Zm-1.38-1.77a.17.17,0,0,0-.17.17.17.17,0,0,0,.17.18.18.18,0,0,0,.17-.18A.18.18,0,0,0,117.67,75.16Zm2.76,0a.18.18,0,0,0-.18.17.18.18,0,0,0,.18.18.18.18,0,0,0,.17-.18A.18.18,0,0,0,120.43,75.16Zm-6.9,5.46a.17.17,0,0,0-.17.17.18.18,0,0,0,.17.17.17.17,0,0,0,.17-.17A.16.16,0,0,0,113.53,80.62Zm2.76,0a.17.17,0,0,0-.17.17.17.17,0,0,0,.34,0A.17.17,0,0,0,116.29,80.62Zm2.76,0a.16.16,0,0,0-.17.17.17.17,0,0,0,.17.17.18.18,0,0,0,.17-.17A.17.17,0,0,0,119.05,80.62Zm-4.14-1.77a.18.18,0,0,0-.17.17.17.17,0,0,0,.17.17.16.16,0,0,0,.17-.17A.17.17,0,0,0,114.91,78.85Zm2.76,0a.17.17,0,0,0-.17.17.16.16,0,0,0,.17.17.17.17,0,0,0,.17-.17A.18.18,0,0,0,117.67,78.85Zm-4.14,5.45a.18.18,0,0,0-.17.18.18.18,0,0,0,.17.17.17.17,0,0,0,.17-.17A.17.17,0,0,0,113.53,84.3Zm2.76,0a.18.18,0,0,0-.17.18.17.17,0,0,0,.34,0A.18.18,0,0,0,116.29,84.3Zm-4.13-1.76a.17.17,0,1,0,0,.34.17.17,0,0,0,0-.34Zm2.75,0a.17.17,0,1,0,0,.34.17.17,0,0,0,0-.34Zm2.76,0a.17.17,0,1,0,0,.34.17.17,0,0,0,0-.34ZM110.78,88a.17.17,0,0,0-.17.17.16.16,0,0,0,.17.17.17.17,0,0,0,.17-.17A.18.18,0,0,0,110.78,88Zm2.75,0a.18.18,0,0,0-.17.17.17.17,0,0,0,.17.17.16.16,0,0,0,.17-.17A.17.17,0,0,0,113.53,88Zm-1.37-1.76a.17.17,0,0,0-.18.17.18.18,0,0,0,.18.17.18.18,0,0,0,.17-.17A.17.17,0,0,0,112.16,86.23Zm2.75,0a.17.17,0,0,0-.17.17.18.18,0,0,0,.17.17.17.17,0,0,0,.17-.17A.16.16,0,0,0,114.91,86.23Zm-4.13,5.45a.17.17,0,0,0-.17.17.16.16,0,0,0,.17.17.17.17,0,0,0,.17-.17A.18.18,0,0,0,110.78,91.68Zm-1.38-1.77a.17.17,0,0,0-.17.18.17.17,0,0,0,.17.17.18.18,0,0,0,.17-.17A.18.18,0,0,0,109.4,89.91Zm2.76,0a.18.18,0,0,0-.18.18.18.18,0,0,0,.18.17.18.18,0,0,0,.17-.17A.18.18,0,0,0,112.16,89.91Z"/><path class="cls-9" d="M133.21,91.89a16.94,16.94,0,0,1-18.06-.32l0-.23.72-5.31s-1.69-3-.71-5.07c.5-1.07,4.84-7.75,6.67-9.07S126.07,72,127,73C130.28,76.4,132,83,133.21,91.89Z"/><path class="cls-6" d="M115.19,91.34c.09-.89.19-1.78.29-2.66s.21-1.78.33-2.66l0,.07a5.9,5.9,0,0,1-1-2.44,5.32,5.32,0,0,1-.06-1.32,4.71,4.71,0,0,1,.33-1.29,12.67,12.67,0,0,1,1.23-2.3,21.41,21.41,0,0,1,1.56-2.09q-.76,1-1.44,2.16a14.62,14.62,0,0,0-1.15,2.31,4.45,4.45,0,0,0-.3,1.22,6,6,0,0,0,.06,1.27A5.87,5.87,0,0,0,116,86l0,0v0c-.11.89-.26,1.77-.39,2.66S115.34,90.46,115.19,91.34Z"/><path class="cls-6" d="M116.46,78.75a1.51,1.51,0,0,1,.06-.36c0-.11.08-.22.13-.33a1.87,1.87,0,0,1,.15-.32,3,3,0,0,1,.2-.29,5.21,5.21,0,0,1-.24.66Z"/><path class="cls-6" d="M118.87,85.34a11,11,0,0,1,2.85.47c.94.27,3,1.08,3.51,1.28,0,0,0,0,0,0a17.45,17.45,0,0,1-2-.59c-.91-.31-1.83-.59-2.77-.84a14.09,14.09,0,0,0-1.6-.29S118.83,85.34,118.87,85.34Z"/><path class="cls-6" d="M117.17,85.83a8.94,8.94,0,0,1,3,.26s0,0,0,0c-.49-.06-1-.12-1.49-.16s-1-.07-1.5-.1C117.15,85.85,117.15,85.83,117.17,85.83Z"/><path class="cls-7" d="M108.82,91.86c1.12,1.61,4.19,1.91,11.83,3.41,1.06.21,4.53-6.86,3.41-7.14-1.41-.35-7-1.42-7.37-1.44C113.19,86.47,108.05,90.76,108.82,91.86Z"/><path class="cls-7" d="M122.53,87.78a22.76,22.76,0,0,1,4.86,1.27,11.59,11.59,0,0,1,4.17,3.64c1.17,1.65,2.85,6.45,1.55,7.18s-2.64-4.34-2.64-4.34,2.34,4.84.78,5.37-2.94-5.36-2.94-5.36,2.29,5,.6,5.32c-1.28.22-2.83-5-2.83-5s1.94,4.33.63,4.62S123.53,96,123.53,96a7.57,7.57,0,0,1-6.25-2.26C117,93.46,122.53,87.78,122.53,87.78Z"/><path class="cls-6" d="M129.77,93.8c.29.56.59,1.13.84,1.71s.47,1.18.66,1.78a11,11,0,0,1,.51,2.42,24.11,24.11,0,0,0-1.33-4.14c-.25-.58-.46-1.17-.71-1.76A0,0,0,0,1,129.77,93.8Z"/><path class="cls-6" d="M127.65,94.65c.34.73.71,1.44,1,2.19s.54,1.47.8,2.23c0,.06,0,.05,0,0-.29-.75-.62-1.42-.92-2.17s-.57-1.5-.89-2.23C127.62,94.64,127.64,94.64,127.65,94.65Z"/><path class="cls-6" d="M125.69,95.05A17.88,17.88,0,0,1,127,98.51c0,.06,0,0-.05,0-.42-1.16-.73-2.08-1.3-3.43C125.65,95.05,125.68,95,125.69,95.05Z"/><path class="cls-8" d="M123.21,87.78l-6.7,7.46s-6.77-1.56-7.77-3.3c-.66-1.14,4.44-5.77,8.29-5.23Z"/><path class="cls-5" d="M113.7,88.16a.16.16,0,0,1-.17.17.17.17,0,0,1-.17-.17.18.18,0,0,1,.17-.17A.17.17,0,0,1,113.7,88.16Zm2.59-.17a.18.18,0,0,0-.17.17.17.17,0,0,0,.34,0A.18.18,0,0,0,116.29,88Zm2.76,0a.17.17,0,0,0-.17.17.16.16,0,0,0,.17.17.17.17,0,0,0,.17-.17A.18.18,0,0,0,119.05,88Zm2.75,0a.18.18,0,0,0-.17.17.17.17,0,0,0,.17.17.16.16,0,0,0,.17-.17A.17.17,0,0,0,121.8,88Zm-11,3.69a.17.17,0,0,0-.17.17.16.16,0,0,0,.17.17.17.17,0,0,0,.17-.17A.18.18,0,0,0,110.78,91.68Zm2.75,0a.18.18,0,0,0-.17.17.17.17,0,0,0,.17.17.16.16,0,0,0,.17-.17A.17.17,0,0,0,113.53,91.68Zm2.76,0a.18.18,0,0,0-.17.17.17.17,0,0,0,.34,0A.18.18,0,0,0,116.29,91.68Zm2.76,0a.17.17,0,0,0-.17.17.16.16,0,0,0,.17.17.17.17,0,0,0,.17-.17A.18.18,0,0,0,119.05,91.68Zm-6.89-1.77a.18.18,0,0,0-.18.18.18.18,0,0,0,.18.17.18.18,0,0,0,.17-.17A.18.18,0,0,0,112.16,89.91Zm2.75,0a.18.18,0,0,0-.17.18.18.18,0,0,0,.17.17.17.17,0,0,0,.17-.17A.17.17,0,0,0,114.91,89.91Zm2.76,0a.17.17,0,0,0-.17.18.17.17,0,0,0,.17.17.18.18,0,0,0,.17-.17A.18.18,0,0,0,117.67,89.91Zm2.76,0a.18.18,0,0,0-.18.18.18.18,0,0,0,.18.17.18.18,0,0,0,.17-.17A.18.18,0,0,0,120.43,89.91Zm-8.27,3.69a.18.18,0,0,0-.18.17.17.17,0,0,0,.18.17.17.17,0,0,0,.17-.17A.18.18,0,0,0,112.16,93.6Zm2.75,0a.18.18,0,0,0-.17.17.17.17,0,0,0,.17.17.16.16,0,0,0,.17-.17A.17.17,0,0,0,114.91,93.6Zm2.76,0a.17.17,0,0,0-.17.17.16.16,0,0,0,.17.17l.17-.19h0A.18.18,0,0,0,117.67,93.6Z"/><path class="cls-6" d="M112.44,87.92A6.65,6.65,0,0,1,117,86.7s0,0,0,0A10.89,10.89,0,0,0,112.45,88S112.42,87.93,112.44,87.92Z"/><path class="cls-6" d="M114.68,94c.69-.86,1.43-1.68,2.17-2.5s1.48-1.65,2.24-2.45c.43-.45.85-.91,1.3-1.34,0,0,0,0,0,0-.69.85-1.42,1.68-2.16,2.5s-1.48,1.64-2.23,2.46c-.42.45-.85.9-1.3,1.34C114.7,94,114.66,94,114.68,94Z"/><path class="cls-6" d="M123.22,87.68A8.84,8.84,0,0,0,122,87.4c-.42-.08-.84-.16-1.27-.22a25.6,25.6,0,0,0-4.18-.52s.08.09.09.08c.74,0,6.06,1,6.5,1.05l0,.09s0,.05,0,0l.14-.13A.06.06,0,0,0,123.22,87.68Z"/><path class="cls-8" d="M128.22,73.42c6.4,5.58,11.43,12.47,11.1,14.2-.6,3.21-4.83,3.41-5.47,2.71-2.59-2.8-5.33-8.24-8.29-14.31C122.91,70.6,126.11,71.58,128.22,73.42Z"/><path class="cls-5" d="M127.05,73.24a.16.16,0,0,1-.17.17.17.17,0,0,1-.17-.17.18.18,0,0,1,.17-.17A.17.17,0,0,1,127.05,73.24Zm-.17,3.52a.17.17,0,0,0-.17.17.18.18,0,0,0,.17.17.17.17,0,0,0,.17-.17A.16.16,0,0,0,126.88,76.76Zm2.76,0a.16.16,0,0,0-.17.17.17.17,0,0,0,.17.17.18.18,0,0,0,.17-.17A.17.17,0,0,0,129.64,76.76ZM125.5,75a.18.18,0,0,0-.17.17.17.17,0,0,0,.17.17.16.16,0,0,0,.17-.17A.17.17,0,0,0,125.5,75Zm2.76,0a.18.18,0,0,0-.17.17.17.17,0,1,0,.34,0A.18.18,0,0,0,128.26,75Zm1.38,5.46a.16.16,0,0,0-.17.17.17.17,0,0,0,.17.17.18.18,0,0,0,.17-.17A.17.17,0,0,0,129.64,80.45Zm2.75,0a.17.17,0,0,0-.17.17.18.18,0,0,0,.17.17.18.18,0,0,0,.18-.17A.17.17,0,0,0,132.39,80.45Zm2.7,0a.17.17,0,0,0-.11.16.18.18,0,0,0,.17.17.19.19,0,0,0,.15-.09Zm-6.83-1.78a.18.18,0,0,0-.17.17.17.17,0,1,0,.34,0A.18.18,0,0,0,128.26,78.68Zm2.76,0a.17.17,0,0,0-.17.17A.16.16,0,0,0,131,79a.17.17,0,0,0,.17-.17A.18.18,0,0,0,131,78.68Zm2.61.08a.16.16,0,0,0,0,.09.17.17,0,0,0,.17.17h.07Zm-3.93,5.39.11.18v0A.15.15,0,0,0,129.7,84.15Zm2.69,0a.18.18,0,0,0-.17.17.18.18,0,0,0,.17.18.18.18,0,0,0,.18-.18A.18.18,0,0,0,132.39,84.13Zm2.76,0a.18.18,0,0,0-.17.17.18.18,0,0,0,.17.18.17.17,0,0,0,.17-.18A.17.17,0,0,0,135.15,84.13Zm2.69,0h0a.15.15,0,0,0-.1.15.17.17,0,0,0,.17.18.16.16,0,0,0,.11,0A2.2,2.2,0,0,0,137.84,84.15ZM131,82.37a.16.16,0,0,0-.17.17.17.17,0,0,0,.17.17.18.18,0,0,0,.17-.17A.17.17,0,0,0,131,82.37Zm2.75,0a.17.17,0,0,0-.17.17.18.18,0,0,0,.17.17.17.17,0,0,0,.17-.17A.16.16,0,0,0,133.77,82.37Zm2.93.13h0a.76.76,0,0,1-.08-.11l-.09,0a.16.16,0,0,0-.17.17.17.17,0,0,0,.17.17.18.18,0,0,0,.17-.17Zm-4.31,5.32a.18.18,0,0,0-.17.17.17.17,0,0,0,.17.17.17.17,0,0,0,.18-.17A.18.18,0,0,0,132.39,87.82Zm2.76,0A.18.18,0,0,0,135,88a.17.17,0,0,0,.17.17.16.16,0,0,0,.17-.17A.17.17,0,0,0,135.15,87.82Zm2.76,0a.17.17,0,0,0-.17.17.16.16,0,0,0,.17.17.17.17,0,0,0,.17-.17A.18.18,0,0,0,137.91,87.82ZM131,86.06a.16.16,0,0,0-.17.17.17.17,0,0,0,.17.17.18.18,0,0,0,.17-.17A.17.17,0,0,0,131,86.06Zm2.75,0a.17.17,0,0,0-.17.17.18.18,0,0,0,.17.17.17.17,0,0,0,.17-.17A.16.16,0,0,0,133.77,86.06Zm2.76,0a.17.17,0,0,0-.17.17.17.17,0,0,0,.34,0A.17.17,0,0,0,136.53,86.06Zm-2.76,3.68a.18.18,0,0,0-.17.17.17.17,0,0,0,.17.17.16.16,0,0,0,.17-.17A.17.17,0,0,0,133.77,89.74Zm2.76,0a.18.18,0,0,0-.17.17.17.17,0,1,0,.34,0A.18.18,0,0,0,136.53,89.74Z"/><path class="cls-6" d="M132.79,89.08c-.47-.73-.91-1.48-1.36-2.22s-.89-1.49-1.32-2.24c-.87-1.48-1.67-3-2.44-4.53-.43-.86-.88-1.73-1.29-2.6a0,0,0,0,0,0,0c.4,1,.83,2,1.3,3l0,0-.31-.42c-.2-.28-.39-.57-.57-.86,0,0,0,0,0,0a10.37,10.37,0,0,0,.7,1.15,3.81,3.81,0,0,0,.4.5h0c.21.45.43.88.66,1.32a50.56,50.56,0,0,0,2.61,4.5c.27.4.54.81.82,1.21s.58.79.87,1.18C132.77,89.12,132.81,89.1,132.79,89.08Z"/><path class="cls-7" d="M134.91,89.71c-1.21-1.74-.6-5.2.73-13.5.19-1.15,8.91-1.24,8.77,0a68,68,0,0,1-2.12,8.62C140.31,89.26,135.73,90.89,134.91,89.71Z"/><path class="cls-7" d="M144.7,72.76c-.34-2.64-.83-3.27.07-5.65.59-1.56-.16-2.61-1.45-1.45-2.13,1.88-2.41,5.38-2.16,6.62Z"/><path class="cls-6" d="M136.26,63.06,133.1,73.69c-.13.31,0,.58.33.59l5.54.23a.9.9,0,0,0,.8-.54l3.16-10.63a.39.39,0,0,0-.33-.59l-5.55-.23A.89.89,0,0,0,136.26,63.06Z"/><path class="cls-10" d="M136.92,63.08l-3.16,10.63c-.13.31,0,.58.33.59l5.54.23a.89.89,0,0,0,.8-.53l3.16-10.64a.39.39,0,0,0-.33-.59l-5.55-.23A.9.9,0,0,0,136.92,63.08Z"/><path class="cls-6" d="M138.42,63.63a.47.47,0,0,1-.5.44.46.46,0,0,1-.44-.5.47.47,0,1,1,.94.06Z"/><path class="cls-7" d="M143.33,80.22a17,17,0,0,0,1.5-6.28A10.37,10.37,0,0,0,139,64.85c-1.22-.67-3.44-.77-1.84,1.06,1.13,1.3,2.24,1.78,2.76,2.65,0,0-2.84.22-3.47,1.47a25.72,25.72,0,0,0-1.41,3.38,6.25,6.25,0,0,0,.61.32,4.65,4.65,0,0,0,.23,3.09Z"/><path class="cls-7" d="M144.47,72.07a15.49,15.49,0,0,0-3.9-3.21c-1.87-1-5.75-2.3-6.44-.91-.51,1,.92,1.66.92,1.66s-1.72-.22-2,.81.9,1.36.9,1.36-1.07,0-1.12,1c-.07,1.13,2.18.85,3.1,2C136.17,75.09,144.47,72.07,144.47,72.07Z"/><path class="cls-6" d="M139.89,71a8.41,8.41,0,0,0-4.8-1.42s-.07,0,0,0a20.67,20.67,0,0,1,4.82,1.4S139.9,71,139.89,71Z"/><path class="cls-6" d="M138.86,72.88A9.45,9.45,0,0,0,134,71.74c-.05,0-.07,0,0,.05a21.47,21.47,0,0,1,4.89,1.11S138.87,72.88,138.86,72.88Z"/><path class="cls-8" d="M144.55,79l-10.11,2.87s-2,6.63-.73,8.29,7.73-1,9-4.85Z"/><path class="cls-5" d="M140.84,80.62a.18.18,0,0,1-.18.17.18.18,0,0,1-.17-.17.17.17,0,0,1,.17-.17A.17.17,0,0,1,140.84,80.62Zm2.58-.17a.17.17,0,0,0-.17.17.18.18,0,0,0,.17.17.17.17,0,0,0,.17-.17A.16.16,0,0,0,143.42,80.45Zm-8.27,3.68a.18.18,0,0,0-.17.17.18.18,0,0,0,.17.18.17.17,0,0,0,.17-.18A.17.17,0,0,0,135.15,84.13Zm2.76,0a.17.17,0,0,0-.17.17.17.17,0,0,0,.17.18.18.18,0,0,0,.17-.18A.18.18,0,0,0,137.91,84.13Zm2.75,0a.18.18,0,0,0-.17.17.18.18,0,0,0,.17.18.18.18,0,0,0,.18-.18A.18.18,0,0,0,140.66,84.13Zm-4.13-1.76a.17.17,0,0,0-.17.17.17.17,0,0,0,.34,0A.17.17,0,0,0,136.53,82.37Zm2.76,0a.16.16,0,0,0-.17.17.17.17,0,0,0,.17.17.18.18,0,0,0,.17-.17A.17.17,0,0,0,139.29,82.37Zm2.75,0a.17.17,0,0,0-.17.17.18.18,0,0,0,.17.17.17.17,0,0,0,.17-.17A.16.16,0,0,0,142,82.37Zm-6.89,5.45A.18.18,0,0,0,135,88a.17.17,0,0,0,.17.17.16.16,0,0,0,.17-.17A.17.17,0,0,0,135.15,87.82Zm2.76,0a.17.17,0,0,0-.17.17.16.16,0,0,0,.17.17.17.17,0,0,0,.17-.17A.18.18,0,0,0,137.91,87.82Zm2.75,0a.18.18,0,0,0-.17.17.17.17,0,0,0,.17.17.17.17,0,0,0,.18-.17A.18.18,0,0,0,140.66,87.82Zm-6.89-1.76a.17.17,0,0,0-.17.17.18.18,0,0,0,.17.17.17.17,0,0,0,.17-.17A.16.16,0,0,0,133.77,86.06Zm2.76,0a.17.17,0,0,0-.17.17.17.17,0,0,0,.34,0A.17.17,0,0,0,136.53,86.06Zm2.76,0a.16.16,0,0,0-.17.17.17.17,0,0,0,.17.17.18.18,0,0,0,.17-.17A.17.17,0,0,0,139.29,86.06Zm2.75,0a.17.17,0,0,0-.17.17.18.18,0,0,0,.17.17.17.17,0,0,0,.17-.17A.16.16,0,0,0,142,86.06Zm-8.27,3.68a.18.18,0,0,0-.17.17.17.17,0,0,0,.17.17.16.16,0,0,0,.17-.17A.17.17,0,0,0,133.77,89.74Zm2.76,0a.18.18,0,0,0-.17.17.17.17,0,1,0,.34,0A.18.18,0,0,0,136.53,89.74Z"/><path class="cls-6" d="M134.77,84.19c1.13-.26,2.24-.57,3.36-.89s2.23-.64,3.33-1c.63-.2,1.25-.39,1.87-.61,0,0,0,0,0,0-1.12.25-2.24.57-3.35.88s-2.23.63-3.34,1c-.63.18-1.25.38-1.87.6C134.73,84.14,134.74,84.2,134.77,84.19Z"/><path class="cls-6" d="M134.8,81.78l-.47.08s0,0-.05,0c-.17.59-.29,1.19-.42,1.79s-.22,1.19-.32,1.79c-.06.32-.1.64-.14,1a3.65,3.65,0,0,0-.35,1.25s0,0,0,0a4.39,4.39,0,0,1,.3-1.13,7.85,7.85,0,0,0,.06,2.37h0a10.84,10.84,0,0,1,.28-3.54c.1-.57.21-1.15.32-1.72s.25-1.14.35-1.71l.4-.16A0,0,0,0,0,134.8,81.78Z"/><path class="cls-7" d="M124.48,71.51c0,.33-1.46,2.58-3,2.62-.49,0-.68-2.67-.68-2.67l-.06-.19L120,68.55l3.1-2.32.44-.31s.18.76.39,1.7l0,.14s0,.1,0,.15l.09.43c0,.11,0,.22.07.34l.06.34A17.67,17.67,0,0,1,124.48,71.51Z"/><path class="cls-6" d="M124.46,71a5.07,5.07,0,0,1-3.93-.56L120,68.55l3.1-2.32.44-.31s.18.76.39,1.71l0,.13s0,.1,0,.15l.09.43c0,.11,0,.22.07.34l.06.34C124.32,69.76,124.41,70.51,124.46,71Z"/><path class="cls-7" d="M126,64.09c.94,4.9-1.89,6-2.94,6.22s-4.25.68-5.69-4.09.54-6.76,2.7-7.29S125,59.2,126,64.09Z"/><path class="cls-6" d="M125.05,63.16l-.34,0a.61.61,0,0,1-.35-.09.22.22,0,0,1,0-.22.47.47,0,0,1,.42-.16.68.68,0,0,1,.43.17A.19.19,0,0,1,125.05,63.16Z"/><path class="cls-6" d="M121.55,63.45l.33-.11a.61.61,0,0,0,.31-.18.18.18,0,0,0,0-.22.46.46,0,0,0-.44,0,.72.72,0,0,0-.38.28A.19.19,0,0,0,121.55,63.45Z"/><path class="cls-6" d="M122.61,64.82s0,0,0,0c.06.33.07.73-.22.88,0,0,0,0,0,0C122.74,65.64,122.72,65.12,122.61,64.82Z"/><path class="cls-6" d="M122.26,64.51c-.55,0-.43,1.13.07,1.09S122.72,64.48,122.26,64.51Z"/><path class="cls-6" d="M122.05,64.59c-.09.07-.17.19-.28.21s-.25-.07-.35-.18,0,0,0,0c0,.21.12.41.35.42s.33-.19.36-.41C122.13,64.61,122.09,64.56,122.05,64.59Z"/><path class="cls-6" d="M124.57,64.48s0,0,0,0c0,.34.12.72.44.8,0,0,0,0,0,0C124.66,65.31,124.54,64.8,124.57,64.48Z"/><path class="cls-6" d="M124.83,64.09c.54-.1.71,1,.21,1.07S124.38,64.18,124.83,64.09Z"/><path class="cls-6" d="M125.07,64.13c.09,0,.19.13.3.12s.19-.14.25-.26,0,0,0,0c0,.2,0,.43-.19.5s-.33-.09-.41-.29C125,64.17,125,64.11,125.07,64.13Z"/><path class="cls-6" d="M123,67.44c.09.08.17.18.3.18a.92.92,0,0,0,.36-.1s0,0,0,0a.44.44,0,0,1-.42.21.35.35,0,0,1-.28-.28S123,67.43,123,67.44Z"/><path class="cls-6" d="M124.27,66.06a6.08,6.08,0,0,1,.15.73s0,0-.13,0h0a1.14,1.14,0,0,1-1.15-.3s0,0,0,0a1.7,1.7,0,0,0,1.06.17c0-.07-.25-.84-.21-.85a2.15,2.15,0,0,1,.55.06c-.23-1-.64-2-.86-3.07,0,0,.05-.06.06,0a16.68,16.68,0,0,1,1.07,3.27C124.88,66.21,124.37,66.09,124.27,66.06Z"/><path class="cls-6" d="M117.55,66.26c1.23-.14,1.29-4,1.29-4.42a8.44,8.44,0,0,0,.22,1.91,1.32,1.32,0,0,0,.38-.11h0a5.23,5.23,0,0,1,0-.56,2.34,2.34,0,0,1,.12.52l.22-.08a4.93,4.93,0,0,1,0-1.2,11,11,0,0,1,.3,1.08,14.85,14.85,0,0,1,3.18-.82,6.31,6.31,0,0,1,.81-.06c0-.46-.13-1-.09-.85a4,4,0,0,1,.26.84h.36c0-.65-.41-1.67-.3-1.51a4.49,4.49,0,0,1,.76,1.55c.45.05.58.12.58,0a5.44,5.44,0,0,0-1.92-3.23,4.37,4.37,0,0,0-6.31.92A4,4,0,0,0,116,62.81C115.88,64.33,116.84,66.34,117.55,66.26Z"/><path class="cls-5" d="M122.05,66.69a1.54,1.54,0,1,1,1.43-2h0a1.54,1.54,0,0,1-1.06,1.9A1.19,1.19,0,0,1,122.05,66.69ZM122,63.83a1.26,1.26,0,0,0-.33.05,1.34,1.34,0,1,0,.33-.05Z"/><path class="cls-5" d="M125.53,66.15a1.42,1.42,0,0,1-1.26-1.35,1.79,1.79,0,0,1,.17-1.11,1,1,0,0,1,1.61-.25,1.87,1.87,0,0,1,.48,1,1.39,1.39,0,0,1-.9,1.69Zm-.25-2.85h-.07a.83.83,0,0,0-.59.47,1.56,1.56,0,0,0-.14,1c.1.72.61,1.25,1.12,1.17s.84-.73.73-1.45a1.58,1.58,0,0,0-.42-.9A.9.9,0,0,0,125.28,63.3Z"/><path class="cls-5" d="M123.45,64.92l-.15-.14a.83.83,0,0,1,1.12-.23l-.13.17C123.91,64.41,123.47,64.9,123.45,64.92Z"/><path class="cls-5" d="M117.05,66.33l-.19-.07c0-.09.31-.89.75-1s2.87-.29,3-.3v.21a24.6,24.6,0,0,0-2.93.29C117.38,65.52,117.13,66.11,117.05,66.33Z"/><path class="cls-7" d="M118.36,66.32s-1.25-1.43-1.91-1,.39,2.62,1.24,2.84a.84.84,0,0,0,1.08-.56Z"/><path class="cls-6" d="M116.77,66s0,0,0,0A2.11,2.11,0,0,1,118,67.19a.46.46,0,0,0-.71,0s0,0,0,0a.51.51,0,0,1,.59.12,2.83,2.83,0,0,1,.32.43s.12,0,.09,0h0C118.25,66.92,117.57,66,116.77,66Z"/><path class="cls-6" d="M117.33,59.83c0,.37-1.76,1.24-3,.31a1.41,1.41,0,0,1,1-2.6A2.69,2.69,0,0,1,117.33,59.83Z"/><path class="cls-6" d="M113.7,58.49a2.16,2.16,0,0,1,1-1.05,1.32,1.32,0,0,1,1.29,0,2.6,2.6,0,0,1,1,1,3.93,3.93,0,0,1,.3.66,2.14,2.14,0,0,1,.14.71,1.73,1.73,0,0,0,0-.75,3,3,0,0,0-.24-.72,2.52,2.52,0,0,0-1-1.16,1.58,1.58,0,0,0-.78-.19,1.52,1.52,0,0,0-.75.25A1.89,1.89,0,0,0,113.7,58.49Z"/><path class="cls-7" d="M115.62,95.24l-.09,0h0Z"/><path class="cls-2" d="M107.66,93.68l0,.18s0,0,0,0A.68.68,0,0,1,107.66,93.68Z"/><path class="cls-2" d="M107.66,93.68l0,.18s0,0,0,0A.68.68,0,0,1,107.66,93.68Z"/><path class="cls-2" d="M116,96.1h0l-.26.06Z"/><path class="cls-11" d="M107.66,93.68l0,.18s0,0,0,0A.68.68,0,0,1,107.66,93.68Z"/><path class="cls-12" d="M36.13,73.72c1.4,2.07,8.72,12,12.66,11.83,4.78-.18,10.62-2.09,13.05-3.74,1.36-.92-3.35-7.53-4.68-6.85a55.2,55.2,0,0,1-7.8,2.79c-.84.18-6.94-4.37-10.61-6.37C35.45,69.58,35.15,72.27,36.13,73.72Z"/><path class="cls-12" d="M61.6,81.89a52,52,0,0,0,6.65-3.54c1-.84,3.62-3.43,3.06-4.24s-1.4-.12-1.4-.12.94-1.27.31-2-1.9.36-1.9.36.87-1.37.18-2.09-1.77.62-1.77.62.85-1.22,0-1.57c-1-.43-2.31,2-3.45,2.84-.27.19-5.56,3.47-5.56,3.47Z"/><path class="cls-6" d="M66.82,70.73a7.17,7.17,0,0,1-3.46,3.37,0,0,0,1,0,0,.06c1.8-.8,2.84-1.43,3.53-3.39C66.94,70.68,66.87,70.64,66.82,70.73Z"/><path class="cls-6" d="M68.39,72.17a10.68,10.68,0,0,1-3.73,3.59s0,.06,0,0c1.82-1,2.84-1.64,3.78-3.56C68.51,72.16,68.44,72.09,68.39,72.17Z"/><path class="cls-6" d="M69.82,74.05a9.66,9.66,0,0,1-3.95,3.3c-.05,0,0,.08,0,.07a6.87,6.87,0,0,0,4-3.33C69.93,74,69.9,74,69.82,74.05Z"/><path class="cls-12" d="M55.82,76.21a25.12,25.12,0,0,1,1.54-3.34c.63-1,4.29-3.67,4.92-2.91.82,1-1,3-2,3.81,0,0,1.88,2.27.89,4S55.82,76.21,55.82,76.21Z"/><path class="cls-6" d="M62.42,70.3c.1,1.43-1.3,2.47-2.22,3.37a.12.12,0,0,0,0,.19c.72,1,1.46,2.62,1,3.86,0,0,0,.06,0,0a3.89,3.89,0,0,0-.81-4c1-.91,2.31-2,1.94-3.48Z"/><path class="cls-2" d="M55.53,75.33l4.22,8.44s-9.24,3.58-12.83,1.57-9.16-8.91-10.31-10.49c-2.54-3.44-.55-5.25,2.28-3.49s9.8,6,10.25,6.17S55.53,75.33,55.53,75.33Z"/><path class="cls-4" d="M46.12,84.84c-3.57-2.47-8.44-8.53-9.51-10-2.3-3.13-.88-4.9,1.52-3.89Z"/><path class="cls-10" d="M57.47,84c-.53-.93-1-1.89-1.5-2.85s-1-1.91-1.43-2.88c-.26-.55-.53-1.1-.77-1.66,0,0,0,0,0,0,.53.92,1,1.88,1.51,2.83s1,1.92,1.44,2.89c.27.54.53,1.09.77,1.65C57.53,84,57.49,84,57.47,84Z"/><path class="cls-2" d="M44.48,90.11a16.94,16.94,0,0,1-19.51-1c.92-4.81,3.2-13,7.91-18.43,1.31-1.51,4.89-1.07,5.31-.46C41,74.28,43.5,84.94,44.48,90.11Z"/><polygon class="cls-8" points="40.65 93.61 50.99 96.04 56.38 81.86 46.04 79.43 40.65 93.61"/><polygon class="cls-9" points="41.16 93.73 51.5 96.16 56.89 81.97 46.54 79.55 41.16 93.73"/><path class="cls-5" d="M50.53,87.53a1.15,1.15,0,0,1-1.33.75.93.93,0,0,1-.68-1.22,1.14,1.14,0,0,1,1.33-.75A.93.93,0,0,1,50.53,87.53Z"/><path class="cls-12" d="M31,72.6c-3,4.17-9.42,13.68-7.53,15.88,3.13,3.61,10.75,6.77,13.13,7.49,1,.31,4.72-7.18,3.75-7.79-1.16-.74-8.63-3.68-8.67-4s1.36-5.52,1.82-9.56C34.08,69.56,32.26,70.87,31,72.6Z"/><path class="cls-12" d="M36.61,87.65s3.14-.92,5.22-1.43a13.26,13.26,0,0,1,4.14-.4c1.42.27,7.18,2.32,6.71,3.73s-5.14-1.12-5.14-1.12,5,2,4.18,3.43-5.76-2-5.76-2,5.06,2.16,4,3.52c-.79,1-5.47-1.81-5.47-1.81s4.34,1.88,3.57,3-5.33-1.14-5.33-1.14c-2.43,2.43-4.53,2.76-6.13,2.54C36.24,95.92,36.61,87.65,36.61,87.65Z"/><path class="cls-6" d="M46.09,87.74c3.78,1.18,5.27,2.92,5.22,2.88a23.16,23.16,0,0,0-3.76-2.14c-.57-.27-.9-.46-1.47-.72C46.07,87.75,46.08,87.73,46.09,87.74Z"/><path class="cls-6" d="M44.87,89.68a13.63,13.63,0,0,1,4.32,2c.05,0,0,0,0,0-.71-.35-3.56-1.7-4.29-2C44.85,89.7,44.85,89.68,44.87,89.68Z"/><path class="cls-6" d="M43.7,91.29A10,10,0,0,1,47,93s0,0,0,0c-1.09-.57-1.94-1-3.27-1.64A0,0,0,0,1,43.7,91.29Z"/><path class="cls-2" d="M38.06,87l-4.2,9s-10-5.4-10.77-7.94,6.05-13.69,8.12-16S34,70.73,33.9,73.32s-2.1,10.7-2,10.85S38.06,87,38.06,87Z"/><path class="cls-6" d="M32.59,80.34c.14-.6.27-1.21.4-1.82.06-.32.13-.63.2-1,0-.14.07-.29.1-.43a2.25,2.25,0,0,0,.05-.22c0-.27,0,0,.07-.29,0,0,0,0,0,0s0,.1,0,.22a1.47,1.47,0,0,0,0,.29c0,.15-.05.29-.07.44s-.1.6-.16.9a.5.5,0,0,0,0,.12v0c.11-.33.22-.65.34-1,0,0,0,0,0,0-.08.34-.16.67-.27,1l-.21.56-.24,1.2c-.26,1.24-.53,2.48-.89,3.69.52.24,1.06.45,1.58.69l1.57.74,1.57.76.73.37c.27.14.52.3.79.43,0,0,0,.06,0,0-.28-.13-.58-.22-.87-.34l-.74-.33c-.53-.23-1.06-.48-1.58-.73s-1.05-.48-1.57-.74l-1.55-.77a.05.05,0,0,1,0,0s0,0,0-.07C32,82.81,32.31,81.58,32.59,80.34Z"/><path class="cls-6" d="M33.89,90.55c.31-.65,1.58-3.24,1.94-3.85,0,0,0,0,0,0-.23.66-1.41,3.25-1.72,3.9a38.65,38.65,0,0,1-2,3.84s-.06,0,0,0C32.61,93.1,33.27,91.83,33.89,90.55Z"/><path class="cls-6" d="M26.65,91.55a7.57,7.57,0,0,1,.66.44l.68.47a15.28,15.28,0,0,0,1.37.89s0,.06,0,0c-.48-.27-1-.52-1.43-.83a6.72,6.72,0,0,1-1.27-1S26.63,91.54,26.65,91.55Z"/><path class="cls-12" d="M37.74,73.45c-1.1.4-3.24-1.11-4.17-2.43-.06-.09,0-1.12,0-2.38,0-.76-.05-1.61-.14-2.38l5,.63a12.42,12.42,0,0,0-.13,3,2.38,2.38,0,0,0,.07.31s0,0,0,.06C38.47,70.86,38.81,73.07,37.74,73.45Z"/><path class="cls-6" d="M38.22,69.9a1.07,1.07,0,0,0,.06.27,6.55,6.55,0,0,1-4.78-2.26c0-.55-.06-1.12-.12-1.65l5,.63A12.42,12.42,0,0,0,38.22,69.9Z"/><path class="cls-12" d="M31.71,61c-.22,1.79,1.55,6.54,2.95,7.42,2,1.28,4.94.92,5.91-1.43s-1.47-8.43-3-9.18A4.3,4.3,0,0,0,31.71,61Z"/><path class="cls-6" d="M36.74,62.94s0,0,0,0c.12.32.22.71,0,.92,0,0,0,0,0,0C37,63.73,36.91,63.22,36.74,62.94Z"/><path class="cls-6" d="M36.33,62.71c-.53.15-.19,1.2.3,1.06S36.78,62.58,36.33,62.71Z"/><path class="cls-6" d="M38.7,62.24l0,0c.09.33.26.69.59.7,0,0,0,0,0,0C38.94,63.05,38.73,62.57,38.7,62.24Z"/><path class="cls-6" d="M38.88,61.81c.51-.21.89.82.41,1S38.45,62,38.88,61.81Z"/><path class="cls-6" d="M35.76,62.36c.13-.08.24-.18.36-.27s.26-.18.32-.35a.24.24,0,0,0-.13-.26.57.57,0,0,0-.57.12.86.86,0,0,0-.35.5A.25.25,0,0,0,35.76,62.36Z"/><path class="cls-6" d="M39.11,61.15a3.39,3.39,0,0,1-.45,0,.69.69,0,0,1-.47-.06.23.23,0,0,1-.07-.27.56.56,0,0,1,.51-.28.85.85,0,0,1,.6.15A.25.25,0,0,1,39.11,61.15Z"/><path class="cls-6" d="M37.5,66c.1,0,.21.13.33.1a.83.83,0,0,0,.32-.2s0,0,0,0a.46.46,0,0,1-.35.31.37.37,0,0,1-.35-.21S37.48,66,37.5,66Z"/><path class="cls-6" d="M37.52,64.89a1.18,1.18,0,0,0,.9.26,1.91,1.91,0,0,0,.41-.11l.07,0L39,65a.12.12,0,0,0,0-.1h0l0,0h0v0c-.07-.25-.22-.63-.22-.63s.64.08.59-.05a17.07,17.07,0,0,0-1.51-3.21,0,0,0,0,0-.06,0c.36,1,.9,2,1.28,3a2.19,2.19,0,0,0-.58,0s.3.71.32.83h0a1.61,1.61,0,0,1-1.26,0S37.5,64.87,37.52,64.89Z"/><path class="cls-6" d="M38.64,65a1.4,1.4,0,0,1-.42.56.62.62,0,0,1-.35.12c-.29,0-.36-.24-.37-.46a1.28,1.28,0,0,1,0-.34A1.82,1.82,0,0,0,38.64,65Z"/><path class="cls-13" d="M38.22,65.56a.62.62,0,0,1-.35.12c-.29,0-.36-.24-.37-.46A.65.65,0,0,1,38.22,65.56Z"/><path class="cls-6" d="M33.38,64.68c.82-.29.15-2.32.15-2.32a2.93,2.93,0,0,0,1.33-2.53,5.34,5.34,0,0,0,3.25-.09c2-1,1.18-3.81.2-4.15-1.38-.48-3.08,1.3-3.08,1.3s-3.34,0-3.65,2.38a1.66,1.66,0,0,0-1,2C30.91,62.83,32.77,64.9,33.38,64.68Z"/><path class="cls-6" d="M33.3,62.69a3,3,0,0,0,1.36-1.35,2.21,2.21,0,0,0,0-2s0-.06,0,0a2.55,2.55,0,0,1,.25,2.15,2.07,2.07,0,0,1-1.59,1.32S33.27,62.71,33.3,62.69Z"/><path class="cls-6" d="M30.2,60.42a2,2,0,0,1,1.54-1.1s.05,0,0,.06a1.87,1.87,0,0,0-1.35,1.33,2.35,2.35,0,0,0,.38,1.74,4.64,4.64,0,0,0,2.56,2.15s0,0,0,0a4.65,4.65,0,0,1-2.85-2.34A2.34,2.34,0,0,1,30.2,60.42Z"/><path class="cls-6" d="M35.18,57a2.16,2.16,0,0,1,.92-1.25A2.66,2.66,0,0,1,38,55.42a1.52,1.52,0,0,1,1.1,1,2.66,2.66,0,0,1-.11,1.76s0,0,0,0a2.63,2.63,0,0,0,0-1.57,1.36,1.36,0,0,0-1.11-.94A2.33,2.33,0,0,0,35.23,57S35.17,57.05,35.18,57Z"/><path class="cls-12" d="M33.47,64.76s-1.42-1.36-2.06-.82.64,2.66,1.55,2.81A.89.89,0,0,0,34,66.06Z"/><path class="cls-6" d="M31.79,64.54s0,0,0,0a2.21,2.21,0,0,1,1.39,1.13.49.49,0,0,0-.73,0s0,0,0,0a.55.55,0,0,1,.62.07,3,3,0,0,1,.37.42s.12,0,.09-.06h0C33.41,65.39,32.61,64.45,31.79,64.54Z"/><path class="cls-5" d="M38.29,70.16l-1.06,2.93-3.7-3.5-1,1.21s3.7,5.63,3.71,5.37l1.09-2.52,1.77,1.66L38.84,71Z"/><path class="cls-6" d="M39.11,73.17C39,72.46,39,71.74,38.88,71c0,0-.05,0-.05,0a38.87,38.87,0,0,0,.2,4.06h0c-.07-.07-1.64-1.45-1.65-1.43-.24.4-1,2.24-1.09,2.4-.59-.89-2.83-4.14-3.51-5,0,0-.06,0-.05,0,.53,1,3.49,5.33,3.54,5.32a27.2,27.2,0,0,0,1.13-2.67,19.45,19.45,0,0,0,1.86,1.77A20.27,20.27,0,0,0,39.11,73.17Z"/><path class="cls-14" d="M136.48,17.26c-.82,2.36-4.18,14-6.42,14.65-3.66,1.06-6.44.72-9.35.79-1.65,0-4.2-7.86-2.71-7.9,2.37-.07,7.76.35,8.62.31s4.06-6.67,7.09-9.55C136.43,13,137.05,15.6,136.48,17.26Z"/><path class="cls-14" d="M121.65,32.49a22.29,22.29,0,0,1-3.18,1c-.86.16-3.34.54-3.61-.38-.18-.64,1.26-1,2.26-1.34.53-.16,1.21-.62,1.1-1-.21-.6-1.57-.16-2.49.26-1.76.79-4.16,2.31-5.09,1.36-.35-.36.16-.9.87-1.4-1.13.55-2.32,1-2.72.6a.56.56,0,0,1-.05-.77.75.75,0,0,1-.8-.21c-.31-.4-.09-.91.34-1.42A.45.45,0,0,1,108,29c-.61-1.19,3.37-4,4.66-4.17a32.42,32.42,0,0,1,7.71.06C121.69,26.17,121.65,32.49,121.65,32.49Z"/><path class="cls-6" d="M116.54,28.51a6.49,6.49,0,0,0-2.58.7,18.39,18.39,0,0,0-2.57,1.84,0,0,0,0,0,0,0c.41-.31,2.11-1.45,2.54-1.71a6,6,0,0,1,2.58-.84S116.55,28.51,116.54,28.51Z"/><path class="cls-6" d="M116,26.86a16.23,16.23,0,0,0-3,.7,10.22,10.22,0,0,0-2.75,1.87c-.5.43-1,.86-1.49,1.32a0,0,0,0,0,0,0c.86-.74,1.74-1.45,2.64-2.14a8,8,0,0,1,2.8-1.38c.58-.16,1.17-.27,1.76-.38C116,26.88,116,26.86,116,26.86Z"/><path class="cls-6" d="M115.11,25.38a7.46,7.46,0,0,0-2.71.6,14,14,0,0,0-2.79,1.94c-.46.4-.91.82-1.35,1.24a0,0,0,0,0,0,0,32.5,32.5,0,0,1,3.19-2.56,6.17,6.17,0,0,1,1.73-.89,12,12,0,0,1,1.9-.36Z"/><path class="cls-2" d="M126.92,23.59l5.89,7.12s3.4-9.39,4.09-13.55c.72-4.34-.71-5.63-4.39-1.12A91.93,91.93,0,0,0,126.92,23.59Z"/><path class="cls-5" d="M132.49,16.78a.43.43,0,0,1-.2-.07.39.39,0,0,1-.16-.2l-.13.17a.46.46,0,0,0,.22.17.42.42,0,0,0,.27,0l.24-.05ZM131.1,28a.59.59,0,0,1-.2-.06.38.38,0,0,1-.17-.33.53.53,0,0,0-.32-.46.42.42,0,0,0-.27,0l-.25,0a1.11,1.11,0,0,0,.25.05.59.59,0,0,1,.2.06.37.37,0,0,1,.18.32.52.52,0,0,0,.31.47.63.63,0,0,0,.27,0,1.11,1.11,0,0,0,.25,0Zm5.53-12.08a.43.43,0,0,0,0,.27c0,.08,0,.16.05.25,0-.09,0-.17,0-.25a.43.43,0,0,1,.07-.2.36.36,0,0,1,.3-.17c0-.07,0-.14,0-.2A.49.49,0,0,0,136.63,15.88Zm-5,6c0-.08,0-.16,0-.24,0,.08,0,.16-.05.24a.58.58,0,0,1-.06.21.38.38,0,0,1-.32.18.49.49,0,0,0-.46.31.5.5,0,0,0,0,.27c0,.08,0,.16.05.24a1,1,0,0,0,.05-.24.43.43,0,0,1,.07-.2.37.37,0,0,1,.33-.18.49.49,0,0,0,.45-.32A.5.5,0,0,0,131.64,21.84Zm2.43-2.79a.37.37,0,0,1-.19.09.35.35,0,0,1-.35-.1.48.48,0,0,0-.75.08l-.14.21.21-.14a.54.54,0,0,1,.18-.1.39.39,0,0,1,.36.09.48.48,0,0,0,.54.11.44.44,0,0,0,.21-.17,1.53,1.53,0,0,0,.14-.21Zm.45,5.72a.51.51,0,0,0-.55-.09.46.46,0,0,0-.21.18c0,.07-.1.13-.14.21l.21-.14a.35.35,0,0,1,.19-.1.36.36,0,0,1,.36.09.48.48,0,0,0,.36.15l0-.18A.36.36,0,0,1,134.52,24.77Zm-6.76-.66a.37.37,0,0,1-.19.09.33.33,0,0,1-.14,0l.14.17.05,0a.47.47,0,0,0,.22-.17L128,24Z"/><path class="cls-6" d="M133,28.6a4.63,4.63,0,0,0-.43-.56l-.45-.56c-.3-.38-.61-.76-.92-1.13-.62-.74-1.24-1.49-1.88-2.23l-.53-.6c-.19-.21-.39-.4-.58-.61,0,0,0,0,0,0,.15.19.28.39.43.58s.31.39.46.58c.31.38.62.75.94,1.12.61.73,1.23,1.46,1.86,2.18l.54.6a8.24,8.24,0,0,0,.56.62S133,28.61,133,28.6Z"/><path class="cls-4" d="M136.9,17.15c-.69,4.17-4.09,13.56-4.09,13.56l-3.71-4.48,7-13C137,13.28,137.3,14.75,136.9,17.15Z"/><path class="cls-2" d="M148.46,36.28a16.93,16.93,0,0,1-19.85.48c1.23-6.35,4.25-20,5.88-22.11.45-.58,1.93-.75,3.19-.59a5.36,5.36,0,0,1,1,.2h0a2.61,2.61,0,0,1,.71.35C142,16.7,146.45,29.76,148.46,36.28Z"/><path class="cls-5" d="M147.07,36.28a.54.54,0,0,1-.18.1.42.42,0,0,1-.36-.11.49.49,0,0,0-.55-.09.42.42,0,0,0-.2.17l-.14.21.21-.14a.5.5,0,0,1,.19-.1.36.36,0,0,1,.35.09.5.5,0,0,0,.54.12.47.47,0,0,0,.21-.18,1.53,1.53,0,0,0,.14-.21Zm-10.35,2.57a.45.45,0,0,1-.2.09.38.38,0,0,1-.35-.11.49.49,0,0,0-.55-.09.39.39,0,0,0-.2.18,1,1,0,0,0-.14.2l.21-.14a.66.66,0,0,1,.18-.1.39.39,0,0,1,.36.1.51.51,0,0,0,.54.11.54.54,0,0,0,.22-.17l.13-.21Zm3.67-5.94a.41.41,0,0,1-.54,0,.48.48,0,0,0-.55-.1.63.63,0,0,0-.21.18l-.13.2.2-.13.19-.11a.42.42,0,0,1,.36.1.49.49,0,0,0,.54.11.4.4,0,0,0,.21-.17.92.92,0,0,0,.13-.21Zm-9.78.64a.39.39,0,0,1-.19.1.37.37,0,0,1-.36-.11.49.49,0,0,0-.54-.1.54.54,0,0,0-.21.18l-.1.15a.06.06,0,0,1,0,0l.18-.12a.58.58,0,0,1,.19-.1.37.37,0,0,1,.35.1.5.5,0,0,0,.76-.06c0-.07.09-.14.14-.21Zm4.45-8.76a.41.41,0,0,1-.19.09.36.36,0,0,1-.35-.11.51.51,0,0,0-.55-.09.46.46,0,0,0-.21.18c0,.07-.1.13-.14.21l.21-.14a.35.35,0,0,1,.19-.1.36.36,0,0,1,.36.09.49.49,0,0,0,.54.11.44.44,0,0,0,.21-.17c0-.07.09-.14.14-.21A1.53,1.53,0,0,0,135.06,24.79Zm-1-5.74a.37.37,0,0,1-.19.09.35.35,0,0,1-.35-.1.48.48,0,0,0-.75.08l-.06.08,0,.09.16-.1a.54.54,0,0,1,.18-.1.39.39,0,0,1,.36.09.48.48,0,0,0,.54.11.44.44,0,0,0,.21-.17,1.53,1.53,0,0,0,.14-.21Zm7.56-.21a.55.55,0,0,1-.19.09.36.36,0,0,1-.35-.11.49.49,0,0,0-.55-.09.51.51,0,0,0-.21.17c0,.07-.1.14-.14.21a1.53,1.53,0,0,0,.21-.14.41.41,0,0,1,.19-.09A.38.38,0,0,1,141,19a.48.48,0,0,0,.54.12.53.53,0,0,0,.21-.18c.05-.06.09-.13.14-.2A1.53,1.53,0,0,0,141.63,18.84ZM131.77,37.9c0-.08,0-.16-.05-.24a1,1,0,0,0-.05.24.43.43,0,0,1-.07.2.32.32,0,0,1-.28.18l.26.11a.47.47,0,0,0,.17-.22A.64.64,0,0,0,131.77,37.9Zm10.41-14.46c0-.08,0-.16-.05-.24a1,1,0,0,0,0,.24.44.44,0,0,1-.07.21.37.37,0,0,1-.31.18.5.5,0,0,0-.46.31.37.37,0,0,0,0,.27,2,2,0,0,1,0,.24,2.1,2.1,0,0,0,.06-.24.43.43,0,0,1,.06-.2.39.39,0,0,1,.33-.18.49.49,0,0,0,.46-.32A.63.63,0,0,0,142.18,23.44Zm-7.25,6c0-.09,0-.17-.05-.25,0,.08,0,.16,0,.25a.59.59,0,0,1-.06.2.36.36,0,0,1-.32.18.51.51,0,0,0-.46.31.5.5,0,0,0,0,.27c0,.08,0,.16,0,.25a1.23,1.23,0,0,0,.05-.25.43.43,0,0,1,.07-.2.34.34,0,0,1,.33-.17.5.5,0,0,0,.45-.33A.47.47,0,0,0,134.93,29.47Zm2.64-14.28c0-.09,0-.17,0-.25,0,.08,0,.16-.05.25a.59.59,0,0,1-.06.2.38.38,0,0,1-.32.19.51.51,0,0,0-.46.3.43.43,0,0,0,0,.27c0,.08,0,.16.05.25,0-.09,0-.17,0-.25a.43.43,0,0,1,.07-.2.35.35,0,0,1,.32-.17.49.49,0,0,0,.46-.32A.64.64,0,0,0,137.57,15.19Zm7.55,12.38a.58.58,0,0,1-.19.1.39.39,0,0,1-.36-.09.51.51,0,0,0-.54-.12.61.61,0,0,0-.21.18c0,.07-.09.13-.14.21l.21-.14a.7.7,0,0,1,.19-.1.44.44,0,0,1,.36.11.51.51,0,0,0,.55.1.59.59,0,0,0,.2-.18l.13-.21Zm1,5.11a.43.43,0,0,1-.2-.07.4.4,0,0,1-.17-.33.51.51,0,0,0-.32-.46.63.63,0,0,0-.27,0l-.25.05.25,0a.59.59,0,0,1,.2.07.37.37,0,0,1,.19.31.49.49,0,0,0,.3.47.51.51,0,0,0,.27,0l.25-.05A1,1,0,0,0,146.12,32.68ZM131.1,28a.59.59,0,0,1-.2-.06.38.38,0,0,1-.17-.33.55.55,0,0,0-.09-.28c0,.14-.07.27-.1.41a.52.52,0,0,0,.29.34.63.63,0,0,0,.27,0,1.11,1.11,0,0,0,.25,0Zm8.28.5a.59.59,0,0,1-.2-.07.39.39,0,0,1-.17-.33.49.49,0,0,0-.32-.45.43.43,0,0,0-.27,0l-.25.05.25.05a.39.39,0,0,1,.2.06.37.37,0,0,1,.19.31.51.51,0,0,0,.3.47.42.42,0,0,0,.27,0,1,1,0,0,0,.25-.05Zm-4,6.62-.2-.07a.38.38,0,0,1-.17-.33.51.51,0,0,0-.32-.46.64.64,0,0,0-.27,0l-.25,0a1,1,0,0,0,.25,0,.43.43,0,0,1,.2.07.39.39,0,0,1,.19.32.49.49,0,0,0,.3.46.62.62,0,0,0,.27,0,1.23,1.23,0,0,0,.25-.05Zm6,2.53a.44.44,0,0,1-.21-.07.38.38,0,0,1-.17-.33.51.51,0,0,0-.33-.46.58.58,0,0,0-.26,0l-.24,0,.24,0a.59.59,0,0,1,.2.07.39.39,0,0,1,.19.32.49.49,0,0,0,.3.46.54.54,0,0,0,.28,0l.24-.05A1.29,1.29,0,0,0,141.36,37.61ZM137.76,22l-.2-.07a.4.4,0,0,1-.17-.33.51.51,0,0,0-.32-.46.5.5,0,0,0-.27,0,1.23,1.23,0,0,0-.25.05l.25,0a.43.43,0,0,1,.2.07.35.35,0,0,1,.19.31.47.47,0,0,0,.57.49A.85.85,0,0,0,138,22Z"/><path class="cls-14" d="M142.44,17.29c4.63,7.51,8.84,15.85,7.3,18-1.25,1.71-12.52,6.32-16.28,6.61-1.19.09-4.16-8.7-2.18-9.41.56-.2,9.73-2,9.79-2.17.17-.68-1.06-5.26-2.2-10.49C137.41,13.09,140.48,14.11,142.44,17.29Z"/><path class="cls-14" d="M126.81,34c.56-.2.89-.64-.11-1s-5.26-.8-5-2.27,6.19-.45,7.91,0a6.9,6.9,0,0,1,4.17,3C131.07,33.85,129,34,126.81,34Z"/><path class="cls-6" d="M123.63,30a13.94,13.94,0,0,1,1.71,0c.57,0,1.14.07,1.7.14a13.5,13.5,0,0,1,3.31.83c-.28-.05-.55-.13-.83-.18l-.84-.16c-.55-.09-1.11-.18-1.67-.25s-1.12-.14-1.68-.2l-.85-.07Z"/><rect class="cls-15" x="124.18" y="23.48" width="0.87" height="19.52" transform="translate(91.07 157.78) rotate(-89.86)"/><polygon class="cls-6" points="114.86 32.78 114.86 33.66 128.13 33.69 127.46 32.81 114.86 32.78"/><polygon class="cls-15" points="126.62 33.69 107.59 33.64 106.04 20.71 125.07 20.76 126.62 33.69"/><path class="cls-5" d="M117.49,27.2a1.14,1.14,0,0,1-1.14,1.16,1.18,1.18,0,0,1-1.18-1.16A1.14,1.14,0,0,1,116.31,26,1.18,1.18,0,0,1,117.49,27.2Z"/><path class="cls-14" d="M133.44,41.88c-3.36.19-8.18-.31-11.31-2.48a1.86,1.86,0,0,1-.76-1c-1.42-1-1.4-1.9-1.4-1.9a3.18,3.18,0,0,1-.9-2.27s-1.66-1.13-1.14-2.24,2.79.58,4.62.84c4.21.6,10.43.89,11.66.94Z"/><path class="cls-6" d="M126.51,36.58a26.82,26.82,0,0,1-3.65-.74,27.44,27.44,0,0,1-3.75-1.6,0,0,0,0,0,0,.06,14.4,14.4,0,0,0,7.42,2.33C126.56,36.63,126.57,36.59,126.51,36.58Z"/><path class="cls-6" d="M126.52,39.17A20.21,20.21,0,0,1,120,36.48s0,0,0,0a13,13,0,0,0,6.53,2.72C126.58,39.23,126.59,39.18,126.52,39.17Z"/><path class="cls-6" d="M126.49,40.56a20.72,20.72,0,0,1-5.11-2.14s0,0,0,0a12.24,12.24,0,0,0,5.11,2.19C126.56,40.65,126.57,40.58,126.49,40.56Z"/><path class="cls-2" d="M140.29,28.18l9.24.24s-4.85-8.74-7.53-12-4.72-3.16-3.72,2.57A92.78,92.78,0,0,0,140.29,28.18Z"/><path class="cls-5" d="M147.18,24.33l-.12,0a.44.44,0,0,1-.21-.07.4.4,0,0,1-.17-.33.49.49,0,0,0-.32-.45.42.42,0,0,0-.27,0l-.24,0,.24.05a.43.43,0,0,1,.21.06.39.39,0,0,1,.19.32.47.47,0,0,0,.3.46.5.5,0,0,0,.27,0l.15,0,.09,0Zm-2.06,3.24a.58.58,0,0,1-.19.1.39.39,0,0,1-.36-.09.51.51,0,0,0-.54-.12.61.61,0,0,0-.21.18c0,.07-.09.13-.14.21l.21-.14a.7.7,0,0,1,.19-.1.44.44,0,0,1,.36.11.51.51,0,0,0,.55.1.59.59,0,0,0,.2-.18l.13-.21Zm-.57-7.52a.4.4,0,0,0-.1.15.5.5,0,0,0,0,.27,1,1,0,0,0,0,.24c0-.08,0-.16.05-.24a.43.43,0,0,1,.07-.2.18.18,0,0,1,.05-.07Zm-2.37,3.39c0-.08,0-.16-.05-.24a1,1,0,0,0,0,.24.44.44,0,0,1-.07.21.37.37,0,0,1-.31.18.5.5,0,0,0-.46.31.37.37,0,0,0,0,.27,2,2,0,0,1,0,.24,2.1,2.1,0,0,0,.06-.24.43.43,0,0,1,.06-.2.39.39,0,0,1,.33-.18.49.49,0,0,0,.46-.32A.63.63,0,0,0,142.18,23.44Zm-.55-4.6a.55.55,0,0,1-.19.09.36.36,0,0,1-.35-.11.49.49,0,0,0-.55-.09.51.51,0,0,0-.21.17c0,.07-.1.14-.14.21a1.53,1.53,0,0,0,.21-.14.41.41,0,0,1,.19-.09A.38.38,0,0,1,141,19a.48.48,0,0,0,.54.12.53.53,0,0,0,.21-.18c.05-.06.09-.13.14-.2A1.53,1.53,0,0,0,141.63,18.84Z"/><path class="cls-6" d="M148.05,26.9a5.48,5.48,0,0,0-.7,0l-.72,0-1.46,0c-1,0-1.94,0-2.91,0h-.8l-.84,0a0,0,0,1,0,0,0l.72.05.74,0,1.46,0c1,0,1.91,0,2.87,0h.8a7.85,7.85,0,0,0,.84,0S148.07,26.9,148.05,26.9Z"/><path class="cls-6" d="M146.47,23.46c-.33-.56-.64-1.13-1-1.69s-.71-1.29-1.06-1.93c0,0,0,0,0,0,.42.68,1.84,2.93,2.07,3.32.68,1.12,1.35,2.24,2,3.37.37.63.78,1.36,1.15,2a6.31,6.31,0,0,1-1.12-.05s-.05-.07,0-.07c.37,0,.87,0,.91,0-.67-1.06-1.34-2.13-2-3.21Z"/><path class="cls-6" d="M139.16,23.86a2.74,2.74,0,0,1-.39-1,0,0,0,0,1,0,0,5.34,5.34,0,0,0,.36.89c0-.13-.06-.25-.08-.38-.09-.47-.19-.93-.26-1.4h0c.21.8.39,1.6.59,2.41s.39,1.62.58,2.44c.11.44.22.88.31,1.33.15,0,.27,0,.4,0s0,.07,0,.07l-.5,0C139.77,26.79,139.45,25.33,139.16,23.86Z"/><path class="cls-14" d="M135.18,17.91c1.16.18,3-1.7,3.65-3.17a23.44,23.44,0,0,0-.39-2.35,23.07,23.07,0,0,1-.31-2.36l-4.77,1.54a12.3,12.3,0,0,1,.69,2.94,1.69,1.69,0,0,1,0,.32v.05C134,15.5,134.06,17.73,135.18,17.91Z"/><path class="cls-6" d="M137.79,10.14c-.06,1-.48,4.46-3.25,4.73a2.12,2.12,0,0,1-.5,0v-.05a1.69,1.69,0,0,0,0-.32,12.3,12.3,0,0,0-.69-2.94Z"/><path class="cls-14" d="M137.37,3.71c.92,1.56,1.19,6.63.25,8-1.36,2-4.16,2.81-6,1s-2-8.31-.9-9.61A4.29,4.29,0,0,1,137.37,3.71Z"/><path class="cls-6" d="M133.47,7.87s0,0,0,0c0,.34.07.73.39.82,0,0,0,0,0,0C133.51,8.71,133.42,8.19,133.47,7.87Z"/><path class="cls-6" d="M133.75,7.5c.55-.08.66,1,.15,1.09S133.3,7.56,133.75,7.5Z"/><path class="cls-6" d="M131.45,8s0,0,0,0c.05.34,0,.73-.26.88,0,0,0,0,0,0C131.54,8.84,131.54,8.31,131.45,8Z"/><path class="cls-6" d="M131.11,7.67c-.55,0-.49,1.11,0,1.1S131.57,7.66,131.11,7.67Z"/><path class="cls-6" d="M134.14,7a3.54,3.54,0,0,1-.44-.11.74.74,0,0,1-.43-.19.26.26,0,0,1,0-.29.57.57,0,0,1,.58-.11.8.8,0,0,1,.52.32A.24.24,0,0,1,134.14,7Z"/><path class="cls-6" d="M130.63,7.16a3,3,0,0,0,.42-.16.72.72,0,0,0,.41-.24.24.24,0,0,0,0-.28.59.59,0,0,0-.59-.05.84.84,0,0,0-.48.37A.25.25,0,0,0,130.63,7.16Z"/><path class="cls-6" d="M134,11c-.07.08-.14.2-.26.22a.72.72,0,0,1-.38-.05s0,0,0,0a.47.47,0,0,0,.45.15.4.4,0,0,0,.24-.33A0,0,0,0,0,134,11Z"/><path class="cls-6" d="M133.58,10a1.12,1.12,0,0,1-.73.59,1.4,1.4,0,0,1-.41.06h-.16s-.06,0-.07-.07h0v0h0v0a6.58,6.58,0,0,1-.05-.66c-.09,0-.56.32-.56.18a16.78,16.78,0,0,1,.11-3.54,0,0,0,1,1,.06,0c.08,1.09,0,2.19,0,3.29a2.13,2.13,0,0,1,.53-.22s0,.78,0,.89h0a1.59,1.59,0,0,0,1.16-.48S133.59,9.93,133.58,10Z"/><path class="cls-6" d="M131.5,4.38a1.94,1.94,0,0,0,1.79.52,2,2,0,0,0,1.43-1.27s0,0,0,0a1.93,1.93,0,0,1-1.42,1.42,2,2,0,0,1-1.87-.64S131.48,4.35,131.5,4.38Z"/><path class="cls-6" d="M133,.11a2.06,2.06,0,0,1,2.21.63A2.92,2.92,0,0,1,135.85,2s0,0,0,0A2.58,2.58,0,0,0,134.35.3a1.73,1.73,0,0,0-2,.44,1.66,1.66,0,0,0-.44,1.08s-.07,0-.07,0A1.8,1.8,0,0,1,133,.11Z"/><path class="cls-6" d="M127.21,2.49a2.34,2.34,0,0,1,.9-1.32,3.23,3.23,0,0,1,2.07-.42,0,0,0,0,1,0,0,3.24,3.24,0,0,0-1.79.34,2.32,2.32,0,0,0-1,1.18,2.2,2.2,0,0,0,2.91,2.75s0,0,0,0a2.31,2.31,0,0,1-2.89-1A2.29,2.29,0,0,1,127.21,2.49Z"/><path class="cls-6" d="M137.61,4a5,5,0,0,0-.67-2,2.36,2.36,0,0,0-1.34-.47A2.28,2.28,0,0,0,133.71.28a2.44,2.44,0,0,0-1.79,1.08A3.09,3.09,0,0,0,128.54,1a2.42,2.42,0,0,0,.54,4.19c1.19.47,2.67-.66,2.67-.66a2.31,2.31,0,0,0,2.82-.65s1.12.73,1.67.1A1.88,1.88,0,0,0,137.61,4Z"/><path class="cls-16" d="M138.2,8a10.27,10.27,0,0,1-1.3-1.95,14.5,14.5,0,0,1-.56-3.46,3.53,3.53,0,0,1,1,1.11A10.74,10.74,0,0,1,138.2,8Z"/><path class="cls-14" d="M137.28,7.92s.76-1.82,1.56-1.58.47,2.7-.3,3.2a.88.88,0,0,1-1.25-.21Z"/><path class="cls-6" d="M138.73,7s0,0,0,0a2.24,2.24,0,0,0-.83,1.6.48.48,0,0,1,.68-.28s0,0,0,0a.54.54,0,0,0-.54.31,3,3,0,0,0-.17.53c0,.06-.12.05-.11,0h0A2,2,0,0,1,138.73,7Z"/><path class="cls-15" d="M134,14.78l1.59,2.68,3-4.13,1.18,1s-2.59,6.23-2.65,6L135.59,18l-1.43,2-.51-4.29Z"/><path class="cls-6" d="M133.79,17.88c-.06-.71-.14-1.42-.17-2.14a0,0,0,0,1,0,0,40.22,40.22,0,0,1,.56,4h0c.06-.09,1.34-1.74,1.36-1.72.31.35,1.44,2,1.52,2.16.41-1,2-4.6,2.52-5.55a0,0,0,1,1,.05,0c-.34,1-2.44,5.88-2.48,5.87a25.56,25.56,0,0,1-1.62-2.4,18.52,18.52,0,0,1-1.49,2.08A22.48,22.48,0,0,1,133.79,17.88Z"/><path class="cls-6" d="M16.42,27.37c1.69,1.84,4.47,2.4,6.86,2.39a14.48,14.48,0,0,0,7.28-1.71,5.9,5.9,0,0,0,2.26-2.31,2.63,2.63,0,0,0-.18-3c-.57-.72-1.75-1.19-1.8-1.88s.47-1.29.58-2a2.8,2.8,0,0,0-1.33-2.66c-2-1.63-1.65-4-2.95-6.09a4.75,4.75,0,0,0-6-2.09A4.67,4.67,0,0,0,18.68,11c-.5,1.45.06,3.27-.59,4.68-.55,1.2-1.46,1.45-2,2.71a2.5,2.5,0,0,0,.34,2.37,2.46,2.46,0,0,1,.34,1.65c-.2.76-1,1.16-1.28,1.95A3.23,3.23,0,0,0,16.42,27.37Z"/><path class="cls-6" d="M32.1,26.08a1.65,1.65,0,0,0,.73-2.65c-.49-.48-1.2-.67-1.69-1.15-.82-.78-.2-1.59.15-2.44.76-1.86-.53-3-1.88-4A3.85,3.85,0,0,1,28,12.89s0,0,0,0a4.15,4.15,0,0,0,1,2.45c.55.55,1.27.89,1.8,1.46A2.76,2.76,0,0,1,31.4,20a4.84,4.84,0,0,0-.48,1.1c-.1.87.57,1.26,1.2,1.64a2.59,2.59,0,0,1,1.24,1.16,1.82,1.82,0,0,1-1.24,2.22S32.06,26.09,32.1,26.08Z"/><path class="cls-6" d="M31.55,27A4.73,4.73,0,0,0,33.3,25.3c.53-1.15-.29-1.93-1-2.66a1.6,1.6,0,0,1-.63-1.1c0-.72.44-1.35.47-2.06.08-1.69-1.63-2.59-2.55-3.75a11.62,11.62,0,0,1-1.73-4.08s0-.05.05,0a10.47,10.47,0,0,0,2.61,4.87c1,.93,2,1.94,1.71,3.42-.07.36-.26.7-.33,1.06a1.61,1.61,0,0,0,.59,1.63A3.22,3.22,0,0,1,33.6,24.2c.26,1.32-1,2.3-2,2.89A.06.06,0,1,1,31.55,27Z"/><path class="cls-6" d="M15.17,23.94c.5-.85,1.37-1.33,1-2.47-.23-.78-.71-1.38-.62-2.24a3,3,0,0,1,1-1.79,9.27,9.27,0,0,0,1.73-2,9.62,9.62,0,0,0,.79-2.83s0,0,0,0a6.6,6.6,0,0,1-1.24,3.67c-.46.54-1,1-1.49,1.51a2.68,2.68,0,0,0-.24,3.07,2.12,2.12,0,0,1,.23,1.57,6.67,6.67,0,0,1-1,1.39c-1.33,2,1.16,4.2,3.07,4.39.08,0,.09.14,0,.13A4.18,4.18,0,0,1,15,25.75,2.25,2.25,0,0,1,15.17,23.94Z"/><path class="cls-6" d="M15.32,24.94c-.06-.84.42-1.35.77-2.05.54-1.09-.2-2.06-.38-3.15a2.75,2.75,0,0,1,.55-2A17.24,17.24,0,0,0,18,15.39a5.58,5.58,0,0,0,.48-3.13,0,0,0,1,1,0,0,5.21,5.21,0,0,1-1,4.11,7.69,7.69,0,0,0-1.65,2.31c-.28,1,.28,1.85.5,2.81a2.14,2.14,0,0,1-.27,1.66,4.62,4.62,0,0,0-.61,1.19,2.62,2.62,0,0,0,.34,1.79,5.79,5.79,0,0,0,4.65,2.79.05.05,0,0,1,0,.1,6.15,6.15,0,0,1-4.25-2.08A3.51,3.51,0,0,1,15.32,24.94Z"/><path class="cls-17" d="M22.21,23.66c1.33,5.41,4.56,13.83,7.41,13.78,2.6,0,8.41-4.65,10.84-6.16s-3-7.47-4.42-6.51c-2.16,1.49-5.39,4.16-5.94,4s-1.54-1.9-5.43-6.83C23.09,19.91,21.65,21.35,22.21,23.66Z"/><path class="cls-17" d="M38.66,22.47a10.84,10.84,0,0,1,3.7-.93c1.27,0,2.33,1.7,2.33,2.18s-.48,3.49-1.76,3.49-.5-2.31-.55-2.57-.09-.61-.33-.58-4.45,2-4.45,2Z"/><path class="cls-17" d="M38.74,22.65c.07,0,3.48-1.35,4.76-1.32s2.33,1.7,2.33,2.19S45.35,27,44.07,27s-.5-2.31-.55-2.57-.1-.6-.34-.58-4.44,2-4.44,2Z"/><path class="cls-6" d="M43.64,26.84a1.51,1.51,0,0,1-.21-.75,2.83,2.83,0,0,1,0-.82,4.18,4.18,0,0,0,.16-.7,1.32,1.32,0,0,0-.18-.67c-.1-.18-.28-.12-.45-.06a7,7,0,0,0-.69.31l-.72.37a6.65,6.65,0,0,0-.74.41s0,0,0,0a4.76,4.76,0,0,0,.65-.29l.73-.33c.23-.1.45-.22.68-.31a.67.67,0,0,1,.33-.1c.1,0,.15.26.17.33a1.24,1.24,0,0,1,0,.69,3.34,3.34,0,0,0-.14.7,1.83,1.83,0,0,0,.06.66,2.65,2.65,0,0,0,.3.55S43.66,26.86,43.64,26.84Z"/><path class="cls-17" d="M34.7,26s3.53-3.21,4.26-3.85c1.48-1.28,7.68-3.82,8.55-3.91s1.18,1.68-3,3.52c-2.22,1-2.61,2.25-2.57,2.95s.71,2,1.9,2,2-1.76,3-2,.37,1.81-.4,3a7.19,7.19,0,0,1-3.19,2.49c-1,.38-4.19,1.75-4.19,1.75Z"/><path class="cls-6" d="M45.27,25.85a2.91,2.91,0,0,1-1.54.82,1.41,1.41,0,0,1-1.28-.87,2.21,2.21,0,0,1-.31-1.64A2.75,2.75,0,0,1,43,22.83a6.84,6.84,0,0,1,1.6-1.06s0-.05,0,0c-.55.24-2.24.94-2.58,2.43a2.26,2.26,0,0,0,.33,1.67,1.62,1.62,0,0,0,1.22,1c.7.06,1.3-.51,1.81-.94C45.33,25.85,45.29,25.84,45.27,25.85Z"/><path class="cls-10" d="M34.7,25.54,40,33.74s-8.38,4.69-10.75,3.94-5.95-7.55-7.42-13.52,2.18-3.67,3.6-1.83,4.51,6.1,4.67,6S34.7,25.54,34.7,25.54Z"/><path class="cls-1" d="M37.57,35c-.52.26-1.09.54-1.69.81L31.3,27.64c.49-.29,1.05-.64,1.58-1C34.32,29.23,36.08,32.33,37.57,35Z"/><path class="cls-1" d="M35.23,36.11l-.55.24-4.51-8,.5-.3C32.09,30.54,33.78,33.53,35.23,36.11Z"/><path class="cls-6" d="M34.07,36.6c-1.9.78-3.78,1.35-4.75,1.1l-.09,0c-2.37-.76-5.95-7.55-7.42-13.52a9,9,0,0,1-.34-2.45v-.08c0-.05,0-.1,0-.14s0,0,0-.06a.51.51,0,0,1,0-.13Z"/><path class="cls-6" d="M37,32.93l-.51-.87c-.34-.58-2.38-4-3.19-5.05,0,0-.06,0,0,0,.56,1.2,2.68,4.57,3,5.13l.54.85c.19.28.4.54.59.83a0,0,0,0,0,0,0C37.33,33.53,37.2,33.22,37,32.93Z"/><path class="cls-10" d="M27.82,33.35l.88,6A16.92,16.92,0,0,1,11,39.71c.89-4.61,3-13.53,7-18.07a3.8,3.8,0,0,1,5.68-.47c1.36,1.14,4.64,6,5.06,8A7,7,0,0,1,27.82,33.35Z"/><path class="cls-6" d="M25.22,32.89a11,11,0,0,0-2.85.47c-.93.27-3,1.08-3.51,1.28,0,0,0,0,0,0a17.29,17.29,0,0,0,2-.59c.91-.31,1.84-.59,2.77-.84a14.94,14.94,0,0,1,1.6-.29S25.26,32.89,25.22,32.89Z"/><path class="cls-6" d="M26.92,33.38a8.94,8.94,0,0,0-3,.26,0,0,0,0,0,0,0c.5-.06,1-.12,1.49-.16s1-.07,1.5-.1C26.94,33.4,26.94,33.38,26.92,33.38Z"/><path class="cls-6" d="M28,27.08a7.45,7.45,0,0,0-.55-1.42s0,0,0,0a10.69,10.69,0,0,1,.46,1.23,18.32,18.32,0,0,0-1.15-1.76s0,0,0,0c1.17,1.94,2.34,4.2,1.78,6.54a5.08,5.08,0,0,1-.28.86,3.89,3.89,0,0,1-.44.83s.06.1.08.08a4.9,4.9,0,0,0,.45-.67,3.46,3.46,0,0,0,.34-.76,4.63,4.63,0,0,0,.25-1.65A7.37,7.37,0,0,0,28,27.08Z"/><path class="cls-17" d="M17.21,26.22c.94,5.52,5.58,15.84,8.6,16.81,3.49,1.13,15.63-2.75,18-4.49,1-.7-4.11-6.81-5.29-6.38-4.94,1.82-9.32,2.75-10,2.32-1-.66-5-6.37-7.56-9.92C17.77,20.11,16.79,23.74,17.21,26.22Z"/><path class="cls-17" d="M43.51,38.7a29.74,29.74,0,0,0,5.35-4.16,16.14,16.14,0,0,0,2.86-4.43c1.1-2.56,1.62-4.44,1.35-5.29s-.39-1.13-3,3.13c-1.46,2.41-2.84,2.68-4,2.66a18.54,18.54,0,0,0-8.54,1.91S41.43,39.44,43.51,38.7Z"/><path class="cls-15" d="M54.92,21.63l-6.42,8.1a.77.77,0,0,1-.78.26L43.25,28.5a.33.33,0,0,1-.14-.56l6.42-8.1a.79.79,0,0,1,.78-.25l4.47,1.49A.33.33,0,0,1,54.92,21.63Z"/><path class="cls-6" d="M54.38,20.94l-4.47-1.49a.79.79,0,0,0-.78.26l-6.42,8.1c-.17.22-.12.47.13.55l4.48,1.49a.74.74,0,0,0,.77-.25l6.42-8.1A.33.33,0,0,0,54.38,20.94ZM48,29.25a.71.71,0,0,1-.71.26l-4-1.34c-.22-.07-.27-.3-.1-.52l6-7.54c.34-.43.54-.39.77-.32l.8.27s0,.07,0,.13l0,0c-.1.14,0,.17.08.2l1.86.62c.1,0,.19.06.29-.07l0,0a.16.16,0,0,1,.17-.07l.8.26c.23.08.36.19.05.59Z"/><path class="cls-5" d="M52.12,20.64l-.51-.17s0,0,0,0h0l0,0,.51.17s0,0,0,0h0Z"/><line class="cls-18" x1="43.57" y1="27.17" x2="43.56" y2="27.17"/><path class="cls-5" d="M54,21.71l-6,7.54a.71.71,0,0,1-.71.26l-4-1.34c-.22-.07-.27-.3-.1-.52l6-7.54c.34-.43.54-.39.77-.32l.8.27s0,.07,0,.13l0,0c-.1.14,0,.17.08.2l1.86.62c.1,0,.19.06.29-.07l0,0a.16.16,0,0,1,.17-.07l.8.26C54.17,21.2,54.3,21.31,54,21.71Z"/><path class="cls-2" d="M54,21.71l-.45.57-4.82-1.61.45-.56c.34-.43.54-.39.77-.32l.8.27s0,.07,0,.13l0,0c-.1.14,0,.17.08.2l1.86.62c.1,0,.19.06.29-.07l0,0a.16.16,0,0,1,.17-.07l.8.26C54.17,21.2,54.3,21.31,54,21.71Z"/><polygon class="cls-5" points="49.43 20.56 49.38 20.4 49.62 20.33 49.62 20.36 49.43 20.41 49.47 20.55 49.43 20.56"/><path class="cls-5" d="M53.55,21.72l0,0s0,0,0,0a0,0,0,0,1,0,0A0,0,0,0,1,53.55,21.72Z"/><path class="cls-5" d="M53.48,21.81s0,0,0,0,0,0,0,0l0,0S53.49,21.79,53.48,21.81Z"/><path class="cls-5" d="M53.41,21.9s0,0,0,0,0,0,0,0,0,0,0,0S53.42,21.88,53.41,21.9Z"/><g id="u5Zjqx-2" data-name="u5Zjqx"><path class="cls-5" d="M50.47,20.18h0a.06.06,0,0,0-.06-.05.14.14,0,0,0-.09,0h.12s0,0,0,0h0v0Z"/><path class="cls-5" d="M50.3,20.17v0h.07a.07.07,0,0,1,.06,0h0s0,0,0,0A.08.08,0,0,0,50.3,20.17Z"/><path class="cls-5" d="M50.38,20.21h0a0,0,0,0,0,0,0h0v0S50.38,20.18,50.38,20.21Z"/><path class="cls-5" d="M50.34,20.22a0,0,0,0,1,0,0h0a0,0,0,0,1,0,0S50.35,20.21,50.34,20.22Z"/></g><path class="cls-5" d="M49.7,20s0,0,0,0a0,0,0,0,1,0,0s0,0-.06,0S49.68,20,49.7,20Z"/><path class="cls-5" d="M49.8,20a0,0,0,0,1,.05,0s0,0,0,0,0,0,0,0S49.78,20,49.8,20Z"/><path class="cls-5" d="M49.9,20A0,0,0,0,1,50,20s0,0,0,0l-.05,0S49.88,20,49.9,20Z"/><path class="cls-5" d="M50,20.05s0,0,0,0a0,0,0,0,1,0,0s0,0-.05,0S50,20.07,50,20.05Z"/><path class="cls-5" d="M50.1,20.08a0,0,0,0,1,0,0s0,0,0,0,0,0,0,0S50.09,20.1,50.1,20.08Z"/><polygon class="cls-5" points="53.81 21.45 53.44 21.33 53.59 21.13 53.96 21.26 53.81 21.45"/><polygon class="cls-5" points="53.79 21.28 53.62 21.22 53.56 21.29 53.73 21.35 53.79 21.28"/><polygon class="cls-5" points="53.83 21.37 53.81 21.36 53.85 21.31 53.88 21.32 53.83 21.37"/><polygon class="cls-1" points="43.98 27.82 43.95 27.81 43.83 27.96 43.76 27.93 43.82 27.86 43.7 27.82 43.64 27.89 43.57 27.87 43.69 27.72 43.65 27.71 43.94 27.61 43.98 27.82"/><polygon class="cls-1" points="47.75 28.95 47.35 28.81 47.39 28.76 47.79 28.9 47.75 28.95"/><polygon class="cls-1" points="47.65 29.07 47.25 28.94 47.29 28.89 47.69 29.02 47.65 29.07"/><polygon class="cls-1" points="47.55 29.19 47.15 29.06 47.19 29.01 47.59 29.14 47.55 29.19"/><polygon class="cls-1" points="45.79 28.39 45.59 28.46 45.56 28.32 45.6 28.31 45.62 28.43 45.78 28.37 45.79 28.39"/><path class="cls-1" d="M45.59,28.69h-.11a.26.26,0,0,1-.17-.17.28.28,0,0,1,0-.26.45.45,0,0,1,.46-.14.28.28,0,0,1,.18.17.3.3,0,0,1-.06.25h0A.46.46,0,0,1,45.59,28.69Zm.11-.35a.19.19,0,0,0-.15.06.1.1,0,0,0,0,0,.19.19,0,0,0,.21-.06l0,0Z"/><path class="cls-5" d="M51,21a.21.21,0,0,1,.22-.07.1.1,0,0,1,.06.05l0,0h0a.08.08,0,0,0,0,0h-.08A.13.13,0,0,0,51,21s0,0,0,.06a.08.08,0,0,0,0,.05h.09a0,0,0,0,1,0,0,.17.17,0,0,1-.1,0A.09.09,0,0,1,51,21Z"/><path class="cls-5" d="M51.19,21.17l.14-.19h0s0,0,0,0l-.06.07.09,0,.06-.07s0,0,0,0,0,0,0,0l-.14.18s0,0,0,0,0,0,0,0l.06-.08-.1,0-.06.08s0,0,0,0S51.18,21.18,51.19,21.17Z"/><path class="cls-5" d="M51.57,21.25l-.09,0,0,0h0a0,0,0,0,1,0,0l.23-.16h0a0,0,0,0,1,0,0l-.07.21h-.05Zm0,0,0-.08-.08.06Z"/><path class="cls-5" d="M51.89,21.19l-.06,0-.13.17h0s0,0,0,0l.13-.17,0,0s0,0,0,0,0,0,0,0l.15.05s0,0,0,0S51.9,21.19,51.89,21.19Z"/><polygon class="cls-10" points="46.76 24 50.2 25.14 50.95 24.19 47.51 23.05 47.51 23.05 46.76 24 46.76 24"/><polygon class="cls-10" points="50.52 25.25 50.2 25.14 50.43 24.85 50.52 25.25"/><polygon class="cls-5" points="50.61 24.31 47.56 23.29 47.58 23.28 50.63 24.29 50.61 24.31"/><polygon class="cls-5" points="49.9 24.2 47.48 23.39 47.5 23.37 49.92 24.18 49.9 24.2"/><polygon class="cls-5" points="50.13 24.52 47.33 23.59 47.34 23.57 50.14 24.5 50.13 24.52"/><polygon class="cls-5" points="50.3 24.7 47.25 23.68 47.27 23.67 50.32 24.68 50.3 24.7"/><polygon class="cls-5" points="50.23 24.8 47.18 23.78 47.19 23.76 50.24 24.78 50.23 24.8"/><polygon class="cls-5" points="49.3 24.61 47.1 23.88 47.11 23.86 49.32 24.59 49.3 24.61"/><polygon class="cls-10" points="44.98 26.24 48.42 27.39 49.17 26.44 45.73 25.29 45.73 25.29 44.98 26.24 44.98 26.24"/><polygon class="cls-10" points="48.74 27.49 48.42 27.39 48.65 27.1 48.74 27.49"/><polygon class="cls-5" points="48.83 26.55 45.78 25.54 45.8 25.52 48.85 26.54 48.83 26.55"/><polygon class="cls-5" points="48.12 26.44 45.71 25.64 45.72 25.62 48.14 26.42 48.12 26.44"/><polygon class="cls-5" points="48.35 26.76 45.55 25.83 45.56 25.81 48.37 26.75 48.35 26.76"/><polygon class="cls-5" points="48.52 26.94 45.47 25.93 45.49 25.91 48.54 26.93 48.52 26.94"/><polygon class="cls-5" points="48.45 27.04 45.4 26.03 45.41 26.01 48.46 27.02 48.45 27.04"/><polygon class="cls-5" points="47.52 26.86 45.32 26.13 45.33 26.11 47.54 26.84 47.52 26.86"/><polygon class="cls-2" points="52.02 23.36 48.58 22.21 49.21 21.41 52.66 22.55 52.02 23.36"/><polygon class="cls-2" points="48.26 22.1 48.58 22.21 48.81 21.92 48.26 22.1"/><polygon class="cls-5" points="51.82 22.48 49.28 21.64 49.3 21.62 51.84 22.47 51.82 22.48"/><polygon class="cls-5" points="52.25 22.75 49.2 21.74 49.22 21.72 52.27 22.73 52.25 22.75"/><polygon class="cls-5" points="52.18 22.85 49.13 21.84 49.14 21.82 52.19 22.83 52.18 22.85"/><polygon class="cls-5" points="51.86 22.87 49.05 21.93 49.06 21.91 51.87 22.85 51.86 22.87"/><polygon class="cls-5" points="52.02 23.05 48.97 22.03 48.99 22.01 52.04 23.03 52.02 23.05"/><polygon class="cls-5" points="51.15 22.88 48.9 22.13 48.91 22.11 51.16 22.86 51.15 22.88"/><polygon class="cls-2" points="51.45 24.08 48 22.93 48.47 22.34 51.92 23.48 51.45 24.08"/><polygon class="cls-2" points="47.68 22.83 48 22.93 48.23 22.64 47.68 22.83"/><polygon class="cls-5" points="51.59 23.59 48.54 22.57 48.56 22.55 51.6 23.57 51.59 23.59"/><polygon class="cls-5" points="50.97 23.5 48.47 22.67 48.48 22.65 50.99 23.48 50.97 23.5"/><polygon class="cls-5" points="51.15 23.68 48.39 22.77 48.4 22.75 51.16 23.67 51.15 23.68"/><polygon class="cls-5" points="50.44 23.57 48.31 22.86 48.33 22.85 50.45 23.55 50.44 23.57"/><polygon class="cls-11" points="49.67 26.32 46.23 25.17 46.89 24.34 50.34 25.48 49.67 26.32"/><polygon class="cls-11" points="45.91 25.07 46.23 25.17 46.46 24.88 45.91 25.07"/><polygon class="cls-5" points="49.61 25.82 46.73 24.86 46.74 24.84 49.63 25.8 49.61 25.82"/><polygon class="cls-5" points="49.3 25.84 46.65 24.96 46.67 24.94 49.31 25.82 49.3 25.84"/><polygon class="cls-5" points="49.6 25.57 46.88 24.66 46.9 24.64 49.61 25.55 49.6 25.57"/><polygon class="cls-5" points="49.98 25.57 46.96 24.57 46.98 24.55 49.99 25.55 49.98 25.57"/><polygon class="cls-5" points="49.32 25.96 46.58 25.05 46.59 25.04 49.33 25.95 49.32 25.96"/><polygon class="cls-2" points="47.99 28.44 44.55 27.29 45.1 26.6 48.54 27.74 47.99 28.44"/><polygon class="cls-2" points="44.23 27.19 44.55 27.29 44.78 27 44.23 27.19"/><polygon class="cls-5" points="48.22 27.84 45.17 26.82 45.19 26.8 48.24 27.82 48.22 27.84"/><polygon class="cls-5" points="48.15 27.93 45.1 26.92 45.11 26.9 48.16 27.92 48.15 27.93"/><polygon class="cls-5" points="47.83 27.95 45.02 27.02 45.03 27 47.84 27.93 47.83 27.95"/><polygon class="cls-5" points="47.99 28.13 44.94 27.11 44.96 27.1 48.01 28.11 47.99 28.13"/><polygon class="cls-5" points="47.12 27.96 44.87 27.21 44.88 27.2 47.13 27.94 47.12 27.96"/><path class="cls-17" d="M46.66,30.59c-1.24,0,2.8-2.5,2.86-3.91s-1.32-1-2.4-.17c-3.77,2.76-6.62,2.63-8.53,5.28S46.66,30.59,46.66,30.59Z"/><path class="cls-6" d="M42.91,28.87a9.11,9.11,0,0,0-2.32.91,5.85,5.85,0,0,0-1.68,1.57s0,.06,0,0a9.56,9.56,0,0,1,4-2.48S42.93,28.86,42.91,28.87Z"/><path class="cls-10" d="M28.84,34.14c1,.26,7.69-1.58,7.69-1.58l3.79,9.14S28.6,44.42,25.87,43.48s-7-10.24-8.37-15.64c-1.3-5.07.43-8.39,4.05-3.13C21.55,24.71,28.34,34,28.84,34.14Z"/><path class="cls-1" d="M38.17,42.17l-2.63.52-3.44-9c.88-.2,1.8-.42,2.57-.62C35.72,35.8,37,39.13,38.17,42.17Z"/><path class="cls-1" d="M34.51,42.87l-.84.15-3.44-9,.83-.15C32.1,36.58,33.36,39.86,34.51,42.87Z"/><path class="cls-6" d="M25.72,43.2c-2.29-1.18-5.11-7.32-5.66-8.52-.35-.77-.66-1.56-1-2.35q-.93-2.35-1.74-4.77s-.05,0-.05,0c.3,1.23.67,2.46,1.09,3.67a12.55,12.55,0,0,1-.75-1.4,0,0,0,0,0,0,0,7.59,7.59,0,0,0,.87,1.61c.43,1.21.92,2.4,1.46,3.57.15.33,3.42,7.85,6,8.55a17.27,17.27,0,0,0,4.58-.12s0,0,0,0C29.61,43.42,26.54,43.62,25.72,43.2Z"/><path class="cls-6" d="M37.78,40.59c-.11-.31-.22-.63-.34-.94-.23-.63-1.64-4.37-2.26-5.54,0,0-.06,0,0,0,.34,1.28,1.84,5,2.09,5.57.13.31.25.63.39.94s.3.6.43.91a0,0,0,1,0,.05,0C38,41.24,37.9,40.91,37.78,40.59Z"/><path class="cls-6" d="M36.54,32.57c-.56,0-5.6,1.2-6.71,1.45a2.29,2.29,0,0,1-.82.11,1.25,1.25,0,0,1-.66-.49c-.36-.42-4.3-5.62-4.58-5.88-.11-.09-.2-.11-.09,0s4,5.42,4.35,5.83.62.77,1.17.75c.24,0,7-1.54,7.36-1.68A.07.07,0,0,0,36.54,32.57Z"/><path class="cls-17" d="M20.49,20.91c0,.34,1.21,2.71,2.7,2.9.49.06.94-2.58.94-2.58L24.2,21l1.09-2.62L22.44,15.8,22,15.45s-.25.74-.55,1.66c0,0,0,.08,0,.13a.88.88,0,0,0-.05.15c-.05.14-.1.28-.14.42a3,3,0,0,0-.1.32c0,.11-.07.23-.1.34A19.55,19.55,0,0,0,20.49,20.91Z"/><path class="cls-6" d="M21.47,17.11A5.7,5.7,0,0,0,24.2,21l1.09-2.62L22.44,15.8,22,15.45S21.77,16.19,21.47,17.11Z"/><path class="cls-17" d="M29.83,14.24c.06,5-2.92,5.59-4,5.6s-4.3-.08-4.87-5,1.72-6.55,3.95-6.7S29.77,9.26,29.83,14.24Z"/><path class="cls-6" d="M29,13.23c-.12,0-.22-.06-.34-.09a.65.65,0,0,1-.32-.16.18.18,0,0,1,0-.22.42.42,0,0,1,.43-.07.66.66,0,0,1,.4.25C29.33,13.07,29.19,13.25,29,13.23Z"/><path class="cls-6" d="M25.71,13.2l.34-.06a.55.55,0,0,0,.33-.11.18.18,0,0,0,0-.22.46.46,0,0,0-.43-.13.63.63,0,0,0-.42.21A.19.19,0,0,0,25.71,13.2Z"/><path class="cls-6" d="M26.31,14.42s0,0,0,0c0,.34-.06.73-.37.83,0,0,0,0,0,0C26.29,15.26,26.37,14.74,26.31,14.42Z"/><path class="cls-6" d="M26,14.05c-.54-.06-.62,1-.12,1.09S26.48,14.1,26,14.05Z"/><path class="cls-6" d="M25.8,14.1c-.1.05-.2.15-.31.16s-.23-.12-.31-.24,0,0,0,0a.41.41,0,0,0,.27.48c.2,0,.36-.13.43-.34C25.87,14.13,25.84,14.07,25.8,14.1Z"/><path class="cls-6" d="M28.31,14.43s0,0,0,0c0,.34,0,.73.27.87,0,0,0,0,0,0C28.23,15.26,28.22,14.74,28.31,14.43Z"/><path class="cls-6" d="M28.64,14.1c.55,0,.5,1.1,0,1.1S28.18,14.1,28.64,14.1Z"/><path class="cls-6" d="M28.86,14.18c.09.06.17.17.27.18s.22-.1.3-.21,0,0,0,0c0,.21-.08.43-.28.46s-.31-.16-.35-.37C28.8,14.22,28.83,14.16,28.86,14.18Z"/><path class="cls-6" d="M26.15,17.07c.08.09.14.21.26.23a.83.83,0,0,0,.38,0s0,0,0,0a.45.45,0,0,1-.45.13.35.35,0,0,1-.23-.33S26.14,17.06,26.15,17.07Z"/><path class="cls-6" d="M27.65,15.93s0,.51,0,.75c0,0-.06,0-.14,0h0a1.14,1.14,0,0,1-1.08-.49s0,0,0,0a1.73,1.73,0,0,0,1,.36c0-.06-.1-.87-.06-.87a2.61,2.61,0,0,1,.54.15c-.05-1.06-.27-2.11-.31-3.17a0,0,0,0,1,.07,0,17.84,17.84,0,0,1,.47,3.4C28.22,16.19,27.74,16,27.65,15.93Z"/><path class="cls-6" d="M27.5,16.62a1.39,1.39,0,0,1-.57.42.62.62,0,0,1-.38,0c-.27-.08-.27-.33-.21-.55a1.28,1.28,0,0,1,.13-.32A1.82,1.82,0,0,0,27.5,16.62Z"/><path class="cls-13" d="M26.93,17a.62.62,0,0,1-.38,0c-.27-.08-.27-.33-.21-.55A.64.64,0,0,1,26.93,17Z"/><path class="cls-6" d="M20.85,14.61c.82.16,1.2-1.57,1.2-1.57s1.7.18,2.52-2.19a3.76,3.76,0,0,1-1,1.93,5.83,5.83,0,0,0,4.55-2.36A6.62,6.62,0,0,1,27,12a3.55,3.55,0,0,0,2-1.17,7.61,7.61,0,0,0,.73,1.94s.43-5.24-4.47-5.2c0,0-3.05-.12-4.4,2.16A5.43,5.43,0,0,0,20.85,14.61Z"/><path class="cls-17" d="M21.6,14.88s-1-1.63-1.7-1.3-.09,2.64.72,3a.84.84,0,0,0,1.16-.36Z"/><path class="cls-6" d="M20.1,14.24s0,0,0,0a2.13,2.13,0,0,1,1,1.41.46.46,0,0,0-.68-.18s0,0,0,0a.52.52,0,0,1,.56.23,2.69,2.69,0,0,1,.24.48c0,.05.12,0,.1,0h0A1.87,1.87,0,0,0,20.1,14.24Z"/></g></g></svg>