<svg xmlns="http://www.w3.org/2000/svg" viewBox="0 0 280.03 239.45"><defs><style>.cls-1{fill:#fff;}.cls-2{fill:#263238;}.cls-3{fill:#c7c7c7;}.cls-4{fill:#445a64;}.cls-5{opacity:0.1;}.cls-6{fill:#ad6359;}.cls-7{fill:#ebebeb;}.cls-8{fill:#f9c725;}.cls-9{fill:#36474f;}.cls-10{fill:#a6a6a6;}.cls-11{fill:#dbdbdb;}.cls-12{fill:#f79bbc;}</style></defs><title>Asset 1person-get-code</title><g id="Layer_2" data-name="Layer 2"><g id="Layer_1-2" data-name="Layer 1"><polygon class="cls-1" points="147.09 0.31 147.09 15.16 151.01 15.16 151.01 21.92 157.77 15.16 203.72 15.16 203.72 0.31 147.09 0.31"/><path class="cls-2" d="M147.09.31c0,5,.21,10,.21,14.85l-.21-.21h4.14v.23l0,6.76-.41-.17L157.58,15l.08-.08h.11l23-.05c7.66,0,15.32-.07,23,0l-.36.36,0-14.85.31.31L175.49.51Zm0,0,28.24-.2L203.72,0H204V.31l0,14.85v.36h-.37c-7.65,0-15.31,0-23,0l-23-.06.2-.08-6.79,6.75-.42.41v-.59l0-6.76.22.22h-4.13v-.21C146.88,10.15,147.05,5.2,147.09.31Z"/><path class="cls-2" d="M157,5.68v2h-.56v-2a1.28,1.28,0,1,0-2.56,0v2h-.57v-2a1.85,1.85,0,1,1,3.69,0Z"/><polygon class="cls-2" points="153.31 6.2 153.87 6.22 153.87 7.67 153.31 7.67 153.31 6.2"/><polygon class="cls-2" points="156.99 6.35 156.99 7.67 156.43 7.67 156.43 6.33 156.99 6.35"/><rect class="cls-2" x="152.58" y="6.94" width="5.13" height="4.26"/><path class="cls-2" d="M165.9,6a6.25,6.25,0,0,1-1.33,1.85,6.12,6.12,0,0,1-1.86,1.33A6.3,6.3,0,0,1,164,7.3,6.27,6.27,0,0,1,165.9,6Z"/><path class="cls-2" d="M162.71,6a6.27,6.27,0,0,1,1.86,1.32,6.3,6.3,0,0,1,1.33,1.86A6.12,6.12,0,0,1,164,7.83,6.25,6.25,0,0,1,162.71,6Z"/><path class="cls-2" d="M166.56,7.57a6.32,6.32,0,0,1-2.25.37,6.13,6.13,0,0,1-2.26-.37,6.14,6.14,0,0,1,2.26-.38A6.34,6.34,0,0,1,166.56,7.57Z"/><path class="cls-2" d="M164.31,5.32a6.32,6.32,0,0,1,.37,2.25,6.32,6.32,0,0,1-.37,2.25,6.12,6.12,0,0,1-.38-2.25A6.12,6.12,0,0,1,164.31,5.32Z"/><path class="cls-2" d="M173.67,6a6.08,6.08,0,0,1-1.33,1.85,6,6,0,0,1-1.85,1.33,6.27,6.27,0,0,1,1.32-1.86A6.27,6.27,0,0,1,173.67,6Z"/><path class="cls-2" d="M170.49,6a6.22,6.22,0,0,1,1.85,1.32,6.12,6.12,0,0,1,1.33,1.86,6.12,6.12,0,0,1-1.86-1.33A6.22,6.22,0,0,1,170.49,6Z"/><path class="cls-2" d="M174.33,7.57a6.32,6.32,0,0,1-2.25.37,6.11,6.11,0,0,1-2.25-.37,6.12,6.12,0,0,1,2.25-.38A6.34,6.34,0,0,1,174.33,7.57Z"/><path class="cls-2" d="M172.08,5.32a6.32,6.32,0,0,1,.37,2.25,6.11,6.11,0,0,1-.37,2.25,6.34,6.34,0,0,1-.38-2.25A6.34,6.34,0,0,1,172.08,5.32Z"/><path class="cls-2" d="M181.45,6a6.43,6.43,0,0,1-1.33,1.85,6.12,6.12,0,0,1-1.86,1.33,6.12,6.12,0,0,1,1.33-1.86A6.27,6.27,0,0,1,181.45,6Z"/><path class="cls-2" d="M178.26,6a6.27,6.27,0,0,1,1.86,1.32,6.3,6.3,0,0,1,1.33,1.86,6.12,6.12,0,0,1-1.86-1.33A6.25,6.25,0,0,1,178.26,6Z"/><path class="cls-2" d="M182.11,7.57a6.38,6.38,0,0,1-2.26.37,6.11,6.11,0,0,1-2.25-.37,6.12,6.12,0,0,1,2.25-.38A6.39,6.39,0,0,1,182.11,7.57Z"/><path class="cls-2" d="M179.85,5.32a6.12,6.12,0,0,1,.38,2.25,6.12,6.12,0,0,1-.38,2.25,6.32,6.32,0,0,1-.37-2.25A6.32,6.32,0,0,1,179.85,5.32Z"/><path class="cls-2" d="M189.22,6a6.25,6.25,0,0,1-1.33,1.85A6.12,6.12,0,0,1,186,9.16a6.3,6.3,0,0,1,1.33-1.86A6.27,6.27,0,0,1,189.22,6Z"/><path class="cls-2" d="M186,6a6.27,6.27,0,0,1,1.86,1.32,6.12,6.12,0,0,1,1.33,1.86,6.12,6.12,0,0,1-1.86-1.33A6.43,6.43,0,0,1,186,6Z"/><path class="cls-2" d="M189.88,7.57a6.32,6.32,0,0,1-2.25.37,6.19,6.19,0,0,1-2.26-.37,6.21,6.21,0,0,1,2.26-.38A6.34,6.34,0,0,1,189.88,7.57Z"/><path class="cls-2" d="M187.63,5.32A6.32,6.32,0,0,1,188,7.57a6.32,6.32,0,0,1-.37,2.25,6.12,6.12,0,0,1-.38-2.25A6.12,6.12,0,0,1,187.63,5.32Z"/><path class="cls-2" d="M197,6a6.22,6.22,0,0,1-1.32,1.85,6.12,6.12,0,0,1-1.86,1.33,6.12,6.12,0,0,1,1.33-1.86A6.22,6.22,0,0,1,197,6Z"/><path class="cls-2" d="M193.81,6a6.27,6.27,0,0,1,1.86,1.32A6.27,6.27,0,0,1,197,9.16a6,6,0,0,1-1.85-1.33A6.08,6.08,0,0,1,193.81,6Z"/><path class="cls-2" d="M197.65,7.57a6.32,6.32,0,0,1-2.25.37,6.11,6.11,0,0,1-2.25-.37,6.12,6.12,0,0,1,2.25-.38A6.34,6.34,0,0,1,197.65,7.57Z"/><path class="cls-2" d="M195.4,5.32a6.34,6.34,0,0,1,.38,2.25,6.12,6.12,0,0,1-.38,2.25A6.11,6.11,0,0,1,195,7.57,6.32,6.32,0,0,1,195.4,5.32Z"/><polygon class="cls-3" points="85.05 179.6 34.09 220.69 36.96 220.69 95.82 179.6 85.05 179.6"/><polygon class="cls-3" points="89.84 179.6 64.66 220.69 67.53 220.69 98.39 179.6 89.84 179.6"/><polygon class="cls-3" points="102.19 179.6 127.37 220.69 124.5 220.69 93.63 179.6 102.19 179.6"/><polygon class="cls-3" points="106.58 179.6 157.54 220.69 154.67 220.69 95.82 179.6 106.58 179.6"/><polygon class="cls-4" points="191.64 164.53 191.64 152.51 121.66 149.63 84.69 50.94 0 50.94 29.97 164.53 101.56 184.63 106.05 184.63 191.64 164.53"/><polygon class="cls-5" points="0 50.94 9.69 50.94 40.91 154.48 104.25 172.42 191.64 152.51 191.64 164.53 106.05 184.63 101.56 184.63 29.97 164.53 0 50.94"/><path class="cls-6" d="M153.54,239.38c-2.14-.82-50.17-40.17-51.06-42.83-.34-1,5-8.34,11.67-17,1.44-1.88,2.95-3.8,4.48-5.75,10-12.65,20.82-25.85,20.82-25.85l32.21,26.24L150,199.3l-4.76,5.52s11.66,23.3,12.31,26.32S155.68,240.19,153.54,239.38Z"/><path class="cls-7" d="M153.54,239.38c-2.14-.82-50.17-40.17-51.06-42.83-.41-1.23,7.54-11.8,16.15-22.76L150,199.3l-4.76,5.52s11.66,23.3,12.31,26.32S155.68,240.19,153.54,239.38Z"/><path class="cls-8" d="M153.54,239.38c-2.14-.82-50.17-40.17-51.06-42.83-.34-1,5-8.34,11.67-17l31,25.28s11.66,23.3,12.31,26.32S155.68,240.19,153.54,239.38Z"/><path class="cls-2" d="M154.43,236.89c-7.89-6.79-40.36-33.46-48.68-39.57-.06,0-.1,0,0,.05,7.68,6.9,40.36,33.3,48.61,39.65C154.49,237.16,154.59,237,154.43,236.89Z"/><path class="cls-2" d="M155.83,226.88a8.32,8.32,0,0,0-6.43-2,8,8,0,0,0-5.32,2.82c0,.05,0,.12.1.08a9.67,9.67,0,0,1,11.57-.82C155.81,227,155.89,226.93,155.83,226.88Z"/><path class="cls-2" d="M147.66,208.18c-3.19-2.68-7.85-4.61-12-3.61-.16,0-.1.26,0,.29a58.13,58.13,0,0,1,11.71,3.76A.26.26,0,0,0,147.66,208.18Z"/><path class="cls-2" d="M149.35,211.19c-3.18-2.69-7.85-4.61-12-3.61-.16,0-.11.26,0,.29a58.43,58.43,0,0,1,11.72,3.76A.26.26,0,0,0,149.35,211.19Z"/><path class="cls-2" d="M151.05,214.2c-3.19-2.69-7.86-4.61-12-3.62-.16,0-.1.27,0,.3a57,57,0,0,1,11.72,3.76A.26.26,0,0,0,151.05,214.2Z"/><path class="cls-2" d="M152.74,217.21c-3.19-2.69-7.85-4.61-12-3.62-.16,0-.1.27,0,.3a56.9,56.9,0,0,1,11.71,3.76A.26.26,0,0,0,152.74,217.21Z"/><path class="cls-1" d="M114.07,191.35c-3.62-2.95-8.22,2.67-4.59,5.63S117.7,194.31,114.07,191.35Z"/><path class="cls-2" d="M158.19,202.43c-.52-2.68-3.66-3.05-5.82-2.47a21.92,21.92,0,0,0-9.68,5.85.1.1,0,0,0,0,.17.51.51,0,0,0,.36.74c3.6.29,7.41,1.05,11,.23C156.15,206.47,158.69,205,158.19,202.43ZM148.62,206c-1.77-.1-3.52-.28-5.3-.32,1.89-1.13,3.73-2.34,5.73-3.29a24.5,24.5,0,0,1,3-1.21c1.57-.49,6.94-.59,4.39,3.18C155,206.48,150.74,206.16,148.62,206Z"/><path class="cls-2" d="M133.71,200.44c2.45,2.73,6,4.3,9.1,6.13a.51.51,0,0,0,.73-.39c.07,0,.13,0,.12-.12a21.88,21.88,0,0,0-4.55-10.36c-1.43-1.71-4.2-3.22-6.18-1.33S132.27,198.85,133.71,200.44Zm-.45-3.43c.09-4.55,4.42-1.37,5.42-.07a22.41,22.41,0,0,1,1.72,2.7,63.6,63.6,0,0,1,2.79,6c-1.47-1-3-1.85-4.52-2.79C136.88,201.72,133.22,199.52,133.26,197Z"/><path class="cls-2" d="M205.12,124.89c-2.44,16.87-44.67,65.14-49.55,70.68l-1.12,1.26-34.12-26.89.4-.51,30.82-39.34-90.47-1.64,34.68-26.29s2.76,1.64,8.57.87c20-2.68,65.1-8.61,75.71-8C193.73,95.71,207.35,109.41,205.12,124.89Z"/><path class="cls-9" d="M162.62,115.45a39.23,39.23,0,0,0-3.17,4c-1.09,1.39-2.2,2.77-3.29,4.16l0,0c.19-.41.39-.82.59-1.22.69-1.39,1.25-2.83,2.06-4.16.05-.08-.07-.16-.12-.08-.84,1.32-1.81,2.57-2.53,4-.34.65-.66,1.31-1,2-.16.37-.33.74-.48,1.11a4.3,4.3,0,0,0-.2.54c-.49.65-1,1.3-1.44,2-1,1.47-2,3-3,4.47-.06.08.07.16.12.08,1.07-1.37,2.26-2.64,3.34-4s2.14-2.81,3.17-4.24,2-2.81,3-4.2a43.18,43.18,0,0,0,3-4.33S162.67,115.41,162.62,115.45Z"/><path class="cls-9" d="M159.16,188.91c-1.94-1.7-4-3.26-6.07-4.83s-4.11-3.15-6.18-4.7c-4.14-3.12-8.27-6.26-12.45-9.32-2.3-1.68-4.61-3.33-7-4.89-.1-.07-.22.1-.12.18,3.93,3.37,8.11,6.43,12.25,9.54s8.3,6.21,12.49,9.26c2.3,1.67,4.58,3.39,7,4.92A.1.1,0,0,0,159.16,188.91Z"/><path class="cls-6" d="M85.72,57.6c9.38,17.87,20.52,36.83,31.08,39.58,10,2.61,33.93-22.4,38-30.71,1.39-2.86-17.52-15.41-20.2-13.3-5,4-16.09,16.56-17.66,16.25s-15-12.26-27.07-22.29C82.53,41.05,79.22,45.22,85.72,57.6Z"/><path class="cls-10" d="M138,24.14l-7.23,25.3a.92.92,0,0,0,.8,1.39l13.16.41a2.12,2.12,0,0,0,1.86-1.3l7.23-25.3c.3-.74-.06-1.36-.79-1.38l-13.16-.42A2.13,2.13,0,0,0,138,24.14Z"/><path class="cls-11" d="M139.56,24.18l-7.23,25.3c-.29.74.06,1.36.8,1.38l13.16.42a2.15,2.15,0,0,0,1.87-1.3l7.23-25.31c.29-.74-.06-1.36-.8-1.38l-13.16-.41A2.12,2.12,0,0,0,139.56,24.18Z"/><path class="cls-4" d="M143.13,25.45a1.12,1.12,0,1,1-1.06-1.17A1.11,1.11,0,0,1,143.13,25.45Z"/><path class="cls-6" d="M160.87,52.15c1.11-7.36.26-9.42,4.5-15.13,2.77-3.74,1.57-7.13-2.8-5-7.14,3.44-10.57,12.63-10.84,16.16Z"/><path class="cls-6" d="M151.38,71.42s6.86-8,8.82-15.73c1.35-5.34,3-17.29-8.66-28.87-2.77-2.74-8.67-4.69-5.77,1.43,2,4.36,4.67,6.5,5.4,9.25,0,0-7.79-1.59-10.43,1.29a71.1,71.1,0,0,0-6.37,8,14.17,14.17,0,0,0,1.39,1.32s-2.21,2.93-1.75,8.48Z"/><path class="cls-6" d="M160.68,50.38c-1.31-2.57-4.16-8-8-11.59-4.31-4-13.69-10.59-16.62-7.38-2.15,2.36,1.21,5.18,1.21,5.18s-4.44-1.9-5.92.65c-1.35,2.33,1.39,4.35,1.39,4.35s-2.9-.68-3.77,1.8c-1,3,5.21,4,6.77,7.89C136.06,52.16,160.68,50.38,160.68,50.38Z"/><path class="cls-2" d="M149.16,44a23.5,23.5,0,0,0-11.81-7.49c-.12,0-.2.05-.1.1a57.68,57.68,0,0,1,11.87,7.43S149.17,44.07,149.16,44Z"/><path class="cls-2" d="M145,48.27a26.37,26.37,0,0,0-12.23-6.77c-.12,0-.2.06-.1.1a61.71,61.71,0,0,1,12.29,6.72S145,48.3,145,48.27Z"/><path class="cls-8" d="M128.07,56.43l19.7,20.89S127,100.64,117.2,98.2,89,69.32,83,52.53c-4.09-11.61,2.37-9.75,9.16-4.05S116.72,68.31,117.5,68.1,128.07,56.43,128.07,56.43Z"/><path class="cls-5" d="M121.4,98a8.36,8.36,0,0,1-4.2.21C107.43,95.76,89,69.32,83,52.53c-2.7-7.65-.82-9.45,2.73-8.15C96.41,60.17,110.58,81.34,121.4,98Z"/><path class="cls-2" d="M141.38,80.79c-2.85-2.88-14.1-15.09-16.35-17.9-.16-.19-.07-.34.12-.16a218.87,218.87,0,0,1,16.34,17.94C141.56,80.75,141.45,80.86,141.38,80.79Z"/><path class="cls-8" d="M107.63,114.15S43,126,42.62,125.58s7.11-70.31,29.07-82.14c3.48-1.87,11.88-3,15.46.68C97.38,54.56,108.48,113.2,107.63,114.15Z"/><path class="cls-7" d="M107,108.35,43.26,119.28c.24-1.93.56-4.22,1-6.8l61.57-10.57C106.25,104.35,106.64,106.53,107,108.35Z"/><path class="cls-7" d="M105.09,98.5,44.78,108.85c.19-1.15.39-2.33.61-3.54l59-10.13C104.65,96.31,104.87,97.43,105.09,98.5Z"/><path class="cls-6" d="M84.3,54.78c-3.61,0-8.21-6.65-9.5-11.44-.09-.33,1.09-3.28,2.36-6.93.76-2.22,1.56-4.71,2.12-7L93,36.44A37.87,37.87,0,0,0,89.43,45a4.89,4.89,0,0,0-.13,1s0,.1,0,.16C89.14,48,87.79,54.79,84.3,54.78Z"/><path class="cls-2" d="M93,36.44A37.63,37.63,0,0,0,89.43,45a4.7,4.7,0,0,0-.13,1,1.15,1.15,0,0,1,0,.16,7.76,7.76,0,0,1-1.52-.29c-8.43-2.24-8.28-13.31-8.08-16.28Z"/><path class="cls-6" d="M78.69,13.39c-2.2,5.1-1.09,20.67,2.29,24.49,4.9,5.53,13.77,7,18.68.9,4.77-5.9,3-26.16-.89-29.71C93.09,3.83,81.93,5.85,78.69,13.39Z"/><path class="cls-2" d="M92.9,24.59s-.08.06-.08.1c.13,1,.11,2.25-.8,2.68,0,0,0,.06,0,.05C93.16,27.16,93.18,25.55,92.9,24.59Z"/><path class="cls-2" d="M91.87,23.59c-1.69,0-1.51,3.39,0,3.37S93.28,23.57,91.87,23.59Z"/><path class="cls-2" d="M99,24.26s.08,0,.08.08c0,1.05.23,2.24,1.19,2.54a0,0,0,0,1,0,.06C99.12,26.83,98.87,25.25,99,24.26Z"/><path class="cls-2" d="M99.89,23.12c1.67-.22,2,3.14.43,3.34S98.49,23.3,99.89,23.12Z"/><path class="cls-2" d="M90.46,22.12a12.8,12.8,0,0,0,1.28-.53,2.18,2.18,0,0,0,1.2-.78.72.72,0,0,0-.16-.86A1.79,1.79,0,0,0,91,19.86a2.57,2.57,0,0,0-1.43,1.2A.76.76,0,0,0,90.46,22.12Z"/><path class="cls-2" d="M101.1,21.36c-.47-.06-.89-.18-1.35-.28a2.21,2.21,0,0,1-1.33-.55.72.72,0,0,1,0-.87,1.77,1.77,0,0,1,1.74-.42,2.58,2.58,0,0,1,1.64.91A.76.76,0,0,1,101.1,21.36Z"/><path class="cls-2" d="M92.28,33.86c.21.28.41.65.78.73a2.8,2.8,0,0,0,1.15-.1,0,0,0,0,1,0,.06,1.42,1.42,0,0,1-1.4.37,1.11,1.11,0,0,1-.68-1C92.17,33.83,92.25,33.82,92.28,33.86Z"/><path class="cls-2" d="M93.43,30.79a3.54,3.54,0,0,0,2.46,1.46,4.58,4.58,0,0,0,1.28,0l.47-.09a.25.25,0,0,0,.19-.24h0s-.18-2.23-.18-2.23c.3.13,1.83.73,1.78.31a53.4,53.4,0,0,0-1.94-10.67.1.1,0,0,0-.19,0c.24,3.34,1.07,6.61,1.37,10a6.49,6.49,0,0,0-1.7-.42c-.06,0,.3,2.73.29,2.75a4.91,4.91,0,0,1-3.73-.95C93.45,30.64,93.37,30.71,93.43,30.79Z"/><path class="cls-2" d="M96.83,32.08a4.4,4.4,0,0,1-1.77,1.38,1.92,1.92,0,0,1-1.21.08c-.88-.22-.9-1-.74-1.72a4.59,4.59,0,0,1,.38-1.05A5.78,5.78,0,0,0,96.83,32.08Z"/><path class="cls-12" d="M95.06,33.46a1.92,1.92,0,0,1-1.21.08c-.88-.22-.9-1-.74-1.72A2.07,2.07,0,0,1,95.06,33.46Z"/><path class="cls-2" d="M77.25,27.45c4.06.32,6.22-4.51,5.29-8.41,0,0,10.79,1.51,11.37-7.15a9.82,9.82,0,0,0,7.46,4.1l.71,3c1.11-.31,2.31-3.45-.38-5.93a10.3,10.3,0,0,0-3.32-6.94A5.9,5.9,0,0,0,92,5.22a8.94,8.94,0,0,0-6.5-1.65,7.61,7.61,0,0,0-5.64,4.1s-5.36,1-6.29,4.77a7.88,7.88,0,0,0,1,6.35s-1.35,1.48-.69,4.73C74.34,25.61,76,27.36,77.25,27.45Z"/><path class="cls-2" d="M93.68,11.12a10.63,10.63,0,0,1,0,2.11,8.28,8.28,0,0,1-.4,2,5.47,5.47,0,0,1-2.53,3.09,8.73,8.73,0,0,1-4,1c-.7,0-1.41,0-2.11-.07s-1.4-.17-2.12-.23c.69.17,1.39.31,2.09.47s1.42.14,2.14.21A8.57,8.57,0,0,0,91,18.8a5.67,5.67,0,0,0,2.64-3.41A8.7,8.7,0,0,0,93.68,11.12Z"/><path class="cls-2" d="M99.2,16.17a11.33,11.33,0,0,1-3.26-1.79,6.85,6.85,0,0,1-1.25-1.33,8.93,8.93,0,0,1-.9-1.64,4.58,4.58,0,0,0,.57,1.85,5.24,5.24,0,0,0,1.26,1.51,6.43,6.43,0,0,0,1.7,1A5.83,5.83,0,0,0,99.2,16.17Z"/><path class="cls-8" d="M90.84,29.85a4.54,4.54,0,1,1,4.67-5.44h0A4.54,4.54,0,0,1,92,29.76,4.35,4.35,0,0,1,90.84,29.85Zm.42-8.46a4.08,4.08,0,0,0-1,.07,4,4,0,1,0,1-.07Z"/><path class="cls-8" d="M101.23,29.08C99.5,29,98,27.15,97.85,24.78a5.42,5.42,0,0,1,.74-3.23,2.84,2.84,0,0,1,4.83-.33,5.46,5.46,0,0,1,1.17,3.1c.17,2.5-1.2,4.63-3.06,4.76A1.5,1.5,0,0,1,101.23,29.08Zm0-8.45H101a2.42,2.42,0,0,0-1.85,1.24,4.87,4.87,0,0,0-.65,2.87c.15,2.17,1.51,3.84,3,3.74s2.64-1.95,2.5-4.12a4.83,4.83,0,0,0-1-2.75A2.49,2.49,0,0,0,101.18,20.63Z"/><path class="cls-8" d="M95.4,25,95,24.51c.64-.63,2.18-1.51,3.36-.4l-.41.44C96.87,23.56,95.46,24.89,95.4,25Z"/><path class="cls-8" d="M76.21,27.6l-.56-.24c.11-.26,1.14-2.55,2.47-2.86s8.51-.19,8.86-.18v.61a76.74,76.74,0,0,0-8.71.16C77.38,25.29,76.48,27,76.21,27.6Z"/><path class="cls-6" d="M81.08,27.18s-3-5.26-5.36-4.23-.4,8.43,2.14,9.65a2.69,2.69,0,0,0,3.72-1.12Z"/><path class="cls-2" d="M76.33,25.06s-.06.05,0,.07c1.78.91,2.6,2.71,3.12,4.55a1.48,1.48,0,0,0-2.18-.6s0,.11,0,.1a1.66,1.66,0,0,1,1.76.74,7.28,7.28,0,0,1,.74,1.54c.07.18.38.11.33-.08v-.05C80.37,29,78.84,25.52,76.33,25.06Z"/><path class="cls-2" d="M89.5,47.81s0,0,0,0c-.15,2.95-.69,9.75-5.43,8.81a10.35,10.35,0,0,1-4.87-3,37,37,0,0,1-6.33-9.08c0-.08-.15,0-.12.07A23,23,0,0,0,75,49.51a22.91,22.91,0,0,0,3.88,4.85,10.43,10.43,0,0,0,5.21,3A3.9,3.9,0,0,0,88.34,55,15.89,15.89,0,0,0,89.5,47.81Z"/><path class="cls-6" d="M64.43,49c-10.1,8.86-36,43.69-29.62,51.15s46.3,2.29,57.79-1.84c3.41-1.22-6.94-22.8-10.73-23.66C78.72,74,61.66,79.79,61.28,78.8s3-8.68,8.3-22.46C75.74,40.45,68.89,45.12,64.43,49Z"/><path class="cls-6" d="M98.74,69.74c8-.31,10.14.85,16.79-3,4.36-2.54,7.85-.84,5.06,3.6C116,77.6,105.74,80.17,101.92,80Z"/><path class="cls-6" d="M76.91,75.26S86.32,71.21,94.85,70c5.9-.81,18.94-1.15,30,12.79,2.62,3.3,4,9.87-2.23,6-4.44-2.73-6.42-5.8-9.29-6.92,0,0,.78,8.56-2.64,11.06a77.91,77.91,0,0,1-9.38,5.88A15.93,15.93,0,0,1,100,97.2s-3.41,2-9.33.86Z"/><path class="cls-6" d="M100.61,70.15c2.61,1.72,8.08,5.44,11.49,10,3.8,5.11,9.73,16,5.93,18.75-2.79,2-5.42-1.93-5.42-1.93s1.51,5-1.41,6.29c-2.66,1.16-4.51-2-4.51-2s.39,3.19-2.39,3.82c-3.34.76-3.61-6.06-7.66-8.22C95.73,96.4,100.61,70.15,100.61,70.15Z"/><path class="cls-2" d="M106,83.3a25.28,25.28,0,0,1,6.64,13.59c0,.13-.08.21-.12.09A62.37,62.37,0,0,0,106,83.34S106,83.28,106,83.3Z"/><path class="cls-2" d="M101,87.28c1.71,1.93,5.36,8.14,5.81,14,0,.13-.09.21-.12.09a67.08,67.08,0,0,0-5.74-14S101,87.26,101,87.28Z"/><path class="cls-2" d="M113.32,81.87c2.51,1,4.06,2.46,6.09,4.19a36.68,36.68,0,0,0,3.11,2.44c1,.67,2.47,1.69,3.68.91a2.13,2.13,0,0,0,.68-2.06,10.09,10.09,0,0,0-1.12-3.08s0-.08.06,0A14.51,14.51,0,0,1,127.11,87a3.38,3.38,0,0,1,0,2c-.52,1.39-2.22,1.41-3.37.9a11.92,11.92,0,0,1-1.93-1.19c-.59-.42-1.16-.87-1.72-1.34-1.15-1-2.23-2-3.37-2.94A33.52,33.52,0,0,0,113.27,82S113.27,81.85,113.32,81.87Z"/><path class="cls-2" d="M117.82,91.5a80.68,80.68,0,0,0-4.56-9.57s0-.09.06-.05a42.57,42.57,0,0,1,5.14,9.2,14.31,14.31,0,0,1,1.06,5.61c-.27,2.7-2.11,3-2.79,3.1a3.49,3.49,0,0,1-2.26-.61A7,7,0,0,1,112.59,97s0-.09,0,0a5,5,0,0,0,3.77,2.32,2.49,2.49,0,0,0,1.76-.74,3.21,3.21,0,0,0,.65-2.13A15.14,15.14,0,0,0,117.82,91.5Z"/><path class="cls-8" d="M76.91,75.26l9.86,27.54s-50,6.07-53.33-2.86,19-40.32,28.48-49.16c11-10.24,11.92-6.29,8.74,3.45-3.34,10.2-9.26,24.84-9.26,24.84Z"/><path class="cls-2" d="M45.84,84.57a57.89,57.89,0,0,1,7.55-3.47,56.78,56.78,0,0,1,7.88-2.28c1.53-.34,3.07-.6,4.61-.88,0,0,.05.06,0,.07a73.33,73.33,0,0,0-8,2.21c-2.6.86-5.17,1.77-7.74,2.72-1.45.54-2.87,1.15-4.3,1.73A.06.06,0,0,1,45.84,84.57Z"/><path class="cls-2" d="M76.79,75.17c-.25,0-14.06,3.11-14.52,3.27.08-.19,3.19-7.06,3.65-8.06,0-.1.09-.21.14-.31.29-.44.58-.87.85-1.32s.7-1.16,1-1.74c0,0,0,0,0,0-.38.56-.75,1.12-1.12,1.69-.17.26-.33.53-.49.79.31-.71.61-1.42.91-2.14.48-1.14.92-2.3,1.36-3.46,0,0,0-.06-.06,0-.92,2-1.9,4-2.82,6s-4.44,9.35-4.42,9.35,15.24-3.72,15.54-3.81A.1.1,0,0,0,76.79,75.17Z"/><path class="cls-2" d="M76,92.41c-1.08-3.07-2.14-6.16-3.33-9.19-.68-1.72-1.35-3.45-2-5.16,0-.07-.15,0-.12,0,1,3.12,1.93,6.25,3,9.34s2.17,6.14,3.31,9.19q1,2.59,2.1,5.14s.07,0,.06,0C78.14,98.59,77.06,95.5,76,92.41Z"/><path class="cls-2" d="M87.36,103.27c-.41-.86-.91-2.08-1.35-2.93-.12-.22-.28-.19-.2,0,.3.77.53,1.63.82,2.42l-2.1.19-2.43.27c-1.58.16-3.17.31-4.75.44-3.22.27-6.44.46-9.66.59a184.82,184.82,0,0,1-19.41-.12c-1.8-.11-3.61-.26-5.41-.47s-3.79-.45-5.29-.79c0,0-.06.07,0,.09a29.58,29.58,0,0,0,4.56,1.06c1.62.24,3.25.44,4.88.59,3.25.29,6.52.4,9.79.43,6.47,0,13-.17,19.4-.66,1.81-.13,3.62-.29,5.42-.47l2.73-.28A17.21,17.21,0,0,0,87.36,103.27Z"/><rect class="cls-3" x="88.82" y="102.66" width="62.91" height="2.82"/><polygon class="cls-10" points="151.74 102.66 151.74 105.48 108.97 105.48 111.13 102.66 151.74 102.66"/><polygon class="cls-10" points="117.62 105.48 172.69 105.48 180.65 66.63 125.59 66.63 117.62 105.48"/><polygon class="cls-3" points="120.19 105.48 175.26 105.48 183.22 66.63 128.16 66.63 120.19 105.48"/><path class="cls-1" d="M156.67,84.61a3.88,3.88,0,0,1-2.74,3.92c-1.57.32-2.89-.9-3-2.73a3.87,3.87,0,0,1,2.74-3.92C155.3,81.55,156.62,82.77,156.67,84.61Z"/><path class="cls-6" d="M280,186.12c-.82,2.13-40.33,50-43,50.92-1,.34-8.32-5-17-11.72-1.87-1.45-3.79-3-5.73-4.5-12.62-10-25.78-20.91-25.78-20.91l26.34-32.12,25.05,21.78,5.51,4.78s23.33-11.57,26.35-12.22S280.78,184,280,186.12Z"/><path class="cls-7" d="M280,186.12c-.82,2.13-40.33,50-43,50.92-1.22.4-11.77-7.57-22.7-16.22l25.61-31.25,5.51,4.78s23.33-11.57,26.35-12.22S280.78,184,280,186.12Z"/><path class="cls-8" d="M280,186.12c-.82,2.13-40.33,50-43,50.92-1,.34-8.32-5-17-11.72l25.39-31s23.33-11.57,26.35-12.22S280.78,184,280,186.12Z"/><path class="cls-2" d="M277.47,185.23c-6.82,7.86-33.58,40.24-39.73,48.54-.05.07,0,.1,0,0,6.93-7.65,33.44-40.25,39.82-48.48C277.74,185.16,277.62,185.06,277.47,185.23Z"/><path class="cls-2" d="M267.46,183.79a8.42,8.42,0,0,0-2,6.42,8.1,8.1,0,0,0,2.81,5.33c.05,0,.12,0,.08-.09a9.68,9.68,0,0,1-.79-11.58C267.61,183.81,267.52,183.73,267.46,183.79Z"/><path class="cls-2" d="M248.74,191.9c-2.69,3.17-4.63,7.84-3.65,12,0,.16.27.11.3,0a57.51,57.51,0,0,1,3.79-11.7A.26.26,0,0,0,248.74,191.9Z"/><path class="cls-2" d="M251.76,190.21c-2.7,3.18-4.64,7.84-3.66,12,0,.16.27.1.3,0a57.63,57.63,0,0,1,3.8-11.71A.26.26,0,0,0,251.76,190.21Z"/><path class="cls-2" d="M254.77,188.53c-2.7,3.18-4.63,7.84-3.65,12,0,.16.26.1.29,0a57.54,57.54,0,0,1,3.8-11.7A.26.26,0,0,0,254.77,188.53Z"/><path class="cls-2" d="M257.78,186.85c-2.69,3.17-4.63,7.84-3.65,12,0,.16.27.11.3,0a57.54,57.54,0,0,1,3.8-11.7A.27.27,0,0,0,257.78,186.85Z"/><path class="cls-1" d="M231.8,225.43c-3,3.62,2.65,8.23,5.62,4.61S234.77,221.81,231.8,225.43Z"/><path class="cls-2" d="M243,181.35c-2.69.51-3.06,3.65-2.49,5.81a21.9,21.9,0,0,0,5.81,9.7.11.11,0,0,0,.18,0,.5.5,0,0,0,.73-.36c.31-3.59,1.08-7.4.27-11C247.06,183.4,245.58,180.86,243,181.35Zm3.58,9.58c-.11,1.77-.3,3.52-.34,5.3-1.13-1.9-2.33-3.73-3.27-5.74a22.92,22.92,0,0,1-1.2-3c-.49-1.58-.57-6.95,3.19-4.38C247.06,184.56,246.74,188.82,246.61,190.93Z"/><path class="cls-2" d="M241,205.83c2.74-2.45,4.32-6,6.16-9.09a.51.51,0,0,0-.39-.73.11.11,0,0,0-.12-.12,21.82,21.82,0,0,0-10.37,4.52c-1.72,1.42-3.24,4.19-1.35,6.17S239.36,207.26,241,205.83Zm-3.43.43c-4.55-.1-1.36-4.42-.05-5.42a23.52,23.52,0,0,1,2.69-1.71,63.78,63.78,0,0,1,6-2.77c-1,1.47-1.86,3-2.8,4.51C242.24,202.66,240,206.31,237.53,206.26Z"/><path class="cls-2" d="M238.58,184.66l-29.33,34.76-88.45-63-8.71-6.21s-2.51,1.64-6.28,3.67c-5.23,2.81-12.9,6.36-19.65,7.27-11.33,1.54-28.39,1.15-37.76-11.71-7.9-10.83-5.2-24.81-5.2-24.81l12.48-5.18s29.69-24.13,48.73-24.63c8.09-.23,19.79,6,30.62,12.58S238.58,184.66,238.58,184.66Z"/><path class="cls-9" d="M112.09,150.23s-2.51,1.64-6.28,3.67c-6.52-8-20.36-22.57-20.78-23.08Z"/><path class="cls-9" d="M66.55,111.41c-1.77,1.19-3.49,2.47-5.23,3.7s-3.5,2.35-5.13,3.67-3.25,2.79-4.82,4.25c-.76.7-1.51,1.41-2.24,2.13A19.91,19.91,0,0,0,47,127.43c-.06.08,0,.17.12.13a24.07,24.07,0,0,0,2.38-1.89L52,123.61c1.6-1.32,3.22-2.61,4.81-3.94s3.06-2.76,4.62-4.1,3.45-2.76,5.19-4.11C66.62,111.44,66.59,111.38,66.55,111.41Z"/><path class="cls-9" d="M229.52,181.32c-1.78,1.87-3.42,3.88-5.08,5.86s-3.32,4-5,6c-3.29,4-6.6,8-9.83,12-1.78,2.22-3.53,4.47-5.19,6.78-.07.11.09.23.18.14,3.53-3.79,6.76-7.84,10-11.84s6.56-8,9.79-12.09c1.76-2.22,3.58-4.43,5.21-6.75A.1.1,0,0,0,229.52,181.32Z"/><path class="cls-9" d="M163,186.41c-4.49-3.62-14.71-10.72-19.37-14.13s-9.26-6.79-14-10.08c-1.35-.95-2.71-1.87-4.08-2.8s-2.77-1.79-4.1-2.75c-.08-.06-.15.07-.08.13,1.23.9,2.38,1.9,3.58,2.83s2.28,1.79,3.44,2.67c2.25,1.71,4.53,3.39,6.81,5.08q6.91,5.13,14,10.11c2.66,1.88,10.88,7.43,13.61,9.22C163,186.79,163.2,186.54,163,186.41Z"/><path class="cls-9" d="M192.09,149.12c-4.15-3.52-13.61-10.31-18-13.57s-8.78-6.63-13.19-9.91l-13.16-9.75c-4.25-3.15-8.47-6.35-13-9.15-2.46-1.53-5-3-7.58-4.24a50.06,50.06,0,0,0-7.85-3.32.07.07,0,0,0-.06.13c2.22,1.28,4.55,2.36,6.8,3.59s4.4,2.49,6.55,3.83c4.46,2.78,8.67,5.93,12.89,9,8.78,6.48,17.54,13,26.39,19.37,4.94,3.58,14.8,11,19.95,14.25C192.05,149.5,192.24,149.25,192.09,149.12Z"/></g></g></svg>