<svg xmlns="http://www.w3.org/2000/svg" viewBox="0 0 194 194"><defs><style>.cls-1{fill:#355e2d;}</style></defs><title>Asset 2check</title><g id="Layer_2" data-name="Layer 2"><g id="objects"><path class="cls-1" d="M186.38,59.24a97.81,97.81,0,0,0-8.54-15.89,6.65,6.65,0,0,1-.58.61c-1.27,1.21-2.52,2.42-3.76,3.66a91.48,91.48,0,0,1,7.38,14,91.34,91.34,0,1,1-19.51-28.94c.94.94,1.85,1.9,2.75,2.87q2.4-1.44,4.85-2.81l.45-.23c-1.24-1.38-2.51-2.73-3.83-4.05a96.66,96.66,0,1,0,20.79,30.83Z"/><path class="cls-1" d="M52.13,89.88a9.64,9.64,0,0,1,5.95-2.07,9.75,9.75,0,0,1,4.3,1l28.84,14.45c13.15-16.36,25.32-29.68,37.12-40.63a220.31,220.31,0,0,1,28.83-22.78A82.76,82.76,0,1,0,167.73,53.6a252.49,252.49,0,0,0-25.4,32.67c-10.29,15.52-19.76,32.65-28.92,49.21-1.7,3.09-4.56,8.24-10.21,9.87a12.59,12.59,0,0,1-3.41.47h0c-5,0-9.09-2.8-12.48-5.54-12-9.73-21.64-20.28-31.8-31.45L51,103.89a9.59,9.59,0,0,1,1.13-14Z"/><path class="cls-1" d="M92.78,110.35,59.86,93.86a4,4,0,0,0-4.25.43h0a4,4,0,0,0-.46,5.8c11.59,12.65,22.22,24.93,35.7,35.82,3.11,2.51,7,5.14,10.8,4,3.27-.94,5.2-4.2,6.84-7.18C128,97.55,145.14,66.67,173.4,39.88a1.43,1.43,0,0,0-1.69-2.28C144.1,53.05,120.18,75.71,92.78,110.35Z"/></g></g></svg>