<svg xmlns="http://www.w3.org/2000/svg" viewBox="0 0 658.64 376.49"><defs><style>.cls-1{fill:#f1f1f1;}.cls-2{fill:#e5e5e5;}</style></defs><title>Asset 1clouds</title><g id="Layer_2" data-name="Layer 2"><g id="Objects"><path class="cls-1" d="M591.88,288.39A25.37,25.37,0,0,0,577,293.22a37.65,37.65,0,0,0-55.27-31.4,55.22,55.22,0,0,0-96-52.66L391,0l24.11,219.38a39,39,0,0,0-6.6-5.48L379.76,13.77l16.42,194.81a39.21,39.21,0,0,0-9.06-1.06,38.64,38.64,0,0,0-19,5,33.08,33.08,0,0,0-20.63-23.84L340,50.93l1.25,136a32.92,32.92,0,0,0-5.38-.44c-1.16,0-2.3.08-3.43.19l-3.1-140.61L326.19,188c-.44.13-.88.25-1.31.4a73.89,73.89,0,0,0-49.78-33.47L287.17,13.77l-22.46,140.1c-.77,0-1.55,0-2.34,0-1.5,0-3,.06-4.45.15L276,0,246.89,155.48a73.87,73.87,0,0,0-57.51,61.12c-1.18-.08-2.37-.14-3.58-.14a51,51,0,0,0-50,41.32A26.43,26.43,0,0,0,117.89,270a44.16,44.16,0,0,0-25.35-7.76c-22.23,0-40.26,15.57-40.26,34.76s18,34.76,40.26,34.76a46.21,46.21,0,0,0,9.28-.94c22.61,15.45,122.64,27.09,242.63,27.09,108.1,0,200-9.45,233.68-22.62a25.46,25.46,0,1,0,13.75-46.89ZM229,294.34c.13-.21.27-.42.4-.64.36.18.71.37,1.07.54Z"/><path class="cls-2" d="M0,376.49H653.81a27.3,27.3,0,0,0,4.83-15.21c0-21.67-27.73-39.24-61.94-39.24a95.49,95.49,0,0,0-16.57,1.44c-3.85-21.52-22.38-37.85-44.69-37.85a45.14,45.14,0,0,0-8.11.75c-10-21.49-33.13-36.54-60-36.54-22.86,0-43,10.88-54.66,27.35a36,36,0,0,0-20-6A35.49,35.49,0,0,0,360.06,292c-17.81-18.92-44.55-30.95-74.46-30.95-37.25,0-69.6,18.67-85.86,46.05a38.63,38.63,0,0,0-21.16-6.33,39.52,39.52,0,0,0-29.76,13.8c-13.88-13.81-36.61-22.82-62.32-22.82C44.23,291.76,10,316.1,10,346.13a40.54,40.54,0,0,0,4.59,18.59C7.87,368.19,2.87,372.17,0,376.49Z"/></g></g></svg>