<svg xmlns="http://www.w3.org/2000/svg" viewBox="0 0 444.4 452.6"><defs><style>.cls-1{fill:#f9f965;}.cls-2{fill:#9aa398;}.cls-3{fill:#355e2d;}.cls-4{fill:none;stroke:#355e2d;stroke-miterlimit:10;stroke-width:2.13px;}.cls-5{fill:#ecc6c9;}.cls-6{fill:#9bb3d5;}.cls-7{fill:#313072;}.cls-8{fill:#7b8bbb;}.cls-9{fill:#b38273;}.cls-10{fill:#a76f5e;}.cls-11{fill:#e3aaaf;}</style></defs><title>Asset 1collab_yellow</title><g id="Layer_2" data-name="Layer 2"><g id="Layer_1-2" data-name="Layer 1"><path class="cls-1" d="M122.2,187.46a33.83,33.83,0,0,0,4.42-4.37l6.92,2.86,8.39-20.32-7.09-2.93a35.08,35.08,0,0,0-2.3-14.91l6-4.93-14-17-6,4.92a35,35,0,0,0-12.4-4.79L105,118.43,83.25,121.7l1.12,7.41a35.13,35.13,0,0,0-6.74,4.37,35.55,35.55,0,0,0-4,3.91l-6.8-2.81L58.4,154.9,65,157.64a35.06,35.06,0,0,0,2.26,15.52l-5.47,4.51,14,17,5.46-4.51a34.9,34.9,0,0,0,13,4.9l1.07,7.09,21.74-3.27L116,191.57A34.79,34.79,0,0,0,122.2,187.46Zm-40.44-12a23.87,23.87,0,1,1,33.6,3.21A23.86,23.86,0,0,1,81.76,175.46Z"/><path class="cls-2" d="M141.07,118a13.84,13.84,0,0,0,1.8-1.79l2.82,1.17,3.43-8.29-2.89-1.19a14.34,14.34,0,0,0-.94-6.09l2.43-2L142,92.89l-2.43,2a14.4,14.4,0,0,0-5.06-2l-.47-3.1-8.87,1.33.46,3a14.49,14.49,0,0,0-4.4,3.37l-2.77-1.14-3.42,8.29,2.7,1.11a14.32,14.32,0,0,0,.92,6.33L116.44,114l5.71,6.92,2.23-1.84a14.31,14.31,0,0,0,5.3,2l.43,2.89,8.87-1.33-.45-3A13.74,13.74,0,0,0,141.07,118Zm-16.5-4.9a9.74,9.74,0,1,1,13.71,1.31A9.73,9.73,0,0,1,124.57,113.1Z"/><path class="cls-3" d="M164,134.19a9.93,9.93,0,0,0,1.26-1.25l2,.82L169.6,128l-2-.84a10,10,0,0,0-.65-4.25l1.7-1.41-4-4.83-1.7,1.41a9.92,9.92,0,0,0-3.54-1.37l-.32-2.17-6.2.93.32,2.12a9.81,9.81,0,0,0-3.07,2.36l-1.94-.8-2.4,5.79,1.9.78a9.88,9.88,0,0,0,.64,4.42l-1.56,1.29,4,4.83,1.56-1.29a9.88,9.88,0,0,0,3.7,1.4l.3,2,6.2-.93-.31-2.07A10,10,0,0,0,164,134.19Zm-11.53-3.42a6.81,6.81,0,1,1,9.58.91A6.81,6.81,0,0,1,152.45,130.77Z"/><path class="cls-3" d="M418,245.67a27.42,27.42,0,0,0,4.57-1.6l3.9,4.32,12.69-11.46-4-4.43a27.38,27.38,0,0,0,3.37-11.24l5.84-1.47-4.16-16.58-5.84,1.46a27.21,27.21,0,0,0-7.1-7.51l1.73-5.72-16.35-5L411,192a27.69,27.69,0,0,0-6.2.81,28.25,28.25,0,0,0-4.13,1.4L396.81,190l-12.69,11.46,3.74,4.15a27.12,27.12,0,0,0-3.6,11.64l-5.35,1.35,4.16,16.58,5.35-1.34a27,27,0,0,0,7.48,7.78L394.28,247l16.36,5,1.66-5.46A27,27,0,0,0,418,245.67Zm-24.38-22a18.56,18.56,0,1,1,22.52,13.49A18.55,18.55,0,0,1,393.65,223.71Z"/><path class="cls-3" d="M386.68,273a21.11,21.11,0,0,0,2.14-2.91l4.22,1,3-12.4-4.33-1.05a20.38,20.38,0,0,0-2.64-8.35l3-3.36-9.54-8.48-3,3.35a20.3,20.3,0,0,0-7.54-1.65L370.69,235l-12.19,3.8,1.3,4.16a20.3,20.3,0,0,0-3.48,3.1,20.83,20.83,0,0,0-2,2.6l-4.15-1-3,12.4,4.05,1a20.25,20.25,0,0,0,2.67,8.7l-2.74,3.07,9.53,8.48,2.74-3.07a20.22,20.22,0,0,0,7.88,1.66l1.24,4,12.19-3.8-1.27-4.07A20.72,20.72,0,0,0,386.68,273Zm-24.27-3.3A13.85,13.85,0,1,1,382,268.59,13.88,13.88,0,0,1,362.41,269.73Z"/><path class="cls-2" d="M193,405.31a20.19,20.19,0,1,0-15.59-33V325.66h-.95v-.09H130.92a20.2,20.2,0,1,0-26.19,0H58.4v92.61A26.22,26.22,0,0,0,84.62,444.4h92.76V397.93A20.11,20.11,0,0,0,193,405.31Z"/><path class="cls-1" d="M270.69,120.81l5.55,45.74a20.18,20.18,0,1,0,3.08,25.36L285,238.26l.94-.12,0,.1,45.52-5.53a20.18,20.18,0,1,0,25.31-3.07L403.2,224l-11.1-91.52a26.24,26.24,0,0,0-29.19-22.87Z"/><polyline class="cls-4" points="294.89 237.15 342.69 77.83 378.81 226.96"/><line class="cls-4" x1="342.69" y1="79.48" x2="342.69"/><circle class="cls-1" cx="342.69" cy="79.48" r="8.75"/><path class="cls-5" d="M299,72.08l-.64-.72h0l-2.7-3-3.75,2.43c1.49,1.39,3,2.51,3.29,4.11l-2.34,5L297.47,81l4.1-6.89C300.62,73.37,299.67,72.67,299,72.08Z"/><path class="cls-3" d="M311.26,96.74c1.6,5.68,4.8,10-.61,18.11l-14.71-9.34a17.35,17.35,0,0,0,2.37-6.57Z"/><path class="cls-6" d="M294.22,89.64a9,9,0,0,1-1.33-9.8h0a4.2,4.2,0,0,0,4.6-2.88l1.56-4.85c8.58,3.22,7,19.64,11.56,21.83l-12.43,2.11a10.31,10.31,0,0,0-1.35-3.38Z"/><path class="cls-7" d="M298.31,98.94a8.82,8.82,0,0,0-.13-2.89l12.43-2.11a24.84,24.84,0,0,0,.65,2.8Z"/><path class="cls-3" d="M311.41,113.28c-.55,2.17-2.59,3.47-5.89,4a16.17,16.17,0,0,1-2.58.23h0a18.1,18.1,0,0,1-6.88-1.31l-10.4-4.1-4.3-1.7-1.59-.62a7.73,7.73,0,0,0-3.94-.46,7.57,7.57,0,0,0-3.87,1.76,7.69,7.69,0,0,0-2.25,8.5l1.58,4.3V124l-7.5,13.08-.08.13a1.06,1.06,0,0,1,.05.23c1,4.08-2.68,3.77-10.65,2.92-1.13-.11-1.8-1.39.18-1.79l7.92-1.85,0-.06,0-.14,7.22-30a11.46,11.46,0,0,1,13.06-8.76l1.69.38L290,99.63h0L302.45,102a11.16,11.16,0,0,1,8.8,7.9A6.54,6.54,0,0,1,311.41,113.28Z"/><path class="cls-3" d="M283.7,120l-4.73.6c4.73-.6,3.23,17.2,5.59,32.27v.09l.1.09c3.18,2.91,0,4.66-7.19,8.39-1,.52-2.28-.15-.85-1.59l5.58-5.93,0-.06-10.9-29.92-1.58-4.3a7.69,7.69,0,0,1,2.25-8.5,7.57,7.57,0,0,1,3.87-1.76,7.73,7.73,0,0,1,3.94.46l1.59.62,4.31,1.41,17.27,5.7Z"/><path class="cls-8" d="M289.75,96.91l-.52,2.51L271.7,95.83s-5.74-18.27-5.55-18.3l2.42-.41L274,93.38Z"/><path class="cls-5" d="M294.92,62.51c-1.83-2.59-5.29-4.89-7.46-4.19-2.84.91-4.64,3.26-2.08,10.53a7.44,7.44,0,0,0,.41.91c-.21.28-.4.61-.28.82s.52.16.79.09l.06,0a6.19,6.19,0,0,0,6.07,2.58c2.17-.49,3.62-3.66,3.76-6.41C297,66.18,295.13,62.23,294.92,62.51Z"/><path class="cls-7" d="M288.65,70.32a2.18,2.18,0,0,0,.06-2.17.15.15,0,0,0-.2-.06.14.14,0,0,0-.07.2,2.08,2.08,0,0,1-.75,2.65.16.16,0,0,0-.05.21.16.16,0,0,0,.21,0A3.07,3.07,0,0,0,288.65,70.32Z"/><path class="cls-7" d="M286.89,67.74c.21.45.21.9,0,1s-.57-.17-.79-.61-.22-.9,0-1S286.67,67.3,286.89,67.74Z"/><path class="cls-7" d="M287,66h0a.15.15,0,0,0,0-.21,1.23,1.23,0,0,0-1.74.16.15.15,0,1,0,.23.19,1,1,0,0,1,1.33-.11A.14.14,0,0,0,287,66Z"/><path class="cls-3" d="M283.11,66A34.61,34.61,0,0,0,288,64.52a3.07,3.07,0,0,1,3.67,1.34c.7,1.19,1.46,2.44,1.66,2.73a3.16,3.16,0,0,1,.24,3.14,15,15,0,0,0-.91,2.87c-.26,2-.07,4.43,1.88,5.56a3.72,3.72,0,0,0,4.19-.66c-1.63.34-2.59-1.67-2.42-3,.2-1.58.72-3.47,2.44-3.91,1.29-.33,2.22-.11,2.72,1.21.34.9.23,1.89.53,2.8a3.76,3.76,0,0,0,2.56,2.65c1.52.42,3.48,1,4.89-.09a8.35,8.35,0,0,0,2.28-3.42,2.49,2.49,0,0,1-2.52.38c-1.47-.63-1-2.08-.85-3.32a4.75,4.75,0,0,0-1.64-4c-.74-.55-2.15-.37-3.05-.56a2,2,0,0,1-1.78-1.39,13.5,13.5,0,0,1-.39-2.09,12.57,12.57,0,0,0-7.8-9.39,7.86,7.86,0,0,0-4.14-.08c-1,.16-4.95,1.54-6.3,4.14S283.11,66,283.11,66Z"/><path class="cls-5" d="M282.4,95.33,275,93.67c.63-2.94,3.92-3.17,8.29-.22l23.32-2.63s-1.77-2.42-5-7.25c1.66-1.25,2.6-2,4.65-3.64,4.69,8.11,5.76,10.31,5.4,14.12C311.14,99.18,282.4,95.33,282.4,95.33Z"/><path class="cls-6" d="M306.22,79.93c-2.05,1.65-3,2.39-4.65,3.64a80.7,80.7,0,0,1-4.69-7.86c-.77-1.65.58-3.31,2.85-3.72s3.73,3.83,5.5,6.46C305.56,79,305.9,79.44,306.22,79.93Z"/><path d="M253.09,140.36c-1.13-.11-1.8-1.39.18-1.79l7.92-1.85,0-.06,0-.14,2.5.92C264.72,141.52,261.06,141.21,253.09,140.36Z"/><path d="M277.47,161.41c-1,.52-2.28-.15-.85-1.59l5.58-5.93,0-.06,2.48-.81C287.84,155.93,284.62,157.68,277.47,161.41Z"/><path class="cls-9" d="M348.39,345.16l-6.24-7.6c-7.92,4.2-18,6.17-28.13,6.78l.15.83-.15-.83a13.36,13.36,0,0,0-3.73-.88,1.06,1.06,0,0,0-.43,2l1.33.7-1.56.31a8.93,8.93,0,0,0-2.92.79,2.34,2.34,0,0,0,.68,4.41c3.46.41,7.44-3.1,7.44-3.1h0C326.23,349.22,339.28,349,348.39,345.16Z"/><path class="cls-6" d="M358,335.32a4.74,4.74,0,0,1-.77,2.56,19.29,19.29,0,0,1-3.57,4.07,19.09,19.09,0,0,1-4.59,2.91c-.23.11-.47.2-.7.3l-6.24-7.6A33,33,0,0,0,350,332a4.73,4.73,0,0,1,8.06,3.37Z"/><path class="cls-3" d="M296.94,342.37A20.19,20.19,0,1,1,264,326.73H218.15v46.65a20.19,20.19,0,1,1,0,25.62v46.46h91.94a26.21,26.21,0,0,0,26.22-26.21V326.73H289.5A20.14,20.14,0,0,1,296.94,342.37Z"/><path class="cls-10" d="M350.65,323a71.28,71.28,0,0,1,4.89,8.22c.9,1.86-3.29,5.81-3.52,5.81a.67.67,0,0,1-.63-.49c-.57-2.07-1.85-5.64-4.36-7.87Z"/><path class="cls-9" d="M352.49,319.82c-1.67-3.11-5.17-6.11-7.66-5.63-3.25.63-5.55,3-3.7,11.32a1.61,1.61,0,0,0,.15.53c-.27.27-.53.61-.42.86s.54.25.85.21a.09.09,0,0,0,.07,0c1.33,2.29,4,4.47,6.52,4.2s4.48-3.54,5-6.56C354.26,324.13,352.75,319.54,352.49,319.82Z"/><path class="cls-7" d="M344.53,327.58a2.41,2.41,0,0,0,.35-2.38.16.16,0,1,0-.31.11,2.3,2.3,0,0,1-1.19,2.82.16.16,0,0,0-.07.22.17.17,0,0,0,.22.08A3.5,3.5,0,0,0,344.53,327.58Z"/><path class="cls-7" d="M342.93,324.5c.18.52.12,1-.13,1.1s-.61-.26-.79-.78-.12-1,.14-1.1S342.75,324,342.93,324.5Z"/><path class="cls-7" d="M343.34,322.57h0a.16.16,0,0,0,0-.23,1.38,1.38,0,0,0-2-.07.17.17,0,0,0,0,.24.16.16,0,0,0,.23,0,1.06,1.06,0,0,1,1.49.07A.16.16,0,0,0,343.34,322.57Z"/><path d="M396.1,439.56c1.9,5-2.29,5-12.07,4.94-1.36,0-2.31-1.45,0-2.16l7.05-3.07s4.19,0,4.9,0Z"/><path class="cls-3" d="M373.67,365.2l11-7.87h0a19.32,19.32,0,0,1,5,17.72,39.71,39.71,0,0,0-1.08,6.21,218.56,218.56,0,0,0,7.41,58h-4.9C381.93,419.08,376,394,373.67,365.2Z"/><path class="cls-6" d="M368.28,368.72l16.83-11c-10.49-9-13.35-22.15-20.77-26.79a12,12,0,0,0-8.85-2,8.07,8.07,0,0,0-6.27,10c.75,2.72,3,5.58,5.75,8.64a72.36,72.36,0,0,1,10.8,16.08Z"/><path class="cls-3" d="M368.28,368.72Q347.12,402,378.42,437.46l4.21-.94-10-21.41a34,34,0,0,1-.72-27.06l13.17-30.32Z"/><path d="M382.63,436.52l-4.21.94-1.2,3.94a4.36,4.36,0,0,1-2.52,2.69,2.83,2.83,0,0,0-.71.37,1,1,0,0,0,.59,1.7l2.35,0a4.32,4.32,0,0,0,3.58-1.94l2.57-3.92A2.66,2.66,0,0,0,382.63,436.52Z"/><path class="cls-9" d="M351.87,345.94l-7.63-6.21c-6.93,5.7-16.41,9.64-26.22,12.25l.32.79L318,352a13.22,13.22,0,0,0-3.83-.13,1.06,1.06,0,0,0,0,2.09l1.44.42-1.46.61a9,9,0,0,0-2.71,1.36,2.34,2.34,0,0,0,1.55,4.18c3.46-.29,6.67-4.51,6.67-4.51h0C331,354.33,343.7,351.51,351.87,345.94Z"/><path class="cls-6" d="M359.34,334.38a4.73,4.73,0,0,1-.24,2.66,19.36,19.36,0,0,1-2.69,4.7,18.85,18.85,0,0,1-3.91,3.76c-.21.16-.42.3-.63.44l-7.63-6.21a33.14,33.14,0,0,0,6.53-7.05,4.72,4.72,0,0,1,8.57,1.7Z"/><path class="cls-3" d="M357.75,320.63a2.53,2.53,0,0,0-.89-.8c-.53-.3-.5-.11-.65-.72a12.86,12.86,0,0,0-1.41-4c-.4-.67-2.65-3.21-3.46-1.62a4.47,4.47,0,0,0-2.48-3.57,1.87,1.87,0,0,0-2.39,1.86,5.08,5.08,0,0,0-3.12-.37c-.61.13-2.6,1-2,1.92a4.11,4.11,0,0,0-2.92,2.52c-.09.31-.25.71-.39,1.14a1.22,1.22,0,0,0,1.73,1.46h0c-.23.59-.66,1.23.14,1.67s1.66-.25,2.19,0,.51.62,1.07.74a4,4,0,0,0,1.19,0,4.33,4.33,0,0,0,2.06-1c-.16,1.82.69,3.15,2.74,2.68-.34,1.69-.89,3.27.84,4.31a2.93,2.93,0,0,0,2.36.47c.36-.12.61-.47.94-.66s.11-.16.34-.22a3.42,3.42,0,0,1,.77.08,3.54,3.54,0,0,0,3.48-3.31A4.33,4.33,0,0,0,357.75,320.63Z"/><path class="cls-9" d="M30.34,338.11s-3.79-2.59-2.84-3.46c.26-.23,2.21,1.59,3.65,2.43Z"/><path class="cls-3" d="M39.67,320.64c-4,1.94-9.52,5.35-15.59,6l.14,4.84c6.5-.8,11.17,1.55,15.86,2.68Z"/><path class="cls-3" d="M40.08,334.14c-.82,0-1.57-1.45-2-3.75a19.38,19.38,0,0,1-.29-2.94,20.8,20.8,0,0,1,.12-3c.26-2.26.91-3.74,1.72-3.77,1.13,0,2.13,2.79,2.25,6.69S41.2,334.1,40.08,334.14Z"/><path class="cls-3" d="M38.32,330.46a.37.37,0,0,1-.2-.07,19.38,19.38,0,0,1-.29-2.94,20.8,20.8,0,0,1,.12-3,.33.33,0,0,1,.19-.09c.51,0,1,1.27,1,3S38.83,330.43,38.32,330.46Z"/><path class="cls-3" d="M25.37,328.87a1.76,1.76,0,1,1-1.81-1.7A1.77,1.77,0,0,1,25.37,328.87Z"/><path class="cls-3" d="M24.26,332h0a.55.55,0,0,1-.57-.54l-.14-4.66a.56.56,0,0,1,.54-.57h0a.56.56,0,0,1,.57.54l.14,4.66A.56.56,0,0,1,24.26,332Z"/><path class="cls-3" d="M29.2,338.2h0a1,1,0,0,1-1-1l-.23-7.46,2-.06.22,7.46A1,1,0,0,1,29.2,338.2Z"/><path class="cls-9" d="M36.86,354.9l-4.25-16.79s.67-5.5-3.72-6.11a1.49,1.49,0,0,0-1.07,2.68,5.23,5.23,0,0,0,1.64.69A1.46,1.46,0,0,1,30.53,337l-.19,1.07h0l1.55,14L25,341.55l-3-4.53a3.86,3.86,0,0,0-3.11-2.1,2.93,2.93,0,0,0-2.66,2.17A3.78,3.78,0,0,0,17,340.9l3.35,4.41,8.29,10C33.49,361.32,37.42,358.79,36.86,354.9Z"/><path class="cls-9" d="M27.21,376.34v0Z"/><path class="cls-9" d="M29,368.42c.07-.29,0-.06,0,0Z"/><path d="M19.23,445.7v0h0a4.64,4.64,0,0,1,.42-1.53,12.52,12.52,0,0,0,.67-1.54l3.48.66v0c.4,1.44.65,2.33,1,3.24a3.31,3.31,0,0,0,2.49,2.32c.29.1.75.11,1,.22,1.22.39,1.29,1.66,1.1,2.91l-3.22.59a2.27,2.27,0,0,1-2.39-1.19,12.8,12.8,0,0,0-2.67-3L21,452.15H20.3l-.92-5.56A2.22,2.22,0,0,1,19.23,445.7Z"/><path class="cls-3" d="M30.64,400.42c.59,10.32-6.79,42.66-6.84,42.88-1.21-.12-2.3-.29-3.5-.38,1.38-6.1.87-19.47.77-21s0-3.46,1.54-4.37c0,0-.52-8.16-1.31-16.63-.55-5.95-1.22-12.07-1.95-15.62-.55,4.72-1.3,10.43-2.1,15.76-1.13,7.66-2.34,14.59-3.12,16.85A213.68,213.68,0,0,1,3,444.52c-1-.62-2-1.14-3-1.78,3.81-5.55,4.37-25.44,8.25-24.94.2-5.07-2-34.82-1.35-38.4a29.38,29.38,0,0,1,3.44-9.56c1.59-2.66,4-5,4.57-8.12H26.38c1.54,5.75,4.3,11.46,4.24,17.71v.14c-.05,8.26.14,9.31.09,18.23v.09c0,.19,0,.36,0,.54C30.72,398.8,30.61,399.83,30.64,400.42Z"/><path class="cls-5" d="M113.27,254.05c-3-1.83-3.88-7.06-3.88-7.06-7.35-5.24-15.18-11.53-20.47-18.24a37.67,37.67,0,0,1-4-6.05A19.24,19.24,0,0,1,82.83,214a16.56,16.56,0,0,1,.1-1.86,4.72,4.72,0,0,1,9.39-.09,37,37,0,0,0,5.23,14.34,79,79,0,0,0,15.14,17.77,13.26,13.26,0,0,1,3.46,1.62,1.07,1.07,0,0,1-.94,1.88l-1.47-.29,1,1.21a9.13,9.13,0,0,1,1.8,2.45A2.34,2.34,0,0,1,113.27,254.05Z"/><path class="cls-1" d="M97.55,226.4l-8.63,2.35a37.67,37.67,0,0,1-4-6.05A19.24,19.24,0,0,1,82.83,214a16.56,16.56,0,0,1,.1-1.86,4.72,4.72,0,0,1,9.39-.09A37,37,0,0,0,97.55,226.4Z"/><path class="cls-3" d="M154.07,254.83a20.19,20.19,0,1,1,35.75,8.1l44.51-9.45-9.7-45.68a20.18,20.18,0,1,1-5.31-25l-9.57-45.07-89.81,19.08a26.21,26.21,0,0,0-20.19,31.09L118.88,278l45.32-9.62A20.19,20.19,0,0,1,154.07,254.83Z"/><path class="cls-11" d="M84.21,196.64a70.45,70.45,0,0,0-2,9.36c-.26,2,5,4.45,5.2,4.37a.67.67,0,0,0,.43-.67c-.12-2.14,0-5.93,1.62-8.85Z"/><path class="cls-5" d="M82.25,199.13c1.47,2.69,4.43,5.16,6.84,4.62s4.31-3.48,4.83-6.07H94c.31-.07.72-.18.74-.48s-.33-.51-.67-.68a1.62,1.62,0,0,0,0-.54c-.92-8.51-3.85-10-7.13-9.54-1.41.19-2.78,1.52-3.8,3.28C81.27,192.87,81.74,198.34,82.25,199.13Z"/><path class="cls-7" d="M91.48,199a2.4,2.4,0,0,1-1.1-2.14.17.17,0,0,1,.34,0,2.31,2.31,0,0,0,2,2.3.16.16,0,0,1,0,.32A3.26,3.26,0,0,1,91.48,199Z"/><path class="cls-7" d="M92,195.6c0,.55.21,1,.48,1s.49-.44.49-1-.21-1-.48-1S92,195.05,92,195.6Z"/><path class="cls-7" d="M91,193.91h0a.16.16,0,0,1-.07-.22,1.38,1.38,0,0,1,1.82-.69.17.17,0,0,1,.08.22.16.16,0,0,1-.22.09,1,1,0,0,0-1.39.53A.17.17,0,0,1,91,193.91Z"/><path d="M86.36,321.21c-1.9,5,2,5.09,11.74,5.06,1.36,0,2.31-1.45,0-2.16L90.58,321s-3.44,0-4.15,0Z"/><path d="M63.63,320.83c-1.89,5,2.3,5,12.07,4.94,1.36,0,2.31-1.45,0-2.16l-7-3.07s-4.19,0-4.9,0Z"/><path class="cls-3" d="M92.1,246.23H74.83c7.92,23.62,11.6,48.62,11.6,74.81h4.12A272.7,272.7,0,0,0,92.1,246.23Z"/><path class="cls-3" d="M85.92,246.23H72c-2.69,5.88.45,12.82.45,12.82,0,19.84-3.17,41-8.7,61.49h4.9C77.8,300.35,83.55,275,85.92,246.23Z"/><path class="cls-1" d="M92.1,246.23H72c3.85-13.28-.94-25.84,2.73-33.79A12,12,0,0,1,81.06,206a8.08,8.08,0,0,1,10.71,4.91c.86,2.69.53,6.32-.09,10.38a72.28,72.28,0,0,0-.24,19.38Z"/><path class="cls-5" d="M123.44,184.62c-1.83,3-7,3.89-7,3.89-5.52,7.76-12.19,16.05-19.29,21.35l-2.64-8.68c6.85-3.8,13.34-9.55,19.09-16a13.53,13.53,0,0,1,1.62-3.47,1.07,1.07,0,0,1,1.88.94l-.28,1.47,1.2-1a9.64,9.64,0,0,1,2.43-1.8A2.34,2.34,0,0,1,123.44,184.62Z"/><path class="cls-1" d="M97.1,209.86a34.52,34.52,0,0,1-5,3.14,19.14,19.14,0,0,1-8.75,2.14c-.6,0-1.19,0-1.78-.09a4.73,4.73,0,0,1-3.7-7,4.67,4.67,0,0,1,3.59-2.42,35.76,35.76,0,0,0,13-4.47Z"/><path class="cls-3" d="M86.62,197.9a8.38,8.38,0,0,0,2-5.32,3,3,0,0,0,1.16.46,9.92,9.92,0,0,0,8.84-2.49c-3.22-1.64-5.62-4-7.18-4.78a7.25,7.25,0,0,0-4.81-.77,3.65,3.65,0,0,0-1.35.52c-.43.28-.59.76-1,1a.92.92,0,0,1-.66.08c-2.2-.17-4.44,2.15-4.71,4C77.27,202.33,84.63,200.43,86.62,197.9Z"/></g></g></svg>