<svg xmlns="http://www.w3.org/2000/svg" viewBox="0 0 366.22 212.78"><defs><style>.cls-1{fill:#ebb376;}.cls-2{fill:#263238;}.cls-3{fill:#407bff;}.cls-14,.cls-21,.cls-4{opacity:0.2;}.cls-13,.cls-14,.cls-15,.cls-16,.cls-23,.cls-24,.cls-4,.cls-5{isolation:isolate;}.cls-11,.cls-12,.cls-13,.cls-14,.cls-15,.cls-16,.cls-17,.cls-19,.cls-20,.cls-21,.cls-23,.cls-5,.cls-6{fill:#fff;}.cls-5{opacity:0.4;}.cls-7{fill:#d58745;}.cls-10,.cls-25,.cls-8{fill:none;}.cls-8{stroke:#2e353a;stroke-width:0.72px;}.cls-25,.cls-8{stroke-linecap:round;stroke-linejoin:round;}.cls-9{fill:#de5753;}.cls-10,.cls-25{stroke:#263238;stroke-width:0.5px;}.cls-10{stroke-miterlimit:10;}.cls-11,.cls-16{opacity:0.1;}.cls-12,.cls-23,.cls-24{opacity:0.3;}.cls-13,.cls-17{opacity:0.6;}.cls-18{fill:#2e353a;}.cls-19{opacity:0.8;}.cls-20{opacity:0.9;}.cls-22{fill:#e4897b;}</style></defs><title>Asset 1departments</title><g id="Layer_2" data-name="Layer 2"><g id="Character_1" data-name="Character 1"><path class="cls-1" d="M166.76,43.57l-4.65-2.28s-1.38-3.06-1.48-3-8.9-1.81-8.9-1.81-.1,5.19.89,6.29,7,1.62,7.32,1.81,1-.43,1-.43l4.94,3.25Z"/><path class="cls-2" d="M217.56,4.45S215.64,0,209.41,0,198,3.71,198.28,8.46s-3.26,4.3-3.86,8.9,1.63,5.78,1.78,7.71-2.37,1.34-4,4.6-3.71,7.86,3.26,13.94,26.7,5,31,1.34,4.15-10.83,0-12.76-.3-1.63.14-5.93-3.41-5.94-3.11-9.35S224.83,4.75,217.56,4.45Z"/><path class="cls-3" d="M193.35,33.32V45.55s-1,1.31-2.62,3a40,40,0,0,1-5.42,4.94c-1.87,1.36-3.76,2.29-5.29,2.09-4.85-.62-17.91-8.13-17.91-8.13l2.18-5.76s14.83,7.63,15.73,6.84S190.66,34,193.35,33.32Z"/><path class="cls-4" d="M190.73,48.54a40,40,0,0,1-5.42,4.94c-.7-5.46,5.56-12.19,5.56-12.19S191,44.79,190.73,48.54Z"/><path class="cls-1" d="M195.07,77.62s-8.13,43.32-10.3,61.11c-2.83,23.2-14.42,57.15-14.42,57.15l4.63,1.19s16.34-28.84,19.52-54.8c13-26.52,14-59.19,14-59.19Z"/><path class="cls-2" d="M161.72,206.38a6.8,6.8,0,0,1,2.38-.61h0s2.85-1.67,5.67-8.19l3.18,0a2.63,2.63,0,0,1,2.44,1.75,1.64,1.64,0,0,1,.09.44,17.62,17.62,0,0,1-.25,2.29,62.79,62.79,0,0,1-1.85,7.47l-.54-.14,1-4.74c.32-1.61-1.37,0-2.15,1.57s-2,3.26-5.5,2.46C162.09,207.7,160.44,207.11,161.72,206.38Z"/><path class="cls-1" d="M203.51,76.93s1,44.06,2.56,61.91c2,23.29-2.28,58.9-2.28,58.9l4.78.21s10-31.6,7.76-57.65c7.21-28.64,1.47-60.81,1.47-60.81Z"/><path class="cls-2" d="M196.35,207.83a6.47,6.47,0,0,1,2.3-.86h0s2.65-2,4.75-8.76l3.15-.36a2.63,2.63,0,0,1,2.62,1.48,1.47,1.47,0,0,1,.13.42,16.06,16.06,0,0,1,0,2.3,63.91,63.91,0,0,1-1,7.63l-.55-.08.46-4.81c.15-1.64-1.36.09-2,1.79s-1.62,3.45-5.19,3C196.85,209.1,195.15,208.7,196.35,207.83Z"/><path class="cls-1" d="M170.35,195.88s-4,8.29-6.25,9.89c0,0,3.06,1.83,6.25-2.23,4.12-5.26,5.13-3.79,5.13-3.79a15.16,15.16,0,0,0-.5-2.68C174.36,195.38,170.35,195.88,170.35,195.88Z"/><path class="cls-1" d="M204.27,195.81s-1.12,3.07-2.62,6.44a14.64,14.64,0,0,1-3,4.72s2.6.84,4-.79,3.81-7.53,6.51-6.85a6.47,6.47,0,0,0-.6-1.38C208.16,197.28,204.27,195.81,204.27,195.81Z"/><path class="cls-3" d="M192.28,70.39s-3.21,32.07-8,64.22a340.92,340.92,0,0,1-12.86,54l9.49.79s18.2-45.1,23.74-71.21c0,0,2,46.29-1.19,72l8.31-.39s20.27-87.11,5.14-118.49Z"/><path class="cls-5" d="M211.78,189.8l-8.31.39c3.16-25.71,1.19-72,1.19-72-1.4,6.59-3.61,14.39-6.12,22.36-7.45,23.64-17.62,48.85-17.62,48.85l-9.49-.79a339.94,339.94,0,0,0,12.85-54c4.79-32.15,8-64.22,8-64.22l24.63.93C232.05,102.69,211.78,189.8,211.78,189.8Z"/><path class="cls-4" d="M204.66,118.19c-1.4,6.59-3.61,14.39-6.12,22.36-1-15,2.86-41.94,2.86-41.94Z"/><polygon class="cls-2" points="216.87 69.76 216.94 73.38 192.16 71.95 192.07 67.67 216.87 69.76"/><rect class="cls-6" x="197.66" y="68.63" width="5.43" height="4.12" transform="translate(395.28 155.3) rotate(-175.97)"/><rect class="cls-3" x="208.43" y="68.41" width="1.23" height="6.26" transform="translate(415.68 149.76) rotate(-178.16)"/><rect class="cls-5" x="208.43" y="68.41" width="1.23" height="6.26" transform="translate(415.68 149.76) rotate(-178.16)"/><rect class="cls-3" x="193.28" y="67.03" width="1.23" height="6.26" transform="translate(385.44 146.51) rotate(-178.16)"/><rect class="cls-5" x="193.28" y="67.03" width="1.23" height="6.26" transform="translate(385.44 146.51) rotate(-178.16)"/><path class="cls-2" d="M192.12,68.12l24.75,1.64c.39-6.15.83-8,2.68-15.38.6-2.37,1.34-5,2.29-8.07.51-1.64,1.07-3.39,1.7-5.28.48-1.44,1-3,1.55-4.56A73,73,0,0,0,214.81,34a79.42,79.42,0,0,0-11.11-1.17c-4.82,0-10.35.51-10.35.51s-.79.18-1.28,5.29C191.62,43.4,191.13,50.69,192.12,68.12Z"/><path class="cls-5" d="M192.12,68.12l24.75,1.64c.39-6.15.83-8,2.68-15.38.6-2.37,1.34-5,2.29-8.07.51-1.64,1.07-3.39,1.7-5.28.48-1.44,1-3,1.55-4.56A73,73,0,0,0,214.81,34a79.42,79.42,0,0,0-11.11-1.17c-4.82,0-10.35.51-10.35.51s-.79.18-1.28,5.29C191.62,43.4,191.13,50.69,192.12,68.12Z"/><path class="cls-1" d="M205.74,38.28c6.1-.78,7.94-3.39,7.94-3.39-3.87-3.65-.66-10-.66-10l-7.34,1.37a23.51,23.51,0,0,1,.29,3.09c.05,4.46-2,4.51-2,4.51C202.72,36.29,205.74,38.28,205.74,38.28Z"/><path class="cls-4" d="M205.68,26.28a23.51,23.51,0,0,1,.29,3.09A8.16,8.16,0,0,0,213,24.91Z"/><path class="cls-1" d="M209.74,5.75c-6.39-.35-8.63,2.95-9.46,9.51-1,8.19.47,14.13,8.55,12.81C219.8,26.28,220.34,6.33,209.74,5.75Z"/><path class="cls-7" d="M204.43,15.13a13.57,13.57,0,0,1-2,2.54,1.76,1.76,0,0,0,1.64.82Z"/><path class="cls-2" d="M208.37,14.82c0,.52.2,1,.55,1s.67-.38.71-.9-.21-1-.56-1S208.41,14.3,208.37,14.82Z"/><path class="cls-2" d="M209.22,14l-1.11-.54S208.6,14.42,209.22,14Z"/><path class="cls-2" d="M201.86,14.2c0,.52.21,1,.56,1s.67-.38.71-.9-.21-1-.56-1S201.91,13.68,201.86,14.2Z"/><path class="cls-2" d="M202.71,13.34l-1.1-.54S202.1,13.81,202.71,13.34Z"/><path class="cls-8" d="M208.67,10.41a3.35,3.35,0,0,1,2.72,1.12"/><path class="cls-8" d="M204.05,9.89a3,3,0,0,0-2.58.39"/><path class="cls-2" d="M204.86,21.05a16.09,16.09,0,0,1,.63,2.26l.41,0c1.87-.08,2.71-.74,3.07-1.44a2.43,2.43,0,0,0,.25-1.12,2.26,2.26,0,0,0-.09-.65,8.84,8.84,0,0,1-3.63.93C205.11,21.05,204.86,21.05,204.86,21.05Z"/><path class="cls-6" d="M205.5,21l.2.66c1.76-.08,3-.38,3.52-.94a2.26,2.26,0,0,0-.09-.65A8.84,8.84,0,0,1,205.5,21Z"/><path class="cls-9" d="M205.9,23.29c1.87-.08,2.71-.74,3.07-1.44a6.08,6.08,0,0,0-2.06.5A2.27,2.27,0,0,0,205.9,23.29Z"/><path class="cls-2" d="M216.12,16.89s-2.69-5.41-2-9.43c0,0-12.37-5.86-13.69,6.94,0,0-.61-11.47,10.37-11.12s10.06,16.4,4.13,20.87C214.91,24.15,217.79,20.27,216.12,16.89Z"/><path class="cls-2" d="M216.77,5.14s-5-4.45-9.54-3.61-3.76,6.83,2.23,9.1,7.21,5.19,7.21,5.19l5.2-4.64Z"/><path class="cls-10" d="M205.89,3.4s-2.12.15-1.53,3.32,5.1,4.75,9.35,6.24,3.9,3.15,3.9,3.15"/><path class="cls-1" d="M215,18.18a2.8,2.8,0,0,1,3.15-2.39c2,.32,2.69,4.43-2.28,5.14C215.16,21,214.8,20.32,215,18.18Z"/><path class="cls-1" d="M219.33,35.57s-7.16,5.81-13.83,5.72-9-7.6-9-7.6A38,38,0,0,1,219.33,35.57Z"/><path class="cls-3" d="M225.09,36.47l-3.22,38.61-6.92.58c-1-5.25-1.2-13.55-1.06-21.36h0c.18-10.6.93-20.31.93-20.31A68.2,68.2,0,0,1,225.09,36.47Z"/><path class="cls-5" d="M215.92,43.67l1.87,2.87-3.9,7.75c.18-10.6.93-20.31.93-20.31l5.94,5.54Z"/><path class="cls-3" d="M201.47,32.75h0c-.16.29-3.6,6.54-6.34,18.52a134.6,134.6,0,0,0-3,22.1l-2.64-1.22s-1.25-29.91,3.91-38.84Z"/><path class="cls-5" d="M201.47,32.76c-.16.29-3.6,6.54-6.34,18.52l-1.23-7.71,2.59-2.28-2.59-4.94Z"/><path class="cls-3" d="M235.1,59.79a2.29,2.29,0,0,1-3.46,1.14,8.79,8.79,0,0,1-3.06-2.85c-.62-.89-1.46-2.24-2.31-3.65-1.83-3.07-3.74-6.48-3.74-6.48l2.56-11.48C228.77,38.23,236.48,56.82,235.1,59.79Z"/><path class="cls-4" d="M231.64,60.93a8.79,8.79,0,0,1-3.06-2.85c-.62-.89-1.46-2.24-2.31-3.65A33.44,33.44,0,0,1,228.44,51l1.86,5.22s3.26.75,3.78,2.45C234.27,59.29,233.16,60.21,231.64,60.93Z"/><path class="cls-2" d="M231.53,46l-6.17,23.48a1.21,1.21,0,0,1-1.29.87l-16.34-2.18A.9.9,0,0,1,207,67l6.17-23.48a1.21,1.21,0,0,1,1.28-.87l16.35,2.18A.9.9,0,0,1,231.53,46Z"/><path class="cls-11" d="M231.53,46l-6.17,23.48a1.21,1.21,0,0,1-1.29.87l-15.6-2.08a.89.89,0,0,1-.76-1.14l6.16-23.48a1.21,1.21,0,0,1,1.29-.87l15.6,2.08A.9.9,0,0,1,231.53,46Z"/><path class="cls-12" d="M220.18,54.94a1.74,1.74,0,0,0-1.85,1.24,1.29,1.29,0,0,0,1.1,1.63,1.71,1.71,0,0,0,1.84-1.24A1.28,1.28,0,0,1,220.18,54.94Z"/><path class="cls-3" d="M232.85,65.32c-1.1.59-3.58-.3-4.34-.6l-.23-.09s-1.36-4.42,2.17-6.81l.09,0c1.12-.61,4.61.17,4.71,1.35C235.67,63.85,234.17,64.63,232.85,65.32Z"/><path class="cls-4" d="M230.7,61.54a5.61,5.61,0,0,1-2.19,3.18l-.23-.09s-1.36-4.42,2.17-6.81l.09,0C230.84,58.17,231.32,59.22,230.7,61.54Z"/><path class="cls-1" d="M225.61,55.93s2.26-.1,3.31,0,.72,3.45.72,3.45l.89.49s.73,2-.83,3l-.8-.27a2.32,2.32,0,0,1-.87,1.19c-.64.39-3.81-.5-3.81-.5Z"/><path class="cls-2" d="M133.4,88.84H101.28l5.33-21.08a1.16,1.16,0,0,1,1.08-.83h30.38a.64.64,0,0,1,.66.83Z"/><polygon class="cls-3" points="133.16 87.08 102.41 87.08 107.08 68.58 137.84 68.58 133.16 87.08"/><polygon class="cls-13" points="133.16 87.08 102.41 87.08 107.08 68.58 137.84 68.58 133.16 87.08"/><path class="cls-2" d="M119.4,88.17H87.24V89.5a1,1,0,0,0,1,1h44.1a1,1,0,0,0,1-1V88.17Z"/><path class="cls-13" d="M119.4,88.17H87.24V89.5a1,1,0,0,0,1,1h44.1a1,1,0,0,0,1-1V88.17Z"/><path class="cls-14" d="M104.34,88.17v.46h-5.6v-.46H87.24V89.5a1,1,0,0,0,1,1h30.09a1,1,0,0,0,1-1V88.17Z"/><polygon class="cls-13" points="121.14 79.5 106.41 79.5 108.54 71.05 123.28 71.05 121.14 79.5"/><polygon class="cls-3" points="123.16 71.54 108.42 71.54 108.54 71.05 123.28 71.05 123.16 71.54"/><polygon class="cls-15" points="132.38 85.76 111.88 85.76 114.85 73.99 135.36 73.99 132.38 85.76"/><polygon class="cls-3" points="135.18 74.68 114.68 74.68 114.85 73.99 135.36 73.99 135.18 74.68"/><polygon class="cls-2" points="341.34 212.78 336.67 212.78 328.28 96 334.47 96 341.34 212.78"/><polygon class="cls-16" points="341.34 212.78 336.67 212.78 328.69 101.8 328.28 96.19 334.47 96.19 334.81 101.8 341.34 212.78"/><polygon class="cls-4" points="334.81 101.52 328.69 101.52 328.28 96.19 334.47 96.19 334.81 101.52"/><polygon class="cls-2" points="210.32 212.78 205.65 212.78 212.51 96 218.71 96 210.32 212.78"/><polygon class="cls-16" points="218.7 96.19 218.29 101.8 210.31 212.78 205.65 212.78 212.17 101.8 212.51 96.19 218.7 96.19"/><polygon class="cls-4" points="212.51 96.19 218.7 96.19 218.29 101.52 212.17 101.52 212.51 96.19"/><polygon class="cls-2" points="153.63 212.78 148.96 212.78 140.57 96 146.76 96 153.63 212.78"/><polygon class="cls-16" points="153.63 212.78 148.96 212.78 140.98 101.8 140.57 96.19 146.76 96.19 147.1 101.8 153.63 212.78"/><polygon class="cls-4" points="147.1 101.52 140.98 101.52 140.57 96.19 146.76 96.19 147.1 101.52"/><polygon class="cls-2" points="32.61 212.78 27.94 212.78 34.8 96 41 96 32.61 212.78"/><polygon class="cls-16" points="40.99 96.19 40.58 101.8 32.6 212.78 27.94 212.78 34.46 101.8 34.8 96.19 40.99 96.19"/><polygon class="cls-4" points="34.8 96.19 40.99 96.19 40.58 101.52 34.46 101.52 34.8 96.19"/><path class="cls-3" d="M29.89,93.07H339.38a0,0,0,0,1,0,0v4.15a1.7,1.7,0,0,1-1.7,1.7H31.6a1.7,1.7,0,0,1-1.7-1.7V93.07A0,0,0,0,1,29.89,93.07Z"/><path class="cls-13" d="M29.89,93.07H339.38a0,0,0,0,1,0,0v4.15a1.7,1.7,0,0,1-1.7,1.7H31.6a1.7,1.7,0,0,1-1.7-1.7V93.07A0,0,0,0,1,29.89,93.07Z"/><rect class="cls-4" x="29.89" y="93.07" width="309.49" height="2.92"/><path class="cls-3" d="M342.28,93.84H27a1.65,1.65,0,0,1-1.65-1.65h0A1.65,1.65,0,0,1,27,90.54H342.28a1.64,1.64,0,0,1,1.64,1.65h0A1.64,1.64,0,0,1,342.28,93.84Z"/><path class="cls-13" d="M342.28,93.84H27a1.65,1.65,0,0,1-1.65-1.65h0A1.65,1.65,0,0,1,27,90.54H342.28a1.64,1.64,0,0,1,1.64,1.65h0A1.64,1.64,0,0,1,342.28,93.84Z"/><path class="cls-2" d="M238.6,88.84h32.12L265.4,67.76a1.18,1.18,0,0,0-1.09-.83H233.94a.64.64,0,0,0-.67.83Z"/><polygon class="cls-3" points="238.84 87.08 269.6 87.08 264.92 68.58 234.16 68.58 238.84 87.08"/><polygon class="cls-13" points="238.84 87.08 269.6 87.08 264.92 68.58 234.16 68.58 238.84 87.08"/><path class="cls-2" d="M252.6,88.17h32.17V89.5a1,1,0,0,1-1,1H239.64a1,1,0,0,1-1-1V88.17Z"/><path class="cls-13" d="M252.6,88.17h32.17V89.5a1,1,0,0,1-1,1H239.64a1,1,0,0,1-1-1V88.17Z"/><path class="cls-14" d="M267.66,88.17v.46h5.6v-.46h11.51V89.5a1,1,0,0,1-1,1H253.64a1,1,0,0,1-1-1V88.17Z"/><polygon class="cls-15" points="240.19 85.72 267.79 85.72 263.78 69.89 236.18 69.89 240.19 85.72"/><polygon class="cls-3" points="236.42 70.81 264.02 70.81 263.78 69.89 236.18 69.89 236.42 70.81"/><g id="_Group_" data-name="&lt;Group&gt;"><path class="cls-2" d="M308.9,204.47l7.88-.49a.5.5,0,0,1,.55.44h0l.77,6.22A1.25,1.25,0,0,1,317,212c-2.75.13-4.08.05-7.55.24a65.7,65.7,0,0,1-9.27.29c-2.93-.28-2.57-3.18-1.31-3.32a19.31,19.31,0,0,0,8.88-4.23A2,2,0,0,1,308.9,204.47Z"/><path class="cls-2" d="M268.72,204.47l7.88-.49a.5.5,0,0,1,.55.44h0l.78,6.22a1.25,1.25,0,0,1-1.15,1.32c-2.76.13-4.08.05-7.55.24a65.7,65.7,0,0,1-9.27.29c-2.94-.28-2.58-3.18-1.31-3.32a19.31,19.31,0,0,0,8.88-4.23A1.94,1.94,0,0,1,268.72,204.47Z"/><path class="cls-1" d="M298.33,85.54l-6.47,1a25.27,25.27,0,0,0-4.53-1,30.71,30.71,0,0,0-5,0s-2.93,1.1-2.93,3.91c0,0,6.84,1.84,9.47.74l9.47-.74Z"/><path class="cls-3" d="M313.7,60.84c-4,4.17-6.78,20.3-7.51,21.4s-14.67,3.12-14.67,3.12-1.46,3,0,5.56c0,0,17.27-.8,19.36-1.9s7.23-13.14,7.23-13.14a24.35,24.35,0,0,0-.68-8.3C316.27,62.45,313.7,60.84,313.7,60.84Z"/><path class="cls-17" d="M313.7,60.84c-4,4.17-6.78,20.3-7.51,21.4s-14.67,3.12-14.67,3.12-1.46,3,0,5.56c0,0,17.27-.8,19.36-1.9s7.23-13.14,7.23-13.14a24.35,24.35,0,0,0-.68-8.3C316.27,62.45,313.7,60.84,313.7,60.84Z"/><path class="cls-7" d="M283.08,38.63a17.94,17.94,0,0,1-2,3.85,2.35,2.35,0,0,0,2.36.64Z"/><path class="cls-18" d="M282,37.49c.08.7.52,1.22,1,1.16s.78-.66.7-1.35-.52-1.22-1-1.17S281.91,36.79,282,37.49Z"/><path class="cls-8" d="M282.16,34.72a1.34,1.34,0,0,1,1.14.39"/><path class="cls-1" d="M284.91,46.47a9.32,9.32,0,0,0,.53.88A9.68,9.68,0,0,0,289.9,51a10.14,10.14,0,0,0,1.42.44,8.75,8.75,0,0,0,7.38-1.52A9,9,0,0,0,301,47.24c2.51-4.26,1.43-8.18.12-15a9.43,9.43,0,0,0-14.92-5.93C280.34,30.68,282,40.83,284.91,46.47Z"/><path class="cls-4" d="M289.9,51a10.14,10.14,0,0,0,1.42.44,8.75,8.75,0,0,0,7.38-1.52,10.09,10.09,0,0,0-1.76-2A13.57,13.57,0,0,0,289.9,51Z"/><path class="cls-1" d="M309.31,55.64C306.77,59.46,294.65,61,294.65,61s-5.37-.1-4.71-1.94c2.84-1.24,3.92-3,4.06-4.9a8.63,8.63,0,0,0-.55-3.45,17.8,17.8,0,0,0-.72-1.83L300.82,39C298.7,49.88,305.2,52.93,309.31,55.64Z"/><path class="cls-2" d="M283.05,26c2.29-3.6,4.33-3,4.33-3,1.46-3,10.05-3.14,14.41-.17s5.88,8.53,5.59,13c-.42,6.43-4.46,13-4.46,13h0c-5.07,1.35-9.33.23-9.65-2.45s-3-4.68-3-4.68c-2.5.85-4.76-1.94-4.76-1.94s-2.83-2.5-2.07-5.95S281.12,29,283.05,26Z"/><path class="cls-1" d="M291.13,39.86a4.44,4.44,0,0,1-1.47,3.52c-1.21.92-2.59-.77-2.9-2.82-.26-1.82,0-4.56,1.57-4.6S291.15,38,291.13,39.86Z"/><path class="cls-2" d="M286.7,40s.69,5.83,2.26,8.16,1.38,3.11,3.53,3.47c0,0-1.22,1.61-2.3,1.38s-.85-1.15-1.81-1.14-2.63-.65-2.46-1.65.37-1.26-.9-2.13-1.72-2.8-1-3.61a2.31,2.31,0,0,1,2-.55l-.1-4.34Z"/><path class="cls-3" d="M292.12,59s1.95-8.78,13.75-8.7l3,4.35Z"/><path class="cls-19" d="M292.12,59s1.95-8.78,13.75-8.7l3,4.35Z"/><path class="cls-3" d="M294.09,167.78c4.47,17,11.51,38.87,11.51,38.87l12.36-.94s-6.71-29.55-8.55-47.69c-1.14-11.2-1-20.47,2.24-21.18,2.07-.46,6.89-.44,13.08-.3v-23c-17.36,3.57-34.63,10.29-35.94,15.68C287,136.76,290.16,152.83,294.09,167.78Z"/><path class="cls-4" d="M294.09,167.78c4.62-2.93,10-6.37,15.32-9.76-1.14-11.2-1-20.47,2.24-21.18,2.07-.46,6.89-.44,13.08-.3v-23c-17.36,3.57-34.63,10.29-35.94,15.68C287,136.76,290.16,152.83,294.09,167.78Z"/><path class="cls-3" d="M301.16,106.63l-2.94-8.88S296.1,81.3,285.37,60.58c0,0,12.91-9.16,27.23-7.79,11,1.05,21.37,29.27,24.61,51.62Z"/><path class="cls-20" d="M337.21,104.41l-36,2.22-3-8.88a74.69,74.69,0,0,0-1.54-7.58,128.35,128.35,0,0,0-3.77-12.33,141,141,0,0,0-7.53-17.25s12.91-9.17,27.22-7.8C323.61,53.84,334,82.06,337.21,104.41Z"/><path class="cls-3" d="M300.86,111.23l-1.09-8.75,35.37-5.83s11.57,22.92,5.91,34.16c-5.2,10.3-60.49,4.16-69,6s5.79,68.72,5.79,68.72l-12.36.94s-20.22-61.12-16.29-77.32C250.91,122.1,280.05,112.74,300.86,111.23Z"/><polygon points="336.44 100.64 320.05 102.78 319.52 100.37 335.94 97.98 336.44 100.64"/><polygon points="318.15 100.38 318.35 102.78 303.2 104.87 303.2 102.49 318.15 100.38"/><polygon points="302.26 102.63 302.26 104.87 300.07 105.16 300.07 102.99 302.26 102.63"/><path class="cls-4" d="M296.67,91A117.59,117.59,0,0,0,292.9,79.2a9.42,9.42,0,0,1,2.59-3.32S298.88,86.91,296.67,91Z"/><path class="cls-1" d="M268,88l-5.46-.88a25.29,25.29,0,0,0-4.52-1,30.71,30.71,0,0,0-5,0s-2.93,1.1-2.93,3.91c0,0,6.84,1.84,9.47.74l8.05,1.82Z"/><path class="cls-3" d="M285.37,60.84c-2.54,2.8-1.06,25.71-1.89,27.28s-19.91-1.6-19.91-1.6l-1.25,5.67s22.42,6.59,26.54,6.66,6.63-24.19,6.63-24.19A21,21,0,0,0,291.91,67,20.61,20.61,0,0,0,285.37,60.84Z"/><path class="cls-20" d="M285.37,60.84c-2.54,2.8-1.06,25.71-1.89,27.28s-19.91-1.6-19.91-1.6l-1.25,5.67s22.42,6.59,26.54,6.66,6.63-24.19,6.63-24.19A21,21,0,0,0,291.91,67,20.61,20.61,0,0,0,285.37,60.84Z"/></g><path class="cls-3" d="M281.12,129.48h70.07a0,0,0,0,1,0,0v4.46a6.79,6.79,0,0,1-6.79,6.79H287.91a6.79,6.79,0,0,1-6.79-6.79v-4.46A0,0,0,0,1,281.12,129.48Z" transform="translate(632.3 270.2) rotate(180)"/><path class="cls-5" d="M281.12,129.48h70.07a0,0,0,0,1,0,0v4.46a6.79,6.79,0,0,1-6.79,6.79H287.91a6.79,6.79,0,0,1-6.79-6.79v-4.46A0,0,0,0,1,281.12,129.48Z" transform="translate(632.3 270.2) rotate(180)"/><path class="cls-2" d="M328.2,101.61H289.62c-2,0-3.45,2.15-3,4.41l6.89,34.71h1.6l-5.88-30.42c-.43-2.25,1-4.38,3-4.38h35.17Z"/><path class="cls-2" d="M311.65,141.94v29.33a1.71,1.71,0,0,0,1.71,1.71h7.19a1.7,1.7,0,0,0,1.7-1.71V141.94Z"/><circle class="cls-2" cx="354.46" cy="209.67" r="3.12"/><path class="cls-21" d="M352.9,209.67a1.56,1.56,0,1,1,1.56,1.56A1.56,1.56,0,0,1,352.9,209.67Z"/><path class="cls-2" d="M276.33,209.67a3.12,3.12,0,1,1,3.12,3.11A3.12,3.12,0,0,1,276.33,209.67Z"/><path class="cls-21" d="M277.89,209.67a1.56,1.56,0,1,1,1.56,1.56A1.56,1.56,0,0,1,277.89,209.67Z"/><path class="cls-2" d="M314.38,196V162.47h5.15V196c20.08.52,32.28,7.54,34.72,9.08a1,1,0,0,1,.45.83v2.78a1,1,0,0,1-1,1h0a1,1,0,0,1-.86-.5l-1.19-2.09a113.05,113.05,0,0,0-32.14-5.32v5.51a1.27,1.27,0,0,1-1.27,1.27h-2.61a1.27,1.27,0,0,1-1.27-1.27v-5.51a113.05,113.05,0,0,0-32.14,5.32l-1.19,2.09a1,1,0,0,1-.86.5h0a1,1,0,0,1-1-1V205.9a1,1,0,0,1,.46-.83C282.1,203.53,294.3,196.51,314.38,196Z"/><rect class="cls-2" x="315.26" y="206.55" width="3.38" height="6.23" transform="translate(633.91 419.33) rotate(180)"/><rect class="cls-4" x="311.65" y="141.94" width="10.6" height="12.19"/><path class="cls-2" d="M279.2,138.92v3.51a1.67,1.67,0,0,0,1.54,1.78h70.82a1.67,1.67,0,0,0,1.54-1.78v-3.51a1.69,1.69,0,0,0-1.54-1.79H280.74A1.69,1.69,0,0,0,279.2,138.92Z"/><path class="cls-2" d="M311.78,140.73H353.1s13.12-21.56,13.12-57.18V70.47a9.8,9.8,0,0,0-9.86-9.74H338.84A9.8,9.8,0,0,0,329,70.19C328.47,88.54,325.74,128.29,311.78,140.73Z"/><path class="cls-21" d="M320.87,140.73h30.36a3.15,3.15,0,0,0,2.79-1.67c3-5.69,12.2-25.66,12.2-55.51V70.47a9.79,9.79,0,0,0-9.85-9.74H341.23a9.8,9.8,0,0,0-9.86,9.46c-.46,16.4-2.69,49.87-13.11,65.69A3.11,3.11,0,0,0,320.87,140.73Z"/><path class="cls-4" d="M279.2,138.92v3.51a1.68,1.68,0,0,0,1.54,1.78h31.73a2.26,2.26,0,0,0,2.08-2.41v-2.25a2.27,2.27,0,0,0-2.08-2.42H280.74A1.69,1.69,0,0,0,279.2,138.92Z"/><g id="_Group_2" data-name="&lt;Group&gt;"><path class="cls-22" d="M90.55,64.1l-3,.72-.7-2.44a2.23,2.23,0,0,1-2.14,0,12.53,12.53,0,0,1-1.33-.79C82,60.7,80.4,59.48,80.4,59.48l2.34-4.77s1,.41,2.27,1c1.76.79,4,1.84,4.36,2.4a4.38,4.38,0,0,1,.33,2.72Z"/><path class="cls-4" d="M83.35,61.59C82,60.7,80.4,59.48,80.4,59.48l2.34-4.77s1,.41,2.27,1A8.46,8.46,0,0,1,83.35,61.59Z"/><polygon class="cls-22" points="132.4 174.26 127.39 176.22 123.78 169.42 120.5 163.24 126.06 159.9 129.42 167.5 132.4 174.26"/><polygon class="cls-4" points="129.42 167.5 123.78 169.42 120.5 163.24 126.06 159.9 129.42 167.5"/><path class="cls-2" d="M128.38,163.79l-6.83,3.66s-25.79-45.35-29.76-45S50.2,146.84,38.73,138s-.31-35.52-.31-35.52,23.73-6.78,26.31-1.57a39,39,0,0,1,1.7,4.77c.5,1.64.89,3,.89,3h0c.73-.29,24.17-9.9,34.64-4.75C112.6,109.15,128.38,163.79,128.38,163.79Z"/><path class="cls-23" d="M128.38,163.79l-6.83,3.66s-25.79-45.35-29.76-45S50.2,146.84,38.73,138s-.31-35.52-.31-35.52,23.73-6.78,26.31-1.57a39,39,0,0,1,1.7,4.77c.5,1.64.89,3,.89,3h0c.73-.29,24.17-9.9,34.64-4.75C112.6,109.15,128.38,163.79,128.38,163.79Z"/><polygon class="cls-22" points="91.3 200.77 85.95 200.16 85.92 192.6 85.91 185.68 92.38 185.37 91.81 193.52 91.3 200.77"/><polygon class="cls-4" points="91.79 193.69 85.9 192.75 85.9 185.75 92.38 185.41 91.79 193.69"/><polygon class="cls-3" points="118.21 165.2 128.2 160.19 129.24 164.43 121.68 168.33 118.21 165.2"/><path class="cls-2" d="M56.45,138.05s1.65-.19,26.88-4.86c0,0,.57,32.27,1.77,56.32l7.77.25s11.15-53.38,9.84-61.44-10.91-9.16-10.91-9.16S75.15,132.1,56.45,138.05Z"/><path class="cls-5" d="M56.45,138.05s1.65-.19,26.88-4.86c0,0,.57,32.27,1.77,56.32l7.77.25s11.15-53.38,9.84-61.44-10.91-9.16-10.91-9.16S75.15,132.1,56.45,138.05Z"/><path class="cls-24" d="M56.45,138.05s1.65-.19,26.88-4.86c0,0,.57,32.27,1.77,56.32l7.77.25s11.15-53.38,9.84-61.44-10.91-9.16-10.91-9.16S75.15,132.1,56.45,138.05Z"/><polygon class="cls-3" points="83.67 187.36 94.27 187.12 92.82 191.48 84.22 191.56 83.67 187.36"/><path class="cls-2" d="M142.38,183.16a7.11,7.11,0,0,0-2.59-.3h0s-3.24-1.35-7.15-7.79l-3.34.44A2.79,2.79,0,0,0,127,177.7a1.86,1.86,0,0,0,0,.47,19.24,19.24,0,0,0,.59,2.38,66.8,66.8,0,0,0,3,7.58l.55-.22-1.72-4.84c-.57-1.65,1.43-.26,2.49,1.34s2.56,3.14,6.14,1.79C142.18,184.6,143.83,183.74,142.38,183.16Z"/><path class="cls-22" d="M131.79,173.36s5.36,8.15,8,9.5c0,0-3,2.37-6.9-1.45-5.09-4.92-5.94-3.24-5.94-3.24a15,15,0,0,1,.14-2.88C127.49,173.41,131.79,173.36,131.79,173.36Z"/><path class="cls-2" d="M99.31,210.26a7.24,7.24,0,0,0-2.45-.9h0s-2.83-2.08-5.1-9.27l-3.35-.36a2.78,2.78,0,0,0-2.77,1.58,1.39,1.39,0,0,0-.14.45,18.06,18.06,0,0,0,0,2.44,67,67,0,0,0,1.14,8.09l.59-.08-.52-5.11c-.17-1.74,1.45.09,2.1,1.89s1.75,3.66,5.54,3.19C98.78,211.62,100.58,211.17,99.31,210.26Z"/><path class="cls-22" d="M91.34,198.23s3.28,9.19,5.52,11.13c0,0-3.43,1.59-6.36-3-3.77-6-5-4.56-5-4.56a15.41,15.41,0,0,1,.82-2.77C87.15,197.27,91.34,198.23,91.34,198.23Z"/><path class="cls-25" d="M85.2,44.74A3.38,3.38,0,0,0,82.49,46"/><path class="cls-9" d="M84.39,49.14a14.15,14.15,0,0,0,2.17,2.5,1.78,1.78,0,0,1-1.63.91Z"/><path class="cls-2" d="M85.33,47.24c.07.53-.16,1-.52,1s-.69-.35-.76-.89.16-1,.52-1S85.26,46.71,85.33,47.24Z"/><path class="cls-2" d="M84.42,46.4l1.1-.6S85.07,46.85,84.42,46.4Z"/><path class="cls-22" d="M71.52,60a1.64,1.64,0,0,0,.22.14,9.78,9.78,0,0,0,3.49,1.5c3.65.66,6.09,0,7.61-1.66h0c2.13-2.56,2.48-6.92,1.91-12.14a19.76,19.76,0,0,0-1.44-6s0-.08,0-.09-.07-.16-.1-.22a7.15,7.15,0,0,0-5.46-4.1,14.39,14.39,0,0,0-3.11-.2C64.43,37.57,63.42,54.54,71.52,60Z"/><path class="cls-4" d="M71.74,60.13a9.52,9.52,0,0,0,3.48,1.36c3.65.66,6.08-.08,7.61-1.81a10.21,10.21,0,0,1-6.5-.21A5.29,5.29,0,0,0,71.74,60.13Z"/><path class="cls-2" d="M83.32,41.71s.91,7.13-5.71,10.53c0,0-2.55,7.57-6.83,7.88C65,60.55,59.39,52.49,61,43.93,63.09,32.83,79.68,31.12,83.32,41.71Z"/><path class="cls-22" d="M80.94,50c-.06-1.12-1-3-2.77-2.61s-2.56,4.82,1.9,5.6C80.71,53.12,81.06,52.34,80.94,50Z"/><path class="cls-2" d="M70.5,34.72s6.73-2.06,10.64.5c4.56,3,6.39,6.22,1.43,11.62,0,0-11.64-3.15-15.41-2.18a41.42,41.42,0,0,0-6.43,2.21C59.56,39.35,66.61,33.36,70.5,34.72Z"/><path class="cls-22" d="M76.91,60.94s-5,2.45-3.55,7.82L60.6,63.44s7-.43,6.62-5.33C67.22,58.11,74.51,55.31,76.91,60.94Z"/><path class="cls-2" d="M72.24,36.1s-3.8-11-12.44-9.07-8,11.16-1.79,14S72.83,42.83,72.24,36.1Z"/><path class="cls-2" d="M60.39,40.88s-7.62-.05-6.68,6.48a5.54,5.54,0,0,1,2.37-3s-2.3,1.76,0,4.82c0,0-.92-2,2.23-3.38s11.77-1.26,10.17-5.52S60.39,40.88,60.39,40.88Z"/><path class="cls-25" d="M70.89,36.08s-1.83-13.34-12.6-10.64"/><path class="cls-25" d="M66.61,55.72s-7.85-4-6.45-10.25"/><path class="cls-25" d="M59.61,40.92s-6.88-.1-7.48,4.58"/><path class="cls-3" d="M61.48,63.08l3.11-2.24s10.24,1.39,10.34,7.92S61.48,63.08,61.48,63.08Z"/><path class="cls-2" d="M59.61,63.08S67.28,61.61,78,68.76c0,0,3.57,15.64-11.54,36.9l-28.66-1.8S45.53,72.54,59.61,63.08Z"/><path class="cls-24" d="M67.32,108.67l-9.76,4.9a22.05,22.05,0,0,1,8.87-7.91C66.93,107.3,67.32,108.67,67.32,108.67Z"/><path class="cls-16" d="M77.1,83.17a54.09,54.09,0,0,1-2,6.53,70.14,70.14,0,0,1-8.65,16l-28.66-1.8s7.76-31.32,21.84-40.78c0,0,7.67-1.47,18.36,5.67C78,68.75,79.23,74.26,77.1,83.17Z"/><path class="cls-4" d="M77.1,83.17a54.09,54.09,0,0,1-2,6.53,43,43,0,0,1,.06-7.08A5.83,5.83,0,0,1,77.1,83.17Z"/><path class="cls-2" d="M78,68.76S86.4,80.87,88.57,82s-2-19-2-19l4.07-.88S97.84,86.38,93,90.54s-17.86-7.91-17.86-7.91a45,45,0,0,1,0-8.31A9.24,9.24,0,0,1,78,68.76Z"/><path class="cls-16" d="M78,68.76S86.4,80.87,88.57,82s-2-19-2-19l4.07-.88S97.84,86.38,93,90.54s-17.86-7.91-17.86-7.91a45,45,0,0,1,0-8.31A9.24,9.24,0,0,1,78,68.76Z"/></g><path class="cls-3" d="M21.83,129.48H78.31a6.79,6.79,0,0,1,6.79,6.79v4.46a0,0,0,0,1,0,0H15a0,0,0,0,1,0,0v-4.46A6.79,6.79,0,0,1,21.83,129.48Z"/><path class="cls-5" d="M21.83,129.48H78.31a6.79,6.79,0,0,1,6.79,6.79v4.46a0,0,0,0,1,0,0H15a0,0,0,0,1,0,0v-4.46A6.79,6.79,0,0,1,21.83,129.48Z"/><path class="cls-2" d="M38,101.61H76.6c2,0,3.45,2.15,3,4.41l-6.9,34.71H71.12L77,110.31c.44-2.25-1-4.38-3-4.38H38.81Z"/><path class="cls-2" d="M54.57,141.94v29.33a1.71,1.71,0,0,1-1.7,1.71H45.68A1.7,1.7,0,0,1,44,171.27V141.94Z"/><path class="cls-2" d="M14.88,209.67a3.12,3.12,0,1,0-3.12,3.11A3.12,3.12,0,0,0,14.88,209.67Z"/><path class="cls-21" d="M13.32,209.67a1.56,1.56,0,1,0-1.56,1.56A1.56,1.56,0,0,0,13.32,209.67Z"/><path class="cls-2" d="M89.89,209.67a3.12,3.12,0,1,0-3.11,3.11A3.12,3.12,0,0,0,89.89,209.67Z"/><circle class="cls-21" cx="86.78" cy="209.67" r="1.56"/><path class="cls-2" d="M51.85,196V162.47H46.69V196c-20.08.52-32.28,7.54-34.72,9.08a1,1,0,0,0-.45.83v2.78a1,1,0,0,0,1,1h0a1,1,0,0,0,.86-.5l1.19-2.09a113.05,113.05,0,0,1,32.14-5.32v5.51A1.27,1.27,0,0,0,48,208.54h2.6a1.27,1.27,0,0,0,1.28-1.27v-5.51A113.05,113.05,0,0,1,84,207.08l1.19,2.09a1,1,0,0,0,.85.5h0a1,1,0,0,0,1-1V205.9a1,1,0,0,0-.46-.83C84.12,203.53,71.92,196.51,51.85,196Z"/><rect class="cls-2" x="47.58" y="206.55" width="3.38" height="6.23"/><rect class="cls-4" x="43.97" y="141.94" width="10.6" height="12.19"/><path class="cls-2" d="M87,138.92v3.51a1.67,1.67,0,0,1-1.54,1.78H14.66a1.66,1.66,0,0,1-1.53-1.78v-3.51a1.68,1.68,0,0,1,1.53-1.79H85.48A1.69,1.69,0,0,1,87,138.92Z"/><path class="cls-2" d="M54.44,140.73H13.13S0,119.17,0,83.55V70.47a9.81,9.81,0,0,1,9.87-9.74H27.38a9.8,9.8,0,0,1,9.86,9.46C37.75,88.54,40.49,128.29,54.44,140.73Z"/><path class="cls-21" d="M45.35,140.73H15a3.15,3.15,0,0,1-2.79-1.67C9.22,133.37,0,113.4,0,83.55V70.47a9.8,9.8,0,0,1,9.86-9.74H25a9.79,9.79,0,0,1,9.85,9.46c.46,16.4,2.69,49.87,13.11,65.69A3.11,3.11,0,0,1,45.35,140.73Z"/><path class="cls-4" d="M87,138.92v3.51a1.67,1.67,0,0,1-1.53,1.78H53.75a2.26,2.26,0,0,1-2.08-2.41v-2.25a2.27,2.27,0,0,1,2.08-2.42H85.48A1.69,1.69,0,0,1,87,138.92Z"/></g></g></svg>