<svg xmlns="http://www.w3.org/2000/svg" viewBox="0 0 410.03 437.94"><defs><style>.cls-1,.cls-7{fill:none;}.cls-1{stroke:#dbdbdb;stroke-width:0.75px;}.cls-1,.cls-9{stroke-miterlimit:10;}.cls-2,.cls-5{fill:#fff;}.cls-3{fill:#dbdbdb;}.cls-4{fill:#c7c7c7;}.cls-11,.cls-5{opacity:0.1;}.cls-6{fill:#263238;}.cls-8,.cls-9{fill:#a6a6a6;}.cls-9{stroke:#fff;stroke-width:0.5px;}.cls-10{fill:#f9c725;}.cls-12{fill:#ad6359;}.cls-13{fill:#36474f;}.cls-14{fill:#f699ba;}.cls-15{fill:#445a64;}</style></defs><title>Asset 12resetpass</title><g id="Layer_2" data-name="Layer 2"><g id="Layer_1-2" data-name="Layer 1"><polyline class="cls-1" points="278.28 114.05 324.5 114.05 359.3 88.55 381.4 88.55"/><path class="cls-1" d="M383.62,90.81a2.27,2.27,0,1,1,2.27-2.26A2.26,2.26,0,0,1,383.62,90.81Z"/><polyline class="cls-1" points="278.28 106.6 320.29 106.6 355.1 81.1 363.51 81.1"/><path class="cls-1" d="M365.74,83.36A2.27,2.27,0,1,1,368,81.1,2.27,2.27,0,0,1,365.74,83.36Z"/><line class="cls-1" x1="278.28" y1="121.58" x2="363.37" y2="121.58"/><path class="cls-1" d="M365.64,123.84a2.27,2.27,0,1,1,2.26-2.26A2.27,2.27,0,0,1,365.64,123.84Z"/><polyline class="cls-1" points="278.28 129.17 313.92 129.17 346.57 146.49 405.12 146.49"/><path class="cls-1" d="M407.39,148.75a2.27,2.27,0,1,1,2.26-2.26A2.26,2.26,0,0,1,407.39,148.75Z"/><polyline class="cls-1" points="278.28 136.73 310.43 136.73 346.53 157.14 376.57 157.14"/><path class="cls-1" d="M378.84,159.41a2.27,2.27,0,1,1,2.26-2.27A2.27,2.27,0,0,1,378.84,159.41Z"/><polyline class="cls-1" points="131.74 299.01 86.37 299.01 51.56 273.5 20.95 273.5"/><path class="cls-1" d="M18.72,275.77a2.27,2.27,0,1,0-2.26-2.27A2.26,2.26,0,0,0,18.72,275.77Z"/><polyline class="cls-1" points="131.74 291.45 90.58 291.45 55.77 265.95 38.84 265.95"/><path class="cls-1" d="M36.61,268.21A2.27,2.27,0,1,0,34.35,266,2.27,2.27,0,0,0,36.61,268.21Z"/><line class="cls-1" x1="131.74" y1="306.62" x2="4.91" y2="306.62"/><path class="cls-1" d="M2.64,308.88a2.27,2.27,0,1,0-2.26-2.26A2.27,2.27,0,0,0,2.64,308.88Z"/><polyline class="cls-1" points="131.74 314.13 96.95 314.13 64.29 331.44 48.34 331.44"/><path class="cls-1" d="M46.07,333.71a2.27,2.27,0,1,0-2.27-2.27A2.27,2.27,0,0,0,46.07,333.71Z"/><polyline class="cls-1" points="131.74 321.68 100.44 321.68 64.34 342.1 25.78 342.1"/><path class="cls-1" d="M23.51,344.36a2.27,2.27,0,1,0-2.27-2.26A2.27,2.27,0,0,0,23.51,344.36Z"/><polyline class="cls-1" points="211.82 74.47 211.82 37.21 226.85 16.69 226.85 10.77"/><path class="cls-1" d="M224.59,8.41a2.27,2.27,0,1,0,2.26-2.26A2.27,2.27,0,0,0,224.59,8.41Z"/><polyline class="cls-1" points="219.38 74.47 219.38 41.41 237.53 16.64 237.53 4.91"/><circle class="cls-1" cx="237.53" cy="2.64" r="2.27"/><line class="cls-1" x1="204.26" y1="74.47" x2="204.26" y2="19.74"/><path class="cls-1" d="M202,17.47a2.27,2.27,0,1,0,2.27-2.26A2.27,2.27,0,0,0,202,17.47Z"/><polyline class="cls-1" points="196.7 74.47 196.7 47.79 185.11 25.93 185.11 5.38"/><circle class="cls-1" cx="185.11" cy="2.9" r="2.27"/><polyline class="cls-1" points="189.14 74.47 189.14 51.28 172.5 21.84 172.5 16.08"/><path class="cls-1" d="M170.23,13.67a2.27,2.27,0,1,0,2.27-2.27A2.27,2.27,0,0,0,170.23,13.67Z"/><rect class="cls-2" x="21.26" y="45.52" width="141.85" height="21.5"/><path class="cls-3" d="M163.36,67.26H21v-22H163.36ZM21.5,66.78H162.88v-21H21.5Z"/><path class="cls-4" d="M54.06,51.34a11.52,11.52,0,0,1,.57,2.46,20.62,20.62,0,0,1,.16,2.47,18.48,18.48,0,0,1-.16,2.46,11.52,11.52,0,0,1-.57,2.46,11.49,11.49,0,0,1-.56-2.46,18.48,18.48,0,0,1-.16-2.46,18.73,18.73,0,0,1,.16-2.47A12.12,12.12,0,0,1,54.06,51.34Z"/><path class="cls-4" d="M59,56.27a12.12,12.12,0,0,1-2.46.56,19.07,19.07,0,0,1-4.93,0,11.49,11.49,0,0,1-2.46-.56,11.52,11.52,0,0,1,2.46-.57,16.93,16.93,0,0,1,2.46-.15,20.34,20.34,0,0,1,2.47.15A11.52,11.52,0,0,1,59,56.27Z"/><path class="cls-4" d="M57.55,52.79a11.4,11.4,0,0,1-1.35,2.14,19.54,19.54,0,0,1-3.48,3.48,11.23,11.23,0,0,1-2.14,1.34,11.89,11.89,0,0,1,1.34-2.14,20,20,0,0,1,3.49-3.48A11.36,11.36,0,0,1,57.55,52.79Z"/><path class="cls-4" d="M57.55,59.75a11.89,11.89,0,0,1-2.14-1.34,20,20,0,0,1-3.49-3.48,11.89,11.89,0,0,1-1.34-2.14,10.32,10.32,0,0,1,2.14,1.34,19.54,19.54,0,0,1,3.48,3.48A11.4,11.4,0,0,1,57.55,59.75Z"/><path class="cls-4" d="M73.26,51.34a11.49,11.49,0,0,1,.56,2.46A18.73,18.73,0,0,1,74,56.27a20.3,20.3,0,0,1-.15,2.46,12.15,12.15,0,0,1-.57,2.46,11.52,11.52,0,0,1-.57-2.46,20.3,20.3,0,0,1-.15-2.46,20.59,20.59,0,0,1,.15-2.47A12.15,12.15,0,0,1,73.26,51.34Z"/><path class="cls-4" d="M78.18,56.27a12.12,12.12,0,0,1-2.46.56,19,19,0,0,1-4.92,0,11.49,11.49,0,0,1-2.46-.56,11.52,11.52,0,0,1,2.46-.57,16.93,16.93,0,0,1,2.46-.15,20.3,20.3,0,0,1,2.46.15A11.52,11.52,0,0,1,78.18,56.27Z"/><path class="cls-4" d="M76.74,52.79a11.89,11.89,0,0,1-1.34,2.14,19.54,19.54,0,0,1-3.48,3.48,11.89,11.89,0,0,1-2.14,1.34,11.89,11.89,0,0,1,1.34-2.14,19.54,19.54,0,0,1,3.48-3.48A11.36,11.36,0,0,1,76.74,52.79Z"/><path class="cls-4" d="M76.74,59.75a11.89,11.89,0,0,1-2.14-1.34,19.54,19.54,0,0,1-3.48-3.48,11.89,11.89,0,0,1-1.34-2.14,10.87,10.87,0,0,1,2.14,1.34,19.54,19.54,0,0,1,3.48,3.48A11.89,11.89,0,0,1,76.74,59.75Z"/><path class="cls-4" d="M92.45,51.34A11.52,11.52,0,0,1,93,53.8a20.59,20.59,0,0,1,.15,2.47A20.3,20.3,0,0,1,93,58.73a11.52,11.52,0,0,1-.57,2.46,11.49,11.49,0,0,1-.56-2.46,18.48,18.48,0,0,1-.16-2.46,18.73,18.73,0,0,1,.16-2.47A11.49,11.49,0,0,1,92.45,51.34Z"/><path class="cls-4" d="M97.38,56.27a12.06,12.06,0,0,1-2.47.56,19,19,0,0,1-4.92,0,11.49,11.49,0,0,1-2.46-.56A11.52,11.52,0,0,1,90,55.7a16.93,16.93,0,0,1,2.46-.15,20.3,20.3,0,0,1,2.46.15A11.46,11.46,0,0,1,97.38,56.27Z"/><path class="cls-4" d="M95.93,52.79a11.89,11.89,0,0,1-1.34,2.14,19.54,19.54,0,0,1-3.48,3.48A11.89,11.89,0,0,1,89,59.75a11.89,11.89,0,0,1,1.34-2.14,19.54,19.54,0,0,1,3.48-3.48A11.36,11.36,0,0,1,95.93,52.79Z"/><path class="cls-4" d="M95.93,59.75a11.89,11.89,0,0,1-2.14-1.34,19.54,19.54,0,0,1-3.48-3.48A11.89,11.89,0,0,1,89,52.79a10.87,10.87,0,0,1,2.14,1.34,19.54,19.54,0,0,1,3.48,3.48A11.89,11.89,0,0,1,95.93,59.75Z"/><path class="cls-4" d="M111.65,51.34a12.12,12.12,0,0,1,.56,2.46,18.73,18.73,0,0,1,.16,2.47,18.48,18.48,0,0,1-.16,2.46,11.49,11.49,0,0,1-.56,2.46,11.52,11.52,0,0,1-.57-2.46,16.93,16.93,0,0,1-.15-2.46,20.59,20.59,0,0,1,.15-2.47A11.52,11.52,0,0,1,111.65,51.34Z"/><path class="cls-4" d="M116.57,56.27a12.12,12.12,0,0,1-2.46.56,18.48,18.48,0,0,1-2.46.16,18.73,18.73,0,0,1-2.47-.16,11.49,11.49,0,0,1-2.46-.56,11.52,11.52,0,0,1,2.46-.57,17.15,17.15,0,0,1,2.47-.15,20.3,20.3,0,0,1,2.46.15A11.52,11.52,0,0,1,116.57,56.27Z"/><path class="cls-4" d="M115.13,52.79a11.89,11.89,0,0,1-1.34,2.14,19.54,19.54,0,0,1-3.48,3.48,11.89,11.89,0,0,1-2.14,1.34,11.32,11.32,0,0,1,1.33-2.14,19.34,19.34,0,0,1,1.64-1.85A18,18,0,0,1,113,54.13,11.36,11.36,0,0,1,115.13,52.79Z"/><path class="cls-4" d="M115.13,59.75A11.89,11.89,0,0,1,113,58.41a19.24,19.24,0,0,1-1.85-1.63,20.64,20.64,0,0,1-1.64-1.85,11.32,11.32,0,0,1-1.33-2.14,10.87,10.87,0,0,1,2.14,1.34,19.54,19.54,0,0,1,3.48,3.48A11.89,11.89,0,0,1,115.13,59.75Z"/><path class="cls-4" d="M130.84,51.34a12.15,12.15,0,0,1,.57,2.46,20.59,20.59,0,0,1,.15,2.47,20.3,20.3,0,0,1-.15,2.46,11.52,11.52,0,0,1-.57,2.46,11.52,11.52,0,0,1-.57-2.46,20.3,20.3,0,0,1-.15-2.46,18.73,18.73,0,0,1,.16-2.47A11.49,11.49,0,0,1,130.84,51.34Z"/><path class="cls-4" d="M135.76,56.27a12.12,12.12,0,0,1-2.46.56,19,19,0,0,1-4.92,0,11.49,11.49,0,0,1-2.46-.56,11.52,11.52,0,0,1,2.46-.57,16.93,16.93,0,0,1,2.46-.15,20.3,20.3,0,0,1,2.46.15A11.52,11.52,0,0,1,135.76,56.27Z"/><path class="cls-4" d="M134.32,52.79A11.89,11.89,0,0,1,133,54.93a19.54,19.54,0,0,1-3.48,3.48,11.89,11.89,0,0,1-2.14,1.34,11.89,11.89,0,0,1,1.34-2.14,18,18,0,0,1,1.63-1.85,19.08,19.08,0,0,1,1.85-1.63A11.36,11.36,0,0,1,134.32,52.79Z"/><path class="cls-4" d="M134.32,59.75a11.89,11.89,0,0,1-2.14-1.34,20.53,20.53,0,0,1-1.85-1.63,19.08,19.08,0,0,1-1.63-1.85,11.89,11.89,0,0,1-1.34-2.14,10.87,10.87,0,0,1,2.14,1.34A19.54,19.54,0,0,1,133,57.61,11.89,11.89,0,0,1,134.32,59.75Z"/><path class="cls-4" d="M150,51.34a11.52,11.52,0,0,1,.57,2.46,20.62,20.62,0,0,1,.16,2.47,18.48,18.48,0,0,1-.16,2.46,11.52,11.52,0,0,1-.57,2.46,11.49,11.49,0,0,1-.56-2.46,18.48,18.48,0,0,1-.16-2.46,18.73,18.73,0,0,1,.16-2.47A12.12,12.12,0,0,1,150,51.34Z"/><path class="cls-4" d="M155,56.27a12.12,12.12,0,0,1-2.46.56,19.07,19.07,0,0,1-4.93,0,11.49,11.49,0,0,1-2.46-.56,11.52,11.52,0,0,1,2.46-.57,16.93,16.93,0,0,1,2.46-.15,20.34,20.34,0,0,1,2.47.15A11.52,11.52,0,0,1,155,56.27Z"/><path class="cls-4" d="M153.52,52.79a11.4,11.4,0,0,1-1.35,2.14,19.54,19.54,0,0,1-3.48,3.48,11.23,11.23,0,0,1-2.14,1.34,11.89,11.89,0,0,1,1.34-2.14,19.16,19.16,0,0,1,3.49-3.48A11,11,0,0,1,153.52,52.79Z"/><path class="cls-4" d="M153.52,59.75a11.55,11.55,0,0,1-2.14-1.34,19.16,19.16,0,0,1-3.49-3.48,11.89,11.89,0,0,1-1.34-2.14,10.32,10.32,0,0,1,2.14,1.34,19.54,19.54,0,0,1,3.48,3.48A11.4,11.4,0,0,1,153.52,59.75Z"/><rect class="cls-3" x="21.5" y="45.52" width="21.29" height="21.29"/><path class="cls-2" d="M35.67,53.61v3.8H34.59v-3.8a2.45,2.45,0,1,0-4.89,0v3.8H28.62v-3.8a3.53,3.53,0,1,1,7.05,0Z"/><polygon class="cls-2" points="28.62 54.6 29.7 54.64 29.7 57.41 28.62 57.41 28.62 54.6"/><polygon class="cls-2" points="35.67 54.88 35.67 57.41 34.59 57.41 34.59 54.84 35.67 54.88"/><rect class="cls-2" x="27.25" y="55.24" width="9.8" height="7.22"/><rect class="cls-5" x="32.15" y="55.24" width="4.9" height="7.22"/><path class="cls-3" d="M32.52,59.08l.37,1.77H31.31l.37-1.77a.8.8,0,0,1-.37-.67.79.79,0,1,1,1.58,0A.8.8,0,0,1,32.52,59.08Z"/><path class="cls-6" d="M289.53,54.47h-169a17.26,17.26,0,0,0-17.1,17.42v348a17.27,17.27,0,0,0,17.1,17.42h169a17.28,17.28,0,0,0,17.12-17.42v-348A17.27,17.27,0,0,0,289.53,54.47ZM296,409.14c0,9.16-6.86,16.57-15.32,16.57H129.4c-8.48,0-15.34-7.41-15.34-16.57V85.08c0-18.66,6.86-19.57,15.34-19.57h30.29c1.76,0,3.2,2,3.2,4.48v1.07c0,5.81,3.18,5.83,7.09,5.83H240c3.94,0,7.09,0,7.09-5.83V70c0-2.48,1.42-4.48,3.21-4.48h30.3C289.1,65.51,296,68,296,85.08Z"/><path class="cls-2" d="M214.56,69.64H195.45a1.18,1.18,0,0,1-1.18-1.19h0a1.18,1.18,0,0,1,1.18-1.18h19.11a1.18,1.18,0,0,1,1.18,1.18h0A1.18,1.18,0,0,1,214.56,69.64Z"/><line class="cls-7" x1="114.06" y1="388.6" x2="113.49" y2="388.6"/><path class="cls-2" d="M296,85.08V409.14c0,9.16-6.86,16.57-15.32,16.57H129.4c-8.48,0-15.34-7.41-15.34-16.57V85.08c0-18.66,6.86-19.57,15.34-19.57h30.29c1.76,0,3.2,2,3.2,4.48v1.07c0,5.81,3.18,5.83,7.09,5.83H240c3.94,0,7.09,0,7.09-5.83V70c0-2.48,1.42-4.48,3.21-4.48h30.3C289.1,65.51,296,68,296,85.08Z"/><g id="u5Zjqx"><path class="cls-8" d="M154.46,72.79l-.29.29-.17.17a4,4,0,0,0-5.64,0l-.16-.16a4,4,0,0,0-.29-.29h0c.12-.11.24-.23.37-.33a4.26,4.26,0,0,1,.85-.55,4.5,4.5,0,0,1,1.14-.38l.56-.07h.5c.13,0,.26,0,.39,0a4.26,4.26,0,0,1,1,.25,4.88,4.88,0,0,1,.7.32,4.54,4.54,0,0,1,.67.48l.31.27Z"/><path class="cls-8" d="M149.29,74.17l-.46-.46a3.24,3.24,0,0,1,1.88-.95,3.34,3.34,0,0,1,2.83.94l-.47.46a2.67,2.67,0,0,0-3.78,0Z"/><path class="cls-8" d="M152.61,74.63l-.46.46a1.38,1.38,0,0,0-1.94,0l-.46-.46A2,2,0,0,1,152.61,74.63Z"/><path class="cls-8" d="M151.6,75.51a.41.41,0,0,1-.42.41.41.41,0,0,1-.41-.41.41.41,0,0,1,.41-.42A.42.42,0,0,1,151.6,75.51Z"/></g><path class="cls-8" d="M125.92,73.68a1.21,1.21,0,1,1,1.2,1.2A1.21,1.21,0,0,1,125.92,73.68Z"/><path class="cls-8" d="M129.72,73.68a1.21,1.21,0,1,1,1.2,1.2A1.2,1.2,0,0,1,129.72,73.68Z"/><path class="cls-8" d="M133.51,73.68a1.21,1.21,0,1,1,1.21,1.2A1.21,1.21,0,0,1,133.51,73.68Z"/><path class="cls-8" d="M137.31,73.68a1.21,1.21,0,1,1,1.2,1.2A1.21,1.21,0,0,1,137.31,73.68Z"/><path class="cls-8" d="M141.11,73.68a1.21,1.21,0,1,1,1.2,1.2A1.21,1.21,0,0,1,141.11,73.68Z"/><rect class="cls-9" x="272.75" y="72.01" width="9.31" height="4.05"/><rect class="cls-8" x="273.31" y="72.53" width="6.33" height="3"/><rect class="cls-8" x="282.32" y="72.82" width="0.87" height="2.43"/><path class="cls-4" d="M122.82,142.39a7.25,7.25,0,0,1,1.15-4,3.55,3.55,0,0,1,6.26,0,7.79,7.79,0,0,1,0,8.08,3.55,3.55,0,0,1-6.26,0A7.25,7.25,0,0,1,122.82,142.39Zm6.67,0a5.58,5.58,0,0,0-.81-3,2,2,0,0,0-1.57-1,2.07,2.07,0,0,0-1.61,1,5.94,5.94,0,0,0,0,6,2.08,2.08,0,0,0,1.61,1.05,2,2,0,0,0,1.57-1.05A5.57,5.57,0,0,0,129.49,142.39Z"/><path class="cls-4" d="M142.61,142.39a7.33,7.33,0,0,1,1.15-4,3.55,3.55,0,0,1,6.26,0,7.73,7.73,0,0,1,0,8.08,3.55,3.55,0,0,1-6.26,0A7.33,7.33,0,0,1,142.61,142.39Zm6.67,0a5.58,5.58,0,0,0-.81-3,2,2,0,0,0-1.57-1,2.05,2.05,0,0,0-1.6,1,5.94,5.94,0,0,0,0,6,2.07,2.07,0,0,0,1.6,1.05,2,2,0,0,0,1.57-1.05A5.57,5.57,0,0,0,149.28,142.39Z"/><path class="cls-3" d="M133.4,159.67a7.27,7.27,0,0,1,1.15-4,3.55,3.55,0,0,1,6.27,0,7.77,7.77,0,0,1,0,8.07,3.56,3.56,0,0,1-6.27,0A7.33,7.33,0,0,1,133.4,159.67Zm6.67,0a5.52,5.52,0,0,0-.81-3,1.94,1.94,0,0,0-1.57-1,2,2,0,0,0-1.6,1,5.94,5.94,0,0,0,0,6,2.06,2.06,0,0,0,1.6,1.05,2,2,0,0,0,1.57-1.05A5.48,5.48,0,0,0,140.07,159.67Z"/><path class="cls-3" d="M169.61,159.67a7.19,7.19,0,0,1,1.15-4,3.55,3.55,0,0,1,6.26,0,7.77,7.77,0,0,1,0,8.07,3.55,3.55,0,0,1-6.26,0A7.25,7.25,0,0,1,169.61,159.67Zm6.67,0a5.61,5.61,0,0,0-.81-3,2,2,0,0,0-1.57-1,2,2,0,0,0-1.61,1,5.94,5.94,0,0,0,0,6,2.07,2.07,0,0,0,1.61,1.05,2,2,0,0,0,1.57-1.05A5.57,5.57,0,0,0,176.28,159.67Z"/><path class="cls-3" d="M153.69,142.39a7.33,7.33,0,0,1,1.15-4,3.55,3.55,0,0,1,6.26,0,7.73,7.73,0,0,1,0,8.08,3.55,3.55,0,0,1-6.26,0A7.33,7.33,0,0,1,153.69,142.39Zm6.67,0a5.58,5.58,0,0,0-.81-3,2,2,0,0,0-1.57-1,2.05,2.05,0,0,0-1.6,1,5.94,5.94,0,0,0,0,6,2.07,2.07,0,0,0,1.6,1.05,2,2,0,0,0,1.57-1.05A5.57,5.57,0,0,0,160.36,142.39Z"/><path class="cls-3" d="M138.59,137.41v10a.94.94,0,0,1-.94.93.92.92,0,0,1-.93-.93v-8.31l-.68.39a.85.85,0,0,1-.47.14.95.95,0,0,1-.49-1.74l2.08-1.23s.05,0,.06,0,.05,0,.09-.05l.1,0h.07a.23.23,0,0,1,.12,0h.18a.1.1,0,0,0,.07,0,.15.15,0,0,1,.1,0,.1.1,0,0,1,.07,0s.07,0,.1,0l.07.05s.05,0,.06,0,.05.05.07.07a.1.1,0,0,1,.05.07l.07.06,0,0a.43.43,0,0,1,0,.05s0,0,0,.08,0,.07,0,.09,0,.06,0,.08a.17.17,0,0,0,0,.12Z"/><path class="cls-4" d="M142.89,227.78a7.22,7.22,0,0,1,1.15-4,3.55,3.55,0,0,1,6.26,0,7.77,7.77,0,0,1,0,8.07,3.55,3.55,0,0,1-6.26,0A7.21,7.21,0,0,1,142.89,227.78Zm6.67,0a5.64,5.64,0,0,0-.81-3,2,2,0,0,0-1.57-1,2.05,2.05,0,0,0-1.61,1,5.64,5.64,0,0,0-.81,3,5.57,5.57,0,0,0,.81,3,2.07,2.07,0,0,0,1.61,1,2,2,0,0,0,1.57-1A5.57,5.57,0,0,0,149.56,227.78Z"/><path class="cls-3" d="M138.87,222.8v10a1,1,0,0,1-1,.93.92.92,0,0,1-.93-.93v-8.31l-.67.39a.85.85,0,0,1-.47.14.91.91,0,0,1-.8-.48.9.9,0,0,1,.31-1.26l2.07-1.24s0,0,.07,0,.05,0,.09-.05l.1,0h.06a.27.27,0,0,1,.12,0h.19a.1.1,0,0,0,.07,0,.17.17,0,0,1,.1,0s.05,0,.06,0,.07.05.11.05l.06,0,.07.05.07.07s0,0,.05.06l.07.07v0s0,0,0,0a.13.13,0,0,1,0,.08s0,.07,0,.08,0,.07,0,.09a.14.14,0,0,0,0,.12Z"/><path class="cls-3" d="M165.38,222.8v10a.94.94,0,0,1-.94.93.92.92,0,0,1-.93-.93v-8.31l-.68.39a.85.85,0,0,1-.47.14.95.95,0,0,1-.49-1.74L164,222s.05,0,.07,0,0,0,.08-.05l.1,0h.07a.23.23,0,0,1,.12,0h.18a.1.1,0,0,0,.07,0,.15.15,0,0,1,.1,0,.1.1,0,0,1,.07,0c.05,0,.07.05.1.05l.07,0,.07.05a.19.19,0,0,1,.06.07.1.1,0,0,1,0,.06l.07.07,0,0s0,0,0,0,0,.05,0,.08,0,.07,0,.08a.64.64,0,0,0,0,.09.17.17,0,0,0,0,.12Z"/><path class="cls-3" d="M122.82,194.19a7.19,7.19,0,0,1,1.15-4,3.55,3.55,0,0,1,6.26,0,7.77,7.77,0,0,1,0,8.07,3.55,3.55,0,0,1-6.26,0A7.25,7.25,0,0,1,122.82,194.19Zm6.67,0a5.61,5.61,0,0,0-.81-3,2,2,0,0,0-1.57-1,2,2,0,0,0-1.61,1,5.94,5.94,0,0,0,0,6,2.06,2.06,0,0,0,1.61,1,2,2,0,0,0,1.57-1A5.57,5.57,0,0,0,129.49,194.19Z"/><path class="cls-3" d="M142.61,194.19a7.27,7.27,0,0,1,1.15-4,3.55,3.55,0,0,1,6.26,0,7.71,7.71,0,0,1,0,8.07,3.55,3.55,0,0,1-6.26,0A7.33,7.33,0,0,1,142.61,194.19Zm6.67,0a5.61,5.61,0,0,0-.81-3,2,2,0,0,0-1.57-1,2,2,0,0,0-1.6,1,5.94,5.94,0,0,0,0,6,2,2,0,0,0,1.6,1,2,2,0,0,0,1.57-1A5.57,5.57,0,0,0,149.28,194.19Z"/><path class="cls-3" d="M172,210.67a7.14,7.14,0,0,1,1.15-4,3.55,3.55,0,0,1,6.26,0,7.77,7.77,0,0,1,0,8.07,3.55,3.55,0,0,1-6.26,0A7.16,7.16,0,0,1,172,210.67Zm6.67,0a5.64,5.64,0,0,0-.81-3,2,2,0,0,0-1.57-1,2.05,2.05,0,0,0-1.61,1,5.64,5.64,0,0,0-.81,3,5.57,5.57,0,0,0,.81,3,2.07,2.07,0,0,0,1.61,1,2,2,0,0,0,1.57-1A5.57,5.57,0,0,0,178.68,210.67Z"/><path class="cls-3" d="M153.83,194.19a7.11,7.11,0,0,1,1.15-4,3.55,3.55,0,0,1,6.26,0,7.77,7.77,0,0,1,0,8.07,3.55,3.55,0,0,1-6.26,0A7.17,7.17,0,0,1,153.83,194.19Zm6.67,0a5.61,5.61,0,0,0-.81-3,2,2,0,0,0-1.57-1,2,2,0,0,0-1.61,1,5.94,5.94,0,0,0,0,6,2.06,2.06,0,0,0,1.61,1,2,2,0,0,0,1.57-1A5.57,5.57,0,0,0,160.5,194.19Z"/><path class="cls-3" d="M138.59,189.21v10a.94.94,0,0,1-.94.93.91.91,0,0,1-.93-.93v-8.3l-.68.38a.85.85,0,0,1-.47.14.95.95,0,0,1-.49-1.74l2.08-1.23s.05,0,.06,0,.05,0,.09,0h.1a.1.1,0,0,1,.07,0,.23.23,0,0,1,.12,0h.18a.1.1,0,0,0,.07,0,.24.24,0,0,1,.1,0,.1.1,0,0,1,.07,0s.07.05.1.05l.07,0s.05,0,.06.05.05.05.07.07a.13.13,0,0,1,.05.07l.07.06,0,0a.43.43,0,0,1,0,0s0,.05,0,.08,0,.07,0,.09a.45.45,0,0,0,0,.08.16.16,0,0,0,0,.12Z"/><path class="cls-4" d="M169.3,189.21v10a.94.94,0,0,1-.94.93.91.91,0,0,1-.93-.93v-8.3l-.68.38a.85.85,0,0,1-.47.14.92.92,0,0,1-.8-.47.91.91,0,0,1,.31-1.27l2.08-1.23s0,0,.06,0,0,0,.09,0h.1a.1.1,0,0,1,.07,0,.22.22,0,0,1,.11,0h.19a.1.1,0,0,0,.07,0,.24.24,0,0,1,.1,0,.1.1,0,0,1,.07,0c.05,0,.06.05.1.05s0,0,.07,0,0,0,.06.05,0,.05.07.07a.21.21,0,0,1,.05.07l.07.06,0,0a.43.43,0,0,1,0,0s0,.05,0,.08,0,.07,0,.09a.45.45,0,0,0,0,.08.16.16,0,0,0,0,.12Z"/><path class="cls-4" d="M142.61,177.14a7.27,7.27,0,0,1,1.15-4,3.55,3.55,0,0,1,6.26,0,7.71,7.71,0,0,1,0,8.07,3.55,3.55,0,0,1-6.26,0A7.33,7.33,0,0,1,142.61,177.14Zm6.67,0a5.61,5.61,0,0,0-.81-3,2,2,0,0,0-1.57-1,2,2,0,0,0-1.6,1,5.94,5.94,0,0,0,0,6,2,2,0,0,0,1.6,1.05,2,2,0,0,0,1.57-1.05A5.57,5.57,0,0,0,149.28,177.14Z"/><path class="cls-3" d="M161.07,177.14a7.18,7.18,0,0,1,1.14-4,3.55,3.55,0,0,1,6.27,0,7.77,7.77,0,0,1,0,8.07,3.56,3.56,0,0,1-6.27,0A7.24,7.24,0,0,1,161.07,177.14Zm6.67,0a5.61,5.61,0,0,0-.81-3,2,2,0,0,0-1.58-1,2,2,0,0,0-1.6,1,5.94,5.94,0,0,0,0,6,2.06,2.06,0,0,0,1.6,1.05,2,2,0,0,0,1.58-1.05A5.57,5.57,0,0,0,167.74,177.14Z"/><path class="cls-3" d="M138.59,172.16v10a.94.94,0,0,1-.94.93.91.91,0,0,1-.93-.93v-8.3l-.68.38a.85.85,0,0,1-.47.14.95.95,0,0,1-.49-1.74l2.08-1.23s.05,0,.06,0,.05,0,.09-.05h.1a.1.1,0,0,1,.07,0,.23.23,0,0,1,.12,0h.18a.1.1,0,0,0,.07,0,.24.24,0,0,1,.1,0,.1.1,0,0,1,.07,0s.07,0,.1,0l.07.05s.05,0,.06,0,.05.05.07.07a.13.13,0,0,1,.05.07l.07.06,0,0s0,0,0,.05,0,0,0,.08,0,.07,0,.09a.45.45,0,0,0,0,.08.16.16,0,0,0,0,.12Z"/><path class="cls-3" d="M157.19,172.16v10a.94.94,0,0,1-.94.93.91.91,0,0,1-.93-.93v-8.3l-.68.38a.85.85,0,0,1-.47.14.95.95,0,0,1-.49-1.74l2.08-1.23s.05,0,.06,0,.05,0,.09-.05h.1a.1.1,0,0,1,.07,0,.23.23,0,0,1,.12,0h.18a.1.1,0,0,0,.07,0,.24.24,0,0,1,.1,0,.1.1,0,0,1,.07,0s.07,0,.1,0l.07.05s.05,0,.06,0,.05.05.07.07a.13.13,0,0,1,.05.07l.07.06,0,0s0,0,0,.05,0,0,0,.08,0,.07,0,.09a.45.45,0,0,0,0,.08.16.16,0,0,0,0,.12Z"/><path class="cls-3" d="M142.61,244.43a7.28,7.28,0,0,1,1.15-4,3.55,3.55,0,0,1,6.26,0,7.71,7.71,0,0,1,0,8.07,3.55,3.55,0,0,1-6.26,0A7.32,7.32,0,0,1,142.61,244.43Zm6.67,0a5.64,5.64,0,0,0-.81-3,2,2,0,0,0-1.57-1,2,2,0,0,0-1.6,1,5.56,5.56,0,0,0-.81,3,5.42,5.42,0,0,0,.81,3,2,2,0,0,0,1.6,1.05,2,2,0,0,0,1.57-1.05A5.51,5.51,0,0,0,149.28,244.43Z"/><path class="cls-3" d="M161.07,244.43a7.19,7.19,0,0,1,1.14-4,3.56,3.56,0,0,1,6.27,0,7.77,7.77,0,0,1,0,8.07,3.55,3.55,0,0,1-6.27,0A7.23,7.23,0,0,1,161.07,244.43Zm6.67,0a5.64,5.64,0,0,0-.81-3,2,2,0,0,0-1.58-1,2,2,0,0,0-1.6,1,5.64,5.64,0,0,0-.81,3,5.51,5.51,0,0,0,.81,3,2.06,2.06,0,0,0,1.6,1.05,2,2,0,0,0,1.58-1.05A5.51,5.51,0,0,0,167.74,244.43Z"/><path class="cls-3" d="M157.19,239.44v10a.94.94,0,0,1-.94.93.92.92,0,0,1-.93-.93V241.1l-.68.39a.84.84,0,0,1-.47.13.95.95,0,0,1-.49-1.74l2.08-1.23s.05,0,.06,0,.05,0,.09-.05l.1,0a.1.1,0,0,1,.07,0h.37a.15.15,0,0,1,.1,0h.07s.07,0,.1,0a.13.13,0,0,0,.07.05s.05,0,.06.06.05,0,.07.06a.18.18,0,0,1,.05.07l.07.07,0,0s0,0,0,.05,0,0,0,.09,0,.06,0,.08,0,.07,0,.09,0,.08,0,.11Z"/><path class="cls-3" d="M175.86,239.44v10a.94.94,0,0,1-.94.93.92.92,0,0,1-.93-.93V241.1l-.68.39a.84.84,0,0,1-.47.13.95.95,0,0,1-.49-1.74l2.08-1.23s0,0,.07,0,.05,0,.08-.05l.1,0a.1.1,0,0,1,.07,0h.37a.15.15,0,0,1,.1,0h.07c.05,0,.07,0,.1,0a.13.13,0,0,0,.07.05l.06.06s.06,0,.07.06a.18.18,0,0,1,0,.07l.07.07,0,0s0,0,0,.05,0,0,0,.09a.41.41,0,0,1,0,.08s0,.07,0,.09,0,.08,0,.11Z"/><path class="cls-3" d="M184.2,239.44v10a.94.94,0,0,1-.94.93.92.92,0,0,1-.93-.93V241.1l-.68.39a.84.84,0,0,1-.47.13.95.95,0,0,1-.49-1.74l2.08-1.23s0,0,.06,0,.06,0,.09-.05l.1,0a.1.1,0,0,1,.07,0h.37a.15.15,0,0,1,.1,0h.07c.05,0,.07,0,.1,0a.13.13,0,0,0,.07.05l.06.06s.06,0,.07.06a.18.18,0,0,1,0,.07l.07.07,0,0s0,0,0,.05,0,0,0,.09,0,.06,0,.08,0,.07,0,.09,0,.08,0,.11Z"/><path class="cls-3" d="M148.45,154.69v10a.94.94,0,0,1-.95.93.92.92,0,0,1-.93-.93v-8.3l-.67.39a.84.84,0,0,1-.47.13.92.92,0,0,1-.8-.47.91.91,0,0,1,.31-1.27L147,153.9l.07,0s0,0,.09-.05h.1s0,0,.06,0a.27.27,0,0,1,.12,0h.19s.05,0,.07,0,.06,0,.1,0,.05,0,.06,0,.07,0,.11,0a.1.1,0,0,0,.06.05l.07,0,.07.07a.21.21,0,0,1,0,.07l.07.06v0s0,0,0,.05a.13.13,0,0,1,0,.08s0,.07,0,.09,0,.07,0,.08,0,.09,0,.12Z"/><path class="cls-4" d="M157.19,154.69v10a.94.94,0,0,1-.94.93.91.91,0,0,1-.93-.93v-8.3l-.68.39a.84.84,0,0,1-.47.13.95.95,0,0,1-.49-1.74l2.08-1.23s.05,0,.06,0,.05,0,.09-.05h.1a.1.1,0,0,1,.07,0,.23.23,0,0,1,.12,0h.18a.1.1,0,0,0,.07,0,.24.24,0,0,1,.1,0,.1.1,0,0,1,.07,0s.07,0,.1,0a.13.13,0,0,0,.07.05s.05,0,.06,0,.05.05.07.07a.13.13,0,0,1,.05.07l.07.06,0,0s0,0,0,.05,0,0,0,.08,0,.07,0,.09a.45.45,0,0,0,0,.08.16.16,0,0,0,0,.12Z"/><path class="cls-4" d="M176.47,172.16v10a.94.94,0,0,1-.95.93.92.92,0,0,1-.93-.93v-8.3l-.67.38a.9.9,0,0,1-1.27-.33.9.9,0,0,1,.3-1.27l2.08-1.23.07,0s.05,0,.08-.05h.1a.1.1,0,0,1,.07,0,.27.27,0,0,1,.12,0h.19s.05,0,.06,0a.24.24,0,0,1,.1,0,.1.1,0,0,1,.07,0c.05,0,.07,0,.1,0l.07.05.07,0,.07.07a.68.68,0,0,1,.05.07l.06.06,0,0s0,0,0,.05,0,0,0,.08a.92.92,0,0,1,0,.09.45.45,0,0,0,0,.08s0,.09,0,.12Z"/><path class="cls-3" d="M185.21,172.16v10a.94.94,0,0,1-1,.93.92.92,0,0,1-.93-.93v-8.3l-.67.38a.85.85,0,0,1-.47.14.94.94,0,0,1-.49-1.74l2.07-1.23.07,0s0,0,.09-.05h.1s.05,0,.06,0a.27.27,0,0,1,.12,0h.19s0,0,.07,0,.06,0,.1,0,.05,0,.06,0,.07,0,.11,0,0,0,.06.05l.07,0,.07.07a.68.68,0,0,1,.05.07l.07.06v0s0,0,0,.05a.13.13,0,0,1,0,.08s0,.07,0,.09,0,.07,0,.08,0,.09,0,.12Z"/><path class="cls-4" d="M165.93,154.69v10a.93.93,0,0,1-.94.93.92.92,0,0,1-.93-.93v-8.3l-.67.39a.89.89,0,0,1-.48.13.95.95,0,0,1-.49-1.74l2.08-1.23.07,0s.05,0,.08-.05h.1a.1.1,0,0,1,.07,0,.23.23,0,0,1,.12,0h.18a.1.1,0,0,0,.07,0,.24.24,0,0,1,.1,0,.1.1,0,0,1,.07,0s.07,0,.1,0a.18.18,0,0,0,.07.05l.07,0a.19.19,0,0,1,.06.07.13.13,0,0,1,.05.07l.07.06,0,0s0,0,0,.05,0,0,0,.08a.92.92,0,0,1,0,.09.45.45,0,0,0,0,.08.16.16,0,0,0,0,.12Z"/><path class="cls-4" d="M161.11,210.67a7.3,7.3,0,0,1,1.15-4,3.55,3.55,0,0,1,6.26,0,7.77,7.77,0,0,1,0,8.07,3.55,3.55,0,0,1-6.26,0A7.32,7.32,0,0,1,161.11,210.67Zm6.67,0a5.64,5.64,0,0,0-.81-3,2,2,0,0,0-1.57-1,2,2,0,0,0-1.6,1,5.56,5.56,0,0,0-.82,3,5.48,5.48,0,0,0,.82,3,2.05,2.05,0,0,0,1.6,1,2,2,0,0,0,1.57-1A5.57,5.57,0,0,0,167.78,210.67Z"/><path class="cls-3" d="M148.69,205.69v10a.94.94,0,0,1-.94.93.92.92,0,0,1-.93-.93v-8.31l-.68.39a.85.85,0,0,1-.47.14.95.95,0,0,1-.49-1.74l2.08-1.24s.05,0,.06,0,.06,0,.09-.05l.1,0h.07a.23.23,0,0,1,.12,0h.18a.1.1,0,0,0,.07,0,.15.15,0,0,1,.1,0,.1.1,0,0,1,.07,0s.07,0,.1,0l.07.05s.05,0,.06,0a.15.15,0,0,1,.07.07.1.1,0,0,1,.05.06l.07.07,0,0a.43.43,0,0,1,0,.05s0,0,0,.08,0,.07,0,.08a.64.64,0,0,0,0,.09.17.17,0,0,0,0,.12Z"/><path class="cls-3" d="M157.44,205.69v10a1,1,0,0,1-.95.93.92.92,0,0,1-.93-.93v-8.31l-.67.39a.91.91,0,0,1-.48.14.95.95,0,0,1-.49-1.74l2.08-1.24s.05,0,.07,0,.05,0,.08-.05l.1,0h.07a.23.23,0,0,1,.12,0h.18a.11.11,0,0,0,.07,0,.15.15,0,0,1,.1,0,.1.1,0,0,1,.07,0s.07,0,.1,0l.07.05.07,0,.07.07.05.06.06.07,0,0s0,0,0,.05,0,0,0,.08,0,.07,0,.08a.64.64,0,0,0,0,.09.14.14,0,0,0,0,.12Z"/><path class="cls-3" d="M157.44,222.8v10a1,1,0,0,1-.95.93.92.92,0,0,1-.93-.93v-8.31l-.67.39a.91.91,0,0,1-.48.14.95.95,0,0,1-.49-1.74L156,222s.05,0,.07,0,.05,0,.08-.05l.1,0h.07a.23.23,0,0,1,.12,0h.18a.11.11,0,0,0,.07,0,.15.15,0,0,1,.1,0,.1.1,0,0,1,.07,0s.07.05.1.05l.07,0,.07.05s.05,0,.07.07l.05.06.06.07,0,0s0,0,0,.06,0,.05,0,.08,0,.07,0,.08a.64.64,0,0,0,0,.09.14.14,0,0,0,0,.12Z"/><path class="cls-4" d="M132.15,296.09a7.28,7.28,0,0,1,1.15-4,3.55,3.55,0,0,1,6.26,0,7.71,7.71,0,0,1,0,8.07,3.55,3.55,0,0,1-6.26,0A7.32,7.32,0,0,1,132.15,296.09Zm6.67,0a5.64,5.64,0,0,0-.81-3,2,2,0,0,0-1.57-1,2,2,0,0,0-1.6,1,5.56,5.56,0,0,0-.81,3,5.48,5.48,0,0,0,.81,3,2.05,2.05,0,0,0,1.6,1,2,2,0,0,0,1.57-1A5.57,5.57,0,0,0,138.82,296.09Z"/><path class="cls-3" d="M128.13,291.11v10a.94.94,0,0,1-.94.93.92.92,0,0,1-.93-.93v-8.31l-.68.39a.84.84,0,0,1-.47.13.87.87,0,0,1-.79-.47.89.89,0,0,1,.3-1.26l2.08-1.24s0,0,.06,0,.06,0,.09,0l.1,0a.1.1,0,0,1,.07,0h.37a.15.15,0,0,1,.1,0h.07s.07.06.1.06l.07.05s0,0,.06,0,.06.05.07.06a.18.18,0,0,1,0,.07l.07.07,0,0a.43.43,0,0,0,0,.05s0,.05,0,.09,0,.07,0,.08a.64.64,0,0,0,0,.09.17.17,0,0,0,0,.12Z"/><path class="cls-4" d="M131.88,262.5a7.22,7.22,0,0,1,1.14-4,3.56,3.56,0,0,1,6.27,0,7.79,7.79,0,0,1,0,8.08,3.56,3.56,0,0,1-6.27,0A7.24,7.24,0,0,1,131.88,262.5Zm6.67,0a5.49,5.49,0,0,0-.82-3,2,2,0,0,0-1.57-1,2.07,2.07,0,0,0-1.6,1,5.94,5.94,0,0,0,0,6,2.08,2.08,0,0,0,1.6,1.05,2,2,0,0,0,1.57-1.05A5.48,5.48,0,0,0,138.55,262.5Z"/><path class="cls-3" d="M143.09,262.5a7.3,7.3,0,0,1,1.15-4,3.55,3.55,0,0,1,6.26,0,7.73,7.73,0,0,1,0,8.08,3.55,3.55,0,0,1-6.26,0A7.33,7.33,0,0,1,143.09,262.5Zm6.67,0a5.58,5.58,0,0,0-.81-3,2,2,0,0,0-1.57-1,2.05,2.05,0,0,0-1.6,1,5.94,5.94,0,0,0,0,6,2.07,2.07,0,0,0,1.6,1.05,2,2,0,0,0,1.57-1.05A5.57,5.57,0,0,0,149.76,262.5Z"/><path class="cls-3" d="M127.86,257.52v10a1,1,0,0,1-1,.93.92.92,0,0,1-.93-.93v-8.31l-.67.39a.91.91,0,0,1-.48.14.95.95,0,0,1-.49-1.74l2.08-1.24s0,0,.07,0,.05,0,.08-.05l.1,0h.07a.23.23,0,0,1,.12,0H127a.1.1,0,0,0,.07,0,.15.15,0,0,1,.1,0,.1.1,0,0,1,.07,0s.07,0,.1,0l.07.05.07.05.07.07,0,.06.06.07,0,0s0,0,0,.05,0,0,0,.08a.92.92,0,0,1,0,.09s0,.06,0,.08a.14.14,0,0,0,0,.12Z"/><path class="cls-3" d="M150.37,279a7.28,7.28,0,0,1,1.15-4,3.56,3.56,0,0,1,6.27,0,7.77,7.77,0,0,1,0,8.07,3.55,3.55,0,0,1-6.27,0A7.32,7.32,0,0,1,150.37,279Zm6.67,0a5.56,5.56,0,0,0-.81-3,1.94,1.94,0,0,0-1.57-1,2,2,0,0,0-1.6,1,5.64,5.64,0,0,0-.81,3,5.57,5.57,0,0,0,.81,3,2.07,2.07,0,0,0,1.6,1,2,2,0,0,0,1.57-1A5.48,5.48,0,0,0,157,279Z"/><path class="cls-3" d="M138,274v10a1,1,0,0,1-1,.93.92.92,0,0,1-.93-.93v-8.31l-.67.39a.87.87,0,0,1-.48.13.88.88,0,0,1-.79-.47.9.9,0,0,1,.3-1.27l2.08-1.23s0,0,.07,0,0,0,.08-.05l.1,0a.1.1,0,0,1,.07,0h.37a.15.15,0,0,1,.1,0h.07c.05,0,.07.06.1.06l.07.05.07.05s0,0,.07.06l.05.07.06.07,0,0s0,0,0,.05,0,.05,0,.09,0,.07,0,.08,0,.07,0,.09a.14.14,0,0,0,0,.12Z"/><path class="cls-4" d="M146.7,274v10a1,1,0,0,1-.95.93.92.92,0,0,1-.93-.93v-8.31l-.67.39a.84.84,0,0,1-.47.13.9.9,0,0,1-.8-.47.91.91,0,0,1,.31-1.27l2.07-1.23s.05,0,.07,0,0,0,.09-.05l.1,0s0,0,.06,0H146s.06,0,.1,0h.06c.06,0,.07.06.11.06l.06.05.07.05s0,0,.07.06l0,.07.07.07v0s0,0,0,.05a.16.16,0,0,1,0,.09s0,.07,0,.08,0,.07,0,.09a.14.14,0,0,0,0,.12Z"/><path class="cls-3" d="M146.7,291.11v10a1,1,0,0,1-.95.93.92.92,0,0,1-.93-.93v-8.31l-.67.39a.84.84,0,0,1-.47.13.92.92,0,0,1-.8-.47.91.91,0,0,1,.31-1.27l2.07-1.23s.05,0,.07,0,0,0,.09,0l.1,0s0,0,.06,0H146s.06,0,.1,0h.06c.06,0,.07.06.11.06l.06.05.07,0s0,.05.07.06l0,.07.07.07v0s0,0,0,.05a.16.16,0,0,1,0,.09s0,.07,0,.08,0,.07,0,.09a.14.14,0,0,0,0,.12Z"/><path class="cls-3" d="M159.48,126.15a7.3,7.3,0,0,1,1.15-4,3.56,3.56,0,0,1,6.27,0,7.79,7.79,0,0,1,0,8.08,3.56,3.56,0,0,1-6.27,0A7.35,7.35,0,0,1,159.48,126.15Zm6.67,0a5.56,5.56,0,0,0-.81-3,2,2,0,0,0-1.57-1,2.05,2.05,0,0,0-1.6,1,5.64,5.64,0,0,0-.81,3,5.57,5.57,0,0,0,.81,3,2.08,2.08,0,0,0,1.6,1.05,2,2,0,0,0,1.57-1.05A5.48,5.48,0,0,0,166.15,126.15Z"/><path class="cls-3" d="M147.07,121.17v10a1,1,0,0,1-.95.93.92.92,0,0,1-.93-.93v-8.31l-.67.39a.86.86,0,0,1-.48.14.95.95,0,0,1-.49-1.74l2.08-1.24s.05,0,.07,0,.05,0,.08,0l.1,0H146a.27.27,0,0,1,.12,0h.19s.05,0,.06,0a.15.15,0,0,1,.1,0s.06,0,.07,0,.07,0,.1,0l.07,0,.07,0,.07.07,0,.06.07.07v0s0,0,0,0a.13.13,0,0,1,0,.08s0,.07,0,.08,0,.07,0,.09a.14.14,0,0,0,0,.12Z"/><path class="cls-4" d="M155.81,121.17v10a1,1,0,0,1-.95.93.91.91,0,0,1-.92-.93v-8.31l-.68.39a.85.85,0,0,1-.47.14.91.91,0,0,1-.8-.48.9.9,0,0,1,.31-1.26l2.07-1.24s0,0,.07,0,.05,0,.09,0l.1,0h.06a.27.27,0,0,1,.12,0H155a.1.1,0,0,0,.07,0,.17.17,0,0,1,.1,0,.11.11,0,0,1,.07,0s.06,0,.1,0l.06,0a.18.18,0,0,1,.07,0s.05.05.07.07,0,0,.05.06l.07.07v0s0,0,0,0,0,0,0,.08,0,.07,0,.08a.64.64,0,0,0,0,.09.17.17,0,0,0,0,.12Z"/><path class="cls-3" d="M155.81,105.3v10a.94.94,0,0,1-.95.92.91.91,0,0,1-.92-.92V107l-.68.39a.84.84,0,0,1-.47.13.92.92,0,0,1-.8-.47.91.91,0,0,1,.31-1.27l2.07-1.23s0,0,.07,0,.05,0,.09,0l.1,0s.05,0,.06,0a.27.27,0,0,1,.12,0H155a.1.1,0,0,0,.07,0c.05,0,.06,0,.1,0h.07s.06,0,.1,0a.1.1,0,0,0,.06.05l.07,0s.05.06.07.07l.05.07.07.07v0s0,0,0,0,0,.05,0,.09,0,.06,0,.08,0,.07,0,.09,0,.08,0,.11Z"/><path class="cls-3" d="M224.82,268.18a7.12,7.12,0,0,1,1.15-4,3.55,3.55,0,0,1,6.26,0,7.77,7.77,0,0,1,0,8.07,3.55,3.55,0,0,1-6.26,0A7.16,7.16,0,0,1,224.82,268.18Zm6.67,0a5.64,5.64,0,0,0-.81-3,2,2,0,0,0-1.57-1,2,2,0,0,0-1.61,1,5.64,5.64,0,0,0-.81,3,5.56,5.56,0,0,0,.81,3,2.06,2.06,0,0,0,1.61,1,2,2,0,0,0,1.57-1A5.56,5.56,0,0,0,231.49,268.18Z"/><path class="cls-3" d="M244.61,268.18a7.28,7.28,0,0,1,1.15-4,3.55,3.55,0,0,1,6.26,0,7.77,7.77,0,0,1,0,8.07,3.55,3.55,0,0,1-6.26,0A7.32,7.32,0,0,1,244.61,268.18Zm6.67,0a5.64,5.64,0,0,0-.81-3,2,2,0,0,0-1.57-1,2,2,0,0,0-1.6,1,5.56,5.56,0,0,0-.82,3,5.47,5.47,0,0,0,.82,3,2,2,0,0,0,1.6,1,2,2,0,0,0,1.57-1A5.56,5.56,0,0,0,251.28,268.18Z"/><path class="cls-4" d="M235.4,285.46a7.28,7.28,0,0,1,1.15-4,3.56,3.56,0,0,1,6.27,0,7.77,7.77,0,0,1,0,8.07,3.55,3.55,0,0,1-6.27,0A7.32,7.32,0,0,1,235.4,285.46Zm6.67,0a5.64,5.64,0,0,0-.81-3,1.94,1.94,0,0,0-1.57-1,2,2,0,0,0-1.6,1,5.56,5.56,0,0,0-.81,3,5.48,5.48,0,0,0,.81,3,2.05,2.05,0,0,0,1.6,1,2,2,0,0,0,1.57-1A5.57,5.57,0,0,0,242.07,285.46Z"/><path class="cls-4" d="M271.61,285.46a7.2,7.2,0,0,1,1.15-4,3.55,3.55,0,0,1,6.26,0,7.77,7.77,0,0,1,0,8.07,3.55,3.55,0,0,1-6.26,0A7.24,7.24,0,0,1,271.61,285.46Zm6.67,0a5.64,5.64,0,0,0-.81-3,2,2,0,0,0-1.57-1,2,2,0,0,0-1.61,1,5.64,5.64,0,0,0-.81,3,5.57,5.57,0,0,0,.81,3,2.07,2.07,0,0,0,1.61,1,2,2,0,0,0,1.57-1A5.57,5.57,0,0,0,278.28,285.46Z"/><path class="cls-3" d="M255.69,268.18a7.28,7.28,0,0,1,1.15-4,3.55,3.55,0,0,1,6.26,0,7.77,7.77,0,0,1,0,8.07,3.55,3.55,0,0,1-6.26,0A7.32,7.32,0,0,1,255.69,268.18Zm6.67,0a5.64,5.64,0,0,0-.81-3,2,2,0,0,0-1.57-1,2,2,0,0,0-1.6,1,5.56,5.56,0,0,0-.82,3,5.47,5.47,0,0,0,.82,3,2,2,0,0,0,1.6,1,2,2,0,0,0,1.57-1A5.56,5.56,0,0,0,262.36,268.18Z"/><path class="cls-4" d="M240.59,263.19v10a.94.94,0,0,1-1,.92.91.91,0,0,1-.92-.92v-8.31l-.68.39a.84.84,0,0,1-.47.13.92.92,0,0,1-.8-.47.91.91,0,0,1,.31-1.27l2.08-1.23s.05,0,.06,0,.05,0,.09-.05l.1,0a.1.1,0,0,1,.07,0,.22.22,0,0,1,.11,0h.19a.1.1,0,0,0,.07,0c.05,0,.06,0,.1,0H240s.06.05.1.05a.1.1,0,0,0,.06.05l.07.05s.05.06.07.07l.05.07.07.07,0,0s0,0,0,0,0,.05,0,.09,0,.06,0,.08,0,.07,0,.09,0,.08,0,.11Z"/><path class="cls-4" d="M244.89,353.56a7.11,7.11,0,0,1,1.15-4,3.55,3.55,0,0,1,6.26,0,7.77,7.77,0,0,1,0,8.07,3.55,3.55,0,0,1-6.26,0A7.17,7.17,0,0,1,244.89,353.56Zm6.67,0a5.61,5.61,0,0,0-.81-3,2,2,0,0,0-1.57-1,2,2,0,0,0-1.61,1,5.94,5.94,0,0,0,0,6,2.06,2.06,0,0,0,1.61,1.05,2,2,0,0,0,1.57-1.05A5.57,5.57,0,0,0,251.56,353.56Z"/><path class="cls-3" d="M240.87,348.58v10a.94.94,0,0,1-1,.92.91.91,0,0,1-.93-.92v-8.31l-.67.39a.84.84,0,0,1-.47.13.94.94,0,0,1-.49-1.74l2.07-1.23.07,0s.05,0,.08-.05h.11s.05,0,.06,0a.27.27,0,0,1,.12,0h.19s.05,0,.06,0,.07,0,.11,0,.05,0,.06,0,.07,0,.1,0a.18.18,0,0,0,.07.05l.07.05.07.07a.68.68,0,0,1,.05.07l.07.07v0s0,0,0,.05a.13.13,0,0,1,0,.08s0,.07,0,.09,0,.07,0,.08,0,.09,0,.12Z"/><path class="cls-3" d="M224.82,320a7.12,7.12,0,0,1,1.15-4,3.55,3.55,0,0,1,6.26,0,7.77,7.77,0,0,1,0,8.07,3.55,3.55,0,0,1-6.26,0A7.16,7.16,0,0,1,224.82,320Zm6.67,0a5.64,5.64,0,0,0-.81-3,2,2,0,0,0-1.57-1,2,2,0,0,0-1.61,1,5.64,5.64,0,0,0-.81,3,5.51,5.51,0,0,0,.81,3,2.06,2.06,0,0,0,1.61,1.05,2,2,0,0,0,1.57-1.05A5.51,5.51,0,0,0,231.49,320Z"/><path class="cls-3" d="M244.61,320a7.28,7.28,0,0,1,1.15-4,3.55,3.55,0,0,1,6.26,0,7.77,7.77,0,0,1,0,8.07,3.55,3.55,0,0,1-6.26,0A7.32,7.32,0,0,1,244.61,320Zm6.67,0a5.64,5.64,0,0,0-.81-3,2,2,0,0,0-1.57-1,2,2,0,0,0-1.6,1,5.56,5.56,0,0,0-.82,3,5.42,5.42,0,0,0,.82,3,2,2,0,0,0,1.6,1.05,2,2,0,0,0,1.57-1.05A5.51,5.51,0,0,0,251.28,320Z"/><path class="cls-4" d="M255.83,320a7.12,7.12,0,0,1,1.15-4,3.55,3.55,0,0,1,6.26,0,7.77,7.77,0,0,1,0,8.07,3.55,3.55,0,0,1-6.26,0A7.16,7.16,0,0,1,255.83,320Zm6.67,0a5.64,5.64,0,0,0-.81-3,2,2,0,0,0-1.57-1,2,2,0,0,0-1.61,1,5.64,5.64,0,0,0-.81,3,5.51,5.51,0,0,0,.81,3,2.06,2.06,0,0,0,1.61,1.05,2,2,0,0,0,1.57-1.05A5.51,5.51,0,0,0,262.5,320Z"/><path class="cls-4" d="M240.59,315v10a1,1,0,0,1-1,.93.91.91,0,0,1-.92-.93v-8.31L238,317a.84.84,0,0,1-.47.13.92.92,0,0,1-.8-.47.91.91,0,0,1,.31-1.27l2.08-1.23s.05,0,.06,0,.05,0,.09-.05l.1,0a.1.1,0,0,1,.07,0h.37c.05,0,.06,0,.1,0H240s.06.05.1.05l.06.06a.18.18,0,0,1,.07.05s.05,0,.07.06l.05.07.07.07,0,0a.43.43,0,0,0,0,.05s0,.05,0,.09,0,.06,0,.08a.64.64,0,0,0,0,.09c0,.05,0,.08,0,.11Z"/><path class="cls-3" d="M244.61,302.93a7.28,7.28,0,0,1,1.15-4,3.55,3.55,0,0,1,6.26,0,7.77,7.77,0,0,1,0,8.07,3.55,3.55,0,0,1-6.26,0A7.32,7.32,0,0,1,244.61,302.93Zm6.67,0a5.64,5.64,0,0,0-.81-3,2,2,0,0,0-1.57-1,2,2,0,0,0-1.6,1,5.56,5.56,0,0,0-.82,3,5.42,5.42,0,0,0,.82,3,2,2,0,0,0,1.6,1,2,2,0,0,0,1.57-1A5.51,5.51,0,0,0,251.28,302.93Z"/><path class="cls-4" d="M263.07,302.93a7.19,7.19,0,0,1,1.14-4,3.56,3.56,0,0,1,6.27,0,7.77,7.77,0,0,1,0,8.07,3.55,3.55,0,0,1-6.27,0A7.23,7.23,0,0,1,263.07,302.93Zm6.66,0a5.56,5.56,0,0,0-.81-3,1.94,1.94,0,0,0-1.57-1,2,2,0,0,0-1.6,1,5.64,5.64,0,0,0-.81,3,5.51,5.51,0,0,0,.81,3,2.06,2.06,0,0,0,1.6,1,2,2,0,0,0,1.57-1A5.42,5.42,0,0,0,269.73,302.93Z"/><path class="cls-4" d="M240.59,298v10a1,1,0,0,1-1,.93.91.91,0,0,1-.92-.93V299.6L238,300a.84.84,0,0,1-.47.13.92.92,0,0,1-.8-.47.91.91,0,0,1,.31-1.27l2.08-1.23s.05,0,.06,0,.05,0,.09-.05l.1,0a.1.1,0,0,1,.07,0h.37c.05,0,.06,0,.1,0H240s.06.05.1.05a.17.17,0,0,0,.06.06.18.18,0,0,1,.07.05s.05.05.07.06l.05.07.07.07,0,0a.43.43,0,0,0,0,0s0,.05,0,.09,0,.06,0,.08a.64.64,0,0,0,0,.09c0,.05,0,.08,0,.11Z"/><path class="cls-3" d="M259.19,298v10a1,1,0,0,1-.95.93.91.91,0,0,1-.92-.93V299.6l-.68.39a.84.84,0,0,1-.47.13.92.92,0,0,1-.8-.47.91.91,0,0,1,.31-1.27l2.08-1.23s.05,0,.06,0,.05,0,.09-.05l.1,0a.1.1,0,0,1,.07,0h.37c.05,0,.06,0,.1,0h.07c.05,0,.06.05.1.05l.06.06a.18.18,0,0,1,.07.05s0,.05.07.06l.05.07.07.07,0,0a.43.43,0,0,0,0,0s0,.05,0,.09,0,.06,0,.08a.64.64,0,0,0,0,.09c0,.05,0,.08,0,.11Z"/><path class="cls-3" d="M244.61,370.21a7.3,7.3,0,0,1,1.15-4,3.55,3.55,0,0,1,6.26,0,7.79,7.79,0,0,1,0,8.08,3.55,3.55,0,0,1-6.26,0A7.35,7.35,0,0,1,244.61,370.21Zm6.67,0a5.64,5.64,0,0,0-.81-3,2,2,0,0,0-1.57-1,2.06,2.06,0,0,0-1.6,1,5.56,5.56,0,0,0-.82,3,5.48,5.48,0,0,0,.82,3,2.07,2.07,0,0,0,1.6,1.05,2,2,0,0,0,1.57-1.05A5.57,5.57,0,0,0,251.28,370.21Z"/><path class="cls-4" d="M263.07,370.21a7.22,7.22,0,0,1,1.14-4,3.56,3.56,0,0,1,6.27,0,7.79,7.79,0,0,1,0,8.08,3.56,3.56,0,0,1-6.27,0A7.26,7.26,0,0,1,263.07,370.21Zm6.66,0a5.56,5.56,0,0,0-.81-3,2,2,0,0,0-1.57-1,2.08,2.08,0,0,0-1.6,1,5.64,5.64,0,0,0-.81,3,5.57,5.57,0,0,0,.81,3,2.08,2.08,0,0,0,1.6,1.05,2,2,0,0,0,1.57-1.05A5.48,5.48,0,0,0,269.73,370.21Z"/><path class="cls-4" d="M259.19,365.23v10a1,1,0,0,1-.95.93.91.91,0,0,1-.92-.93v-8.31l-.68.39a.85.85,0,0,1-.47.14.91.91,0,0,1-.8-.48.9.9,0,0,1,.31-1.26l2.08-1.24s.05,0,.06,0,.05,0,.09,0l.1,0h.07a.22.22,0,0,1,.11,0h.19a.1.1,0,0,0,.07,0,.17.17,0,0,1,.1,0,.1.1,0,0,1,.07,0c.05,0,.06.05.1.05l.06.05s.06,0,.07,0,0,.05.07.07,0,0,.05.06l.07.07,0,0a.43.43,0,0,1,0,.05s0,.05,0,.08,0,.07,0,.08a.64.64,0,0,0,0,.09.17.17,0,0,0,0,.12Z"/><path class="cls-3" d="M277.86,365.23v10a.94.94,0,0,1-.94.93.92.92,0,0,1-.93-.93v-8.31l-.68.39a.85.85,0,0,1-.47.14.95.95,0,0,1-.49-1.74l2.08-1.24s.05,0,.06,0,.05,0,.09,0l.1,0h.07a.23.23,0,0,1,.12,0h.18a.1.1,0,0,0,.07,0,.15.15,0,0,1,.1,0,.1.1,0,0,1,.07,0s.07.05.1.05l.07.05s.05,0,.06,0,.05.05.07.07a.1.1,0,0,1,.05.06l.07.07,0,0a.43.43,0,0,1,0,.05s0,.05,0,.08,0,.07,0,.08a.64.64,0,0,0,0,.09.17.17,0,0,0,0,.12Z"/><path class="cls-4" d="M286.2,365.23v10a.94.94,0,0,1-.94.93.92.92,0,0,1-.93-.93v-8.31l-.68.39a.85.85,0,0,1-.47.14.91.91,0,0,1-.8-.48.9.9,0,0,1,.31-1.26l2.08-1.24s.05,0,.06,0,.05,0,.09,0l.1,0h.07a.22.22,0,0,1,.11,0h.19a.1.1,0,0,0,.07,0,.15.15,0,0,1,.1,0,.1.1,0,0,1,.07,0c.05,0,.06.05.1.05l.07.05s.05,0,.06,0,.05.05.07.07,0,0,.05.06l.07.07,0,0a.43.43,0,0,1,0,.05s0,.05,0,.08,0,.07,0,.08a.64.64,0,0,0,0,.09.17.17,0,0,0,0,.12Z"/><path class="cls-3" d="M250.45,280.48v10a1,1,0,0,1-.95.93.92.92,0,0,1-.93-.93v-8.31l-.67.39a.85.85,0,0,1-.48.13.88.88,0,0,1-.79-.47.9.9,0,0,1,.31-1.27l2.07-1.23s.05,0,.07,0,0,0,.08,0l.11,0s0,0,.06,0h.37c.06,0,.07,0,.11,0h.06s.07.06.1.06l.07.05.07,0s0,.05.07.06l0,.07.07.07v0s0,0,0,.05a.16.16,0,0,1,0,.09s0,.07,0,.08,0,.07,0,.09a.14.14,0,0,0,0,.12Z"/><path class="cls-4" d="M259.19,280.48v10a1,1,0,0,1-.95.93.91.91,0,0,1-.92-.93v-8.31l-.68.39a.84.84,0,0,1-.47.13.9.9,0,0,1-.8-.47.91.91,0,0,1,.31-1.27l2.08-1.23s.05,0,.06,0,.05,0,.09,0l.1,0a.1.1,0,0,1,.07,0h.37c.05,0,.06,0,.1,0h.07c.05,0,.06.06.1.06l.06.05a.18.18,0,0,1,.07,0s0,.05.07.06l.05.07.07.07,0,0a.43.43,0,0,0,0,.05s0,.05,0,.09,0,.07,0,.08a.64.64,0,0,0,0,.09.17.17,0,0,0,0,.12Z"/><path class="cls-3" d="M278.46,298v10a.94.94,0,0,1-.94.93.92.92,0,0,1-.93-.93V299.6l-.68.39a.84.84,0,0,1-.47.13.95.95,0,0,1-.49-1.74l2.08-1.23s.05,0,.07,0,0,0,.08-.05l.1,0a.1.1,0,0,1,.07,0h.37a.15.15,0,0,1,.1,0h.07c.05,0,.07.05.1.05l.07.06.07.05s.05.05.06.06a.18.18,0,0,1,.05.07l.07.07,0,0s0,0,0,0,0,.05,0,.09a.41.41,0,0,1,0,.08.64.64,0,0,0,0,.09c0,.05,0,.08,0,.11Z"/><path class="cls-3" d="M287.21,298v10a1,1,0,0,1-.95.93.92.92,0,0,1-.93-.93V299.6l-.67.39a.85.85,0,0,1-.48.13.94.94,0,0,1-.48-1.74l2.07-1.23s.05,0,.07,0,.05,0,.08-.05l.1,0a.11.11,0,0,1,.07,0h.37c.06,0,.07,0,.11,0h.06c.05,0,.07.05.1.05l.07.06.07.05s.05.05.07.06l.05.07.07.07v0s0,0,0,0a.16.16,0,0,1,0,.09s0,.06,0,.08,0,.07,0,.09,0,.08,0,.11Z"/><path class="cls-3" d="M267.93,280.48v10a.94.94,0,0,1-.94.93.92.92,0,0,1-.93-.93v-8.31l-.68.39a.84.84,0,0,1-.47.13.88.88,0,0,1-.79-.47.9.9,0,0,1,.3-1.27l2.08-1.23s.05,0,.07,0,.05,0,.08,0l.1,0a.1.1,0,0,1,.07,0h.37a.15.15,0,0,1,.1,0h.07c.05,0,.07.06.1.06l.07.05.07,0s0,.05.06.06a.18.18,0,0,1,0,.07l.07.07,0,0s0,0,0,.05,0,.05,0,.09,0,.07,0,.08a.64.64,0,0,0,0,.09.17.17,0,0,0,0,.12Z"/><path class="cls-3" d="M263.11,336.45a7.19,7.19,0,0,1,1.15-4,3.55,3.55,0,0,1,6.26,0,7.77,7.77,0,0,1,0,8.07,3.55,3.55,0,0,1-6.26,0A7.25,7.25,0,0,1,263.11,336.45Zm6.67,0a5.61,5.61,0,0,0-.81-3,2,2,0,0,0-1.57-1,2,2,0,0,0-1.61,1,5.94,5.94,0,0,0,0,6,2.06,2.06,0,0,0,1.61,1.05,2,2,0,0,0,1.57-1.05A5.57,5.57,0,0,0,269.78,336.45Z"/><path class="cls-3" d="M250.69,331.47v10a.94.94,0,0,1-.94.93.91.91,0,0,1-.93-.93v-8.3l-.68.39a.84.84,0,0,1-.47.13.92.92,0,0,1-.8-.47.91.91,0,0,1,.31-1.27l2.08-1.23s.05,0,.06,0,.05,0,.09-.05h.1a.1.1,0,0,1,.07,0,.22.22,0,0,1,.11,0h.19a.1.1,0,0,0,.07,0,.24.24,0,0,1,.1,0,.1.1,0,0,1,.07,0s.06.05.1.05a.1.1,0,0,0,.07,0s.05,0,.06.05.05.05.07.07a.21.21,0,0,1,.05.07l.07.07,0,0s0,0,0,.05,0,.05,0,.08,0,.07,0,.09a.45.45,0,0,0,0,.08.16.16,0,0,0,0,.12Z"/><path class="cls-4" d="M259.43,331.47v10a.94.94,0,0,1-.94.93.92.92,0,0,1-.93-.93v-8.3l-.68.39a.84.84,0,0,1-.47.13.95.95,0,0,1-.49-1.74l2.08-1.23.07,0s.05,0,.08-.05h.1a.1.1,0,0,1,.07,0,.23.23,0,0,1,.12,0h.18a.1.1,0,0,0,.07,0,.24.24,0,0,1,.1,0,.1.1,0,0,1,.07,0c.05,0,.07.05.1.05a.13.13,0,0,0,.07,0l.07.05a.19.19,0,0,1,.06.07.13.13,0,0,1,0,.07l.07.07,0,0s0,0,0,.05,0,.05,0,.08a.92.92,0,0,1,0,.09.45.45,0,0,0,0,.08.16.16,0,0,0,0,.12Z"/><path class="cls-3" d="M259.43,348.58v10a.94.94,0,0,1-.94.93.92.92,0,0,1-.93-.93v-8.3l-.68.39a.84.84,0,0,1-.47.13.95.95,0,0,1-.49-1.74l2.08-1.23.07,0s.05,0,.08-.05h.1a.1.1,0,0,1,.07,0,.23.23,0,0,1,.12,0h.18a.1.1,0,0,0,.07,0,.24.24,0,0,1,.1,0,.1.1,0,0,1,.07,0c.05,0,.07,0,.1,0a.13.13,0,0,0,.07.05l.07.05a.19.19,0,0,1,.06.07.13.13,0,0,1,0,.07l.07.06,0,0s0,0,0,.05,0,0,0,.08a.92.92,0,0,1,0,.09.45.45,0,0,0,0,.08.16.16,0,0,0,0,.12Z"/><path class="cls-10" d="M233,222.12a242.75,242.75,0,0,1-4.5,48.49,119.32,119.32,0,0,1-7.05,23.33,46.35,46.35,0,0,1-6.13,10.55,20,20,0,0,1-4.45,4.2,9.91,9.91,0,0,1-11.64,0,20.05,20.05,0,0,1-4.48-4.19A46.69,46.69,0,0,1,188.53,294a119.6,119.6,0,0,1-7.15-23.33,253.48,253.48,0,0,1,0-97.07,119.81,119.81,0,0,1,7.15-23.33,46.69,46.69,0,0,1,6.18-10.54,20.22,20.22,0,0,1,4.47-4.19,9.92,9.92,0,0,1,11.65,0,20.18,20.18,0,0,1,4.45,4.2,46.56,46.56,0,0,1,6.13,10.55,119.52,119.52,0,0,1,7.05,23.33A242.92,242.92,0,0,1,233,222.12Zm0,0a244,244,0,0,0-4.68-48.46,119.36,119.36,0,0,0-7.13-23.26A46.18,46.18,0,0,0,215,140a20,20,0,0,0-4.39-4.12,9.59,9.59,0,0,0-11.24,0A19.87,19.87,0,0,0,195,140,46.09,46.09,0,0,0,189,150.44a119.77,119.77,0,0,0-7,23.26,243.46,243.46,0,0,0-4.49,48.42,242.78,242.78,0,0,0,4.49,48.42,119.2,119.2,0,0,0,7,23.25A45.88,45.88,0,0,0,195,304.25a19.63,19.63,0,0,0,4.36,4.13,9.54,9.54,0,0,0,11.24,0,19.73,19.73,0,0,0,4.39-4.12,46,46,0,0,0,6.12-10.45,119.27,119.27,0,0,0,7.13-23.25A244,244,0,0,0,233,222.12Z"/><path class="cls-10" d="M219,197.91a243.4,243.4,0,0,1,39.75,28.15,119.35,119.35,0,0,1,16.67,17.77,46,46,0,0,1,6.07,10.58,20,20,0,0,1,1.42,6,9.94,9.94,0,0,1-5.81,10.09,20.14,20.14,0,0,1-5.87,1.78,46.65,46.65,0,0,1-12.21.08,119.59,119.59,0,0,1-23.78-5.47,253.13,253.13,0,0,1-84.07-48.54,119.06,119.06,0,0,1-16.62-17.85,46.1,46.1,0,0,1-6-10.62,20.38,20.38,0,0,1-1.4-6,9.94,9.94,0,0,1,5.84-10.08,20.17,20.17,0,0,1,5.87-1.75,46.14,46.14,0,0,1,12.2,0,120,120,0,0,1,23.73,5.56A243.66,243.66,0,0,1,219,197.91Zm0,0a244.08,244.08,0,0,0-44.31-20.17,119.29,119.29,0,0,0-23.7-5.46,46.39,46.39,0,0,0-12.12.08,19.91,19.91,0,0,0-5.76,1.75,9.56,9.56,0,0,0-5.6,9.73,19.75,19.75,0,0,0,1.39,5.85,46.43,46.43,0,0,0,6,10.49,118,118,0,0,0,16.62,17.71A243.46,243.46,0,0,0,191.23,246a242.59,242.59,0,0,0,44.18,20.32,119.53,119.53,0,0,0,23.65,5.54,46.67,46.67,0,0,0,12.1,0,20,20,0,0,0,5.76-1.72,9.56,9.56,0,0,0,5.63-9.72,19.78,19.78,0,0,0-1.37-5.86,46.23,46.23,0,0,0-6-10.54,119.31,119.31,0,0,0-16.58-17.79A243.67,243.67,0,0,0,219,197.91Z"/><path class="cls-10" d="M191,197.91a243.35,243.35,0,0,1,44.25-20.35A120,120,0,0,1,259,172a46.57,46.57,0,0,1,12.2,0,20.11,20.11,0,0,1,5.86,1.75,9.94,9.94,0,0,1,5.84,10.08,20.06,20.06,0,0,1-1.39,6,46.47,46.47,0,0,1-6,10.62,119.62,119.62,0,0,1-16.63,17.85,244.1,244.1,0,0,1-39.68,28.34,244.53,244.53,0,0,1-44.38,20.2A119.05,119.05,0,0,1,151,272.32a46.29,46.29,0,0,1-12.22-.08,19.93,19.93,0,0,1-5.87-1.78,9.91,9.91,0,0,1-5.8-10.09,20,20,0,0,1,1.41-6,46.69,46.69,0,0,1,6.07-10.58,119.94,119.94,0,0,1,16.68-17.77A243.4,243.4,0,0,1,191,197.91Zm0,0a244.19,244.19,0,0,0-39.63,28.29A119.77,119.77,0,0,0,134.84,244a46.23,46.23,0,0,0-6,10.54,19.78,19.78,0,0,0-1.37,5.86,9.56,9.56,0,0,0,5.63,9.72,19.54,19.54,0,0,0,5.76,1.71,46.24,46.24,0,0,0,12.1,0,120.23,120.23,0,0,0,23.65-5.54A243.89,243.89,0,0,0,218.8,246a243.41,243.41,0,0,0,39.69-28.1,119.11,119.11,0,0,0,16.62-17.72,45.81,45.81,0,0,0,6-10.49,19.77,19.77,0,0,0,1.4-5.85,10.3,10.3,0,0,0-1.22-5.77,10.44,10.44,0,0,0-4.38-4,20,20,0,0,0-5.77-1.74,46.31,46.31,0,0,0-12.11-.08,119.12,119.12,0,0,0-23.7,5.46A244.08,244.08,0,0,0,191,197.91Z"/><path class="cls-3" d="M233.55,194.69v30.79h-8.7V194.69c0-11.71-8.9-21.23-19.84-21.23s-19.83,9.52-19.83,21.23v30.79h-8.7V194.69c0-16.77,12.8-30.41,28.53-30.41S233.55,177.92,233.55,194.69Z"/><polygon class="cls-8" points="176.48 202.69 185.18 203.04 185.18 225.48 176.48 225.48 176.48 202.69"/><polygon class="cls-8" points="233.55 205.02 233.55 225.48 224.85 225.48 224.85 204.66 233.55 205.02"/><rect class="cls-10" x="165.33" y="207.94" width="79.37" height="58.48"/><rect class="cls-11" x="205.01" y="207.94" width="39.68" height="58.48"/><path class="cls-6" d="M208,239l3,14.35H198.23l3-14.35a6.42,6.42,0,1,1,6.79,0Z"/><path class="cls-2" d="M169.52,232a49,49,0,0,1-.66-4.93l-.18-2.47-.11-2.47c0-1.64-.07-3.29,0-4.93,0-.83,0-1.65.07-2.47s.07-1.65.14-2.47l.07-.78.69,0c4,.15,8.09.36,12.13.76-4,.4-8.09.61-12.13.76l.76-.76c.07.82.11,1.64.14,2.47s.07,1.64.07,2.47c0,1.64,0,3.29,0,4.93l-.11,2.47-.18,2.47C170,228.68,169.84,230.33,169.52,232Z"/><path class="cls-12" d="M10.88,437.59c2.32.73,70.19-.74,72.67-2.39,1-.61-4.87-64.9-4.87-64.9l-43,.83,4.9,43S15.5,426,13,428.1,8.55,436.88,10.88,437.59Z"/><path class="cls-6" d="M10.87,437.59c2.33.73,70.2-.74,72.67-2.39.3-.19.39-6.72-.69-15.22-12.3,2.07-56.23,8.81-59.65,6.8-2.39-1.4-.27-3.6,1.68-5.07C19.27,424.51,14,427.2,13,428.1,10.44,430.2,8.55,436.88,10.87,437.59Z"/><path class="cls-13" d="M39.33,403.82l42.25-.6s-8.37-101.2-8-103.15C74,297.58,104,180,104,180H63.65S31.85,289.59,30.71,300.15C28.86,317.2,39.33,403.82,39.33,403.82Z"/><path class="cls-6" d="M77.78,393.68c-2.5-.18-5-.15-7.52-.18s-5,0-7.52,0q-7.52.06-15,.26c-1.37,0-2.74.08-4.11.15s-2.93.31-4.39.37c-.11,0-.11.17,0,.18,1.23,0,2.47.19,3.7.23s2.55,0,3.83,0c2.51,0,5,0,7.52,0,5,0,10-.11,15-.31,2.82-.12,5.68-.16,8.5-.44A.13.13,0,0,0,77.78,393.68Z"/><path class="cls-6" d="M95.11,189.52C91.5,202.3,88.2,215.19,85,228.07s-6.45,25.77-9.66,38.67q-2.41,9.66-4.81,19.33c-1.56,6.28-3.38,12.59-3.76,19.07s.44,13.24,1,19.81,1.11,13.19,1.69,19.79c1.15,13.2,2.26,26.41,3.7,39.58.18,1.65.35,3.3.52,4.94,0,.15.23.14.22,0-.87-13.21-1.78-26.41-2.84-39.6q-.78-9.9-1.61-19.8c-.54-6.58-1.31-13.19-1.52-19.79s1-13.06,2.62-19.49l4.74-18.93Q80.1,252.33,84.91,233c3.59-14.43,7.16-28.89,10.32-43.43A.06.06,0,0,0,95.11,189.52Z"/><path class="cls-6" d="M104,180S91.12,230.46,82.12,266L65,180Z"/><path class="cls-12" d="M60.27,437.75c2.32.73,70.19-.74,72.67-2.39.95-.61-2.59-64.94-2.59-64.94l-42.48.83,2.06,43s-25,11.87-27.58,14S58,437,60.27,437.75Z"/><path class="cls-6" d="M60.27,437.75c2.32.73,70.19-.74,72.67-2.4.3-.18.23-6.54,0-15.22C120.62,422.19,76,429,72.59,426.94c-2.38-1.41-.27-3.6,1.68-5.07-5.6,2.79-10.84,5.48-11.92,6.39C59.84,430.35,58,437,60.27,437.75Z"/><path class="cls-13" d="M63.67,180s1.17,19.28,5.78,34.51c.37,1.26.77,2.5,1.2,3.69A72,72,0,0,1,82.35,224s2.9,73.76,2.85,78.34C85,319.51,89.39,403,89.39,403l42.61-.4s-4.42-94.39-4.44-100.66c0-6.08-2.9-44.37-5.47-77.58,0,0,3.79-10.61,3.37-16-1-13-6.84-28.34-6.84-28.34Z"/><path class="cls-6" d="M77.33,209.22,77,206c-.19-2-.48-3.93-.71-5.9-.52-4.45-1.08-8.92-1.81-13.35,0-.11-.2-.09-.19,0,.07,1.77.17,3.55.32,5.32s.22,3.55.37,5.32c.29,3.51.58,7,1,10.53.15,1.35.85,3.8-1.1,4.1-1.54.24-2.58-1.32-3-2.6a29.54,29.54,0,0,1-.75-4.87c-.22-1.78-.39-3.56-.54-5.34-.32-3.89-.7-7.76-1.11-11.63,0-.12-.19-.09-.19,0a114.43,114.43,0,0,0,.18,11.86c.14,1.89.31,3.77.52,5.66a20.26,20.26,0,0,0,1,5.3,4.26,4.26,0,0,0,3,2.73h.09a.15.15,0,0,0-.06.11c0,.63-.06,1.26,0,1.88s.12,1.25.2,1.86a11.77,11.77,0,0,0,.37,1.86,8.69,8.69,0,0,0,.29.86,8,8,0,0,0,.45.81c.06.11.2,0,.21-.06h0c0-.1,0-.2,0-.3v-.06h0a5.09,5.09,0,0,0,0-.55c0-.3-.07-.6-.12-.9-.1-.6-.23-1.2-.35-1.8s-.22-1.19-.34-1.79-.29-1.22-.39-1.84c0,0,0,0,0-.06a2.78,2.78,0,0,0,2.78-1.53A4.92,4.92,0,0,0,77.33,209.22Z"/><path class="cls-6" d="M85.79,225.5a32.64,32.64,0,0,0-4-2.64,37.31,37.31,0,0,0-4.57-2.37c-3.08-1.34-6.25-2.25-9.44-3.3-.09,0-.15.12-.06.16,3.08,1.23,6,2.85,9,4.31,1.47.72,3,1.4,4.44,2.06s3,1.43,4.52,2A.12.12,0,0,0,85.79,225.5Z"/><path class="cls-6" d="M109.85,198.64a26.35,26.35,0,0,1-6.43-.87c-1-.25-1.92-.56-2.87-.87A7.44,7.44,0,0,1,98,195.6c-1.46-1.26-2.14-3.24-2.77-5a47.5,47.5,0,0,1-1.69-6.07c0-.11-.17-.07-.17,0a23.63,23.63,0,0,0,.87,6.9c.53,1.9,1.23,4,2.77,5.36a10.74,10.74,0,0,0,5.89,2.15,27.26,27.26,0,0,0,7-.09A.12.12,0,0,0,109.85,198.64Z"/><path class="cls-6" d="M130.11,394.31c-2.49-.18-5-.15-7.52-.18s-5,0-7.52,0c-5,.05-10,.13-15,.27-1.37,0-2.74.08-4.11.14s-2.92.32-4.39.37a.09.09,0,0,0,0,.18c1.23,0,2.46.2,3.69.23s2.56.05,3.83.05c2.51,0,5,0,7.52,0,5,0,10-.11,15-.32,2.83-.12,5.68-.15,8.5-.43A.13.13,0,0,0,130.11,394.31Z"/><path class="cls-6" d="M124.91,388.76h0a.51.51,0,0,0,.49-.54l-9.61-165.17c.12-.72,2.83-9.94,3.07-14.66.26-5-4.9-24.4-5.11-25.22a.52.52,0,1,0-1,.27c.06.2,5.33,20.08,5.08,24.9s-3,14.52-3.07,14.6,9.62,165.33,9.62,165.33A.52.52,0,0,0,124.91,388.76Z"/><path class="cls-6" d="M90.8,122.64a5.58,5.58,0,0,0,6.21-8,5.13,5.13,0,0,0,5.62-2.77,4.92,4.92,0,0,0-2-6.2s0,0,0,0a5,5,0,0,1,1.7,6A4.54,4.54,0,0,1,98,114.27a6.19,6.19,0,0,0,3.62-3.33,4.78,4.78,0,0,0-1.06-5.18,7.05,7.05,0,0,0,2.25-5.91,4.78,4.78,0,0,0-3.47-3.91,5.34,5.34,0,0,0-5.19-8.33A4.49,4.49,0,0,0,90.5,81a3,3,0,0,0-.83-3.16A5,5,0,0,0,86,76.66a3.61,3.61,0,0,0-2.31-2.57,3.29,3.29,0,0,0-3.91,1.67c-1.77-1.23-3.86-2.32-6.08-2a4.69,4.69,0,0,0-4,3.23,6.48,6.48,0,0,0-9.05,3.51A4.52,4.52,0,0,0,56.29,82a6.63,6.63,0,0,0-1.56,2.85,3.42,3.42,0,0,0-3.45,2,4.48,4.48,0,0,0,.19,3.85,2.45,2.45,0,0,1-.41,1.08,6,6,0,0,0-.51,5.58,4.05,4.05,0,0,0-.13,6.07,4.55,4.55,0,0,0,1.36,6.24,6.64,6.64,0,0,0-.31,5.51,3.85,3.85,0,0,0,3.27,2.66,2.32,2.32,0,0,0,1.38,2.77,6.23,6.23,0,0,0,1.22.4,4.85,4.85,0,0,1,1.59.41c.45.29.61.89.87,1.32a5.72,5.72,0,0,0,.68.86,6,6,0,0,0,7.49.81c1,1.66,3.17,2,5,1.74a10.51,10.51,0,0,0,1.75-.47,2.63,2.63,0,0,1,1.59-.16c.35.09.67.26,1,.35a4.16,4.16,0,0,0,3.23-.76C83.55,129.46,89.6,127.31,90.8,122.64Zm-39.34-35A3.58,3.58,0,0,1,54.7,85c0,.11,0,.18,0,.18s-.47.18-.68.28a4.66,4.66,0,0,0-2.4,3.17,5,5,0,0,0-.09,1.22.86.86,0,0,1,0,.16A4.44,4.44,0,0,1,51.46,87.64ZM83.93,75.28a3.48,3.48,0,0,0-3.92.66l-.09-.06c.88-1.2,2-2,3.64-1.5a3,3,0,0,1,2,2.29h0A3.75,3.75,0,0,0,83.93,75.28ZM80.77,125l0,0a6.26,6.26,0,0,0,8.7-.57C87.3,127.24,83.73,128.41,80.77,125Z"/><path class="cls-12" d="M76.05,134.7c-2.29,10.1-12.48,52.4-21,54.78s-16.93-3.18-17.2-10.25c-.29-7.71,22.7-38.35,28.33-45C71.55,127.91,78.3,124.79,76.05,134.7Z"/><path class="cls-10" d="M71.62,159.86,47,155.52s16.78-21.73,23.52-26.73c7.58-5.63,8.8-.52,7.56,8.37S71.62,159.86,71.62,159.86Z"/><path class="cls-2" d="M75.09,135a9,9,0,0,0-2.18-1.24,8.34,8.34,0,0,0,1.8,1.76,8.48,8.48,0,0,0,2.2,1.25A9,9,0,0,0,75.09,135ZM60.66,153.48a8.56,8.56,0,0,0-1.24,2.19,8.57,8.57,0,0,0,1.76-1.8,8.91,8.91,0,0,0,1.24-2.19A8.82,8.82,0,0,0,60.66,153.48Zm1.71-12.69a8.4,8.4,0,0,0-2.42.67,9.24,9.24,0,0,0,2.52,0,8.83,8.83,0,0,0,2.42-.67A7.88,7.88,0,0,0,62.37,140.79Zm11,10.37a9.18,9.18,0,0,0-.68-2.43,9.16,9.16,0,0,0,0,2.51,9,9,0,0,0,.68,2.44A9.22,9.22,0,0,0,73.41,151.16Zm-22.93.64c0-.17-.06-.35-.1-.52l-.54.67a8.48,8.48,0,0,0,.66,2.37A8.86,8.86,0,0,0,50.48,151.8Z"/><path class="cls-6" d="M51.28,151.58c.87,0,8.55,1.26,10.22,1.56s8.47,1.48,10.17,1.94a.06.06,0,0,1,0,.12c-1.74-.13-8.61-1.3-10.32-1.57S52.06,152,51.25,151.7C51.18,151.67,51.22,151.58,51.28,151.58Z"/><path class="cls-11" d="M78.12,137.15c-1.24,8.9-6.49,22.71-6.49,22.71l-17.54-3.1,22.74-30C78.72,127.83,78.87,131.81,78.12,137.15Z"/><path class="cls-10" d="M119.94,182.23l-57.68,0,2.58-15.4s-4.45-6-4.14-12.59c.33-7.05,13.81-25.54,14.9-26.58,4.36-4.15,11.53-4.48,15.05-1.53C109.51,142,119.94,182.23,119.94,182.23Z"/><path class="cls-10" d="M62.42,151.68a8.91,8.91,0,0,1-1.24,2.19c-.16.21-.32.4-.49.6,0-.06,0-.12,0-.19a6.17,6.17,0,0,1,.12-1A7.83,7.83,0,0,1,62.42,151.68Z"/><path class="cls-10" d="M68.48,182.27h-.23a9,9,0,0,1-.49-2,8.79,8.79,0,0,1,0-2.51,8.73,8.73,0,0,1,.67,2.42A9.68,9.68,0,0,1,68.48,182.27Z"/><path class="cls-10" d="M72.76,151.24a9.16,9.16,0,0,1,0-2.51,9.69,9.69,0,0,1,.71,5A9,9,0,0,1,72.76,151.24Z"/><path class="cls-10" d="M74.36,164.51a9.11,9.11,0,0,1-2.42.68,8.86,8.86,0,0,1-2.52,0,8.89,8.89,0,0,1,2.43-.67A9.17,9.17,0,0,1,74.36,164.51Z"/><path class="cls-10" d="M76.91,136.77a8.48,8.48,0,0,1-2.2-1.25,8.34,8.34,0,0,1-1.8-1.76,9.95,9.95,0,0,1,4,3Z"/><path class="cls-10" d="M82.3,124.41a.92.92,0,0,1-.22.18,1,1,0,0,1,.07-.15Z"/><path class="cls-10" d="M84.06,172.24a9.69,9.69,0,0,1-3,4,8.87,8.87,0,0,1,1.24-2.19A9.13,9.13,0,0,1,84.06,172.24Z"/><path class="cls-10" d="M87.7,156.74a8.91,8.91,0,0,1-2.19-1.24,8.66,8.66,0,0,1-1.81-1.77,9.83,9.83,0,0,1,4,3Z"/><path class="cls-10" d="M88.75,141.18a9.14,9.14,0,0,1-2.42.69,8.86,8.86,0,0,1-2.52,0,8.75,8.75,0,0,1,2.42-.68A9.23,9.23,0,0,1,88.75,141.18Z"/><path class="cls-10" d="M94.64,130a8.09,8.09,0,0,1-2.32.63,8.5,8.5,0,0,1-2.52,0,8.73,8.73,0,0,1,2.42-.67,8.94,8.94,0,0,1,2.37-.05Z"/><path class="cls-10" d="M98.36,163.67a9.83,9.83,0,0,1-5,.7,8.46,8.46,0,0,1,2.43-.67A8.18,8.18,0,0,1,98.36,163.67Z"/><path class="cls-10" d="M100,148.16a9,9,0,0,1-1.25,2.2,8.81,8.81,0,0,1-1.76,1.8,8.93,8.93,0,0,1,1.24-2.2A9.42,9.42,0,0,1,100,148.16Z"/><path class="cls-10" d="M100.32,177.94a9.22,9.22,0,0,1,0,2.52,8.46,8.46,0,0,1-.67-2.43,8.18,8.18,0,0,1,0-2.52A9.16,9.16,0,0,1,100.32,177.94Z"/><path class="cls-10" d="M113.05,168.11a8.76,8.76,0,0,1-2.19-1.25,8.37,8.37,0,0,1-1.81-1.76,9.07,9.07,0,0,1,2.2,1.24A8.87,8.87,0,0,1,113.05,168.11Z"/><path class="cls-10" d="M116.36,180.11a8.89,8.89,0,0,1-2.43.67,9.23,9.23,0,0,1-2.52,0,8.82,8.82,0,0,1,2.43-.68A8.18,8.18,0,0,1,116.36,180.11Z"/><path class="cls-6" d="M85.32,163.61a48.87,48.87,0,0,0-8.26.81c-1.36.27-2.69.62-4,1q-1,.27-2,.51a7.72,7.72,0,0,1-2.13.26c-.06,0-.07.11,0,.12a13.62,13.62,0,0,0,2,.14,13.14,13.14,0,0,0,2-.25c1.38-.26,2.74-.6,4.12-.87,2.78-.57,5.56-1.13,8.36-1.46C85.46,163.86,85.45,163.61,85.32,163.61Z"/><path class="cls-6" d="M91.8,167a51,51,0,0,0-6.73-1,32.34,32.34,0,0,0-3.41-.07c-.54,0-1.09,0-1.63.06s-1.2.16-1.79.19c-.07,0-.08.11,0,.11.56,0,1.13.1,1.69.14l1.69.1c1.13.07,2.26.16,3.4.22q3.39.17,6.78.46C91.91,167.26,91.92,167.06,91.8,167Z"/><path class="cls-2" d="M100.32,177.94a9.16,9.16,0,0,0-.67-2.43,8.18,8.18,0,0,0,0,2.52,8.46,8.46,0,0,0,.67,2.43A9.22,9.22,0,0,0,100.32,177.94ZM68.4,180.18a8.73,8.73,0,0,0-.67-2.42,8.79,8.79,0,0,0,0,2.51,9,9,0,0,0,.49,2h.23A9.68,9.68,0,0,0,68.4,180.18Zm5-29a9.18,9.18,0,0,0-.68-2.43,9.16,9.16,0,0,0,0,2.51,9,9,0,0,0,.68,2.44A9.22,9.22,0,0,0,73.41,151.16Zm12.82-9.95a8.75,8.75,0,0,0-2.42.68,8.86,8.86,0,0,0,2.52,0,9.14,9.14,0,0,0,2.42-.69A9.23,9.23,0,0,0,86.23,141.21ZM71.85,164.54a8.89,8.89,0,0,0-2.43.67,8.86,8.86,0,0,0,2.52,0,9.11,9.11,0,0,0,2.42-.68A9.17,9.17,0,0,0,71.85,164.54Zm42,15.59a8.82,8.82,0,0,0-2.43.68,9.23,9.23,0,0,0,2.52,0,8.89,8.89,0,0,0,2.43-.67A8.18,8.18,0,0,0,113.84,180.13Zm-18-16.43a8.46,8.46,0,0,0-2.43.67,9.83,9.83,0,0,0,5-.7A8.18,8.18,0,0,0,95.84,163.7ZM94.59,130a8.94,8.94,0,0,0-2.37.05,8.73,8.73,0,0,0-2.42.67,8.5,8.5,0,0,0,2.52,0,8.09,8.09,0,0,0,2.32-.63Zm-12.44-5.53a1,1,0,0,0-.07.15.92.92,0,0,0,.22-.18ZM60.82,153.28a6.17,6.17,0,0,0-.12,1c0,.07,0,.13,0,.19.17-.2.33-.39.49-.6a8.91,8.91,0,0,0,1.24-2.19A7.83,7.83,0,0,0,60.82,153.28ZM98.25,150a8.93,8.93,0,0,0-1.24,2.2,8.81,8.81,0,0,0,1.76-1.8,9,9,0,0,0,1.25-2.2A9.42,9.42,0,0,0,98.25,150Zm-16,24.09a8.87,8.87,0,0,0-1.24,2.19,9.69,9.69,0,0,0,3-4A9.13,9.13,0,0,0,82.3,174.05ZM75.09,135a9,9,0,0,0-2.18-1.24,8.34,8.34,0,0,0,1.8,1.76,8.48,8.48,0,0,0,2.2,1.25A9,9,0,0,0,75.09,135ZM85.9,155a8.78,8.78,0,0,0-2.2-1.25,8.66,8.66,0,0,0,1.81,1.77,8.91,8.91,0,0,0,2.19,1.24A8.82,8.82,0,0,0,85.9,155Zm25.35,11.36a9.07,9.07,0,0,0-2.2-1.24,8.37,8.37,0,0,0,1.81,1.76,8.76,8.76,0,0,0,2.19,1.25A8.87,8.87,0,0,0,111.25,166.34Z"/><path class="cls-12" d="M95.79,129.37c7.12,7.52,37.2,42.41,34.12,51.52-2.86,8.47-15.52,6.46-20.41,1.35-7.09-7.41-17.19-36.57-19.58-44.94C87.64,129.33,88.8,122,95.79,129.37Z"/><path class="cls-10" d="M95.84,158.16l24.1-6.51s-18.64-20.16-25.79-24.54c-8.05-4.93-8.81.27-6.79,9S95.84,158.16,95.84,158.16Z"/><path class="cls-10" d="M119.94,151.65l-24.1,6.51s-6.45-13.3-8.48-22-1.26-13.94,6.79-9c.41.25.85.56,1.33.9l.59.43h0a115.87,115.87,0,0,1,9.49,8.45l.19.19c2.71,2.63,5.42,5.38,7.74,7.76l1,1C117.69,149.22,119.94,151.65,119.94,151.65Z"/><path class="cls-10" d="M119.94,151.65l-24.1,6.51s-6.45-13.3-8.48-22-1.26-13.94,6.79-9c.41.25.85.56,1.33.9l.59.43h0a115.87,115.87,0,0,1,9.49,8.45l.19.19c2.71,2.63,5.42,5.38,7.74,7.76l1,1C117.69,149.22,119.94,151.65,119.94,151.65Z"/><path class="cls-2" d="M115.21,149.89a9.2,9.2,0,0,0-2.19-1.24,8.87,8.87,0,0,0,1.8,1.77,9.12,9.12,0,0,0,2.2,1.24A9.19,9.19,0,0,0,115.21,149.89Zm-17,.07a8.93,8.93,0,0,0-1.24,2.2,8.81,8.81,0,0,0,1.76-1.8,9,9,0,0,0,1.25-2.2A9.42,9.42,0,0,0,98.25,150Zm-6-19.94a8.73,8.73,0,0,0-2.42.67,9.83,9.83,0,0,0,5-.7A8.92,8.92,0,0,0,92.22,130Zm11.29,9.49a9.38,9.38,0,0,0-.69-2.44,9.23,9.23,0,0,0,0,2.52,8.82,8.82,0,0,0,.68,2.43A8.78,8.78,0,0,0,103.51,139.51Z"/><path class="cls-6" d="M115.4,148.29c-.87.09-8.41,2-10,2.45S97,153,95.4,153.58a.06.06,0,0,0,0,.12c1.72-.29,8.46-2.06,10.13-2.49s9.09-2.48,9.88-2.81C115.5,148.37,115.46,148.28,115.4,148.29Z"/><path class="cls-6" d="M98.22,157.52c-.78.27-1.56.51-2.34.76l-.1,0,0-.11c-.64-1.3-1.29-2.59-1.88-3.91s-1.2-2.64-1.74-4a75.8,75.8,0,0,1-3-8.17l3.4,8,3.41,8-.15-.07C96.61,157.86,97.41,157.67,98.22,157.52Z"/><path class="cls-6" d="M88.86,144.17A7.07,7.07,0,0,1,90,145.32a6.28,6.28,0,0,1,.84,1.37,3.29,3.29,0,0,1-.68-.47,4.37,4.37,0,0,1-.55-.59A3.64,3.64,0,0,1,88.86,144.17Z"/><path class="cls-12" d="M87,128.74c-.46,1-6.83,6.82-11.59,5.64-1.55-.39.19-8.94.19-8.94l0-.66-.21-9.25,11.72-4.6,1.68-.58s-.1,2.53-.27,5.69c0,.14,0,.29,0,.45s0,.34,0,.51c0,.47,0,1-.07,1.43s0,.72-.08,1.1-.07.76-.09,1.14A62.39,62.39,0,0,1,87,128.74Z"/><path class="cls-6" d="M88.76,110.35s-.11,2.54-.27,5.69l0,.45a4.18,4.18,0,0,1,0,.51c0,.47,0,1-.07,1.43s0,.72-.08,1.11-.06.75-.09,1.14c-.13,1.33-.29,2.67-.46,3.86-3.55,0-8.73-.76-12.29-4.83l-.09-4.17,11.72-4.6Z"/><path class="cls-12" d="M95.85,100.82c2.85,16-6.4,19.49-9.85,20.1-3.13.55-13.85,2-18.33-13.56s2-22,9.14-23.62S93,84.84,95.85,100.82Z"/><path class="cls-6" d="M82.63,86.39a7.18,7.18,0,0,1,.34,4.2c-1.26,3.82-5.72,3.43-7,5s-.37,4.21-1.46,5.71c-1.5,2.08-2.85.9-3,2.18s-.44,5.35-2,6.06S57.34,84.9,78.18,83.05c0,0,2.76-1.7,7.39.12,6.61,2.58,8.71,10.6,8.71,10.6a5.22,5.22,0,0,1-2.07-.64c-1.12-.75-1.7-1.35-2.5-1.83-1.27-.74-1.9,0-3.21-.74C84.5,89.47,82.63,86.39,82.63,86.39Z"/><path class="cls-6" d="M82.32,85.53a14,14,0,0,1,1,3.09,5.86,5.86,0,0,1,0,3.14,4.33,4.33,0,0,1-2.14,2.16c-.94.49-2,.74-3,1.3a3.21,3.21,0,0,0-1.26,1.22,4.43,4.43,0,0,0-.4,1.67,5.76,5.76,0,0,1-.78,3,3.6,3.6,0,0,1-2.63,1.53c-1,.13-2.23,0-3.19.58,1-.51,2.12-.28,3.22-.33A3.92,3.92,0,0,0,76,101.36a5.89,5.89,0,0,0,.93-3.2,3.76,3.76,0,0,1,.37-1.49,2.78,2.78,0,0,1,1.08-1c.89-.52,2-.79,3-1.32a6.15,6.15,0,0,0,1.38-1,3.4,3.4,0,0,0,.92-1.45,6.13,6.13,0,0,0-.08-3.32A14.26,14.26,0,0,0,82.32,85.53Z"/><path class="cls-6" d="M82.84,86.43a11.42,11.42,0,0,0,1.38,2.72,5.37,5.37,0,0,0,2.37,2,7.38,7.38,0,0,0,1.51.37,2.52,2.52,0,0,1,1.21.6,7.87,7.87,0,0,0,1.06,1.11,3.49,3.49,0,0,0,1.42.6,3.75,3.75,0,0,1-1.25-.79,7.45,7.45,0,0,1-.93-1.18,2.6,2.6,0,0,0-1.4-.81,7.93,7.93,0,0,1-1.42-.38,5.54,5.54,0,0,1-2.24-1.79A21.65,21.65,0,0,1,82.84,86.43Z"/><path class="cls-12" d="M71.3,107s-4-4.73-6.16-3.27,1.13,8.54,3.91,9.3a2.74,2.74,0,0,0,3.53-1.8Z"/><path class="cls-6" d="M66.14,105.71a0,0,0,0,0,0,.07c2,.59,3.1,2.25,4,4a1.52,1.52,0,0,0-2.29-.21s0,.12.06.1a1.68,1.68,0,0,1,1.9.42,8,8,0,0,1,1,1.42c.1.16.4,0,.32-.15l0,0C70.91,108.91,68.74,105.72,66.14,105.71Z"/><path class="cls-6" d="M91.58,97.55a10.73,10.73,0,0,1-1.14-.08,1.84,1.84,0,0,1-1.15-.29.59.59,0,0,1-.1-.71,1.44,1.44,0,0,1,1.37-.54,2.17,2.17,0,0,1,1.44.55A.63.63,0,0,1,91.58,97.55Z"/><path class="cls-6" d="M80.72,99.81a9.74,9.74,0,0,0,1.07-.39,1.8,1.8,0,0,0,1-.61.58.58,0,0,0-.1-.71A1.48,1.48,0,0,0,81.23,98a2.16,2.16,0,0,0-1.22.94A.63.63,0,0,0,80.72,99.81Z"/><path class="cls-6" d="M83.74,103.38s-.08.07-.07.11c.23,1.1.3,2.4-.64,2.94,0,0,0,.07,0,.06C84.24,106.11,84.13,104.39,83.74,103.38Z"/><path class="cls-6" d="M82.56,102.39c-1.81.17-1.34,3.77.33,3.61S84.07,102.25,82.56,102.39Z"/><path class="cls-6" d="M81.87,102.67c-.28.25-.54.65-.92.73s-.81-.23-1.14-.56c0,0-.07,0-.06,0,.08.7.44,1.37,1.19,1.37s1.09-.66,1.17-1.38C82.13,102.75,82,102.57,81.87,102.67Z"/><path class="cls-6" d="M90.09,101.83s.09,0,.1.09c.1,1.12.4,2.38,1.46,2.63a0,0,0,0,1,0,.06C90.39,104.59,90,102.9,90.09,101.83Z"/><path class="cls-6" d="M90.94,100.54c1.78-.35,2.36,3.23.71,3.56S89.45,100.84,90.94,100.54Z"/><path class="cls-6" d="M91.73,100.66c.31.14.65.44,1,.41s.62-.48.81-.89c0,0,0,0,.06,0,.13.68,0,1.43-.61,1.67s-1.12-.3-1.39-.95C91.54,100.81,91.6,100.6,91.73,100.66Z"/><path class="cls-6" d="M85.23,112.19c.29.24.59.58,1,.58a3.14,3.14,0,0,0,1.18-.38,0,0,0,0,1,0,0,1.53,1.53,0,0,1-1.37.73,1.21,1.21,0,0,1-1-.92C85.11,112.19,85.19,112.16,85.23,112.19Z"/><path class="cls-6" d="M89.31,107.51s.47,1.63.58,2.41c0,.08-.18.14-.44.19h0a3.78,3.78,0,0,1-3.82-.88c-.06-.07,0-.17.11-.13a5.64,5.64,0,0,0,3.54.49c0-.22-.89-2.76-.77-2.79a7.56,7.56,0,0,1,1.84.15c-.88-3.42-2.29-6.67-3.11-10.09,0-.12.15-.19.2-.08a57.36,57.36,0,0,1,3.8,10.73C91.34,108,89.65,107.6,89.31,107.51Z"/><path class="cls-6" d="M88.87,109.76a4.1,4.1,0,0,1-1.37,1.54,1.87,1.87,0,0,1-1.08.27c-.82-.06-1-.78-1-1.43a4.72,4.72,0,0,1,.18-1A5.26,5.26,0,0,0,88.87,109.76Z"/><path class="cls-14" d="M87.5,111.3a1.87,1.87,0,0,1-1.08.27c-.82-.06-1-.78-1-1.43A1.89,1.89,0,0,1,87.5,111.3Z"/><path class="cls-12" d="M37.15,151.19c-.38-6.93-.31-16.72,1.72-19.16s10-11.28,12.45-12.72,13.44-8.24,15.86-7.41c1.94.67.77,5.65-4.44,8.94a86.45,86.45,0,0,0-8.07,6.08c-1.32.91-3.89,6.26-2.53,8.14.79,1.11,4.62,1.85,6.63.43s1.71-5.91,3.83-8.46,6.61-3.16,7.1-2-.86,2-2.34,6.52c-1,2.91.17,9.23-2.27,14.39a79.89,79.89,0,0,0-3,9.2Z"/><path class="cls-6" d="M64.59,124.71a4.57,4.57,0,0,0,2-1.42,1.8,1.8,0,0,0,.32-1,1.58,1.58,0,0,0-.09-.57c0-.16-.15-.42-.32-.49s0-.1,0-.06a2.73,2.73,0,0,0,.25.23,1.3,1.3,0,0,1,.18.23,1.49,1.49,0,0,1,.2.53,1.88,1.88,0,0,1-.22,1.21,3.09,3.09,0,0,1-2.35,1.41A0,0,0,0,1,64.59,124.71Z"/><path class="cls-12" d="M38.87,132c1.49-3.79,5.79-10.94,10.82-14.08,3.4-2.13,17.26,1.56,17.36,4s-2.06,2.92-5.33,3.16c-1.19.09-7.79-.92-8.59.58-1.14,2.15-1.82,8.88-1.82,8.88Z"/><path class="cls-6" d="M66.55,121.12c-2.07-2.29-5.77-3-9.4-3.42a0,0,0,0,0,0,.09c.93.1,7,1.58,9.39,3.37C66.55,121.18,66.57,121.14,66.55,121.12Z"/><path class="cls-12" d="M38.87,132c1.49-3.79,5.79-10.94,10.82-14.08,3.4-2.13,15,3.8,15,6.29s-3,3.29-6.62,2.76c-1.19-.17-5.42-2.06-6.22-.56-1.14,2.15-3.92,7.49-3.92,7.49Z"/><path class="cls-6" d="M49.54,130.65c.24-.6.32-.81.58-1.4s.51-1.18.8-1.75a4.76,4.76,0,0,1,.9-1.42,2.53,2.53,0,0,1,1.46-.6,8.8,8.8,0,0,1,3.55.81c1.26.43,3.8,1,5.55.48a3.58,3.58,0,0,0,1.34-.66,2.35,2.35,0,0,0,.72-.84c.51-1.47-.75-2.78-1.95-3.65a23.09,23.09,0,0,0-7.64-3.29l-2-.49a5.53,5.53,0,0,0-2.29-.2c-1.24.24-3,1.9-3.59,2.4,0,0-.1,0-.06-.07.67-.62,2.27-2.55,4.29-2.84a6.56,6.56,0,0,1,2.23.3c.76.16,1.51.36,2.26.56A29.72,29.72,0,0,1,60,119.51a12.1,12.1,0,0,1,3.7,2.34,3.57,3.57,0,0,1,.92,3.54,3.09,3.09,0,0,1-2,1.64,5.73,5.73,0,0,1-1.59.3,25,25,0,0,1-3.63-.34c-1.18-.22-2.3-.76-3.49-.88a2.14,2.14,0,0,0-1.6.42,6.06,6.06,0,0,0-1,1.35,16.62,16.62,0,0,0-1.55,2.8C49.62,131,49.44,130.9,49.54,130.65Z"/><path class="cls-12" d="M37.85,135.28c.48-1.76.52-8.63,1.39-10.9s5.34-10.42,8.12-10.64c3.49-.29,1.13,6.56-.17,9.45s-.15,7.13-.15,7.13Z"/><path class="cls-6" d="M48.87,118.5c-.48.92-.87,1.92-1.26,2.89a20.59,20.59,0,0,0-1,2.81,8.85,8.85,0,0,0-.12,3c0,.48.13,1,.22,1.44s.24,1,.33,1.56c0,0,.1,0,.09,0a23.56,23.56,0,0,1-.18-2.91,12.55,12.55,0,0,1,.3-3c.45-1.94,1.31-3.77,1.78-5.71C49,118.46,48.9,118.43,48.87,118.5Z"/><path class="cls-6" d="M47.23,131A9.93,9.93,0,0,0,49,135.67a17.35,17.35,0,0,0,1.53,2,19.61,19.61,0,0,0,1.8,1.74,19,19,0,0,1,3.27,3.5,20.18,20.18,0,0,1,2.2,4.32,12.8,12.8,0,0,0-1.55-4.73,15.22,15.22,0,0,0-3.24-3.85,23.3,23.3,0,0,1-3.34-3.47A14.61,14.61,0,0,1,47.23,131Z"/><path class="cls-12" d="M50.52,188.84C57,186.57,59,174.56,62.59,153.45c.63-3.7-21.09-21.21-22.8-17.57-2.15,4.57-5.62,28.29-5.22,34.48C35.36,182.56,43,191.48,50.52,188.84Z"/><path class="cls-6" d="M62.59,153.45c-.22,2.9-.59,5.79-1,8.67s-1,5.73-1.59,8.58a79.54,79.54,0,0,1-2.33,8.42A37.65,37.65,0,0,1,56,183.18a10.27,10.27,0,0,1-2.59,3.49A11,11,0,0,0,55.65,183a35.91,35.91,0,0,0,1.45-4.08c.84-2.76,1.55-5.57,2.15-8.4s1.2-5.67,1.75-8.52Z"/><path class="cls-13" d="M72.1,130.48,81.31,159c.37.83,0,1.55-.85,1.6l-15,1a2.43,2.43,0,0,1-2.17-1.41l-9.22-28.55a1,1,0,0,1,.85-1.6l15-1A2.42,2.42,0,0,1,72.1,130.48Z"/><path class="cls-15" d="M70.32,130.59l9.21,28.54a1,1,0,0,1-.85,1.61l-15,1a2.43,2.43,0,0,1-2.17-1.41l-9.22-28.55c-.36-.83,0-1.55.85-1.6l15-1A2.41,2.41,0,0,1,70.32,130.59Z"/><path class="cls-6" d="M66.3,132.18a1.27,1.27,0,1,0,1.16-1.38A1.28,1.28,0,0,0,66.3,132.18Z"/><path class="cls-12" d="M126.81,186.88c-4.34,2.29-14.21,1.67-33.4-11.37-3-2,6.27-27.87,9.51-25.75,4.08,2.67,19.34,13.91,20.36,14.87C131.81,172.76,131.4,184.46,126.81,186.88Z"/><path class="cls-12" d="M110.47,157.23s-6-8.45-10.56-11.91a36.7,36.7,0,0,0-16.26-6.58c-6.33-.93-22.29,1.2-22.48,5.9-.18,4.26,16,1.26,16,1.26s-17,.33-16.29,5.49,19.35.62,19.35.62-17.49.73-15.89,5.94c1.21,3.93,18.3.76,18.3.76s-15,.73-14,4.83c1.18,4.53,17.14,2.6,17.14,2.6,4.47,10,10.89,12.77,15.55,14.32C102.54,180.83,110.47,157.23,110.47,157.23Z"/><path class="cls-6" d="M83.08,145.41c-2,0-4-.08-6,.06s-4,.36-6,.69a34.57,34.57,0,0,0-7.56,2c4.44-1.38,11.59-2,13.59-2.15s4-.39,6-.53A0,0,0,0,0,83.08,145.41Z"/><path class="cls-6" d="M83.73,152.61c-2.55.07-5.1,0-7.65.23s-4.94.57-7.46.92c-.2,0-.12.12.08.11,2.53-.26,4.9-.3,7.43-.52s5.07-.54,7.61-.67A0,0,0,0,0,83.73,152.61Z"/><path class="cls-6" d="M85.4,158.7a56.55,56.55,0,0,0-11.67,1.23c-.19,0-.08.15.12.12,3.87-.48,6.91-.89,11.55-1.22C85.47,158.83,85.49,158.7,85.4,158.7Z"/><path class="cls-6" d="M106.78,152.43c2.63,1.59,5.15,3.36,7.66,5.14,1.24.92,2.48,1.82,3.7,2.78a41.5,41.5,0,0,1,3.51,3c-1.23-.93-2.49-1.8-3.74-2.69L114.15,158C111.68,156.15,109.18,154.36,106.78,152.43Z"/></g></g></svg>