<svg xmlns="http://www.w3.org/2000/svg" viewBox="0 0 63.7 63.67"><defs><style>.cls-1{isolation:isolate;}.cls-2{fill:#ef893a;}.cls-3{fill:#f19b2c;}.cls-4{fill:#d53d33;}.cls-5{fill:#e54d42;}.cls-6{fill:#b5c5c6;}.cls-7{fill:#d5e5e6;}.cls-8{fill:#c52e25;}.cls-9{fill:#fff;}.cls-10{mix-blend-mode:multiply;}</style></defs><title>Asset 1rocket</title><g class="cls-1"><g id="Layer_2" data-name="Layer 2"><g id="illustrations"><path class="cls-2" d="M23.31,54.26l0,0A31.64,31.64,0,0,1,9.47,62a27.74,27.74,0,0,1,1.33-4,33,33,0,0,1-9.67,4.52,32.5,32.5,0,0,1,4.51-9.68,28.76,28.76,0,0,1-4,1.34A31.65,31.65,0,0,1,9.38,40.39l0,0Z"/><path class="cls-3" d="M22.46,53.42a31.47,31.47,0,0,1-7.34,2.94,27.74,27.74,0,0,1,1.33-4A32.78,32.78,0,0,1,6.77,56.9a32.89,32.89,0,0,1,4.52-9.68,28.76,28.76,0,0,1-4,1.34,32,32,0,0,1,3-7.35Z"/><path class="cls-4" d="M24.32,53.77,9.9,39.35c1.59-1.58,3.18-3.11,4.76-4.57,3.23-3,6.41-5.67,9.45-8h0c.78-.61,1.55-1.19,2.31-1.75a80.63,80.63,0,0,1,8.23-5.4c.93-.52,1.82-1,2.67-1.39,4.42-2.1,7.73-2.6,9.24-1.09s1,4.82-1.1,9.23q-.6,1.27-1.38,2.67a81.74,81.74,0,0,1-5.4,8.23c-.56.76-1.15,1.54-1.75,2.31-2.36,3-5.06,6.23-8,9.45Q26.71,51.38,24.32,53.77Z"/><path class="cls-5" d="M20.4,49.85l-6.58-6.58q2.38-2.39,4.71-4.62c2.11-2,4.17-4,6.14-5.79.46-.4.91-.82,1.35-1.22s.94-.85,1.41-1.26c3.82-3.42,7.3-6.33,10.22-8.55.53-.41,1-.79,1.53-1.15s1-.73,1.49-1.06c3.16-2.17,5.26-3.12,5.89-2.5s-.34,2.72-2.51,5.88c-.32.47-.68,1-1.06,1.49L41.85,26l-1,1.23Q39,29.7,36.53,32.56,35,34.33,33.29,36.24c-.41.47-.83.94-1.27,1.42L30.81,39C29,41,27.05,43,25,45.14,23.54,46.69,22,48.26,20.4,49.85Z"/><path class="cls-6" d="M49,38.5,33.71,53.82,9.85,30,25.17,14.64C37.76,2.05,57.09.29,62.33.05h0c.84,0,1.32,0,1.32,0h0v0s0,.1,0,.19h0A67.19,67.19,0,0,1,62.12,12.6C60.38,20.57,56.73,30.8,49,38.5Z"/><path class="cls-7" d="M41.37,35.38a9.24,9.24,0,1,1,0-13.08A9.25,9.25,0,0,1,41.37,35.38Z"/><path class="cls-8" d="M45.46,26.35a10.87,10.87,0,0,0-4.79-6.73,10.91,10.91,0,0,0-16.56,7.13h0a11.1,11.1,0,0,0,.56,6.11,10.87,10.87,0,0,0,2.44,3.71A11.1,11.1,0,0,0,30.81,39,10.92,10.92,0,0,0,45.46,26.35Zm-16,7.84a7.64,7.64,0,0,1-2.05-3.81,7.52,7.52,0,1,1,2.05,3.81Z"/><path class="cls-9" d="M40.27,31.65a3.7,3.7,0,1,1,0-5.23A3.7,3.7,0,0,1,40.27,31.65Z"/><path class="cls-7" d="M54.28,16.48a5,5,0,1,1,0-7.08A5,5,0,0,1,54.28,16.48Z"/><path class="cls-8" d="M54.92,8.75a5.91,5.91,0,1,0,0,8.37A5.91,5.91,0,0,0,54.92,8.75Zm-7.08,7.08a4.09,4.09,0,1,1,5.8,0A4.1,4.1,0,0,1,47.84,15.83Z"/><path class="cls-9" d="M53.68,14.46a2,2,0,1,1,0-2.83A2,2,0,0,1,53.68,14.46Z"/><path class="cls-2" d="M11.94,35.35l0,0a17.08,17.08,0,0,1-7.43,4.16,14.73,14.73,0,0,1,.72-2.15A17.25,17.25,0,0,1,0,39.81,17.91,17.91,0,0,1,2.43,34.6a15.92,15.92,0,0,1-2.14.73,17.09,17.09,0,0,1,4.16-7.44h0Z"/><path class="cls-3" d="M11.49,34.9a16.62,16.62,0,0,1-4,1.58,14.88,14.88,0,0,1,.72-2.14A17.91,17.91,0,0,1,3,36.78a17.56,17.56,0,0,1,2.43-5.21,15.49,15.49,0,0,1-2.14.71,17,17,0,0,1,1.59-4Z"/><path class="cls-4" d="M12.48,35.09,4.73,27.34c8.76-8.75,17.58-14.1,19.71-12S21.72,25.5,13.71,33.83Q13.11,34.46,12.48,35.09Z"/><path class="cls-5" d="M10.38,33,6.83,29.44c8.76-8.75,16.64-15,17.61-14.07s-4.73,8.12-12.83,16.36C11.21,32.15,10.8,32.56,10.38,33Z"/><path class="cls-2" d="M28.32,51.73l0,0a17,17,0,0,0-4.15,7.43,14.88,14.88,0,0,0,2.14-.72,17.79,17.79,0,0,0-2.43,5.21,17.79,17.79,0,0,0,5.21-2.43,14.88,14.88,0,0,0-.72,2.14,17,17,0,0,0,7.43-4.15l0,0Z"/><path class="cls-3" d="M28.77,52.19a17,17,0,0,0-1.58,4,14.88,14.88,0,0,0,2.14-.72,17.79,17.79,0,0,0-2.43,5.21,17.79,17.79,0,0,0,5.21-2.43,14.88,14.88,0,0,0-.72,2.14,17,17,0,0,0,4-1.58Z"/><path class="cls-4" d="M36.34,59c8.74-8.77,14.1-17.59,12-19.72s-10.95,3.22-19.72,12Z"/><path class="cls-5" d="M34.23,56.84C43,48.08,49.28,40.2,48.3,39.23S39.45,44.55,30.69,53.3Z"/><path class="cls-8" d="M63.69,0h0l-.07,0a90.61,90.61,0,0,0-10,5.07A29.06,29.06,0,0,1,51,1.58,68.67,68.67,0,0,1,62.33.05h0l1.31,0h0Z"/><path class="cls-5" d="M62.13,12.61c.15-.68.28-1.33.4-2,0-.22.09-.44.12-.65.11-.57.2-1.13.28-1.67.06-.38.12-.75.16-1.11.26-1.83.41-3.4.49-4.6l0-.36c.06-1.05.08-1.77.09-2.07a90.53,90.53,0,0,1-5.06,10A31.26,31.26,0,0,0,62.13,12.61Z"/><path class="cls-4" d="M53.56,5.13a33.33,33.33,0,0,0,2.29,2.53,35.53,35.53,0,0,0,2.79,2.5A90.53,90.53,0,0,0,63.7.17V.05h-.12A89.65,89.65,0,0,0,53.56,5.13Z"/><g class="cls-10"><path class="cls-7" d="M11.94,35.35l0,0a17.08,17.08,0,0,1-7.43,4.16,14.73,14.73,0,0,1,.72-2.15A17.25,17.25,0,0,1,0,39.81,17.91,17.91,0,0,1,2.43,34.6a15.92,15.92,0,0,1-2.14.73,17.09,17.09,0,0,1,4.16-7.44h0Z"/><path class="cls-7" d="M63.68,0,17.11,46.56,9.9,39.35c1.59-1.58,3.18-3.11,4.76-4.57l-.95-1q-.6.63-1.23,1.26L4.73,27.34c8.76-8.75,17.58-14.1,19.71-12l.73-.73C37.76,2.05,57.09.29,62.33.05h0C63.2,0,63.68,0,63.68,0Z"/><path class="cls-7" d="M16.36,47.31,1.13,62.55a32.5,32.5,0,0,1,4.51-9.68,28.76,28.76,0,0,1-4,1.34A31.65,31.65,0,0,1,9.38,40.39l0,0Z"/></g></g></g></g></svg>