<svg xmlns="http://www.w3.org/2000/svg" viewBox="0 0 143.22 384.28"><defs><style>.cls-1{fill:#6BBC50;}</style></defs><title>Asset 2rocket</title><g id="Layer_2" data-name="Layer 2"><g id="Objects"><path class="cls-1" d="M118.11,241.15c-.82,20.93-13.25,69.14-13.25,69.14,23-17,24.06,23.9,24.06,23.9C166.51,215.57,118.11,241.15,118.11,241.15Z"/><path class="cls-1" d="M14.3,334.19s1.07-40.88,24.06-23.9c0,0-12.43-48.21-13.25-69.14C25.11,241.15-23.29,215.57,14.3,334.19Z"/><path class="cls-1" d="M96.91,94.72h0l0,0a1,1,0,0,0,0-.17,1.25,1.25,0,0,0-.65-.93c-3.89-6.85-23.76-44-24.67-87.43a3.08,3.08,0,1,0-.09,0C70.6,49.53,50.8,86.59,46.87,93.54c-.47.31-.72.64-.72,1a.76.76,0,0,0,0,.21c-2.12,2.18-20.83,23-20.81,84.51,0,65.2,17.52,128.84,17.52,128.84h57.49s17.42-63.67,17.39-128.86C117.75,117.89,99.13,97,96.91,94.72ZM71.55,122.23a15,15,0,1,1-14.95,15A15,15,0,0,1,71.55,122.23Zm0,53.32a15,15,0,1,1-14.95,15A15,15,0,0,1,71.57,175.55Zm0,83.23a15,15,0,1,1,15-15A14.94,14.94,0,0,1,71.61,258.78Z"/><path class="cls-1" d="M88.44,316.5s4.19,11.43-1.28,22.85c0,0,.72-3.28-1.29-4.88a3.45,3.45,0,0,0-1.3-.65c-3.58-1,.24,14.19-12.91,28.38C58.5,348,62.3,332.79,58.72,333.83a3.64,3.64,0,0,0-1.29.65c-2,1.6-1.29,4.89-1.29,4.89-5.48-11.42-1.31-22.84-1.3-22.86H46.72s-6.19,17,1.93,33.89c0,0-1.08-4.87,1.92-7.25a5.45,5.45,0,0,1,1.91-1c5.31-1.54-.32,21.05,19.19,42.09,19.5-21.06,13.84-43.64,19.15-42.1a5.32,5.32,0,0,1,1.92,1c3,2.38,1.92,7.25,1.92,7.25,8.11-16.94,1.91-33.89,1.91-33.89Z"/></g></g></svg>