<svg xmlns="http://www.w3.org/2000/svg" viewBox="0 0 242.14 90"><defs><style>.cls-1{fill:#324c8e;}.cls-2{fill:#4e64ee;}.cls-3{fill:#3554b7;}</style></defs><title>Asset 2send</title><g id="Layer_2" data-name="Layer 2"><g id="objects"><polygon class="cls-1" points="204.31 43.17 193.01 48.81 193.21 46.52 201.09 38.2 204.31 43.17"/><path class="cls-2" d="M193.76,33.32l25.83,24a2.3,2.3,0,0,0,3.74-.93L242,3.06a2.31,2.31,0,0,0-2.77-3L180.1,15.8a2.3,2.3,0,0,0-1,3.91l14.63,13.61"/><path class="cls-3" d="M234.08,7.65,201,40.08l-7.85,8.59a.87.87,0,0,1-1.48-.74l2.2-14.49Z"/><path class="cls-3" d="M.37,90a.31.31,0,0,1-.13,0A.37.37,0,0,1,0,89.5l.42-1.07a.39.39,0,0,1,.49-.21.37.37,0,0,1,.2.49c-.14.34-.28.7-.41,1.05A.38.38,0,0,1,.37,90Zm81.8-.28h0c-.5,0-1-.09-1.53-.16a.37.37,0,1,1,.1-.73c.49.06,1,.11,1.48.14a.38.38,0,0,1,0,.75ZM86,89.57a.38.38,0,0,1-.37-.32.37.37,0,0,1,.32-.42c.48-.07,1-.16,1.46-.26a.36.36,0,0,1,.44.28.37.37,0,0,1-.28.44c-.51.11-1,.2-1.52.27Zm-9-.87-.11,0c-.48-.16-1-.33-1.45-.52a.38.38,0,0,1-.21-.48.37.37,0,0,1,.49-.21c.46.18.93.35,1.4.51a.37.37,0,0,1-.12.72Zm14.08-.54a.36.36,0,0,1-.34-.23.36.36,0,0,1,.2-.48c.45-.19.91-.4,1.36-.62a.37.37,0,0,1,.49.18.36.36,0,0,1-.17.49c-.46.23-.93.44-1.4.63A.35.35,0,0,1,91.05,88.16ZM72.13,86.55a.41.41,0,0,1-.18,0c-.44-.24-.88-.51-1.32-.78a.38.38,0,0,1-.12-.51.37.37,0,0,1,.51-.12c.43.27.87.52,1.3.76a.37.37,0,0,1-.19.7Zm42-.65a.38.38,0,0,1-.37-.37.37.37,0,0,1,.37-.37c.5,0,1,0,1.5,0a.38.38,0,0,1,0,.75l-1.54,0Zm-3.78-.2h0l-.91-.11-.61-.09a.38.38,0,0,1-.31-.43.37.37,0,0,1,.43-.3l.6.09.88.11a.37.37,0,0,1,.33.41A.37.37,0,0,1,110.32,85.7ZM95.7,85.63a.37.37,0,0,1-.3-.16.37.37,0,0,1,.09-.52c.41-.27.82-.57,1.21-.87a.36.36,0,0,1,.52.07.37.37,0,0,1-.06.52c-.41.31-.83.61-1.25.9A.39.39,0,0,1,95.7,85.63Zm23.69-.11a.38.38,0,0,1-.37-.32.37.37,0,0,1,.32-.41l1.49-.23a.37.37,0,0,1,.43.3.39.39,0,0,1-.31.43l-1.51.23Zm-117.07,0a.47.47,0,0,1-.16,0,.38.38,0,0,1-.17-.5c.22-.46.45-.91.68-1.36a.37.37,0,0,1,.66.34c-.23.44-.46.89-.68,1.35A.36.36,0,0,1,2.32,85.48Zm102.81-.83H105c-.49-.15-1-.31-1.46-.48a.38.38,0,0,1-.23-.47.39.39,0,0,1,.48-.23c.47.17,1,.32,1.42.46a.37.37,0,0,1,.25.46A.36.36,0,0,1,105.13,84.65Zm19.47-.13a.36.36,0,0,1-.36-.28.37.37,0,0,1,.27-.45c.48-.12,1-.24,1.46-.38a.39.39,0,0,1,.46.26.38.38,0,0,1-.26.46l-1.48.38Zm-56.89-.89a.35.35,0,0,1-.22-.08c-.4-.3-.81-.62-1.21-.94a.37.37,0,0,1,.47-.58c.39.32.79.63,1.18.93a.36.36,0,0,1,.07.52A.35.35,0,0,1,67.71,83.63Zm62-.58a.37.37,0,0,1-.12-.72l1.43-.48a.37.37,0,0,1,.48.23.38.38,0,0,1-.23.47l-1.45.48A.2.2,0,0,1,129.7,83.05Zm-29.51-.34a.45.45,0,0,1-.16,0c-.46-.23-.91-.47-1.36-.72a.37.37,0,0,1,.36-.65l.52.29c.34-.35.69-.7,1-1.06a.38.38,0,0,1,.53,0,.37.37,0,0,1,0,.52c-.28.31-.57.62-.87.91l.12.06a.37.37,0,0,1-.17.7Zm34.5-1.45a.37.37,0,0,1-.13-.71L136,80a.38.38,0,0,1,.48.21.37.37,0,0,1-.21.48l-1.41.56A.34.34,0,0,1,134.69,81.26ZM4.87,80.82a.35.35,0,0,1-.2,0,.37.37,0,0,1-.12-.51c.27-.44.55-.87.83-1.29a.37.37,0,0,1,.51-.1.36.36,0,0,1,.1.51l-.81,1.27A.37.37,0,0,1,4.87,80.82Zm58.78-.61a.35.35,0,0,1-.25-.1c-.36-.32-.72-.66-1.12-1a.37.37,0,0,1,0-.52.37.37,0,0,1,.52,0l1.11,1a.37.37,0,0,1,0,.52A.36.36,0,0,1,63.65,80.21Zm32-.24a.4.4,0,0,1-.22-.08c-.41-.3-.82-.61-1.21-.93a.37.37,0,1,1,.46-.58c.39.32.79.62,1.19.92a.36.36,0,0,1,.08.51A.37.37,0,0,1,95.66,80Zm44-.7a.37.37,0,0,1-.34-.22.37.37,0,0,1,.2-.49l1.39-.59a.37.37,0,0,1,.49.2.36.36,0,0,1-.2.48l-1.39.6A.39.39,0,0,1,139.61,79.27Zm-36.38-1a.44.44,0,0,1-.22-.07.38.38,0,0,1-.08-.52c.29-.4.57-.82.85-1.24a.37.37,0,0,1,.62.41q-.42.64-.87,1.26A.38.38,0,0,1,103.23,78.23Zm41.25-1.06a.38.38,0,0,1-.34-.22.37.37,0,0,1,.19-.49l1.38-.62a.37.37,0,0,1,.49.19.36.36,0,0,1-.18.49l-1.39.62A.4.4,0,0,1,144.48,77.17ZM59.8,76.56a.37.37,0,0,1-.26-.1l-1.09-1a.38.38,0,0,1,0-.53.37.37,0,0,1,.52,0l1.1,1a.39.39,0,0,1,0,.53A.4.4,0,0,1,59.8,76.56ZM7.92,76.49a.34.34,0,0,1-.23-.08.37.37,0,0,1-.06-.52c.32-.4.65-.79,1-1.17a.36.36,0,0,1,.52,0,.37.37,0,0,1,0,.52c-.32.38-.65.76-1,1.15A.34.34,0,0,1,7.92,76.49Zm83.75,0a.39.39,0,0,1-.27-.11c-.35-.37-.7-.75-1-1.13a.39.39,0,0,1,0-.53.38.38,0,0,1,.53,0c.32.37.66.75,1,1.11a.36.36,0,0,1,0,.52A.35.35,0,0,1,91.67,76.48ZM149.31,75a.38.38,0,0,1-.34-.21.36.36,0,0,1,.18-.49l1.37-.65a.37.37,0,0,1,.49.17.38.38,0,0,1-.17.5l-1.38.65A.4.4,0,0,1,149.31,75ZM106,73.7a.33.33,0,0,1-.17,0,.36.36,0,0,1-.16-.5c.22-.44.44-.89.65-1.35a.37.37,0,0,1,.67.31c-.21.46-.43.93-.66,1.38A.38.38,0,0,1,106,73.7Zm-50-.78a.35.35,0,0,1-.25-.1l-1.13-1a.37.37,0,0,1,.49-.56l1.14,1a.39.39,0,0,1,0,.53A.39.39,0,0,1,55.94,72.92Zm98.14-.27a.37.37,0,0,1-.16-.7l1.35-.68a.38.38,0,0,1,.5.16.37.37,0,0,1-.17.5l-1.35.68A.35.35,0,0,1,154.08,72.65ZM11.51,72.6a.36.36,0,0,1-.27-.12.37.37,0,0,1,0-.52c.37-.35.75-.7,1.13-1a.37.37,0,1,1,.49.56c-.38.33-.75.66-1.11,1A.44.44,0,0,1,11.51,72.6Zm76.85-.26a.37.37,0,0,1-.31-.17c-.28-.43-.55-.87-.8-1.31a.36.36,0,0,1,.13-.5.38.38,0,0,1,.51.13c.25.43.51.86.78,1.28a.37.37,0,0,1-.1.51A.42.42,0,0,1,88.36,72.34Zm70.45-2.11a.37.37,0,0,1-.18-.69l1.34-.71a.37.37,0,0,1,.35.65l-1.34.71A.38.38,0,0,1,158.81,70.23Zm-106.94-.7a.4.4,0,0,1-.23-.08c-.4-.3-.81-.6-1.21-.88a.37.37,0,0,1-.1-.51.38.38,0,0,1,.52-.1l1.24.9a.37.37,0,0,1-.22.67Zm-36.24-.26a.37.37,0,0,1-.21-.68c.43-.29.86-.57,1.29-.83a.36.36,0,0,1,.51.12.37.37,0,0,1-.12.51q-.63.39-1.26.81A.31.31,0,0,1,15.63,69.27ZM108,68.81l-.12,0a.37.37,0,0,1-.23-.47c.15-.47.3-1,.43-1.43a.37.37,0,1,1,.72.2c-.14.49-.29,1-.45,1.46A.36.36,0,0,1,108,68.81Zm55.46-1.09a.37.37,0,0,1-.33-.19.38.38,0,0,1,.15-.51l1.32-.74a.37.37,0,0,1,.36.65l-1.33.74A.34.34,0,0,1,163.48,67.72Zm-77.57-.08a.36.36,0,0,1-.34-.23c-.19-.47-.37-1-.53-1.44a.37.37,0,1,1,.7-.24c.16.47.33.94.52,1.4a.38.38,0,0,1-.21.49A.32.32,0,0,1,85.91,67.64ZM47.39,66.7a.33.33,0,0,1-.17,0c-.44-.22-.9-.43-1.36-.62a.37.37,0,0,1-.19-.49.36.36,0,0,1,.48-.2c.48.2,1,.42,1.4.64a.37.37,0,0,1-.16.71Zm-27.16-.06a.36.36,0,0,1-.33-.21.37.37,0,0,1,.18-.5c.46-.21.93-.42,1.4-.61a.37.37,0,0,1,.49.2.39.39,0,0,1-.21.49c-.46.18-.92.39-1.37.6A.41.41,0,0,1,20.23,66.64ZM168.09,65.1a.37.37,0,0,1-.32-.19.35.35,0,0,1,.13-.5l1.31-.77a.37.37,0,0,1,.37.64l-1.31.77A.37.37,0,0,1,168.09,65.1ZM42.43,64.82h-.1c-.48-.14-1-.26-1.45-.37a.37.37,0,0,1,.16-.72c.5.11,1,.24,1.49.37a.38.38,0,0,1,.26.46A.38.38,0,0,1,42.43,64.82Zm-17.22,0a.37.37,0,0,1-.36-.27.37.37,0,0,1,.26-.46c.49-.13,1-.26,1.48-.37A.38.38,0,0,1,27,64a.37.37,0,0,1-.28.44c-.49.11-1,.24-1.46.37Zm12-1h0c-.49,0-1-.09-1.49-.12a.38.38,0,0,1-.35-.39.37.37,0,0,1,.39-.35c.51,0,1,.07,1.53.12a.38.38,0,0,1,.33.41A.37.37,0,0,1,37.22,63.83Zm-6.81,0a.37.37,0,0,1,0-.74c.5-.05,1-.09,1.52-.12a.37.37,0,0,1,.05.74l-1.5.12Zm78.88-.17h-.06a.37.37,0,0,1-.3-.43c.08-.49.15-1,.22-1.49a.37.37,0,1,1,.73.1c-.06.5-.14,1-.22,1.51A.38.38,0,0,1,109.29,63.66Zm-24.86-1.1a.37.37,0,0,1-.36-.3c-.1-.51-.18-1-.25-1.52a.39.39,0,0,1,.32-.42.38.38,0,0,1,.42.32c.06.49.14,1,.24,1.48a.37.37,0,0,1-.3.43Zm88.21-.18a.38.38,0,0,1-.31-.18.36.36,0,0,1,.12-.51l1.29-.79a.37.37,0,0,1,.51.11.38.38,0,0,1-.12.52l-1.29.79A.36.36,0,0,1,172.64,62.38Zm4.5-2.82a.37.37,0,0,1-.31-.17.36.36,0,0,1,.11-.52l1.27-.82a.37.37,0,0,1,.4.62l-1.27.83A.36.36,0,0,1,177.14,59.56Zm-67.36-1.18h0a.37.37,0,0,1-.37-.37c0-.2,0-.39,0-.59s0-.61,0-.91a.38.38,0,0,1,.75,0c0,.31,0,.62,0,.93s0,.4,0,.6A.37.37,0,0,1,109.78,58.38Zm-25.84-1.1h0a.36.36,0,0,1-.37-.37c0-.51,0-1,0-1.53a.37.37,0,1,1,.74,0c0,.49,0,1,0,1.49A.37.37,0,0,1,83.94,57.28Zm97.63-.64a.37.37,0,0,1-.21-.68c.42-.28.84-.56,1.25-.85a.38.38,0,0,1,.52.1.37.37,0,0,1-.1.51l-1.25.86A.42.42,0,0,1,181.57,56.64Zm4.36-3a.37.37,0,0,1-.21-.67l1.23-.88a.37.37,0,1,1,.43.61l-1.23.88A.43.43,0,0,1,185.93,53.62Zm-76.47-.53a.36.36,0,0,1-.36-.32c-.07-.49-.15-1-.24-1.48a.36.36,0,0,1,.3-.43.37.37,0,0,1,.43.3c.09.5.17,1,.24,1.51a.37.37,0,0,1-.31.42ZM84.43,52h-.07a.36.36,0,0,1-.29-.43c.09-.5.2-1,.33-1.5a.36.36,0,0,1,.44-.27.37.37,0,0,1,.28.44c-.12.49-.23,1-.32,1.47A.38.38,0,0,1,84.43,52Zm23.89-4.09a.37.37,0,0,1-.35-.27c-.15-.47-.31-.95-.48-1.42a.37.37,0,0,1,.7-.25c.17.48.34,1,.49,1.46a.37.37,0,0,1-.25.46Zm-22.41-1a.35.35,0,0,1-.14,0,.36.36,0,0,1-.2-.48c.19-.47.39-.95.6-1.41a.39.39,0,0,1,.5-.18.38.38,0,0,1,.18.49c-.21.45-.41.92-.59,1.38A.38.38,0,0,1,85.91,46.92ZM106.32,43a.35.35,0,0,1-.32-.2c-.24-.44-.5-.87-.76-1.27a.38.38,0,0,1,.11-.52.37.37,0,0,1,.51.11c.28.42.54.87.79,1.33a.36.36,0,0,1-.15.5A.31.31,0,0,1,106.32,43Zm-17.95-.78a.33.33,0,0,1-.21-.07.37.37,0,0,1-.1-.51c.3-.43.61-.84.94-1.24a.37.37,0,1,1,.57.48c-.31.37-.61.77-.9,1.18A.37.37,0,0,1,88.37,42.23Zm14.75-3.42a.38.38,0,0,1-.25-.09,9.45,9.45,0,0,0-1.15-.9.37.37,0,1,1,.41-.61,10.76,10.76,0,0,1,1.24.95.39.39,0,0,1,0,.53A.39.39,0,0,1,103.12,38.81ZM92,38.41a.37.37,0,0,1-.3-.15.38.38,0,0,1,.08-.52,14.58,14.58,0,0,1,1.32-.84.38.38,0,0,1,.36.66,10.25,10.25,0,0,0-1.24.78A.36.36,0,0,1,92,38.41Zm6.39-1.85h-.15a7.48,7.48,0,0,0-1.34,0,.36.36,0,0,1-.39-.34.37.37,0,0,1,.34-.4,9,9,0,0,1,1.47,0l.12,0a.37.37,0,0,1,0,.74Z"/></g></g></svg>