<svg xmlns="http://www.w3.org/2000/svg" viewBox="0 0 152.39 200.92"><defs><style>.cls-1{opacity:0.2;}.cls-2{fill:#ebebeb;}.cls-3,.cls-5{fill:#dbdbdb;}.cls-3{opacity:0.5;}.cls-4{fill:#c7c7c7;}.cls-6{fill:#ea9481;}.cls-7{fill:#f9c725;}.cls-8{fill:#263238;}.cls-9{fill:#36474f;}.cls-10{opacity:0.1;}.cls-11{fill:#a6a6a6;}.cls-12{fill:#f79abb;}.cls-13{fill:#445a64;}</style></defs><title>Asset 2user-happy</title><g id="Layer_2" data-name="Layer 2"><g id="Layer_1-2" data-name="Layer 1"><g class="cls-1"><circle class="cls-2" cx="92.43" cy="25.75" r="25.74" transform="translate(10.14 75.09) rotate(-46.51)"/><path class="cls-3" d="M100.27,50.26A25.74,25.74,0,1,1,100,1.14a22.34,22.34,0,1,0,10.79,6.54,25.76,25.76,0,0,1-10.5,42.58Z"/><path class="cls-4" d="M82.62,23.54a3.62,3.62,0,1,1-4.55-2.35A3.62,3.62,0,0,1,82.62,23.54Z"/><path class="cls-4" d="M106,16.05a3.63,3.63,0,1,1-4.56-2.35A3.62,3.62,0,0,1,106,16.05Z"/><path class="cls-4" d="M95.74,18.19a5.4,5.4,0,0,1-.1,3.62,5.46,5.46,0,0,1-10.3-.3Z"/><path class="cls-5" d="M95.64,21.81a5.47,5.47,0,0,1-8.11,2.6,6.55,6.55,0,0,1,8.11-2.6Z"/><circle class="cls-2" cx="133.84" cy="76.69" r="18.54" transform="translate(27.68 188.6) rotate(-76.32)"/><path class="cls-3" d="M129.14,94.62a18.54,18.54,0,1,1,18.8-30,16.11,16.11,0,1,0,4,8.15,18.31,18.31,0,0,1-.2,8.6A18.53,18.53,0,0,1,129.14,94.62Z"/><path class="cls-4" d="M145.86,76.05A2.61,2.61,0,1,1,144,72.86,2.61,2.61,0,0,1,145.86,76.05Z"/><path class="cls-4" d="M128.73,71.56a2.61,2.61,0,1,1-1.86-3.19A2.61,2.61,0,0,1,128.73,71.56Z"/><path class="cls-4" d="M130.49,70.85a5.84,5.84,0,0,0,.93,3.17,4.5,4.5,0,0,0,2.6,1.72,4.33,4.33,0,0,0,3.09-.18,6.3,6.3,0,0,0,2.48-2.21,5,5,0,0,1-2.16,2.82,4.26,4.26,0,0,1-1.78.59,5.57,5.57,0,0,1-1.87-.18,5.82,5.82,0,0,1-1.69-.8,4.13,4.13,0,0,1-1.25-1.41A4.67,4.67,0,0,1,130.49,70.85Z"/></g><path class="cls-6" d="M50.8,149l13.81,18.25c2.66,3.47,4.93,6.57,6,8.28v0a3.08,3.08,0,0,1,.57,1.27s0,0,0,0c-.49,1.49-27.64,23.55-28.84,24s-2.59-2.95-2.22-4.65,7-14.79,7-14.79L33.45,163.08Z"/><path class="cls-2" d="M61.78,163.52l2.83,3.75c2.66,3.47,4.93,6.57,6,8.28v0a5.94,5.94,0,0,1,.57,1.27s0,0,0,0c-.49,1.49-27.64,23.55-28.84,24s-2.59-2.95-2.22-4.65,7-14.79,7-14.79l-2.92-3.76Z"/><path class="cls-7" d="M42.3,200.88c1.21-.45,28.35-22.51,28.84-24,.2-.57-2.78-4.71-6.53-9.61l-.12-.15-17.66,14,.24.29s-6.61,13.09-7,14.79S41.09,201.33,42.3,200.88Z"/><path class="cls-8" d="M41.75,199.58c4.48-3.83,22.93-18.86,27.65-22.3,0,0,.06,0,0,0-4.36,3.89-22.93,18.76-27.62,22.34C41.71,199.73,41.66,199.66,41.75,199.58Z"/><path class="cls-8" d="M45.65,182.69c1.52-1.8,4-3.31,6.37-3.15.09,0,.08.14,0,.17a33,33,0,0,0-6.19,3.2A.15.15,0,0,1,45.65,182.69Z"/><path class="cls-8" d="M45,184.53c1.53-1.8,4-3.31,6.37-3.15.1,0,.09.14,0,.17a32.41,32.41,0,0,0-6.19,3.2A.15.15,0,0,1,45,184.53Z"/><path class="cls-8" d="M44.32,186.37c1.53-1.8,4-3.31,6.37-3.15.09,0,.08.14,0,.17a32.41,32.41,0,0,0-6.19,3.2A.15.15,0,0,1,44.32,186.37Z"/><path class="cls-9" d="M63.59,164.88,44.68,180.72S22.92,152.93,18,138.9C14.52,128.92,30.66,79,30.66,79l20.61-1.4s-13.34,48.13-11.86,52.8C41.21,136.05,63.59,164.88,63.59,164.88Z"/><path class="cls-8" d="M42.58,176.18c2.94-2.44,2.06-1.78,5-4.19,1.45-1.18,11-8.91,12.54-9.77,0,0,.08,0,.05.06-1.19,1.31-10.87,8.88-12.34,10-3,2.35-2.17,1.64-5.21,3.95C42.59,176.31,42.52,176.22,42.58,176.18Z"/><path class="cls-8" d="M57.31,161.45C53.79,157,50.35,152.57,47,148s-6.56-9.12-9.52-13.87a14.89,14.89,0,0,1-1.7-3.44,9,9,0,0,1-.15-4.25c.46-2.81,1.05-5.6,1.64-8.39q1.77-8.4,4-16.67c1.51-5.52,3.19-11,5-16.41L47,83c0-.1-.12-.14-.16,0q-3,8.16-5.38,16.53t-4.26,16.78c-.62,2.83-1.2,5.66-1.73,8.51a17.31,17.31,0,0,0-.5,4.24,9.45,9.45,0,0,0,1,3.56A29.15,29.15,0,0,0,38,136c.79,1.18,1.58,2.35,2.38,3.52q2.43,3.54,5,7c3.34,4.58,6.8,9.12,10.5,13.43l1.35,1.58C57.27,161.56,57.35,161.5,57.31,161.45Z"/><path class="cls-8" d="M51.27,77.55s-3.89,14-7.24,27.69c-3.75-7.77-10.15-21.15-12.3-26.37Z"/><path class="cls-6" d="M75.79,109.55,88.12,93.36c2.87-3.3,5.45-6.14,6.92-7.49,0,0,0,0,0,0A3.16,3.16,0,0,1,96.19,85h0c1.56.19,28.6,22.38,29.28,23.47s-2.38,3.12-4.11,3.1-15.89-3.9-15.89-3.9L92.4,123.91Z"/><path class="cls-2" d="M96.2,85.05h0c1.56.19,28.6,22.38,29.28,23.47s-2.38,3.12-4.11,3.1-15.89-3.9-15.89-3.9L103.15,111c-4.46-3.61-12.59-10.22-17.52-14.33,1.38-1.94,2.48-3.27,2.49-3.27,2.87-3.3,5.45-6.14,6.92-7.49,0,0,0,0,0,0C95.62,85.34,96,85.05,96.2,85.05Z"/><path class="cls-7" d="M125.51,108.51c-.68-1.1-27.72-23.28-29.28-23.47-.59-.08-4.06,3.67-8.11,8.32l-.13.15L105.27,108l.24-.3s14.15,3.87,15.89,3.89S126.2,109.6,125.51,108.51Z"/><path class="cls-8" d="M124.34,109.31c-4.65-3.63-23-18.7-27.37-22.64,0,0,0-.06,0,0,4.69,3.49,23,18.71,27.41,22.59C124.5,109.31,124.44,109.38,124.34,109.31Z"/><path class="cls-8" d="M107,108.86c-2.07-1.13-4-3.21-4.36-5.61,0-.09.12-.11.16,0a32.66,32.66,0,0,0,4.38,5.43A.15.15,0,0,1,107,108.86Z"/><path class="cls-8" d="M109,109.14c-2.06-1.13-4-3.21-4.35-5.61,0-.09.12-.11.16,0a32.53,32.53,0,0,0,4.37,5.42A.15.15,0,0,1,109,109.14Z"/><path class="cls-8" d="M110.89,109.43c-2.07-1.14-4-3.22-4.36-5.62,0-.09.12-.11.16,0a32.59,32.59,0,0,0,4.38,5.42A.15.15,0,0,1,110.89,109.43Z"/><path class="cls-9" d="M31,78.9a0,0,0,0,1,0,0c.12.42,2,7,3.9,12.65,1.37,4.13,2.74,7.74,3.4,8.08s4.41,1.71,5.63,2.12c0,0,7.84,27.14,14.38,36,2.23,3,12.43,6.05,17.42,2.78,11.69-7.67,29-27.62,29-27.62L84.59,96.41l-14.29,19c-3.55-6.57-5.47-19.83-5.47-19.83S64,82.42,59.22,77Z"/><path class="cls-8" d="M99.88,115.32c-3-2.31-2.2-1.61-5.21-3.95-1.48-1.15-11.16-8.7-12.35-10,0,0,0-.08.05-.07,1.54.86,11.1,8.58,12.55,9.76,3,2.4,2.09,1.75,5,4.18A.06.06,0,0,1,99.88,115.32Z"/><path class="cls-8" d="M58.61,92.3c-.65-.12-1.33-.13-2-.19S55.56,92,55,91.93a6.83,6.83,0,0,1-2.84-1,6.65,6.65,0,0,1-2-2.66c-.3-.59-.6-1.18-.91-1.76l-.46-.85a11.17,11.17,0,0,1-.56-1s-.11,0-.08,0a5.91,5.91,0,0,1,.27.74c.11.28.21.57.32.86.2.51.39,1,.6,1.53a12.34,12.34,0,0,0,1.29,2.66,5.78,5.78,0,0,0,4.56,2.07c.5,0,1,0,1.5,0a9.74,9.74,0,0,0,1.87-.11A.09.09,0,0,0,58.61,92.3Z"/><path class="cls-8" d="M36.38,98.84a47.28,47.28,0,0,1,7.52,2.9.08.08,0,0,1,0,.16c-2.53-.89-5.11-1.73-7.59-2.76A.16.16,0,0,1,36.38,98.84Z"/><path class="cls-8" d="M34.5,82.05c0-.09.14-.11.15,0,.18,2.92.54,5.47,1,8.18.2,1.26,1.69,8.19,3.85,7.53.36-.11.53-.48.55-1a8.88,8.88,0,0,0-.44-2.13c-.34-1.45-.64-2.9-.86-4.37a39.68,39.68,0,0,1-.47-8.29.07.07,0,0,1,.14,0,75.19,75.19,0,0,0,1.44,11.38c.4,1.81,1.5,4.48-.38,4.89S36,94.09,35.64,92.85A41.77,41.77,0,0,1,34.5,82.05Z"/><path class="cls-8" d="M39.43,97.93A12.51,12.51,0,0,1,40,99.35a3.28,3.28,0,0,1,.28,1.18c0,.08-.1.09-.14,0a4.29,4.29,0,0,1-.59-1.12c-.2-.44-.41-.87-.59-1.32A.25.25,0,0,1,39.43,97.93Z"/><path class="cls-8" d="M82.43,103.51q-4.65,6.7-9.87,13c-.94,1.13-1.9,2.24-2.87,3.35-3.16-4.35-4.7-9.6-5.93-14.8-.31-1.34-.61-2.68-.92-4s-.74-2.86-.92-4.32-.1-3-.24-4.56A33.83,33.83,0,0,0,61,87.75a42.88,42.88,0,0,0-3.33-9.44s-.08,0-.06,0a58.1,58.1,0,0,1,2.89,8.55,38,38,0,0,1,.81,4.51c.17,1.53.16,3.06.26,4.59a27.38,27.38,0,0,0,.81,4.3c.31,1.34.6,2.68.91,4a73.73,73.73,0,0,0,2.17,7.86,29.29,29.29,0,0,0,4.1,8,.14.14,0,0,0,.23,0c3.57-4.1,7-8.34,10.12-12.77q1.35-1.89,2.65-3.83C82.59,103.5,82.48,103.44,82.43,103.51Z"/><path class="cls-8" d="M70.42,115.23c-.12.2-.23.39-.33.59l-.1.08-.19.16a2.71,2.71,0,0,0-.28.41,2.13,2.13,0,0,0-.21,1s0,0,0,0a2.45,2.45,0,0,1,.32-.89,2.33,2.33,0,0,1,.26-.38.86.86,0,0,0,.07-.1.61.61,0,0,1,0,.12,5.27,5.27,0,0,0-.26,1.11,3.91,3.91,0,0,0,0,1.08,4.87,4.87,0,0,0,.17,1.07s0,0,0,0c0-.36,0-.71,0-1.07s.11-.7.16-1,.12-.68.2-1,.15-.69.25-1C70.51,115.22,70.44,115.2,70.42,115.23Z"/><path class="cls-6" d="M48.19,46c-3.81,2.75-21.62,10-28.11,6.71S6.92,31.39,5.62,29.84C2.05,25.58,17.4,19.54,18.8,22.5c2.34,4.93,7.32,18.12,9.61,18.41,4.81.6,9.22,0,16.75-.12C50.41,40.73,52.4,42.93,48.19,46Z"/><path class="cls-7" d="M20.41,25.77s6.24,14.07,7.65,14.47c2.35.67,15.05.23,19.61.3s9,4.12-1.84,8.16S25.9,54.83,20,53.51C16.39,52.68,6.37,36.86,6.37,36.86Z"/><path class="cls-10" d="M20.41,25.77s6.24,14.07,7.65,14.47c2.35.67,15.05.23,19.61.3s9,4.12-1.84,8.16S25.9,54.83,20,53.51C16.39,52.68,6.37,36.86,6.37,36.86Z"/><path class="cls-8" d="M9.08,39.44a141.62,141.62,0,0,1,12-9.68s.1,0,0,.08c-1,.73-7.31,6.26-11.94,9.69C9.09,39.57,9,39.48,9.08,39.44Z"/><path class="cls-10" d="M52.54,43.76c-.2,1.43-2,3.18-6.72,4.93-10.8,4-19.92,6.14-25.77,4.82a7.3,7.3,0,0,1-2.83-2C25.55,49.66,45.63,45.34,52.54,43.76Z"/><path class="cls-6" d="M6.6,31.46c1.51,1.12,12.14-5.14,12.39-7a8,8,0,0,0-.19-1.91h0A27.22,27.22,0,0,1,21.43,15c1.56-2.77,4.21-6.7,2.75-7.6-2.12-1.31-6.06,3.26-8.17,6a11,11,0,0,0-2.32-3.81C11.12,7.4-.06,17.62.59,21S5.1,30.34,6.6,31.46Z"/><path class="cls-6" d="M17,13.72c-.6,1.65-2.19,0-2.19,0s1.71,2.93.44,4.39-3.09-.67-3.22-.81c.09.15,1.6,2.88.16,4.21s-3-1-3.09-1.16c0,.17.51,2.47-.81,3.24C6,24.88,4.63,19,2.79,18c0,0-2.12,2.93-2.2,3s-1.41-5.55.14-8a1.83,1.83,0,0,1,2.15-.76,2.84,2.84,0,0,1,.45-2.81c.56-.56,2-.15,2-.15A2.27,2.27,0,0,1,5.85,7a2.22,2.22,0,0,1,2.09-.2s.18-1.57,1.26-2C11.38,3.82,18.26,10.2,17,13.72Z"/><path class="cls-8" d="M8.15,6.84s0-.06,0,0a16.31,16.31,0,0,1,6.7,7c.05.1-.09.21-.16.12A33.36,33.36,0,0,0,8.15,6.84Z"/><path class="cls-8" d="M5.26,9.26s0-.07,0-.06a15.27,15.27,0,0,1,6.83,8.09c0,.12,0,.27-.1.13C11.08,15.14,7.65,11.12,5.26,9.26Z"/><path class="cls-8" d="M9.07,20.61A21,21,0,0,0,3,12.32s0-.07,0-.05a13.61,13.61,0,0,1,4.2,3.87,9.35,9.35,0,0,1,1.93,4.43C9.19,20.63,9.09,20.68,9.07,20.61Z"/><path class="cls-8" d="M14.84,13.73c.05.11-.18.06-.13.18.21.48,1.21,3.52.28,4.19-.75.52-2-.11-2.35-.54l-1-1.08.52,1.34a6,6,0,0,1,.39,1.86,2.11,2.11,0,0,1-.53,1.63,1.21,1.21,0,0,1-1.5.21A3.61,3.61,0,0,1,9.32,20.2l-.87-1.46.34,1.66a5.07,5.07,0,0,1,.11,1.4,2.16,2.16,0,0,1-.39,1.25,1.06,1.06,0,0,1-1,.42,2.36,2.36,0,0,1-1.1-.76,18.94,18.94,0,0,1-1.7-2.41c-.27-.42-.54-.84-.83-1.25a3.54,3.54,0,0,0-1-1.07,4,4,0,0,1,.93,1.15c.25.42.49.86.72,1.3A16.77,16.77,0,0,0,6.05,23a2.77,2.77,0,0,0,1.29,1,1.54,1.54,0,0,0,1.58-.56,2.8,2.8,0,0,0,.53-1.54,6.27,6.27,0,0,0-.1-1.56l-.53.19a4.25,4.25,0,0,0,1.46,1.58,1.77,1.77,0,0,0,1.16.22,2,2,0,0,0,1-.55,2.67,2.67,0,0,0,.68-2.06,6.52,6.52,0,0,0-.47-2l-.44.26a2.66,2.66,0,0,0,3.06.72C16.81,17.48,15.18,14.29,14.84,13.73Z"/><path class="cls-8" d="M14.78,13.71a3.32,3.32,0,0,0,1,.48.82.82,0,0,0,.81-.17,1.62,1.62,0,0,0,.37-.86c.06-.35.11-.72.14-1.1a2.94,2.94,0,0,1,.24,1.13,1.64,1.64,0,0,1-.41,1.19,1.18,1.18,0,0,1-.63.29,1.15,1.15,0,0,1-.65-.13A1.85,1.85,0,0,1,14.78,13.71Z"/><path class="cls-2" d="M61.77,84.48c-.1.07-31.42-3.38-31.68-3.8-.36-.6,9-33.06,16.14-39.72C48,39.29,53,40,55,42.19,64.85,52.85,62.12,84.19,61.77,84.48Z"/><path class="cls-7" d="M46,41l-12,43.83-6.15-4.41s10-28.4,12.94-32.92A30.68,30.68,0,0,1,46,41Z"/><path class="cls-10" d="M46,41l-12,43.83-6.15-4.41s10-28.4,12.94-32.92A30.68,30.68,0,0,1,46,41Z"/><path class="cls-7" d="M53,40.64s-.47,16.87-.49,20.83-.91,25.6-.91,25.6l14.24-2.59s-2.59-21-3.5-25.82S57.66,42.07,53,40.64Z"/><path class="cls-10" d="M53,40.64s-.47,16.87-.49,20.83-.91,25.6-.91,25.6l14.24-2.59s-2.59-21-3.5-25.82S57.66,42.07,53,40.64Z"/><path class="cls-6" d="M56.42,50.13c8.28,8.48,19.26,17.55,25.36,16.25,5.52-1.17,13.45-7.64,22.11-14.62,1.72-1.38-9.76-14.19-11.44-12.53C89.13,42.5,82.33,50.84,79.79,51.76c-1.09.39-13.27-5.69-21.25-8.73C48.85,39.34,53.12,46.75,56.42,50.13Z"/><path class="cls-6" d="M111.49,45.86c-2.27,2.74-10.15,7.86-12.15,8.14s-8.81-11.12-8-13S100.4,30.4,104,29.67,113.84,43,111.49,45.86Z"/><path class="cls-6" d="M98.71,31.89c-.27,1.87,2.08,1.13,2.08,1.13s-3.13,1.88-2.68,3.91,3.26,1,3.46.9c-.17.1-3,1.9-2.33,3.89s3.35.6,3.52.5c-.13.15-1.76,2.08-.91,3.48,1.46,2.4,5.77-2.42,8.05-2.46,0,0,1.39,2.72,1.43,2.83s3.3-3.37,3.09-6.44a2,2,0,0,0-1.65-1.83,3.11,3.11,0,0,0,1-2.9c-.25-.81-1.77-1.14-1.77-1.14a2.47,2.47,0,0,0,.66-2.48A2.38,2.38,0,0,0,110.83,30a2.92,2.92,0,0,0-.15-2.56C109.11,25.43,99.32,27.91,98.71,31.89Z"/><path class="cls-8" d="M110.6,30a0,0,0,0,0,0-.05,17.55,17.55,0,0,0-9.94,3.15c-.09.06,0,.24.09.19A36,36,0,0,1,110.6,30Z"/><path class="cls-8" d="M112.08,33.73a0,0,0,0,0,0-.07,16.43,16.43,0,0,0-10.63,4.1c-.1.1-.1.28,0,.18C103.54,36.28,108.86,34.25,112.08,33.73Z"/><path class="cls-8" d="M102.62,42.48a22.57,22.57,0,0,1,10-4.69s0-.08,0-.08a14.77,14.77,0,0,0-6,1.49,10,10,0,0,0-4.12,3.18C102.49,42.44,102.56,42.54,102.62,42.48Z"/><path class="cls-8" d="M100.79,33a11.65,11.65,0,0,0-1.58,1.39,3.93,3.93,0,0,0-1,1.74,1.28,1.28,0,0,0,.14.9,1.82,1.82,0,0,0,.66.66,2.27,2.27,0,0,0,1.84,0l1.44-.53-1.17,1a6,6,0,0,0-1.34,1.55,2.22,2.22,0,0,0-.33,1.81,1.29,1.29,0,0,0,1.3,1,3.8,3.8,0,0,0,1.86-.61l1.58-.92L103,42.42a5.91,5.91,0,0,0-.83,1.27,2.49,2.49,0,0,0-.28,1.39,1.17,1.17,0,0,0,.78.94,2.58,2.58,0,0,0,1.43-.16,19.28,19.28,0,0,0,2.85-1.4c.47-.25.94-.51,1.43-.75a4,4,0,0,1,1.53-.47,4,4,0,0,0-1.46.61c-.46.26-.91.56-1.36.85a17.7,17.7,0,0,1-2.83,1.58,3.05,3.05,0,0,1-1.71.24,1.65,1.65,0,0,1-1.21-1.35,3,3,0,0,1,.29-1.72,6.3,6.3,0,0,1,.91-1.43l.39.46a4.46,4.46,0,0,1-2.19.73,1.88,1.88,0,0,1-1.21-.39,2.15,2.15,0,0,1-.68-1,2.82,2.82,0,0,1,.42-2.3,6.72,6.72,0,0,1,1.5-1.69l.27.48a2.74,2.74,0,0,1-2.27-.18,2.28,2.28,0,0,1-.77-.86,1.64,1.64,0,0,1-.13-1.15,4,4,0,0,1,1.22-1.8A9.55,9.55,0,0,1,100.79,33Z"/><path class="cls-6" d="M92.45,39.23s4.29-14.46,9.12-10c1.44,1.32,5.75,8.45,4.34,9.35-1.83,1.16-4.19-1.49-5.41-3.38,0,0-.76,5.12-4.49,5.65A3.74,3.74,0,0,1,92.45,39.23Z"/><path class="cls-8" d="M101.15,28.87a8.07,8.07,0,0,1,1.64,1.61,17.7,17.7,0,0,1,1.33,1.88,27.05,27.05,0,0,1,2.1,4.12,4.52,4.52,0,0,1,.3,1.19,1.71,1.71,0,0,1-.09.7,1.07,1.07,0,0,1-.19.34A1.13,1.13,0,0,1,106,39a1.9,1.9,0,0,1-1.32.25,3.63,3.63,0,0,1-1.18-.43,7.13,7.13,0,0,1-1.8-1.56,15.66,15.66,0,0,1-1.37-1.89l.49-.11a9.51,9.51,0,0,1-.49,1.7,8.88,8.88,0,0,1-.79,1.57,6.1,6.1,0,0,1-1.17,1.31,4.4,4.4,0,0,1-1.51.84,5.06,5.06,0,0,0,1.39-1,6.06,6.06,0,0,0,1-1.35,8.35,8.35,0,0,0,.67-1.53,9.36,9.36,0,0,0,.37-1.63l.08-.68.41.57a16,16,0,0,0,1.37,1.77,6.69,6.69,0,0,0,1.66,1.41,1.88,1.88,0,0,0,1.84.2c.46-.24.29-1.06.05-1.74a20.64,20.64,0,0,0-.87-2.07c-.32-.69-.65-1.38-1-2A14.61,14.61,0,0,0,101.15,28.87Z"/><path class="cls-7" d="M90.77,40.87S80.73,51.11,79.26,51c-2.43-.15-17.18-7.15-21.51-8.6s-9-.6-2.12,7.48C63.34,59,72,67.12,80.91,67.13c4.81,0,19.79-10.46,19.79-10.46Z"/><path class="cls-10" d="M90.77,40.87S80.73,51.11,79.26,51c-2.43-.15-17.18-7.15-21.51-8.6s-9-.6-2.12,7.48C63.34,59,72,67.12,80.91,67.13c4.81,0,19.79-10.46,19.79-10.46Z"/><path class="cls-8" d="M96.87,57.54a142.41,142.41,0,0,0-8-13.12c0-.05-.11,0-.07.06.7,1,4.79,8.35,8,13.12C96.82,57.66,96.9,57.6,96.87,57.54Z"/><path class="cls-8" d="M62,56.83c-.24-.22-.42-.52-.64-.76s-.47-.52-.71-.77l-1.39-1.49c-.92-1-1.9-1.94-2.85-2.91,0,0,0,0,0,0,.87,1,1.73,2.1,2.67,3.09l.06.06-.55-.37-1.15-.78a0,0,0,0,0,0,0,11.22,11.22,0,0,0,1.1.82c.19.14.39.26.59.38l.28.17,1.06,1.1.74.74c.25.24.56.44.78.7C62,56.92,62.07,56.86,62,56.83Z"/><path class="cls-6" d="M47,46.9c1.49.36,5.15-1.84,6.83-4,.11-.15.15-1.88.3-4,.09-1.28.23-2.7.45-4l-8.4.59a20.81,20.81,0,0,1,0,5.07,2.63,2.63,0,0,1-.15.52s0,.05,0,.08C45.62,42.22,44.68,46.33,47,46.9Z"/><path class="cls-8" d="M46,41.16a.64.64,0,0,0,0,.09,7.24,7.24,0,0,0,.82.18c4.6.67,6.66-4.73,7.19-6.41l-7.79.55a20.81,20.81,0,0,1,0,5.07A2.63,2.63,0,0,1,46,41.16Z"/><path class="cls-6" d="M58.3,25.33c.12,3-3.49,10.74-6,12-3.57,1.86-8.37.87-9.69-3.19s3.61-13.9,6.27-15C52.83,17.65,58.12,20.86,58.3,25.33Z"/><path class="cls-11" d="M51.53,27c-.21-.16-.37-.34-.56-.51a1.25,1.25,0,0,1-.47-.64.4.4,0,0,1,.25-.41,1,1,0,0,1,.94.3,1.47,1.47,0,0,1,.51.89A.42.42,0,0,1,51.53,27Z"/><path class="cls-11" d="M46.34,24.74c.26.06.5.08.76.12a1.22,1.22,0,0,0,.78,0,.39.39,0,0,0,.17-.45,1,1,0,0,0-.81-.55,1.39,1.39,0,0,0-1,.16A.42.42,0,0,0,46.34,24.74Z"/><path class="cls-8" d="M48.53,32.94a.85.85,0,0,1-.58.12,1.45,1.45,0,0,1-.51-.38s0,0,0,0a.79.79,0,0,0,.54.58.63.63,0,0,0,.62-.29S48.55,32.93,48.53,32.94Z"/><path class="cls-8" d="M48.65,31.13a2,2,0,0,1-1.54.28,2.3,2.3,0,0,1-.66-.25l-.12-.06-.1-.07a.16.16,0,0,1-.06-.17h0l0-.05h0l0,0c.17-.41.47-1,.47-1-.18,0-1.08,0-1-.18a29.81,29.81,0,0,1,3-5.13c0-.05.12,0,.09,0-.76,1.68-1.81,3.21-2.6,4.88a3.21,3.21,0,0,1,1,.11c.05,0-.61,1.15-.67,1.34v0a2.71,2.71,0,0,0,2.1.22C48.67,31.05,48.7,31.1,48.65,31.13Z"/><path class="cls-8" d="M46.78,31.06a2.32,2.32,0,0,0,.57,1,1,1,0,0,0,.56.28c.47.07.65-.31.71-.67a2.23,2.23,0,0,0,0-.59A3,3,0,0,1,46.78,31.06Z"/><path class="cls-12" d="M47.35,32.09a1,1,0,0,0,.56.28c.47.07.65-.31.71-.67A1.05,1.05,0,0,0,47.35,32.09Z"/><path class="cls-8" d="M50.9,28.26a.79.79,0,0,0,0-.45.58.58,0,0,0-.36-.34.53.53,0,0,0-.49.06,1.19,1.19,0,0,0-.3.34c0,.08-.07.17-.11.25a1.18,1.18,0,0,0-.06.56,1.58,1.58,0,0,1,.15-.38,3.28,3.28,0,0,1,.2-.31c.15-.2.35-.34.53-.27a.5.5,0,0,1,.27.52,4.48,4.48,0,0,1-.12.78A1.8,1.8,0,0,0,50.9,28.26Z"/><path class="cls-8" d="M45.81,25.92a.84.84,0,0,1,.35-.29.62.62,0,0,1,.5,0,.58.58,0,0,1,.29.41,1,1,0,0,1,0,.45,1.86,1.86,0,0,1-.1.25,1.26,1.26,0,0,1-.36.43,1.76,1.76,0,0,0,.17-.37,2.33,2.33,0,0,0,.08-.36c0-.25,0-.49-.17-.56s-.38,0-.56.16a3.78,3.78,0,0,0-.48.62A1.82,1.82,0,0,1,45.81,25.92Z"/><g class="cls-1"><path d="M50.63,24.06a7.15,7.15,0,0,1-.9-.27c-.3-.13-.56-.31-.86-.42a5.07,5.07,0,0,0-1.78-.28c-.06,0-.06,0,0,0a4.47,4.47,0,0,1,1.84.43,5.86,5.86,0,0,0,1.45.58,5.54,5.54,0,0,1,3.11,1.56s0,0,0,0A5.7,5.7,0,0,0,50.63,24.06Z"/><path d="M51,23.28a6.54,6.54,0,0,1-.86-.26c-.28-.12-.53-.29-.81-.4a5,5,0,0,0-1.69-.26c-.05,0-.05,0,0,0a4.35,4.35,0,0,1,1.74.41,5.24,5.24,0,0,0,1.37.55,5.25,5.25,0,0,1,2.95,1.49s0,0,0,0A5.29,5.29,0,0,0,51,23.28Z"/></g><path class="cls-11" d="M46.5,21.3c2.14,3,7.07,1.42,7.07,1.42A3.26,3.26,0,0,0,56,25.79s-1.16,5,.1,5.44c1.93.68,4.88-5.64,4.73-7.14a3.64,3.64,0,0,0-1.66-2.42,3.31,3.31,0,0,0-.63-2.37c-1-1.48-6-1.76-6-1.76a4.39,4.39,0,0,0-.59-2,1.27,1.27,0,0,0-1.78-.46,3,3,0,0,1,0,1.34c-.27,1.49-1.42,1.07-.95-.19a2,2,0,0,1,.91-1.15c-.26-1-1.09-1.64-1.81-1.4C47.06,14.14,44.73,18.85,46.5,21.3Z"/><path class="cls-13" d="M49.13,30.64a2.34,2.34,0,0,1-.71-3.22h0a2.33,2.33,0,1,1,1.23,3.47A2.49,2.49,0,0,1,49.13,30.64Zm-.45-3.05A2,2,0,1,0,51.46,27a1.88,1.88,0,0,0-.45-.22A2,2,0,0,0,48.68,27.59Z"/><path class="cls-13" d="M44.68,28.55a2.1,2.1,0,0,1-.59-2.84,2.87,2.87,0,0,1,1.13-1.27,1.54,1.54,0,0,1,1.42-.11,1.52,1.52,0,0,1,.83,1.16,2.71,2.71,0,0,1-.24,1.68,2.17,2.17,0,0,1-2.41,1.44Zm.7-3.83a2.52,2.52,0,0,0-1,1.12c-.46,1-.27,2.1.44,2.43S46.48,28.05,47,27a2.47,2.47,0,0,0,.22-1.49,1.21,1.21,0,0,0-.66-.93l-.11-.05A1.27,1.27,0,0,0,45.38,24.72Z"/><path class="cls-13" d="M48.38,27.7l.28-.13c-.2-.42-.77-1.12-1.54-.81l.12.29C47.93,26.77,48.36,27.66,48.38,27.7Z"/><path class="cls-13" d="M57.52,32.62h.31c0-.15-.08-1.43-.66-1.83S52.68,29,52.52,29l-.11.29c1.13.41,4.17,1.52,4.59,1.8S57.5,32.27,57.52,32.62Z"/><path class="cls-6" d="M54.83,31.48s2.57-2.09,3.56-1.1-1.44,4.37-3,4.49a1.47,1.47,0,0,1-1.67-1.3Z"/><path class="cls-8" d="M57.67,31.33s0,0,0,0a3.68,3.68,0,0,0-2.48,1.71.8.8,0,0,1,1.22.11,0,0,0,0,1,0,.05.9.9,0,0,0-1,0,4.5,4.5,0,0,0-.67.64c-.08.08-.22,0-.16-.11l0,0C54.84,32.54,56.3,31.08,57.67,31.33Z"/><path class="cls-2" d="M45.91,41l1.8,5,6.39-6,1.66,2.08s-6.4,9.71-6.42,9.26L47.47,47l-3.06,2.85.53-7.44Z"/><path class="cls-8" d="M44.46,46.16c.13-1.23.23-2.46.41-3.68,0,0,.08-.06.09,0,.2,1.2-.32,5.88-.36,7l0,0c.12-.12,2.83-2.5,2.85-2.46.42.69,1.79,3.86,1.88,4.14,1-1.54,4.88-7.14,6.07-8.59,0,0,.1,0,.07,0-.91,1.64-6,9.19-6.1,9.16a47.22,47.22,0,0,1-2-4.59,33.44,33.44,0,0,1-3.2,3A39.08,39.08,0,0,1,44.46,46.16Z"/></g></g></svg>